<mxfile host="app.diagrams.net" agent="Mozilla/5.0 (Macintosh; Intel Mac OS X 10_15_7) AppleWebKit/537.36 (KHTML, like Gecko) Chrome/137.0.0.0 Safari/537.36" version="28.0.4">
  <diagram id="waZhiC2e9BwgDrbTMNup" name="Page-2">
    <mxGraphModel dx="1966" dy="929" grid="0" gridSize="10" guides="1" tooltips="1" connect="1" arrows="1" fold="1" page="0" pageScale="1" pageWidth="827" pageHeight="1169" math="0" shadow="0" adaptiveColors="none">
      <root>
        <mxCell id="0" />
        <mxCell id="1" parent="0" />
        <mxCell id="IlMm2bm1_j7ZGz1Ir1Hr-46" style="edgeStyle=orthogonalEdgeStyle;rounded=0;orthogonalLoop=1;jettySize=auto;html=1;entryX=0;entryY=0.5;entryDx=0;entryDy=0;flowAnimation=1;" parent="1" target="IlMm2bm1_j7ZGz1Ir1Hr-11" edge="1">
          <mxGeometry relative="1" as="geometry">
            <mxPoint x="-83" y="372" as="sourcePoint" />
          </mxGeometry>
        </mxCell>
        <mxCell id="IlMm2bm1_j7ZGz1Ir1Hr-48" style="edgeStyle=orthogonalEdgeStyle;rounded=0;orthogonalLoop=1;jettySize=auto;html=1;entryX=0;entryY=0.5;entryDx=0;entryDy=0;flowAnimation=1;" parent="1" target="IlMm2bm1_j7ZGz1Ir1Hr-39" edge="1">
          <mxGeometry relative="1" as="geometry">
            <mxPoint x="-83" y="386" as="sourcePoint" />
            <Array as="points">
              <mxPoint x="1" y="386" />
              <mxPoint x="1" y="600" />
            </Array>
          </mxGeometry>
        </mxCell>
        <mxCell id="IlMm2bm1_j7ZGz1Ir1Hr-1" value="Developer" style="shape=umlActor;verticalLabelPosition=bottom;verticalAlign=top;html=1;outlineConnect=0;gradientColor=none;" parent="1" vertex="1">
          <mxGeometry x="-117" y="356" width="27" height="60" as="geometry" />
        </mxCell>
        <mxCell id="IlMm2bm1_j7ZGz1Ir1Hr-14" value="" style="edgeStyle=orthogonalEdgeStyle;rounded=0;orthogonalLoop=1;jettySize=auto;html=1;flowAnimation=1;" parent="1" source="IlMm2bm1_j7ZGz1Ir1Hr-10" target="IlMm2bm1_j7ZGz1Ir1Hr-13" edge="1">
          <mxGeometry relative="1" as="geometry" />
        </mxCell>
        <mxCell id="IlMm2bm1_j7ZGz1Ir1Hr-10" value="GitHub ActionsÂ " style="shape=image;verticalLabelPosition=bottom;labelBackgroundColor=default;verticalAlign=top;aspect=fixed;imageAspect=0;image=data:image/png,iVBORw0KGgoAAAANSUhEUgAAAgAAAAIACAYAAAD0eNT6AAAAAXNSR0IArs4c6QAAAERlWElmTU0AKgAAAAgAAYdpAAQAAAABAAAAGgAAAAAAA6ABAAMAAAABAAEAAKACAAQAAAABAAACAKADAAQAAAABAAACAAAAAAAL+LWFAABAAElEQVR4AeydCZxcRbX/T93uWRJiXgwR+YdkZowhICAgIrJJQJBVFhFk31UEnmCAZGYSlUFeMjMJsqkgILLILouAKOsDIgIiIPIwhhDizCRElhhiDMks3bf+v+rMhJlM90x331t36f71hzDdt+89depbp2+dW3XqlBK+AiVQ16SrZaRsrbVMUmmZLI5sql35mHJkk7TIqAT+QaFq0TJG45gS2cR1ZZTj4Lgrna4jaxyRD10tH0LGahz/UClZg3P+4yhZi2NrcN2/IaNNubK4MyGL352u3gu0kiyMBEiABEgg8gTQv/Bli0DtXL2TpGVHrWRHdNo7oFPfGh3+ZrbKyyUXzsEalLvQ0bJAlPwFjsSrq7vklZVNanWua3icBEiABEigtAnQAfChfcc36ZHJatkJHetOeArfCZ3tDhC7ow+irYqAY7AEzsmrKOTlhJZX1iXlFY4WWEVO4SRAAiQQGQJ0AIpoCjOMn66WAxxXDkAHOhXD8NsUISaSl7giyzGN8AJGCx7uqZAHl1+oVkRSUSpFAiRAAiTgiQAdgDzxTWzV43HqEZhXPwQd/sF5Xhb70zBK8BxiDH6POIX7OmaqBbGvECtAAiRAAiSQIUAHYAhDmHyVHt3zoRyFp/zjMX+/Dzp+TOWX8cuV18DhtnRCbl1ar5aXMQlWnQRIgARiT4AOQJYmrGvVRyBY7lR0dodn+ZqHDAEt87ES4TanS25pa1KdhEICJEACJBAvAnQAettr/KV6XGVKvomO7Sw859fEqxnD09ZNy0osYbwJcQM/62hUS8LThCWTAAmQAAkUQqDsHYDaFr27FjkL0fsnFgKO5w4mgBGBJxEvcHV7vbpv8Lc8QgIkQAIkECUCZekAmCh+XSXHY27/nMyyvSi1SGno0o78B1fLCLmubZpaVRpVYi1IgARIoLQIlJUDgI5/DDr+CzFcfZaTkLGl1ZSRrc11yI/Q3Nao2iKrIRUjARIggTIkUBYOgHnil0o5VxLSiDYeU4btHG6VXenGaMtPESp4CQIGOSIQbmuwdBIgARLIEChtB6BJO3VVcjLy51+C9XsT2OYhE8DeBYgTmIOVA1dy5UDIbcHiSYAEyp5AyToAE1v0XkrLNaWUpa9krNWVDlfJrI5OuV2akFqJLxIgARIggcAJlJwDsMUcPSWZkCtRsQMDp8kCCyXwakrkzGX16sVCL+T5JEACJEAC3giUjAOQydq3RlpUAuv4+YoVAQwB3IOtkKe9Xa+WxUpxKksCJEACMSZQEg5AXYs+Fgl8rkQCn8C32o1x20dKdbNlMaZrZrWtk59yWiBSTUNlSIAESpRArB0As0EPtrG9EWl79y/R9im7amE04CWdktOWzlKvl13lWWESIAESCJBAbDe3qWvW30H42Jvs/AO0lgCKgkHunEjK/9XM1T8MoDgWQQIkQAJlSyB2IwBmrj/1ofwKw/2HlW2rlUnFkbDp2ZSS4xgbUCYNzmqSAAkESiBWDkBNi94TqXt/DUKbB0qJhYVHALkDECB48tIG9UB4SrBkEiABEig9ArFxAOrm6IuRya8kh4WxGdFbMK02BDJ+gDnwf2MY/N/awV+TOEfJSvMX6XRXIZveJjjvv3BsDGIfRuP9xzEFMgZ598foBD6nZRw249kOoyPVpWeq2FegXp1ZgvVilUiABEggFAKRdwDGN+mRFSPkXiga63X92pUV6OgXYevcN/D+DUS8v4EOe2FbtyxG1DuWw/v32qJVT0g4sjXKmZJwZSs4E1MQL7ENnIsJKDe2cR8g9EJ3Qg5dfqFa4R8tSiIBEiCB8iQQaQegpllPwpD/7/GUOyVuzYNlbUvQ2T+Dp/annbTMj8JmOJ9o0qNGVspe0GsqeO6NtLw7wSFIxoktuL6DXA+HtM9Qr8RJb+pKAiRAAlEjEFkHYGKz3j8hmO93MkPdUeM2SB8zjA+YT6JT/QM61SfaZqh3Bp0UsQNmdKWySvaCzlPhqOyNUYNdI6ZiTnWg80kdDerWnCfwCxIgARIggSEJRNIBqGvV38OT3ryoP51CxwWIS7jLTcvtyxrV4iFJx+DLTDbFD+UoOAPHIx5hatT5Y2SopW2tzGLioBgYF1UkARKIHIFoOQDYva92hPwCSp0WOVIfKdSODv8OJyl34Sn/1Y8Ol9a7T87Tm1Wn5BsY2TgONdsVzkAkYwfghP0Ouwt+va0Jmw3zRQIkQAIkkDeByDgAmfX9a+UhPNXtlbf2AZ2IDn8lur/bAOvO9gb1XEDFRqaY8S26JqnhCCg5GTEZ20RGsY8UeRW6HRSHaZePVOY7EiABEgiXQCQcgAmX6bHJLnkKnez24eIYWDqi6N/GkrvL0p3y8+VNau3Ab8vzU+0cfTDaqRHLDfeMFAFsMdzjyB5MGhSpVqEyJEACESYQugNQN1dvjjXuz+AJLjqR/loWIQtd67ix8quXz1Q9EW6/0FRDnMaucJBmYYrg4KhMD2CZ43JMCUwthXiM0BqWBZMACZQNgVAdAOTzrwPpZ/BEWRMF4uhAXoIerR3r5D4GluXXIjVz9DZmRABBg8dGIWgQTsmKtCv7LpulXsuvBjyLBEiABMqTQGgOwBZz9JQKJX9A5xH+Fr6uvIcRiPPaGtSd5WkG3muNTI1boy2vBce9vEvzKMGV1ciMuA9zBXjkyMtJgARKmkAoDkAmU50rf8YTY6g5/TFcnMJc9lVrO+Wi95vUmpJu6YAqV9uijwfTH6O4UNvWjAQgXfIeS2aqRQFVncWQAAmQQKwIBO4AjL9Uj0v2yJ/Q+U8KkxQ6/+eQY/+MtplqYZh6lGLZY5v06NFVcgmmVM4Oc1oA5S/HRkJfZGBgKVoZ60QCJOCVQKAOgOkYRlXJ8+gUwltKhuF+RPZfwCxyXk1n+OsnzNbbJxNyPaYFdhn+bDtnwNFb4iRkDy4RtMOXUkmABOJLIDAHoK5JV7sjkCZXZOewcOm0XFMxShoWn6tWh6VDOZZb26xPx6qKeeiIx4ZRfzgBCyo3kd3Y7mHQZ5kkQAJRJRCMA7A+w9/DKCyUHf0wFLwCAWrHdUxXT0S1IUpdr8xyTy33o567hlFXOCDPjvu4fJnLOsOgzzJJgASiSCCQ9K411XJzWJ2/ufF3ObItO/9wzc8Mwbetkz0QnDcbT+TwyYJ9mcRF/1op9wRbKksjARIggegSsD4CUDNX/xDBdheHgQBz/Rd1zFA/CqNslpmbQM08vZ+TktvCWAIKh/AypHO+ILd2/IYESIAEyoOAVQcgs6WvI48GjhKBftjR7mvlmLc/cNZFFpjZbCgt95on8yJFeLnsa2316jdeBPBaEiABEog7AWsOwMRWPT4h8jcAGhMoJC2PpSrluGXnq5WBlsvCCidgYkOqZSaeyi8KdLkgEgV1K/ns8gbVUbjSvIIESIAESoOAHQfA3Ngr5U8qEWzEv4nyb5+pzi6NpimfWiAltAkOvR9TAtUB1vrVTcfILgwKDJA4iyIBEogUAStBgHUjZXaQnX8mqCwt9ez8I2VbeSvT1qgeQerePTLbLud9lecTd0RQ4KWepVAACZAACcSUgO8jAHia2xsh3k9iSNeKczGIsyvdriMndNQrRngPghOvAzXNehKMxmwLXROY5q4cZByQwMpjQSRAAiQQEQK+OgCZwK6U/E05Mi6I+uHJfy2C/Q5a2qDmB1Eey7BPIJMqOiXPOCqwbJGrkC5426X1arn92rEEEiABEogOAf+e0jHvX22iugPq/LGS/D04ALux84+OMfmhyfIL1Yp1nfJFbC8clFM3BpsG3S+wXz/0pwwSIAESiAsB3256dZVyUVBLusxcsVstu3HP97iYWWF6mp0ZsTXzVCQN+m1hVxZ5NvYqqKmU2UVezctIgARIIJYEfHEAaufqnZB05/uBEMASLlfLPh3T1JJAymMhoRFQXXI0RgJeDEIB7FPQYOw4iLJYBgmQAAlEgYAvDgCW3/0qkKA/BPwhQOwAPvlHwXTs69DWpDqTI+UrcAIW2S9NRKXlRk4FBEGaZZAACUSBgGcHoGaOPhedv/Xtfc1SPwT8HYkMbi9EARx1CIZAZgc/R6ZiZYn9ID1Htp9YLd8LpmYshQRIgATCJeBpFYCJ+q9KyVtwAEbZrgamGE5BXv9bbJdD+dEksMUcPaUiIX+CdlYzS5qVJV1J+dS709V70SRBrUiABEjAHwJJL2JG9MhPJGG/85e0/KhjZrQ7/wmtehfA3B26fjzDNCEfIMXtmwhk+wd0X+CFM68VeXumWlTXqg8Ci+dt8oAzO7LKlZ+hjKNtlkPZJEACJBA2gaJHADI7urnyuO0KpLXch6V+X7ddTqHyMx1+WvZGTMK+CErcfbhREDOEjV0RX0c5NyLC/c5Cy+P56wnUtujjsdrkNts8kFzqK9xC2jZlyicBEgiTQHEOQJNO1lTJG+j0JllWvv3DdbKdWRZmuZz8xGOteF2VnIyTL/aUrc6VDgS2/Sw5Sn6emePOr3Se1UugtlX/EoZ7mk0gmApY0tElW0mTStksh7JJgARIICwCRQUBYge3hgA6f8Gd9xtR6fzx5HkIOv+/oeO/0VPnb1rapLpNSGv3h/LPmhZ9VV2TtjqvHZZx2SpXrZOzkQhqoS35Rq6xbwQEzrBZBmWTAAmQQJgECh4B2KJVT6hw5U10YrZ3bpuGiP8rwoRjyh7bpEePrpTr0WF/w5YuiBNYIUrOa29Qt9sqo9TkYvXJNmD2Z3TUI63VzZXOHke2fLteLbNWBgWTAAmQQEgECh4BwDx2k+3O32SAi0LnP2G23n5UlfzFZudv2t2kTzbz2nUt+tHxLbomJFuIVbEmsBLe63etKg0nN2PvVguhcBIgARIIh0BBIwDY6a8Onf8/bKqKYLllTqV8tm2aWmWznOFkY575SOUi2Mz+SMdAVfDUiSfbixEo2DLwC37KRgDtdDuM+Lhs3/l1rFtL7fIG1eGXPMohARIggSgQKHQEoMmm0plkPyJfC7vz/1SrPgyjEHcF3vkbuMbhUNIMZ+uvTE07vLUhHuB0nNU+/JnFn1GpZFbxV/NKEiABEogmgbxHAIJ4+tcis9vrVTB7CuRoj7rZekdJYtg/Ki9XruruksblTWptVFSKmh5BtBlHAaLW6tSHBEjAK4G8RwDStjf7wdK4sDv/yVfp0Vj/fa9XqL5e78i5FVWyqHaOPthXuSUkrG2WehX7UVxjs0oIfG2wKZ+ySYAESCBoAnk5ACblr9JyilXlHDnPqvw8hPd8KLcFsbwxD1UGnIIgwS1UQh6uadW/Nm0x4Et+yBCoGJXpoK3FjSBI8zQu16SxkQAJlBKBvByA6pSYDX88pQ0eChqG/h9B1P9vhjrH9nc1c/XJ6Gi/arscL/LRWEeNSMubE1v12V7klOK1JqES4jYusFY3xGboavlva/IpmARIgAQCJjBsDACeeqrdSnkb+6WPtaKb2eJXZKu2RtVmRX4+Qtdn+PsHAvDitATvBew7cFrbTGU1IU4++KJ0DqZK/ozRkp2t6OTKe5uOlQkvn6l6rMinUBIgARIIkMCwIwDpEXK6tc7fVFRLS6idP1SoqZQjY9b5G3K7Ij/B3+vm6IvNB756CSTlTGssHNlsxUo5yZp8CiYBEiCBAAkM6wDghPOt6WNy4ndLszX5+Qp25Dv5nhq58xLyQyQQemNii94rcrqFoFD7DPUKir3OVtFaWZxmsKU05ZIACZBAFgJDTgHY3vHPVXJKx4xwt/nNpDYWWZqFTewOYefEG6pGyvnlvsGQCZQc4cq7FhtwN8SsvGBRPkWTAAmQgHUCQ44AqLTF4VQ8/XeslVut13CYArC8K9KBf8OoP+DrhJIzUh/KmxgROHbAF2X24d3p6j1s0fwTa9V2YzxiZA0KBZMACcSNQE4HILP0T8lRFivUjK1Wkfk35JeWfULWwN/iMU+NTIJ3IEXu783ohr/C4yMNeSvmWtT2mLrLuYOjRb4UTQIkEACBnA5AZVq+aat89PorEE19gy35hcjFNMR2hZwfl3Mxt3NgwkWQYKv+nmCVQ1z09ktPs4Mflpfe6Je8AXJMuuZuOXnAMX4gARIggZgRyNkxIPHPGbbqorU0R2UpFfIbbGOrnmHLRd1GQYfLayvlT3VzkeK4zF6JtFjbUAlOLFcDlJk9sbokUGoEsjoAprOwmBFvVaJTri41kFGuj1kX76blz1gpMM/kdYiyrn7qtmSmWoRcCXf7KbNPFn44O5fzFEsfB/4lARKIL4GsDgDyqlub+0ek+ry2JtUZX2R5aO7K6jzOCvQUk8kRQYIXSpW8YVZ3BFp4iIXB3i6xVXxFWo63JZtySYAESMA2gawOAOaPrQxvYrvfNVim9lPblQpbPtaKn4WOZ5a4Ej1HB9kOHVceR5Dg7eMv1ePCZmW7/KWz1OtohwdtlIMYg6NtyKVMEiABEgiCwCAHILMHvb2UuHeWwxp15KTvXtqg5qABPwNn4OkgGrLQMuDkHZfsljdqm/XphV4bt/PTIj+zobOZWuE0gA2ylEkCJBAEgUEOAOZMj7RVMDrDX9mSHSm5DhIL42VSHCMz3T5Yk36SWfkQKR2hjEnxjA2QbkDegGfqmnVd1PTzS5+lXfIERgHe80tefzkV2KCp/2e+JwESIIG4EBjkAKCTPsiG8ugAl+GpeL4N2VGX2dGgbnXWyZbohG6OpK5K9oJef69t0d///LUafVqJvZBvAss9b7dRKzh3JZNIygYfyiQBEogugQEOwITL9FhHyU421IXc0LP+2ahXvjIR+LgKIwKnosP4EjZAWpTvdYGdh7Xt2PP+kvdXyqsTWvUugZUbUEFwbG+zUpSWqeOb9EgrsimUBEiABCwSGOAAJLrkCGtlpSL69GutwtkFYzTg2U0/juRDafkRRgTMVsiRepm8CAgSfB7b6l49+So9OlLKeVBmab16CUGoiz2IyHppZnVFtXwl65c8SAIkQAIRJjDAAcAw6SFWdHXlNe5b/xFZkwQJPC5KiWyL0YDITYugU3MQ4HZW9zpMC7RqazEhHxEJ6F3CTgwKllceHFANWAwJkAAJ+EZggAOQ0GJlfTgy/5VH8F+BzbKsUS1ua1BTsWrgDCTqWVng5dZPh3GMx2qBe7FS4CEkh9rceoG2C6iwNA2lZW/bqlM+CZAACfhNYIMDUDNHb4PYdd+HfDHs6nZWyC1+K15K8tob1S9TlbIV1pXfEcV6YaXAVzFlYZYM/nec9xXomKaWgK//2/gqmWLiZ6LYdtSJBEiABHIR2OAAYAe5PXOd5Om4I6+Y7Vk9ySiDi5dfqFa016vjERewD/51RK7KcA7hCPykZoT8aeJsHdsNlJCg6SEbbCt6LP1+bChLmSRAAiQAAhscALzZ3QYRDP8/bUNuqcrESoGnpUu2gkPWgtEThAlE6wU72TnhyMsYMWqO474C0P9pG0SxymA3G3IpkwRIgARsEdjgAKDDsXIDs3XDtQUkCnLNXgltM1QjYgM+h/wJL0VBpwE6OFKJJEINbpX8DQmE9h7wXcQ/tHdiCsBGimbXjgMdcZxUjwRIIMYEMg5AZv4S85g26vGfTvmDDbmRlom4Bz/0M3nsO+rVF5DK9hyzj4IfMv2UgdUCkzCG9BScgJswGjDGT9nWZCEpEJzd+X7LR36Hnf2WSXkkQAIkYJNAxgFI9MgONgrBTfGVlU1qtQ3ZkZbZmwrYLx2xhv1qPHFvCa/iHr9k+irHkVPcEfJmTYs+0Ve5loQh2NJ3pxTO0MhJc7QVJ9oSBoolARIocwIZBwBLvaw4AJD7dJnz9a36mBJ4B6MBR2Or5kPgCCzzTbBPgmBI45Dt8VfYTOqp8S26xiexVsTAAXjahuB0Agme+CIBEiCBmBDIOAC4IW5vQ190VPNtyC1nme0z1e9S67BkUMtlUQwSVFgTn9Ty97o5ekZUlwx2dMpzNuIAVNqOI13O9s66kwAJ2COQcQCwxvuzfhdh1v+nO+Vxv+VSnsjyJrW2vUFdAMafB49Xo8bEDIdLQlrrquX5ia16fNT0k/WbA/3Rd72SdAB8Z0qBJEAC1ghkHABsAmNj6LLNdFTWNI+yYJ+CAIer4rJZ6rW2evU5nDcNzkD0WCvZBU/F/4d0wvsMV5egv4fhv+x7ma58xneZFEgCJEAClgg4W7TqCYjkrvZbPuaDF/stMzbyfA4CHK7ecAKu0I5siWWDvx3u3KC/R/DiWOj1GLYaPj7osocqDwGqbw31fTHfQeakYq7jNSRAAiQQBgEH+f/rbBSM+f83bMilzOwEsFJgOVIKH4pO6Bic8U72s8I5iimBJEaZbsukEg5HhUGlInHPwkEHPR4w9Yx6AKTHKvJyEiCBEiJgnlXtPLVY2Hq1hLhbqwq2G747OUK2giPwExOHYa2gIgQj2PTKCa16lyIu9f8SSyNUCbHjUPsPgBJJgATKnYDjpOTTNiDYeMKyoacVmSF3vIvPVavhCJzrOrIbnIAFVupYhFA8IeM/uXfyVdr3TacKVceMmICN78mVsF9CXaG68HwSIAESCIOAGQGos1GwkjKOAbABtAiZy+rVix2Nalt0dA02lr0VoRLMTSZ0r5X/KeZav6+BN2IjTqXObz0pjwRIgARsEMD9WHzf5x0dTgodzxIbCsdCZsBBgMMxQVu0ditsMKTlseHODeR7LedMmK2t5J4oRH/Mj/juAKiU/7+nQurEc0mABEggXwIOboLj8j053/PgVfh+Y823bJ6XncDyBtXR1qAOgBNwHEYDQt2e2UwFYEfB2dk1DfBo2n87xcjXpgHWgEWRAAmQQNEEHEf77wDoRLSi0IumU4IXwgm4M7mJbImqXYeRmtCCBBEQeHBmCWqIjLFE8Z9+Fw/bpwPgN1TKIwESsELAjACM9Vsykr+U3wZAfkO0KM8ECSJ3wJnYFW8qXADfl8Plo7oZBUi68p18zrV1jqtkld+yOQLgN1HKIwESsEXAwY14lN/CcWOlA+A3VAvysFLg2U3HyvbYV+AHcAQ6LRQxpEiMAnxtyBMsf4l9C3xfBQCOvjvUljFQPAmQQJkSMEGAvr+w4/p/fBcaJ4EhDq0XiunlM1UP9hX4H0wF7YClm08Xer2X8+F8blPTrCd5keHlWmRP9N1RtTGi5qWOvJYESIAEchGw4gBg/fmHuQosi+MRWwWQD/MlM9Wi9hlqH4zenILUvSvyucaPc2CAe/khpxgZmP/yfQTAjKjVNWnfU2sXUz9eQwIkQAJDEbDiAEDov4cqlN9Fl0DHDHVLTwU2tdFySxBaYtTB950o89U7lbK0gdJIGZOvDjyPBEiABMIiYMUBQN5335+swgJUjuUuv1CtwGqBUzBH/2WsFFhikwHiD7a2KX8o2W7C/yBAU56bYhzAUNz5HQmQQDQIWHEAMITs+9xqNHCVlxbt9eopp0u2hSMwG8Ft3TZqD9mhBc05lXYcVcQW+J5bwwZ7yiQBEihvAlYcAIwARG9v+iDbOUZBgMNhaWtSnXAEvo8pgR0wGvDccOcX+j2WzYW2L8Cy89XKQvXN8/yP53keTyMBEiCB0Ag4Jm2v36UjCLDSb5mxkhfDIMDh+PZgZHu4c+L2va1gPUcJNgXkiwRIgASiTSCJIQDjACT9VBPzur7nFvBTP8rKn0CmkxwpF0lazsdOPjYcO9+T8eRbu3WbyOgRNtyadPA5FfKtM88jARIggT4CpuM3c7u+LltKpMvcASiRKYC6Zn0gbONaDP/XmG38bLwgNrAlhxvrPyIlI23US1fYiZfYWH9+JgESIAEvBJKulpSFe/smXpSK/bUxnwKom6s3RyDnT5Aq+CjbbYFlgKFtHJVyZbQZAvP9xREA35FSIAmQgP8EHMxW+p4CFlHQnALwv60CkVjXqr/npuVNBHJa7/xNhbAK4C+BVCxLIYmEHTtFMiUrKyayVIGHSIAESKBoAkmEdq3CMOj4oiVkuRCdR3k7ADGcApjQqnfB5jzXozm3Rza7wF5IQfxsYIVtVBBGv0YlsAzB75eTtrO80G89KY8ESKC8CZgYAN+DsPBU97GyxhqjKYCxTXr0qGr5HziC58ARDLDrx7ICVxZ0NKq2sGxFOXaWIDpJsbW8MCxULJcESKAECSTxAOT7zQqbAZV3DEBMRgBq5uijnATm+kU2x3x/4C90wPcHXmj/AhWCAOGt+v1qm6He8Vsm5ZEACZCA3wSSCMJa5fe9H3kAfJ1S8LvS1uUF/CRdaH3Gt+gaDP38EuvV9y30Wr/Ox9O/i1iRq/2SV4wcbAY03oLj4/uIWjF14zUkQAIkMBwBM+Tr/zIsN7z87sNVOJDvIzwCUDNX/7BSSXuYnb9pA4w8PLS0Xi0PpD1yFALnd0qOr4o/rOW94i/mlSRAAiQQHIEkhuvf9jtvmdkS9ZPz9GbvTle8GQbXlkOWNLFF74X0dNdjyNv/Tm/IkrN/iZH3H2X/JsCjWrb0ewQA9aLNB9iELIoESKB4AknMwy4r/vLcV1alMx1Ned4MIzQFMOEyPTbZLZejozs5d2sF/s117TPUK4GXulGBGAHY2u/pLzgAbRsVw48kQAIkEEkCmAa14wCoiDxpRpJ6QErVNOtvo/P/R5Q6fyQYehsJhesDQpCzmLrL9RjMf/m+ax9+UEtyFsovSIAESCBCBJJYh73M72FQUz/sB7BlhOpZVqrUzdFbY0HfzWjXXaJUcRP4hxwR32ibpkIPlEt1yxSzBtb3l4LDxRcJkAAJxICA02ZpHTYivCMx1xxKG4QUBGg27sHSvmbEdPw9ap2/aQc4m43tDeq5UNpko0ITWiZvdMiXj2nFEQBfQFIICZCAdQKZxC8mIYvfJWEKYGu/ZVJebgK1c/TBUiVvILq+IfdZoX4zrW2mmhuqBv0KR/DrVv0++vYWaYA5BeAbTQoiARKwSSDjAGBY1ncHACsBtrG137pNIHGTPbFVj0eE/70qIQ9j2L8mcvq70pnWckRbvboiSrqlHdnOd31cWf12vbISVOu7rhRIAiRQ9gTWT4NqecNKHMAI2Q2Enyo7ykGsAmjSTt0IORejN5eYZZeRZOxKB/LtH7S0UfnuYHqtL0YA9vZ7+SsCal/3qhevJwESIIGgCPSNAFi5cak0brLl+LIcA2A27qmryuyid3lUO3889d8g1bJDx8zodf4TZ+vtMFUy1m/TxLTXX/2WSXkkQAIkYItAZgQAT5Gv4Ybo/8spUwfA0giA2bjnY5XSgqV0Zwa9cU++xoF18G9hbf2JSxvUC/leE/R5cJr2tlGmm+AIgA2ulEkCJGCHQGYEoKNbFsIJWOt3ERj+3V0wVO233HKUV9eijx09Qt7AXP9Z6MCixxRz/Vj6+YNxY+QzmO+PbOefsR0lU23YEEYAXrMhlzJJgARIwAaB9TEATcp1WrW5ee3qZyHoqJITq2XPpSLz/ZRbTrLMxj2VIr9CjMZeUa03HL0nU0pOX96gOtqjqmQ/vTCC8mU4Ur6+4EC7Tpe85KtQCiMBEiABiwTWOwAoQKflL7gp+uoAGL2Ranhv/KEDYGAU8Pr8tbri/X9Lo5OWRjzvVxdwaWCnotN7B5sKTetoUHcGVqjHgmzN/8PZfa2tSXV6VI+XkwAJkEBgBDYMJeuk2Bm2daP75GqNsscgwNpWvc+/PpDXkTjn4qh2/nAYr1nTJVu1xajzN+2NjnpvG+2OUZA/2JBLmSRAAiRgi8CGEQA8ac63MbOMTuxLJu96FNK/2oI4SG6Rc/Rm4x6nW640QXQ2lmUO0rOYAwgYFVdOaZ+lXi3m8rCvQc6LQ23ogDaz40DbUJYySYAESAAENowAmJTAWMe83HcqjlS6nfIN3+WWkkAESpqNe5xOeRND6idGsmpIcgO9prV1yefaYtr5my2q8aT+ZRt8EQAYiRTHNupGmSRAAqVJYMMIgKkentafwJPnyX5XFbEFx0HmdX7Ljay8AqYAkLt/GzC/HkPTu0e2PiJ3ImnOtLYZ6p0I6zisaiNcORYu7wCbH/aiPE6A47ysw9KeGnkUz1NIgARIoCgCA2+GGln7bDgAWvY2KWuX1iv/RxiKqnb4F41v0iMT1XIxnvgvDF+bHBogkx++OROjQ4/kOCNuh40j6vsLw2i/810oBZIACZCAZQIbpgAy5STE3o1e4+mrXF7DxABMbNb7J0fIm4modv6udMMRbBET5Fcinb9xQGF+u1oywd9bkkuxJEACJGCNwIARADPEW9OqX4JXsLPfJSJI6gTIvMxvuXGSZzohdPpXi5bDo6o3lvY9hzS+p709Qy2Kqo7F6IXprdPh1Pj+Aq8U1v/bc5x915gCSYAESGA9gYEjADiGYKYHbMDBUPdONZfrSTZkR14mgvywY9/52IDmjah2/kiOswL/zsBc9h5vzyytzt/YB7IUnmbFTpQ8w/X/VshSKAmQgGUCgxyAdFoetFWms05OsSU7UnL7BQHWtepda6rk//Dk/2ME+kVy1z6zcU+6SrZqb1S/jBRHn5SZMFtvD/Z2nE/X3u/Fp+pTDAmQAAlkJTDIAVg2S72GYc0lWc/2elDJqV5FxOV6s3FP7Rx9NfR9Hp3PNpHUW8sidP5TsXHPN5edr1ZGUkcflMJGV9/0QUxWEToh92T9ggdJgARIIOIEBjkAGX213G1Fb0dqauZq35cZWtHVg1B0+IeOrpI3sfzxLA9i7F6qpRFZ/LZC5z/fbkHhSh9/qR6HaZczbGiBaYVnubLFBlnKJAESCIJAVgcA25reb6twx5VZtmQXIxejHb7vgphZSunIZsXoY/sas3FPt5ZadP4ttsuKgvyKtHwPDtlIG7ogq+C9NuRSJgmQAAkEQSCrA7CsXr2IdK8dVhRQMgXz4kdYkV2EUABYU8RlsbsEyWqWu2k5Ghv37Gd27YtdBYpQ2ORaQGDjeUVcOuwlcBzddY7cPuyJPIEESIAEIkogqwNgdMWTorWbGzqjyIwCuEqWRbRtfFMLbXnFmnXymY6Zqqzmqysq5Ww8/VsJvMT0zvx3p6v3fGskCiIBEiCBgAnkdACQIOBGW7qg0J3rmvXetuQXIhfDuG8Ucn6szsXGPamU7ICn/mkrm5TJ5V82L7OdMgL06m1VGEs6r7Ulm3JJgARIIAgCOR2AJVgLboKcbCmhHXs350J0xtPxS4WcH4dzMTxtpjXOQxa/Hcyqjjjo7LeO76+U02Dc4/yWa+SZnAlx2wbZBgfKJAESiDeBnA6AqRaSAt1gq3pIynZgZiMcWwXkKRdPcqWVxS0td2PZ25Zt9eqqPBGU3mlIvATDtjbNhGmjm0oPGmtEAiRQbgSGdACQC/7O3qdJK1wwjxp6J4V58QVYJhb7tLdopyWuI19pm6mOifuufV6NbeII+Q52/avxKifX9RgZ4/B/Ljg8TgIkEBsCQzoAJsWpVvJzW7XBKMC+GAU4ypb8fOViGuCX+Z4bufOwcQ+GpGcjH/22HdPVE5HTL2CFJlymxyZEZtsqVos8sqxRLbYln3JJgARIICgCQzoAGSWUXG5TGQThXWGWa9ksYzjZqQq5AU/Q/ucDGK5gr99rmY/Rix2Qwvf7zEe/HmayK7Ph1BivaHNdj9iVH+f6jsdJgARIIE4EhnUATKYzPCHfaqtSypEtEtVysS35+chdfqFagZEOa0+N+ehQyDlYRrkCeRpOQyDaVAz5Lyzk2lI+1+y7gKF/e/tNYKqIoyylbEGsGwmUF4FhHQCDAwlk5tnEgo1yLqybo7e2WcZwspESd04cYgGMM+ZWyFaI8L9puDqV3fe2l+ZpaS47pqwwCZBAyRLIywHILCVTdrYJ3kDWCT+wCvO7p23QJ2JvMEWxAMFne2BN/0mlvHFPsdjx9P89PP1vX+z1w17nynt0uoalxBNIgARiRCAvB6C3Pk1W66Vkr5oWfaLVMoYR3t6gnpO0/GiY0wL9OhObgI17Orow12/042sQgU/O05thSsTqNBJGXmIzRTQIEA+QAAmQQBYCKsuxnIfq5urfYJj88JwneP1Cy+oeJdu+Xa+WeRXl5fq6Fv0oNvTZ34sMP641EecpkW+FzcOPutiUUdOsH8bC/4NtlYGYi2Ud9WqiLfmUSwIkQAJhEChkBMDo12RVSSWjK7TcZrWMfIR3wskxEfYhvfDU/47ZuKe9Xh3Ezn/oRpjYos+32fmb0pEs6qKhteC3JEACJBA/AgU5AEgw8yqqeKfVamIqoLZZ/4/VMoYRbpbUbfpx2Q/TAXcPc6qvX6PjT2Go+Yp1XbJluW3cUwzIia16Z2SrbC3m2nyvQZssae+Sm/I9n+eRAAmQQFwIFDQFYCqFTXzqEGz1D9sVNFntorDkCvU1WeWusV5fkZccJd/qdbJsFxd7+XWX6zHSKX9F29TYrAymYb6OkZj7bJZB2SRAAiQQBoGCRgCMgoiEbkPAlfUUvioldyDmYPMwoPQvE/X9udlRT6ftbBqEJ8w1aZFzMMf8BXb+/ckP874HT+WWO3+0zXPs/IdpB35NAiQQWwIFOwCmpt0VcgmcgNU2a40EQeOw7O1Wm2XkK9ssg2yfqb6A4fmT0q68kO91Q51nOn7M87e4VVKLZEtXD3UuvxtIAEv+zrUajNpbHLL+nTewZH4iARIggdIhUPAUQF/VTfAVEvhYT4ua1jIrk6Snr+AI/J0wW2+PHffMdrOnY7XA6AJVMnEUNyZHyE2Lz1VWnagC9YrF6XWz9Y6SlL/YVtYkXDI5F2yXQ/kkQAIkEBaBoh0AozCWy72BDnCKbeXhBBwBJ+AB2+UUI9+kn8XT/FRcOxlz+GY+ug6dxwQ4BymweQdPkctVWl7DUrK/4an12czug8UUxGsEQX/jE648H8DQ/1q025YmDTaxkwAJkECpEvDkANTM0/s5rjxuHY7Z8U7JPkyEY510ZAuYfJUenVorfw7C4QSEaW316orIwqBiJEACJOADAU8OgCkfS/Yewnz9V33QZWgRSBKEuIMvcvOboTGV4rd1TboasRJPYr3/7tbrp+VFbLL0RevlsAASIAESCJlAUUGA/XXGcr0zTUBb/2NW3mOu3U3Ik1FYGWClfhSanUATBuOr5K4gOn/YcQpO5inZFeFREiABEigtAp4dgN550guCwAJlx+MG/YwZDg6iPJYRPoGJ1XId5vwPC0ITR8scjjAFQZplkAAJRIGAZwfAVKKjUV2HJXvPBlIhBB1iLvhxMywcSHksJDQC2CL6Yqw0OSMQBVx5ra3b7oZCgdSDhZAACZBAngR8cQBMWT0iJwQyFWAKU7ILuv/HM9ngzGe+So5AJh10Qn4YWMW0HCNNyPrPFwmQAAmUCQHPQYD9OSE3wOF4YvtN/2NW37uyUBKyDzLovWO1HAoPjgDm/M2wf2BP/utrxqj/4FqYJZEACUSEgK8OgKkTcudfiTnbcwOrnysdbrXs0zFNLQmsTBZkhcDnr9UVK1bJgzDKA60UkE0odn1E1L/J48AXCZAACZQVAd+mAPqoIXf+ebby5veVMeCvyQe/Tv48oVXvMuA4P8SKgAns/NcH8kSQnT9SMa/sUXJCrEBRWRIgARLwiYDvDoDRK5WQr5mbq086DisGaXnHIiHRUyYx0bAn84TIEfjkPL1Z91pk+MNW0EEph3gVFyNVh79dr5YFVSbLIQESIIEoEbDiAGRuqri5Zm6yAdUW68RHYhX375Ge+NiAimQxPhCoadaTqlx5GWmUt/FBXN4isOSvEbn+g1m5krdWPJEESIAEgiPgewxAf9WD2jCof5nG6UDa4MuWdkojorpT/b/j+2gRqJ2jD0YWyTvw5B9oXgftym/bG9Wh0aJBbUiABEggWAJWRgD6qoANfC7D+zv7PgfxFyMBDiLIL6ypkmfM5jFBlMkyCidQ06IvVwl5OOjOHwP/r/V0YckfXyRAAiRQ5gSsjgAYtpnI7n/Jc7jZ7xw0axOHgKHlExCY+EjQZbO87AS2aNUTkmm5PxR7EFne5cjn3p2u3suuHY+SAAmQQPkQsO4AGJTjL9Xjkj3yf3g63zxotJk4BC1zO7plFhO9BE1/YHmZ3SPTcm/gT/3r1VjVk5Yvvj1TLRqoFT+RAAmQQHkSCMQBMGgnzNbbwwF4PhOsFwJrOALPpZQct7xBdYRQfNkXiXiQeWZqJhQQrnQi4n8fbPH7Qijls1ASIAESiCCBwBwAU/fMMj1E6sMJSIbBAk7AWgQIzt7s4zLv5TMVshfzZZsAUvp+WYtcjzafZLusbPLR5iml5Ij2BvVwtu95jARIgATKlUCgDoCBXNuqj0QU9q/RIVgNQByqQdEhvYWO4eyljeqxoc7jd8UTMHP9Fa78DK18WPFSvF2JNnYzMSANKtBAVG9a82oSIAESCIZA4A6AqVbNXH0y1mHfHEwVhyhFyQM9Wv6byWCGYFTgV2aXRnekzJC01Ic13dOnMhyAM81OlX2f+ZcESIAESOAjAqE4AKZ4LNE7OyF4QozAy1VyUccM9aMIqBJrFbAPxIHYTu9nYQ3394eX1jILy1Dn9D/G9yRAAiRAAh8RCM0BMCpEygnAEjEnLVeu7pafr2xSqz9CxHdDEsDufbUj5AhM61yAjn/3Ic8N7kvu7hcca5ZEAiQQUwKhOgCGWRjZAodsK1dWp5Vch6Vqly+tV8uHPLeMv8wM9VfJyZhjvwCspkQBRWbOX+Qc5H34eRT0oQ4kQAIkEGUCoTsABk7dHD1DEtIaOVBabkGn0toxUy2InG4hKYSOfwzm+M/FvgvnmU2YQlIja7GYyjkFUzm3ZP2SB0mABEiABAYQiIQDYDTC/PGpiBi/cYB2EfmAVQMmk+D17fXqvoioFLgamK7ZWWk88Wv5FtqpOnAFhikQbfT1cm6fYfDwaxIgARIYRCAyDoDRzASR4c/9UexgjH6Z1MIJuQcBZrdhs6FnSz2z4PgWXVMhcjI6/hPQJlsbBlF7YYTG5HY4CAF/86OmG/UhARIggSgTiJQDYEDVtepdEUn+EJIEjIsyOHQ874iWm6DnzW0z1cIo61qIbhMu02MTXXI8duk7AdftWsi1QZ+bcci07Ns2S70adNksjwRIgATiTiByDoABanbxg2IPoHMNfAOhohpUyyJEwT+JOfFHutbJE8ub1Nqi5IR0kXG6sG7/IO3Il5E1b8+Q1CioWDhgSzAR8ZWOaWpJQRfyZBIgARIggQyBSDoARjOzi+D7H8gvEWV+YqzaypVuncDuh648imHzR9rWymtRmyqom6s312k5GEP7B2C0Zb+oBfMN195wtn77ny45gcs1hyPF70mABEggN4HIOgB9KiMu4DvoSK/p+xy3v2aYGvr/Do7Mn9OuLMQSw4VBbkg0tkmP/li1bIfOfgrK3jahZX/os33cOPbpC57nYVXGVX2f+ZcESIAESKA4ApF3AEy1aufqnRT2kEfHVVNcNaN3lavlFceVxRgteFNrWYgo9g4Es3VieV1nJf52OvjrSLdU4Ni/pbOtSXWaWky+So/G02910pXKqrSMRCrjSmytVI0OvhqN+V+QtR3m77dCfMKW+Lc13kc6lqKAlmkHnyPbZ6hXCriGp5IACZAACeQgEAsHwOhu1p/rEXIHFDYrBfgqIwJwju74zzr5TjkP+We2007KFCzDnGwcOziOtXD2RuH9SPwzyzJHYpRppCgZbUzDrI7A8U7k11iLazLv04L3jqzC8QX49w9M/yxCOu5FSJzUZq7hiwSiSqBg+8fIq0rIB7h3fAD7Xyku7D6BfwrvtfwTv523ME37VikFcBfTdrFxAPoqh+1l/xtPtT/p+8y/pUsAndga/GjPKafkPmaEp+tD2RU3r10xQrQHblZbBzHyBdYLcKN8PZ2QZxIpeY4rK0r3dxXlmoVh/3CElyH4eTF+A2/hN7cQv4H5y+rVi1Hm5JdusXMATMUnNOvJUPxXCSfay9T8aqSylKPlRXR+x5T602lm2WU3RrVc2RM3oT2iEp9hnC+MKDwHvV5wK+QPHdPVE2Vph6y0VQJRtX/YfSdWRT2Nqdo/oK+Z39GgnrUKIiThsXQA+lhFNoVwn4L8WzgB/PDQCTa21asrCr84HleMb9Ijk9VyJDr8E/ADjMWUFlZerEAMxh1wCm5H27wQD9LUMooE4mj/GY5aHsNowa/gDNwaRa7F6BRrB8BUeIs5egpuSjdzNKCY5o/WNehgnu5x5ZQgV0kERqBJJ2ur5QDMQZ6AzvRQzMWPCqxsnwvCvOpbCMq9LaXkV8sa1WKfxVNcKRIoIfvH6MB7GBn4ZQqr0+J+r4q9A9D3W4ncroJ9ivHvsAQyGf2wqyCG+28a9uSYnbBFq56AFRvfwQ/N7KGwWczUH1ZdBFOZodFr2hvU7cOezBPKjkDJ27/Ik1iB9Yu2BnVnHBu3ZBwAA9/krq90ZR4Cx74Rx8YoN50xz+ziqf/GRJVc2DZNrSqZ+jdpp64K+RZEzsKQ4cF42k+WTN1yVaT3qQgBVD97u14ty3Uaj5cBgTK0f4zqvY2YpSvWdsvP329Sa+LSyiXlAPRBx2jAXkh485OoBFT16cW//QiY9Mkip+HJ8bl+R2P/FmmVvwfH5rvo9CfFvjLFVkDJAyktc8olkrpYTKV4XdnbvyurMT1wtZOUK9tmqHei3sYl6QD0Qe/dYrgJn2v7jvFv6ATegbc8u71R/TR0TXxUoGaOPgpL91rwg/q0j2JjLQoO3h0pkRkcEYh1M+alPO1/MCbsGnsDpshaohwnU9IOQKZJEHyC4dgTsaTj+7w5DzbSwI640oGymjcdKze8fKbqCaxcywWZBCXIS3Etg1BzgDbLqUR+3NMlc+K2SVaOGvFwPwK0/34wsrw105wYDfwF8rXWR3Gas/QdgH6NUjNXn4xd736ABpnc7zDfWiSAH8ASGFkznvh/YbGYwEWbDZUQDdyKqP6TAy88jgWaGAGRH3Q0quviqD51HkiA9j+Qx3CfYPsrkGRoetQCncvKAcg0kglQqZZvmJsRlg9uM1zD8fviCKDjX4DOsbmjU26P2m6IxdWo9yrYT02VfBO2Mw/1y6Td9SSv/C5+IeXKSVEeFi2/JimgxrT/AmANPhX3xeeQcfOMqKQgLj8HoF+b1LbqIzFHczZu5vv2O8y3Hghgm+GXMBc+G8lifuNBTCQvNTknko7cgAQ+e0ZSwRgphd/dDxAA+j8xUrnsVaX9+2cCiA+4NNEpP+jb5M0/yYVJKmsHoA/VJNzYXSXn4InuVD7V9VEp4K/J3idyF5ZfXoHI11cLuDIWp37+Wl2x4gOpx3rfWVhZUh0LpWOgpBklgrN4End4jHZj0f4ttQ9WQiHx2aFvz1SLLJUwrFg6AP0QZVJUImAQMQJn4fCO/b7i2ywEsNxlAUZPrkeAy01RDHDJonLBhzK5JbQ8xCWlBaPL/4K0/AhDohflfwHPDIoA7d8+aTjCZ4YVG0MHIEf7Yj3rrujgzsF8zWG4+XOut4+TlvnYVvYBVSW/6ZimlvQdLsW/xgawZPEhRPmPK8X6RapOyB3QvVaO50qB6LQK7T/AtkjL3au75VtBb3lOByCPNq5p0Xsi4vsQJ5HZuKW8RgaQ2AIZrh5xHXmocqQ8uPhctToPZLE/pTeHxI2xr0iMKgCH+xVkhjx0ab1aHiO1S1JV2n/wzYqRgCWYEjs6yCkxOgAFtvMn5+nNqrQc6KTkEKwk2A9OwdgCRUT+dDM3i1iIxzDn/RCW7/1v5BX2WcHaFv1jBPqd77NYisuHAJYLYpOVQ5lFMB9Yds6h/dvhmq9UBMh+FQGyD+d7vpfz6AB4oYdrJ7TqXdBR7plQ8gV0nLvEMgWsK6/hyesJdPp/TFfI08vOVys9Yonl5XVNulqPkPvxozgwlhUoIaXhXB/dUa/uKaEqRb4qtP8INZGW44LYYIgOgM9tjh/RGLda7ons0kJ09qjyX8xwK2IbXlnXKa/GafMKn5trg7ixTXr0qCr5PRy43Tcc5JtwCbhyWtQSp4QLxF7ptH97bIuVjPijb9lOoEYHoNjWGeK6ujnaLIkLZ0dCDKFCtXeQ+ng5hpLeROzCYjgji3q0LAlzuckQuEL/asJleqzTLY+D006hK0MFBhJw5Sw4AT8feJCf/CRA+/eTpu+ypiGnyhW+S+0VWPrblNoiF4bc9U/v5w0q2pVVUiHvxGH3qUG6h3zAxHQ4XfIUnvxjkxUSufXfArY3EZy5AEPl/8L00xo4emYXsjVwYsxWpJ1YuTAaDuBIHBuN6Z1R+DwKU1V1uGZL/J2C0Z/NQkafX/GOXAOHejSWCc7N7wKeVQgB2n8htEI593IkrBvXXq++b6N0jgBYoGprBAAxBmuwXvRjFlQuS5FmjXNSy5Po/CO7N0RvQOaTCEp8OpGW15f4lDTkE016VNUI2QY3gJ3xbx/kKd8ryk5B7w6SVm6CZWn8qDTtP0b2bylzJh0AC79+Ww6AUTUl8kVGSHtvNBOrgYC/l/ADiNb2vWbZpSN34sn+cWedPIFUoau81zY/CdjSdRudkL0xQnBkFGNY4Aw1wAFuza82PGsoArT/wXSibv8Y5fN9OowOwGA78HzEpgOAHNIXLG1Ql3lWsowFmNSm/1ol84Fg10hgMFvmKvktVmHcMW6MPBSF7ZIzu71pORZTCCdFJTYCDoCLqYyjMRx6XyTaLaZK0P6Hb7io2j8eDo7xc3UMHYDhbaHgM2w6AOgkHsBc/xEFK8ULNhCoadW/dkSO2nAgpDd4yl+G+fxmDMXfGuUES7DnrRHUOg2Yvh0Sqo+KNftOOLIPAqNe+Ogg3xVCgPZfCC2RSNk/VEdStq90TFdPFFaL7GfTAcjOxdNRmw4AnoLWImht07B3kfIEKMSL61p0K5yoGSGqIGZeHw7IvLYuuRVbJWNWJx6vTBKsHpmGEYGz0QmHlh7bTctKJAv63PIG1REPctHRkvZffFtExv4RC4YEdF/yY+M1OgDF20POK206AJlCA0oSkbOCMf2itll/E0PI14em/volmvVxX9veu2ysCY7Ad0NjiZ3UMBbwxSBjJEKrq08F0/79ARkF+zdOcDohO7xdr5Z5qRUeRPiKHQFHjo2dziErPLFV74zh9mtCUQPD1vjBtnR3yafi3vkbfiZTZEeDOtdJy1Zg+mQoTJVMQRAnMwXmCZ/2nyeoPE6Lgv2bFPQVWu6VJmR88fDiCIAHeLkutT4C4Er3h5gGYAa/XC0w8Pjkq/Tong+x97wjWwz8xv4nzPPfk0LgZikPV9fO0QeD7eWYWplin+hGJaSlnjkCNmKy0Ufa/0ZAfP4Ypv2bB4uOmaqx2Cp58h6KLZTXeSTgSGX1CDnZo5SyubxnndwVdOdvhuh0Wg5BxO7Rpdz5GyNqn6l+t+nHZTusGLCWsSyXsbpKZpv9OHJ9z+MitH+7VhCm/Zt4JkztfLnYGtIBKJZcyNeh4bhbXR5tgLW952KYK+jNfV5wkrKtuTHkoWJJnGKWLmJaYJqJUDbOT1CVQhKnJH4L95rERkGVGadyaP/BtFaI9u9gEuAuE6BYTE3pABRDLQLXoFP7dM08vV8EVImsChNm6+0RqDYvKAXNOnXMic9uWyd7lGtaZrM8yTg/SEP8bFDccRObUF0tNwdVXlzKof0H31Ih2f+46nRx8QB0AIK3Ed9KdFIhRmH7Vgt7gpIJ+TWWq1XaK2GgZDyNfj2Ts7tJYeq/fF/G+cF+5l/CvgO3BEUB+yEcWTNXc1qsH3Dafz8YAb4Nw/6RKnzPuhFybqHVpANQKLEone/IYZkkFVHSKSK6gMvFgQWlmSh/DH0jOc1vIlL9SKiB/cxPwZDITwJTJiWXj79UjwusvAgXRPsPv3GCtn+MQF6SyWBYQNXpABQAK5KnJqUlknqFqNQWc/QUBIfNDEQF5O5HUpqpfmXmCkTnAAsxywUlLT8KokizNKqyRy4Noqwol0H7j07rBGr/2PETTkBBU550AKJjK8VpouXw2rma+9j3o4fh4BtNcFi/Q1beYoe6sq1ppwAAQABJREFUFWlX9uDmTEPjxTK9i3CGSSVs/+XIKXWtOhp7PNivbdYSaP9ZsYR2MEj7R8zTibUtevd8K0sHIF9SUT7PlSujrF6QumFJzOno/PP+ARStG578Eeg2deks9XrRMsroQkyPmCWCwTgBGgGBTdq6AxjF5qP9R7FVRIK0f+zmeUO+CYLoAETTXgrSygSA1LbqIwu6qARPNik60SkXNARWFIb1G9IcgAQcC4q6vkwvMjdB7GZpf4geCYkmVoe730MYTUz7D4N6/mUGZv+ObF1TKf+dj2Z0APKhFINzsCzwZybjVwxUtaZiMiXTzTywtQJ6BWPr3qPwY+ZudEWAxlbW0xEYeGsRlxZ0CZ6CGs2e9wVdFPOTaf/Rb8Cg7B9TAZfk0x/QAYi+zeSr4ebda+Vn+Z5caucZY0cCmry8Xk91x0ZMWOL2sCcZZX5xR6ecgnwJj9jEgGmgUe7IwpdF2dTJpmzav026/soOwv7Nbp09a4e3fzoA/rZtqNIyASAe0kKGqrzHwlNr5AJz0/coZsjLTapbLO25c8iT+OXwBJAnQa2Tr+HE9uFPLv4MR8u08U16ZPES4nMl7T8+bYUtwAOxfwQpT8MoWPVQZOgADEUnht9hKuCOQteCxrCaA1Q2N3ks+7ObGtmV1+C5Tx9QMD8UTQDb+HamUnKYYGOrooUMf+GYyurhn4KGFxPtM2j/0W6fbNoFYf9mOjRdLWdnK7/vGB2APhKl8teRzbAW9OFyioKuqJbzbT79g+fabiWHwnNPlYqZRKEey2ap1zBUWW9TFziGFwz3FGSz/CBk0/6DoOx/GUHYf0JL/eev1RW5tKcDkItMjI9jKmAnpIUsi3gA8/RjhrpsNhd4nlHqO/rZ5DeUbBMZjfb77VDnePkON7hxMkK+40VGlK+l/Ue5dYbXzbb9w8He7L1V8q1cmtAByEUm/se/XdOsvx3/agxdg4oqOdZm5D+Wrd3Hef+h28Drt51JOQNTAau9ysl1PUZwzsn1XdyP0/7j3oIitu0/4eYeZaMDEH/7GaoG15R6fgDl5PZuhwKT13cmx7+S8/I6lycVTeDd6eo9BFj+oGgBw1yI6aHJE1v0XsOcFsuvaf+xbLYBStu2f4wC1HyqVR82oNDeD3QAslEpkWO48TkYXr2rVLcNnoSc/2gqa2lf01hL+3a9WlYi5hDpanR0y08xCvCaLSUxF3q6LdlhyaX9h0Xe/3Jt2z8c7JOyaU0HIBuVEjoGJyApKXmgkPzQcal+2pEzbemKdepvIWnHHFvyKXcjAlgahQRLZ2101LeP2J/56E80aavLRH1TNk9BtP88QcXhNMv2j2yxR9VdPjgxVlnmy46DPfipI5yAkZgHfRxOwDdKKomNlpOx5a+Vl3ZKN3AsX2ATmvVkPCF8GYy3gw3V6LQkRMtSNyGvq7Q87XcqZNjmc3XN+mYMWZ6Sr475nmd+AyOq5Hicf12+10T+PNq/1SYqJfvPgOqUY/H35/2hWbp99i+i/N5jL+67cKv8RtRqDifAhV6ndcxQt0RNt0L1qWnVR6Fz+nWh1+VzPp5En26fofbJ59xSPGfCbL19IiE/M3tMDFO/V7H3wjmm4x7mvLy/ntiqxytX2tFh+/5wgp0bX1jaqHbLW5kIn0j7t9c4pWr/GAV7qaNefaE/OU4B9KdR4u9xU3WQHe1mBETNLIGqHmOrDni6bbUlO+py4bxenEzKX/Po/E1VdsR5f6xp0Vf5Va+l9Wo5bkq3+SWvv5yEI7tu0aon9D8W4/e0fwuNV8r2j9/Vzqjf1v2x0QHoT6NM3mO/8NlmlMKsIY5rlR1X9reiOwLR2hqV1Tz1VvT2QSi2kn0II0Q/LFQU8iR8t65FP1PodTnP19KS8zuPX1S48lWPIiJxOe3f/2YoB/vH6OaJ/cnRAehPo5zeY4oCaVL/Yua54lbtzKoGbHZhQ2/8QMru6d9kCsNy0d9jSVnxnaOSvTB/f6UfbdI2Uy20lRwIsR2H+6FjmDJo//7SLyf7RwzPAf3p0QHoT6Pc3mPfdBjAX+D5fjNWVU/LIVb0deU9zGffbkV2hIWuWCn3IRjoQM8qOnKuX6tNdFJ8cSY2rpOpZ5xHvjL1of1v3KyePpeV/Sdk57FNH20bTwfAk+nE/2LEBYzCk9/1E5v189hEaMdY1EhjExkLLyT9KbvO3wx7enry36gdEBQ4b6NDRX3smK6ewCjA20VdPMxFyJ0f7wBP2v8wLZz/1+Vo/x+rli/1EaID0EeizP+aACkMD/2lrlVfO+EyPTaqOEwQC5yWSTb0Q0f4KxtyoyoTQ/YP+Nn5m3qibXavuVz70j5wyO6wwQ6Bi1YcSBu6biyT9r8xkeI/l6v9g9iX+6jRAegjwb99BL6d7JG3sFLg/L4DUfqbTnxkvL7qpWURlv694qvMCAszNz+st7fTEa7zEEvQjxnyDlhxyLAcdr9+xcTqLe3fn+YqZ/tHkrO9+yjSAegjwb/9CYzBSoEfYzOhNzEicET/L8J+nxDZwYYO+FFY6Wxs6OpFZl/Ak7XOH8phnn3AUqNi9TXbpaKzXlzs9bmuMyNI/edBc50XxeO0f2+tQvsHPy07YovsMYYkHQBv9lTSV+NGaVYI3A9v+a9mZ8Eo7KuODmE7G9DTaXnQhtyoyfzXSrnHl4C/ISrmOvLJIb4u7Cst9xR2QX5nj66S3fM7M1pn0f69tQftPzNN56SrZaohSQfAmz2Vx9WObA9n4FqpkndN0heTKSusisNgfXcAkCFrhXnaDKtOQZVrddizXyXgYKzt99Hb2wp50puA7FdjuefO2b+J9lHaf/HtQ/v/iB1ifzIjqcmPDvEdCQxDAGvvcQP6rpOU7yIV6TK8/x2Gzh9du04ee79JrRnmas9f4wdcB5d1tGdBGwlA5Pr8jQ6V1scm7dRVyf02h/37A4MD8F7/z17eOx/Ks26VpOCA+nqvUloGpET1omNQ19L+iyRN+x8EDhlhP2MO4h7OFwkUTgCGY1Kqfhs3+3uxycoHGBl42YwO4N+JfkWBb6wVtue1Mv+PH8NTG5dVMp8DvvkZbnAK/+QXv7Ym1QlZL/olr5+cXfu9j8Vb2n8RzUT7zwUtE6fjq1edqyQe904Ac3+/w/Kl0XnmaPdeYAESep/OdsIl5p9ItwieVlZjaP11DDW9gdz6C5GB7W+4gb3vpGUNIplXjxghqxefq1Znzs//f9vmf2r+Z2IE4H/zPzteZ9aNlPvQI9uJ9s+CAna61unyN54CTqZx0Pyds3dkM+S92LxthnonSzWieoj2X2DL0P6zA8PvdIr5hg5Adj6RO4qn1DWbjpUjVqySB3FD9J61zXYN108XmJv27sgvn9m1N2NseG+GnVLr4CS04lkx7JcrnX5vaxt2lTLl9z35BNj5Z8pVcl3vU7t/GBx5xT9h/SRp+WckbLCfSoG/pf37izwm9o+HtpHjW3QNpwD8bX6r0l4+U/W016uDXC23Wi2ovIQvKsXqZp58bK3zzwEs8/Tv+L+XAvIBLMxRJA97J0D7984wIyFu9p9MyBSOAPjU+EGK6WhQJ9XO0f9RCTkryHJLsixtp3NB+xyMaY+vYLRmZ0wxTIbHvbm40oFjb2JK5I+YBnkIW9++ZIMphrZ/g2H/wDe9wdPE120MqZsRmrJ/UrdhKEYm7d83snGzf5WSrekA+Nb8wQpqn6nOxg5uK9HBzAq25NIqTSfkTT9rhCDIPbE97k8gc0e0TeaFuI31L0dq8LYGUyL7Yibkh4iTeBBfnIfth9t6z/D8J6zOHx3JcTa3UcbT1RI4UZM8A6KAAQRo/wNwFP8hhvaPB8gtOAVQfJOHfiWmA75vbrxm6Cl0ZWKqANaD+zMEijn3mrn6h2iPZ4Aiv02V1g/R//VTrdp7kJ6Z8zfpfQN+8oftpRDJ8fW2BnWnTROAU+V7RkCb+sZFNu3fW0vF2v61jKUD4K39Q7/a3HgRIPh584QUujJxVEDJcj/UrqmU2WiHi/GUWthvCsGS6EAfQOf9naL16Av4C37OP4VVHsfAEb2vaN3zvRABe/meyvMKIED7LwDWwFNN5x9r+0/LmMJuVgPrz08RIdA2Uy1c0yWfwxyzGVLmqwAC+BEXuhRxkHRsnHS4k5CGQV8UcsCRaya26rMLuaTv3InV8uugkvz0lWn+4qn8pEA6//WF/rt/2XzvDwHaf/Ec427/mP4xid34KgUCK5vUaszBHo6I6enGMy2FOgVRB5OXwEs5ZnMRzPFf7UVG37WIC/gZRgJO7fs87N/eYX9s3HTksOf6eIKxryCG/furjPL+0/8z3/tDgPZfOMdSsX9kw+QUQOHNH+0rEBx4Keb19kUSnhXR1jQa2pmkRF40ee8DpEYWGe9FxoBrHbmxtlmfPuBYjg9hLPUzqgT85JOpPR2AHEbg8TDtv3CAJWT/nAIovPmjf8XSBjXfrZCt0lpugLcKX4CvXAQqKr2NAMCL/nou2cUeR2d3fW2LPj7n9SUe8Jet3lg+yRGAbGA8HqP95w8wjCf/Pu2s2L9mDEAf35L7u+x8tRKOwDcxPP0lGO6CkqugTxVqm6ZWFStqfJMeiaC/3Yu9Ptd1JpAQ7XZbLiegtlruKoM5/wF44Gh5GqkZIIwfNhCg/W9AMeybMJ78+5SyZP+MAegDXKp/2xvUcx1d8lnUbxrGAngT3aih65p09UaH8v5YXZnZECnv8ws9EQmEbkauh4/m93uf/OEcHFWoLC/nh/nk06c3VlgwZ0kfDB//0v6Hh1mq9o+hYZdBgMO3f/zPaFJuW726AglotkKj3xP/CvlXg9RoGVmsNDchY4u9Np/rMBKQROKge/ucgHJ88u/jlEbu8r73/OsfAdr/8CzDfPLv086G/eP+spoOQB/hMvhr0rR21KujEST4eVTXauKWuOB0u2VUsbqmUsEkYMo4AS36D0E/+Rsu2HfiGNtJfvLhn0gX3075yC/Xc2j/Q7d8Sds/ptXoAAzd/iX5bfsM9QpGBEwGwU+jgtdhasDsuV6Wr6RbfMeSrJD3goKGzn/PoMoy5fQNe2LfibuDLDdXWXBaR+f6jseLJ0D7z86uHOwfo8Fr6ABkb/+yONrRqJbAEThzXVJq3bS0lGOMAIbxix4B6N345p1SMxZz8wssw1me8OAAbJLnqTytAAK0/8GwysX+0fnTARjc/OV35N3p6j3suNYoXfJJM+SlXfltuVBAdO3/81JXLLUsua2ZozDnuXGbQKfNNz7Gz94J0P4HMywb+9eyiiMAg9u/bI+0NalOM+Tb3qgOlXXycTgCZ8AheBIecSnnEjDTIEW/0iI/MU8MRQuI0IWmHkFn+Mu3+rDDKfmey/MKIkD778VVbvaP3AIf0gEo6LdSPifDGVgFR+CXcAj2q9wEzoCWr+Jp91L8SJ4rJQqOK5O91Gd5g+rAU9T1XmRE5dooPvlsYEMHYAMKP9/Q/j+iWW72j3v6u1xb+1H7810OAovPVSZ/wMO9/8SsHdYjZDeVlr2RkGZXbEG7I/5uluPyaB9Oyme8Kqi65Xy3SnawkRTIq255X2/2M7e8pW/eumx04ifn6c3QURUdq7GROH7sT4D2v55GGdo/4mrepAPQ/8fA93kRMFMFOPGp3n+ZayZcpscmemQHLFnbAQc+A+9yG0Sub4f3YzInRPR/cGImeVXN8Jh8lT6oZ408qRKys1d5QV9v4j6iEu2fre5VaQz/w7D48p8A7X/9UtdytH8E+i6iA+D/b6osJZrUw6j4AKegD8TYJj26YhOpxlru6mpXqru1VCeTMhJTCpUJjbGDPF9pJSdi57sz8jw9v9McqTFPmCYQMr8Lsp9lRkngBOzbvU6eRIVi4wREvfM3tDE0a4UnnNQTMH2zPHuLRu8o7d//Niln+0+7spAOgP82RYkbETBbFeOQ+efphYx4JvOevw4ABFa5shf+3ONJOVzc5wTEYSTABDyZpX548rnPa72tX68w1YToRF9frnS3dyEZFrJk+irXojDav39waf/S+XajWpb305d/6CmJBIojoCvl1eKuHOYqnXEAhjkpv6+NE9DTLVN1Wl7K74rgz+q7+bXXx6DzBx43JV/ynZKCLcWo8zf1p/37YwW0f3B0ZKGhSQfAH5uilAAIdExTS/DjXet3UdhoZqqfMpc3qbVRdQLMzQ+/+uPi0vlPmK23d2zsuWAcgJi9aP/eG4z238swLYvMOzoA3m2KEgIkgPlg/5+sHdneBDH6WQ3jBKztln0wz/ysn3K9yjJLnbAfhOfpDq965Hu9StpJgYyO4OV8dYjSebR/b61B+1/Pz03K38w7OgDe7IlXB0wAE7Z/tVGkk5Kv+i33/Sa1BuslvoLOJvTcCebJB9PoX4/qUr9c7BEkeniu77wcxz6osRsBMPWl/RfX6rT/gdwwRfmCOUIHYCAXfoo4AURt27lxu3KyjaqbJYJOl+wbphNgbn4m4C8uw/597TD+Uj0OUdr79X326y94uMvWySt+yQtSDu2/cNq0/4HMDI/NxmZWbNEBGIiGn6JOAE+xT1vRUcs+ZjmgDdlhOgHmx45feWzm/PvzT6TkZCRX8v0hBTb0IgIAY5m+mfbf30KGf0/7H8wI+VleePlM1WO+8f3HNbg4HiEB/wiYHQyxJCwTwOKfVPwQ0NGM6JFT/ZTZX1afE4DsW0/3P27zfd+TT5zm/PvzwPD/Kf0/+/Ue88Amq2UsX7T//JuN9p+dFRa+/m/fN3QA+kjwb2wI4CnIym6FrrLT4fSBNU7AuP+S/YNwAuL85GN4TZqjp+DxZPs+dn7+xXSIFfvxU8ehZNH+h6Kz/jva/xCM1Prhf3MGHYAhOPGriBLQdp7gMAqwTV2z3ttmrc3Qm20nIO5PPoY/dln8no12AJt32mYoO3EkNhTOJpP2n43KhmO0/w0oBr9xpbOtS+b3fUEHoI8E/8aGADK4PY0f+RobCmOLzHobcvvL7HMCMJXxWP/jfrw3Nz+49bGc8++rv1mSiXlK3zM+Gvlw8h7sKyeuf2n/uVuO9p+bjfkG97c/Iv4Fi0nWv+gA9JHg3/gQMAbsyCM2FMaeMwfWzNHb2JDdX6ZxAto65RA/nYBSePIxjJLdcMIcqezPy6/3yMsQewcgcwOn/Q8yCdr/ICSDD7jym/4H6QD0p8H3sSGA7H332lIWP4qLbMkeIBeR6FiXf4B2fZqTVnJC3Jb6DeCBD3WX6zFY+nf2xsd9+axlNfIyPOmLrJCF0P6zNADtPwuUgYfSVXJ7/yN0APrT4Pv4EOjMeLKrbCiMYMCjxrfoGhuys8nEkO7XvIwEmCcfBIZ9Pcpbmmard7Zj6S45G8P0o7J95/UYHK3bTCCmVzmRuJ72v6EZaP8bUAz5BqNf9/Tu2rrhPDoAG1DwTZwImBs5slndYUNnsyQwqeTHNmRnlWlGAjrlIGyPfGnW74c66Mp7kpSD4v7kb6po5v6x9M9eDEZSfjEUyjh9R/vvbS3afyFme9PGJ9MB2JgIP8eGALKiXWdLWfwwjqpt1l+2JX+QXMQ1LG1Q07FH9wEYDcgvz4ErN0tCduiYrp4YJC+GBxI9cIAcGW1FdVdea5+hYpn9LxcP2j/tP5dtDDoOR6m9QQ3Kf0EHYBApHogLgbZZWM6FG7stfRGJfo0t2bnkLm1UjyEuYCs4AcdhLnzwfLUrqzHycU0qJTu0NapTsaTtnVyy4nS8rlXvigDM02zpjCmS623JDksu7Z/2n6/tpZXcku3cZLaDPEYCcSFgbuzoOH5iRV8lU2qadT2yr7VakT+E0N5Ne+40p9TN0VvjSX8Mcncue7tRLRvisjh/ZdXZUtVya5zh5NKd9p+LTOyO27V/V27MRgT3Tr78JoAb9l24YX/DV7lpubttpjrGV5klIKyuSY+RKvknho6rbVXHTcu2HTPVAlvyy11ubYv+PkZbLrHFASMptyJA8iRb8sOUS/sPk74/ZVu3f1d+h4eYQ7JpyymAbFR4LDYEEAy1Cql1r7apMIIC78eN1pqDYVP3qMvGzW93RCdfbEtPRIi7jiuzbckPWy7tP+wW8Fa+bfs32mHr65y/LzoA3tqPV0eAAHK7z0MsQLc1VTAVkK6Wn1qTX6aCJ1+lRyOQ7X6z6sIWAows3IeRs4W25EdBLu0/Cq1QuA5B2L/Zd2RZvXoxl3bWfni5CuRxEvCbgAmEw1PkDX7L7S8vgdS0CFQ7ov8xvvdGoGed3IWu38oWzH2aIWfkD/rel+pf2n88WzYI+0cw8Y+GokMHYCg6/C42BFRSfmQSgthUGPJ/NWG2trJDnU29oyi7Zq7+IQKQDrSqmysPlvrTfx8/2n8fiXj8DcT+RV5AfpCnhiJCB2AoOvwuNgR6l8PdZFNhk6EumZRHPzlPW31qtVmHKMiubdVHIpVtznlJ33RMBJTS2TeFixdE+y+eXdBXBmb/7vC/MToAQbc+y7NGIGUxkryf0puPcOXR8U16ZL9jfJsnARP0hCd/a/s4bFDDPP3HfdvfDZXJ7w3tPz9OYZ4VlP1jSvRZ5AkZdsM0OgBhWgPL9pXA8gbVgTz+F/kqNLuwHSur5X5pwuaafOVNwOyvgHz8D+V9QZEnYqpmbdqRs4q8PLaX0f6j3XQB2n8KS5fzsn/ewKJtM9SuQAIdM5SJBVhc4GWFn65k/7oRwWcKLFzRaFxhpk2wv+/jTkLG2tbITC8srVfLbZcTRfm0/yi2ikiQ9i/IYLp0lno9HxJ0APKhxHNiRQBG/a2AFP72xBZ9L0YCmFFzCODIpjhpREr+jBvTlCFO8+UrOH8L2rqL2FTJl9KjIYT2H4126NMiUPsXWbGuU2b2lT3cXzoAwxHi97EjgLmvp7H85ZYgFMfywCNrR8rjjAnITjuzakKj83fE+vbK6PxdlZCTBBsrZdemPI7S/qPTzkHaf6bWSi54v0mtyZcAHYB8SfG8WBFIVco0KLwqCKWRzGbvZLX8wWxnG0R5cSmjZp7eDysnng9i2N8wQTtcW2o7/hXb1rT/Ysn5d13Q9g+v9yVMARX04EMHwL/2pqQIEVh2vlqJjVLOCEolR8lOyS75i9nVLqgyo1xOXYtuQArex+EABLJaAm39Vk+3XBhlJkHqRvsPkvbgsoK2f6OBmyr8fkcHYHDb8UiJEEASjPvM1rmBVQfD3BiG/gPiAs4PrMyIFVR3uR6Dm9+jmO9vDkw1pIFOp+TI5U1qbWBlxqAg2n/wjRSK/aOaWF3z3WWzVMFbo9MBCN5GWGKABFS3nI/d4BYEVSSeeJOIC/gxkn38PrNTW1AFR6CcCa16F7dT/o7Of/8g1cHT/wXF3PyC1DGssmj/wZEPy/7xe3ugvVEVtVcJHYDg7IMlhUAAu6V1wgE4HE/mgT4dZtLcVskbSPl5cgjVDrRI89RTO0dfjSH/5+EAbR5k4ej8Hyn25heknmGVRfu3Tz5M+0ft2j9cKycWW0s6AMWS43WxIbCsUS2GoZ8TuMLY6AZr0m/GMqA/luQeAkiEVNusT5dOeQPR92eh8w/0foJhz7crRsgxgbdrzAqk/VtqsJDt3+yAmkrJYYVE/W9MItAf7MaF8zMJBEUAS6NuwijAL4Iqr3856Bh3xx4Cf61r1leObdKj+38X1/fGoampkj9gK9obbO/ol5WRC7cjIYctPletzvo9Dw4gQPsfgMPzh9DtHzXwY+oLI5V8+U2gbo6+Czenb/gqNy13Y2czPu14hNoboBboHHV/lZGicyX2qL8GT8w/7d3Apf/XkX9f06L3xI1nmsl/EKayuHEd/o969WCYOsSxbNq/t1aLiv3j6f9mOHWnequNCDOYeSXI62NFIDlSju7+MDNXvU0YiveuiZ8laZmOEYE7EJ8wt2OmCixIsag6Y6izZoQcieHCC3B9FJY5TmPnX1RLCu2/CG5Rs38tj7V1yelF1GTQJRwBGITE+wGOAHhnaFPCxFY9PiHyMsoINGAtV53SrryQcOSO7oTcvvxCtSLXeUEfr5utd0wn5ASMWByPzn980OXnKO+6tnp1Zo7veDgPArT/PCDhlCjaP6Yxn3O6ZF8T3JlfLYY+iw7A0HyK+pYOQFHYAr3IzOFhbt5ErQeSqCbfypmodmS0uxmZ3B4zyVzyvc6v8wyXBObWocMJmNvf2i+5vsgxW/w2qsN9kVXmQmj/2Q0g4vb/2uou+dLKJv/iXugAZLcDT0fpAHjCF9jFE5v1/njyfjSwAgstyJXXsL3xM5jvm99VIfPfna7eK1TEcOdPnK23w0TgXogo2hcZ9PcOKm3vcHoN+l7L/O5OOYjJfgaRKfoA7V8kLvaPB4O3OhFM7Pc9gA5A0T+f3BfSAcjNJmrfIGvfXnjafRgjAaOiplsWfd5BR70oLfImdH5TK1mIofn302lZk3Rk9bqkrB3xoaw2w4OTr9KjU50y0knJ6HRSRmHocBQi9uvw+dOQuzWCVKfg2OQ41NuMiiCr3UFZePCQRwK0/xj87l3pQDNPxehXm8fmHnQ5HYBBSLwfoAPgnWGQEmrn6p1UWp7CkHdJLNELkp31spDlrG0tVhyU+Q5/NjnT/m3S9SbbZDHtSsg+fj/592mFBwi+SKC8CZgd5FKufAmJZSITgFfeLbK+9rj53crO374l0P7tMy6qBEx7reuUL9rq/I1OdACKahleVGoETC75hJY9sKXm8lKrWxzrYzZx6mhQJ/HJP5jWo/0HwznfUjDtdUdbg5rqJctfPmXRAciHEs8pCwJLZqpFXY58Dk+er5RFhSNYScQlpKDWtPaZ6uwIqlfSKtH+o9G8WstliHk5Pght6AAEQZllxIaAGW5zOmUP44HHRulSUdSV1ViRcBDW+V9RKlWKWz1o/+G2GBzgM9sblEm4FciLDkAgmFlInAiYKHrjgae1zMIPErMCfNkmAM6L3Wr5XMd09YTtsih/aAK0/6H5WPr2HQx9fbGjUV1nSX5WsXQAsmLhQRIQWdqg5mCp3ZHonALdSrjs2CPYqXIT+XzHNLWk7Ooe4QrT/oNpHNxfnkMW0M8uq1cvBlPiR6XQAfiIBd+RwCACuAk+gB/JtvjihUFf8oAnAsaxwijLBW2dsg939fOE0trFtH9raDOCYf+XdiC7X1gpwLkZkN32pfQSINCbgGO32mb9TeTF/7Eo5gvw2qwItHwypeT05Q2qw6ssXm+XAO3fCt9ViDM6Aw7WfVak5ymUIwB5guJpJNDeqH6BhbNbIV/Ab0mjOAIm1wLSG5+CJX77sfMvjmFYV9H+/SFv8lusw30EcUahdv6mNnQA/GlTSikTAm0z1Du4ER6KH/Ex6MzeLpNq+1JNPPHc2FMhn+mYoW7xRSCFBE6A9u8BuUnjrWWqyW9hM7lPIRrSASiEFs8lgV4C+BHfrbpkMnLzN2KdwGqCyU0A65qfddOyLZ54Tg9rrjO3dvymGAK0//ypIdZljaSlHrEu22LIf37+V9o/k3sBWGDMvQAsQI2wyE/O05uNcOUSqPjtCKsZvGrYxAQjJRd0zFT3BF84SwyKAO1/CNKu3Jx2ZObSehXJDKMcARii7fgVCeRDwAznIXnNmemUfBbe/u/yuaakz3HlPexYeA6Cx2rZ+Zd0S2cqR/sf2MbmiR+O7xX4DWyB38CpUe38jdZcBTCw7fiJBIomsHSWeh0XHzJpjp6ScuQsR8mp+DymaIFxuxDr+aHyNZuOlXtfPlP1xE196uuNQLnbPzr+d/Cbv3JNl1y9sknFYlqQUwDebD7r1ZwCyIql7A7WNelqt0pOxjDbOQi33b4UAWTmN5XciDiIn+Npf0Ep1pF1Ko5AOdh/L5kX8Du4MegsfsW1ysCr6AAM5OHLJzoAvmAsKSETW/XOCVdOQiT88cqRcXGvHIY4n1Rabu/pkjuXNylmSox7g1rWv9TsHw5vBwKAb3JHyM1xzmBJB8CC4dMBsAC1VEQ2aaeuSvbHWvgTcAM5wnFkVFyqhk7/FTgwtyUcud0sB4uL3tQzQgTibP9pWekk5B6sarkZG/Y8FyGqRavCGICi0fFCEiiCQJNy20QewZWPZIZIq+UovD8AzsDucAYmFSHR2iW9w/t/wvTFfCzju31Zo1psrTAKLg8CMbL/3gZ5Fbb/COb2H8UU19Ol1kgcAbDQohwBsAC1DESa5VTVruyJJ+3dMLy+O2IHdkbnWxlg1dvxhP8ctj98NqHkuba18prghh1g+SyqjAlEwP4xsi8r0Ck+jqf833Ul5LGoJOyxZRYcAbBFlnJJoEACvTcbkx50fYrQJp3colImJR3ZEnsQbKnTMkU7MgV7EWyFO9V4jBjARyjwhaRFmH5YjCeaRUhOssh15E18XrR2nSyMS+RygTXm6TEhEIj9GxZYpoqOfjF+R0scV5a4SXkLbu5ixOYsQZbKspraogMQkx8H1SxDAk0qhVzDi1Bz82/Q6xNNepSziYxMpKUaIwfVuJGNxFRCNdKNVmIb406VkrVqpKx1erCdcYV0tk1TqwYJ4QESiCoBj/YvKemsxO8AT/JrdUI6e9ZI5/tNak1UqxuGXnQAwqDOMknABwK9NzPe0HxgSRHxI0D7995mhQ8hei+TEkiABEiABEiABEImQAcg5AZg8SRAAiRAAiQQBgE6AGFQZ5kkQAIkQAIkEDIBOgAhNwCLJwESIAESIIEwCNABCIM6yyQBEiABEiCBkAnQAQi5AVg8CZAACZAACYRBgA5AGNRZJgmQAAmQAAmETIAOQMgNwOJJgARIgARIIAwCdADCoM4ySYAESIAESCBkAnQAQm4AFk8CJEACJEACYRCgAxAGdZZJAiRAAiRAAiEToAMQcgOweBIgARIgARIIgwAdgDCos0wSIAESIAESCJkAHYCQG4DFkwAJkAAJkEAYBOgAhEGdZZIACZAACZBAyAToAITcACyeBEiABEiABMIgQAcgDOoskwRIgARIgARCJkAHIOQGYPEkQAIkQAIkEAYBOgBhUGeZJEACJEACJBAygWTI5bN4EiCBIgmMb9IjZZSMVGmplrSMrEjKSNFS7WpJumlZrZOyUq+Tlcub1Noii+BlJBBZAhc+qjfRlTIisU6qExq/gwoZqdMywhVJiJIPtCv/dhPywaUHqA8jW4mQFaMDYKEBXEe6fR9aUbjJ81V2BGqa9STY0hR06lPEkcl4vxVublsBRG0GRroXSQJ/9fr3jhJx+n7ZI0TqWvGFK+/hulX4tzKtZTlOX4zz/+Em8TcpSzqmqSW9kviHBCJDYPqT+tOOK5PRmW+VcGUKLHlLKGd+C3UZJbvxfxizMX1t/ocfCMw/81I4bu7DDY/iCy3v498H+PJf2pF/4vewGOf9Az+TxV0V8o95+6q3ei8rqz99t4myqrTtysLcuvwuQydktN8yKS9aBOqa9BhdLXvgRrUbbmp74Ml+V9zBMo6fuZF5ejmyGa43/ySx4Q6JGyQelwQ3UeMkuK4YJ2Cho+UZlD+/rV69YM7niwSCIDDtET22UskesPVdcA/9EsqcKqn1JRuTRcdd/EvJJ9D5f8IIUMZR6P0NGPEJ/C/jJLjSht/bAvz+5uOc+c0HqefN+aX86rsVlHIdA68bbqbXotBv+1kw7tMvddSrL/gpk7LCJ1Dbqo/Ej/AAPJHshZvP1uFr9JEGcAjW4kb5PO6X/4ujzy5tUPM/+pbvSMA7gYbf6+NgY/uj090d9j/Fu0QfJWhZA9v/k1LyVFrJs/P2V8/4KD0SougAWGiGmhZ9FYZhv+uraC2L2hqUGfrlK84EmrRTVyV7waE7ATe9I52EjI1NdVzEFWi5DTfFn3bMVAtiozcVjQ4B2H/DbrI3bP8kKPU1dP7/FR3lhtFEy7/hpNyB6Yifth6o/jbM2bH4mg6AhWaqm6ubYeANfopGh7EcIwBb+CmTsoIjUDNHb4MhzNPwNHEsRjInBFeynZLSrryAOdZrnLVyd1uT6rRTCqWWCoGZj+kdYTOnoMM5Bp3+/4t7vVCPF7WSa6or5M6mfeJr/3QALFhi7Rx9IW6O83wVjaevtkYVH2/Z18rHV1htiz4eT83nOA6GOEvwhWmCNajb7ViFcHnbTLWwBKvIKnkg0PCYPhXz6WfhN7AzOn4vs/getLB4KaYJ8LB3u3Lk8uYD4mf/dAAs2EZdsz4Vpn6j76LXyQg+bflO1XeB41t0TdKVszANdDrsIBN453shURToyoNQ63I4qk9HUT3qFAyBTOR+j3wb9v9NdPxjSrLj3xglYmhRz0cQKzA3TrECdAA2bkgfPn+qVR+GedIHfBA1QATWdm/LudcBSCL1oeZyPUl3yTxE2R8ZKcUCVgZrsV/CdMe8jgZ1d8BFs7gQCTQ+rKdgtdI8dISHhahG6EX3Tg9c2rK/+nXoygyjAB2AYQAV8/WEVr0L1lf+qZhrh7oGTsXX2+vVfUOdw++CJzDhMj020S2zML9/fvClR7fE3mWFrR2N6rroaknNvBK44Ck9rqJTZmO0y9eVT171isD1izH9Mbf5QHV9BHTJqgIdgKxYvB1EEODmmBf6pzcpWa7W0oiVAC1ZvuGhEAh8/lpd8a9Vcg5GZn4Qq2j+gFnBEViAOIEzmFcgYPCWi2v6m67sXCrTUEwjnvoZn5SLt5a/wRH4VhTzCtAByNVoHo8jDmAdPOJMEhePojZcjhGAGzECcPqGA3wTGgEEeh6MJ/5r0MY1oSkRs4KRgfAGpG6dsex8tTJmqlPdjQjUP6oPRefxUxym/W/EJtdH3L9v6NYy4/IDo2P/pReVmYt+8Mfb/C7SpMP0WyblFUZg/KV6HBI93YFVHg+z8y+MHWIjznA65U04x98RrAcv7GqeHQUC9Y/r/2p4RN+Izt8EfK7v/E0AnHnx75AcwOyMKpEl4BcZ++ePMGO5/v8PlrDEb6kwoGhlyvK7ghGXZ1Z3VKblTah5bMRVjax6makSR66prZQ/TZqjac+RbanBiiFd7peRnvrvGO4/dcO366Pf1/cjZpnfxp/NiTy+ns96B+lj/7+9awGTo6jWp2cmu5sQIRcQBJLNXh4BQbgoyEMEEh5JABFFQF4CIoKoFwyS7G4CsiBJdhOeUUF5yEP0cgGRdx4QEkBFRBS4wlVebpYQ3lweIdlsdqbuf3q2Zmt6u2e6p7t6enaq82W7uurUqVOnauqcqjp1Cvy4un1vepyNJgt8rFLAKACaGA8nEZF7SsNZ003NoKmpwUqg5WN94+eJZRjebgDYmBKgJsknB7CCsnu/RX+zj8z6zGPAqsOBjmWiqX2h+CmE+4MQXlsUzfTl2X45+5fCnkmVcapSoMYxTD3Bc10H+MV+EXBi4hn2k8BsqNZjFABNnIew/h8dqNen6SAdeA1Odw5AQE3N5I14JrpDmNhKOQDDwFGsVLXMEf+Ni5AitZeplCaTr5gDrYvETr299AwmNGdK4VUQ2gPCrGjWrwp7KdwlnIpapnGcDEs4+e2WNhzwSz7wDa+CbsB9CLfw1cYyOs63UQA0cTu1np7VgRr7qJN14DU4h3KgpVO0YSvnfgiq0UNTTUxkHEjTMWIk/X3sbLFLZDgNotAcgGD6KrYd/wIlbUJBSDNWVQiXCjOsKsxLwUrhzzDOfCoONezEV2k+tWw17MTnLE+FVcPOfGqaDPNb1jVFJ+DY+NPsLpmzxvkYBUATt7tnWU9rQZ2lSVrwGqRFHIDwvwmD11wIf/MbKeKMng8Imm0yGXpm/FzxfT0lGKxBOICZ/+Xo+exzpMHOpwo/KcTUOD/hSvN54a4UX5h8TAs/jCNI2FkHJw5BW+cE/Q0GgrH2f/zuzKOLA7AW/xtwR67V4frqPVe2Wn/WRXc94918vtisaT3dz3vU9cyHatYdA+EV8CLI58vNEzMHOhaLzdYR3Ysja3sMKVoKMflmgCBhL9igeFR4L5zl4sulq2WEDXN+frzKzKcW0mEfcAVuG4yl/5vZjWS+jneOHtWBFk4ljB2ABsaOnSu2HdlPTxrhr4G5AVDCh/wP4GfhqgBZDGgEHLD3+wX93Rb+LKz4Ud9y5hx09ivhZX6nIORyJIzfMMPx44WzXHzQ8krBMx3OOqnlB0yHf5EfYPvlF5xN92MUAI0cxkzmMR3ooQCcoANvPeOEIdoOaaLHsbDXXM98SErdoYSdycaBxl9APC3C+89YDv4DStvELlEKPCnI5DcnlhJ2El43TFh6uB4qjjBhP3Uth5/T+WFc/MCtMo5d3qa7/5stAJvbev6wj/jMenpXB/b+fvqPlbMsLYaGOuhNMk4c8fsclKqloNEc8UtaQ1l0d/caOoo6LOx8mUcHB3DEb29Y+S+BQMwbu7oJNDVOEqHGxRnm8tXynN9qWtBwJbj85AlKh4QXdE9TI32tY5Ke/m8UAG48jU9zp3gOS5o7Rl0E3Kpe8mqbNT1qvPWGb3yn+AL23BbXiKX/Gxj4XsgSvQiF5UUM2v/AtOHtbJZWZ1L04doMrRn5MX3IV0Zvu0Bs2N9Lo1L9tGE2Q6Phj380jqa2wJHLBOTdDsu8WyP/jvZRvIQ3Ouhcbq2hQ8xV2NE3FDz7TUGfuAvCn4+k8ZW2gzNRGeZiZZrzrabpDvP9Kha9gL7Ll+y8yL8FCLA3sFq0Fv//b0Q/rV1N9PElU6yP2WNhOkujcDPlJ6wRNAqrsRuDvC0AvwPyb4+abo3vnYEv41pnWU8/dfIDWwpPqbQ87seaGmgqlIBeBo3yMQpAlNx0wQVr8i50sBkuSaGisE60qqfV2ioUkjrP3DxfHET9dHdihWCOnoVy8gdK00PZEbRchw/95jliRzgkmYjBcv9cmg7A6L9pErsF3GDft6LdOjyJtNUqTQP+/O8pCHeuiJswU+PUyqrxUYcZH9H/QtAvh8Beus6iR3T40Ge7BwjBSRij90PdJ6LMTcoqBMwDtb7ObzVNhuXbD6wKM5jvgc4p1mGcFOVjFIAouemCC45kJkKnXuaSFDoql6KDe6ZbD4VGVIcIeNkfs4PHkib8MdgtgtD/NXzm34cZ7/txN8242eIzcNf7FQwM38BAWHVXpWr9MYu7BacDvqHGmXBlHLCX/VP0x0LuQUEzVLgxkEx3vtW0KMKCHsJ4efM6QQt1CHwmsdTDCgHSvwbF4wTQke//ss6c0StcLq1Ueimcar4c/brzEOtEjorqMQpAVJwsgad5rvgIgiZ6ZzKCbsb1wCeXKNokuXBgqy4xdgTRk0j6lEty7FFYnv8jZt6/6htBd6w613ondgI8ChzXJXZPCToOS/DHgr4tPcBijTZHBMOze/pSsU16PT0FBW8jT4EmhZJ8c7Fq2PntN02FGwhDCP0ZSu+vmiy6rWOK9Vb4GkaDgQ0jszk6GfR9HbzKu0CW2yIu9bBLdYt3iyvFPwkv3wqslaOf4VrhyHwFGAUgmr5SEgvfHgeAyC+QgeDox2xtXPcM642SBJjEAgfsvfGP6Qlo9zsUIqsQsNtO0J1Y57ywZ6YV+b0RkVYJN/e1NNExGARbgTdyvxaBaRXUDsW3M3A+k4F4bxzmZE+j/7cUCXQXYWOzS8bLN0eWC5dLH8TxWwj+C3Hm/Tm7rAT/wbG843B/5QysDOyC3wH0YTx+6qnC+YFXYdS8HJaPoLbOqVaX/AzzNgpAGO75zDu+SxwJRv/WJ3ggMCxjX71ipvXdQJnqFTgvyJbhB7xf1ViQo14MHzfjXvDZq9qsnqrRUWHBfDcC+NdeVR6CdtgEfAs2Ab+ssBp1mQ2X+mR618E3iUV7FzFAFTpeYc7gN00iV+FlfgGrG6Ib0w00Z/aB1goJWitv22gyh/5PtL9Ns1pHt7AaJyupxgUJq7AWfbNzsnWjRFnp2ygAlXIuYD5t2wCgA1bhW73aaq0KSFLdgY/rFNfxnfTVqjhmO3fgBrxpr7VaK6tFQ1TlsgFlKks/gzCpmp0AtgP2hU3A76Oq03DHY58rJzq6IMhVgaKGmRHqd7mwW7pLHLaS7hT9dPa8Q2u//5+3SBzUL9D/2U7Apa5FfUmmy7dMVL/9hB3tAiV4365DwvX//FKGJMi8tXEAR7Du1YUcy1JtunAPF7zwMX9atYQ/BNXzEP77rGizjh4Owp/7BBufdvcSG0xNwwD4YTX6CY7X3s6+NqpRdq2VCaO/c0DzoPDnCvBSNgseZ9iPMFJh3JbEVdxszZ+jL3RNtr42HIQ/s+viqdZDTc20M+r1Q3x+xHFDFAFnnMoTlX9+w4xPwQGPgbdNWxSu/xsFgJkaw4OOcrOuYmCodUbLPJEIgzZddQyDl738YanrJ2FwVJIXGvo7GF7P7OmlnSH8By2uK0GWxDxwztPdal3Rl6FtYNNwHf7nhUl8tH4Kxmy3xVdcbZbExmw4XTLXpl4RIEMEFqfxo8L4CbMAc+bLx32EMs6EI5tdYbj2uA0zjP507GT1oV6XwXhxAjhwTaFqqkBX+ecVL/mupvsJwzCxgcL1f7MFUGg1/YHmLvEqfmFjNZV0DQbjMzThrlm0fM98rpGewimMyJ0xlWIKBtylvSk6/s3pybFqLkVvFGmwdZmEet+GPh6vL4EstXbPtOZFUYfhhoPvmc/k6O8Q6s0FwS4FDlfWTdC4xXnBSoYNzfMYjvIdWY2jfJKkuN/Tl4j90zm6HXz+ZIGvKl9UHqrxlYZlvhBGgXmNL25O1Wl5WAW4SVfVMfs6jc+268Jfq3izTfTTOIU/z4JzFl2wYi1Nrifhz/1jRau1bF0K2wJCzyVYXn0Q/J49tksMvb3OK0MdxWcE/Qbz+hZb+HO9vWakUpg4YaSyoKY7w2oepEEJvBBOaybWk/BnFsyfbD2C1YDPIPhIgc8q/ySf5Jv5WGm4ON8cnFL4vI0r4B+zAhCQYWHAYQi4NYTRy2FwlMqLX95fYRS1WymYekqDF8Zj8UPkI5jxPDl6K2vR0XDR/Gg8BSa3FGy7XAgPhj+Ki0KMpCtTDbRz97T4nSfFVceg5bQvEt+GMP55kTBShbdEqMa5hd3iOK8znujdbIqOZkEoUdfru32x+DF4f55dfyefpBKmKgeVhFW8MMvBMcVdug62PgjCc7MCEIRbIWF72q1X0CkWhUTjmR1GUZ+Da9ezPAHqKGHz+WIzKETXxlVllPU8fPHvbIR/nuNYkr8A85tD8L83jjbAQDaW+iiSs9Fx0Ku7jBkPiLEYaxYUCX8uVAofDrMA4aec8FHzeIVh6MezXyP8bY7S3CnW+RDIU8HhviKeS/6V47kq3L3CEle+yGb4dwi8DWYUgDzz4vubo/k6C4MS8GMWfjrLqAXcI9fTT7R4X3SpPJb9/7i2l/astyV/F1YURXW3W4twz8A+EDSxnBLgbbCxs8UuRUTU6QfGgetRddiI4VEFhSpMvOJVGA47caj58uHHcbx1zyR58bNprvIfzMYXg4Qvov9/UFbJcvKc+cpPqXhOL26L0wZcGXOKr8coAL7YFB0QnJc8zEv10WF0YErRhiOFYpHqSK6HT9tZTRqe62J4+Gw/Vnb2ebvDwkVk5nFyYMUM668QIXviRMRrzrSov6HwpVIZW/BFjbqm8LUtEUdDfEx2CIf8WK8KDFW4qPHBwg80jaOJfANfTTEpJmLhu/9J3La4BwT56yWFOfOcH7VNyoU5nR+ZF28cCQ9kZ2YUAJuDsf/Ru1Qp6AjYG5wee60SUCBb/YOMX8REyjV8tj+msmq2GGwH/APXte6OGbp2l8cY0HaHz4dTa5ZZIQlnq3+IhSttQcK4VGEuBYYsQwoOGa/C+gkLuo5vqOPjcBKleQ/lwNzDrBewPbIr2uQlO7WcYGcgPzDO9uM8KdoNCuApdjk+/hgFwAeTogbBufA7MBjmO0PUyAfwoWGv5KteNaFPLFpY/f8YP4Jm3QTyzN8cu/TPZb6vAvdWHIgpyyr/uSqDxN5rF9/5UFnu2s41Igc7CL64xinAuVoyzik4ZLwKUybMXv0wuzXHjplPPh7eHsG2zEQI9tcL7cD51LYIGub8qqLA3/zkaB7f+ZD/KP3XKACl+aMntcPKoTOcrwf5ANYUNWFJ9HdbdohRWstJEHJ2+ANvf+fqJgnGVUvNzD84l+1Lq7J0MAYtrTYBGNQ27VtDFwensLZz2A5/UvQ9WyhwVVTBzoLCGaemBwhD+V3KXv1sfOaPbw7MmWq9jrGD+3+xTUCYdnFTGuCHINVPs/0QZhQAP1zSAIPbzG7VviQKD1UNjXSVBvKTiTJNF2gnLEfPWmvpS9rLGaYF8M2HMBg7GOJI7+kAQd/bslNoXwlKUjPhTpD8pMJNmLsJCnX26DcMa/+Rjab/V9ru9s2Hwu7/fYXZu5dyxoX4bRe1fTmbRWfOWirGl6PTKADlOKQxHfcD6F0FYNpTdHLzPHGSxmokAvVWc8QEEHKsTmJyWXoPZ9undHdYeoWXzkokAPfKVuvPmJ1+UycpbBAIJzj6f186KxEAN86d7wADsCNdZ/+qcKg0nKflXexlH9AxyfT/AE0zBJQNAzGOnFhY/uc2cVMCKhH+sn1Ran9/+f5vFIAhzRNfBDyn3YmGf1R7iVm6ftxcMVl7OVUsIK1ZmcJqTQ57y1+1l7GrWM/hUjSvgKEug/7T9VTslHq5IwNLyxfZLNQhTFgQ5YXRseaoXzQdFVf53g6u5vu/l6B3tiUX7QXrEg/Ps9+YuUhsUYpiowCU4k4caTk6A8KlX2dRmA1l0kR3j+8UX9BZTrVwb9UlxuKHcbzO8nHz1gXGyU/EHF5LZ+vcBuN+D/wzI6Y6ceimLxXboP/n9+RdBIFNsFOYMBw/fuIBBgWD3fs+bOcxfyLhQFMTnQ3GPldYCXC2HZeito8zndP48YpPUQPsNWbZMB5/jALgwZi4ovmIFBpB/z49jAKxRLhwOJ4MwG2IHbzkq6vNsJ+2HEZ/dWdUpoufEq+9ldJEh0MUaTMK5Jsyt7xExHs5kaxgTO90H11YEBReQoFpUYWJ33A+32PYu74opurUTTG8lZIdQUdAgK/2FOKqcHe2GXNKTXeG7WT69g+Xefd/bYNm3bRiBBX9eB3Ngjqu/XgUROSGOH2wjO8kiIDsRKAY1yW2hOX/t3QRww5sspmB2ZWuQuoYb880uMdOabQHwCyooZ+mD1cW27N/i46z6+cUECwQ+PEbz7BOIYJja3yrHyeZJ3oOzD/Qehnj8qm+2sjZNkxOubZF/8+s8+7/RgGIvk0DY2Qvcliq+W7gjJVkSNFmyPaHrfNGc5VgSFQezPBO1UkQVha+u/Ic6z2dZdQ7braFgaS6Qxcf4Hnzuxt3DE+/AJl+OqWsEGDGlhMUDOMUMMiD1a8z6u1WP2ZFnI9tD0D2NcJ5eezSDjY9ftrQBQY3/p3l5RfAKABxtnSJsrC/fHdW0J0lQCJLglD7FG6t+8Nw8JuObY1vR8YYByLsey79V6t1jyPafGrgAI6wTcN8VcvpCvT30aMb9Z4Q0cASXygxccivfrkM/DaCUvEMoAobhlXi7PP+U6x77TjzRysH0hnM0vniIH682kxtqyBhCz5hsu6u0Y0CoLVZgyGHJTs78dC2H6pSgyOIm2ZS9FgtGwY2zxcHYchqVusVZRg+vL8fJT6Dy5sDr7VaK9H3A99m5o2xOAVGnN8ojqn9L8zqpkBYbGELca6Ol+DwincKEcYh4/DOjNC3tcZFmWeQA7MPtFZgtSXvvEe2ASerYa925HgnrJoPYUxmXI/dGgXA5lwy/thHzAR9PTZqYBMALf9B+/Kc2AqNriAcczk1OmwOTDlawAaajljzqZEDm2xCF8Nq/w0dRUAB+CL6eYsO3FXDKeh0u+xSgoEFAT9uQsIt3wAcBMYCFkp2XvMnFg6MHEedEPh5V8FcokOI20S4tZkbrGxvOxP+WLS3m2MgowBIBiXkzVeo4ie7IC5ysDw6CvrjwpYu8YO4yoyiHFz6MwZ7W3njpygQOnD0jcCdAuaJlQNPnWGtR4EXaCtUuM+CtJWnEfG0RWJjrFANeqT0Esm1Y/UAADJzSURBVAxqvF+BgqVorEWb/q+x/dxQD1yqdJEt+BlACnFnu7nFq+2shpW8uX46zVmuUQCcHEnAN5SAs0HG0zGTcnlLp1i8+XzBRoKJf7IjtZ77v2bVudY7iWfCMCQwtY5uhgL8lpaqWTCYGybPCAue5GDhbVeHB3l+1IE/iJAYmu9GY/hnczT2P02NdCMKfdcu2Ktd3eIVQV+0cqC0LU40neiskFEAnBxJyDemQoejIWOxByhU2aLJTf30XC14DcRxRi3X8GIJmv/NLfDEBGLlAPsGyKXpZ1oKhb0Irgo+QAvumJFi4PZ2+ysFhFMoMI2KQHANI0+6gebEXB1T3AAH2DcAtl9+an+WaysGYhj5lu2u5lP7QIpa2hYX93+jANjcS94fNorCqQAtQq5Ubdk4EMaIi5s7xYKk3iT4yQ4xGtb/E0vVo9I0XFl7L1ZguivNb/KF50B/iq6CIrYmPKahGNC/47OxGVp8JDH2kS5B+xYGf3WQV8OqIPAbJrrP7P1H0kwVIxlp0c+LtgHcBLsU/DJNbXc1rLY7x+eK+79RACpuJv0ZX223luTgglZ/SUNLwAz7PzMj6cUkrgZs0KTsfQ4lPVQMBM8loRCYzKE5wNsvUPBuCo3IBQHa9wCX6JqKsvpRB1UAeIW5VqoA8BGGUfD8mmLGMCTWvm9B0HVllQAvQa+2s+wD8p0q7v9GAUh4B+qZARecWbqtGmSic2zJqwG4UOUu9rhXDRrcysSG52Fu8aHjcvSPnjbr96HxGAShOVBYBg2NqRgBjF63rRU7l2LKB7/gOTHf/1UBEEU4Ry90HWL6/yCnqxfCkcAFZZU8VfFjUlXBr4a5b/CTf2/bsXjQzssoADZnkv2nu4+Ow0HOpVWjUtAROHL3z3Gd4hzqwPBT5Qfe/76shQRLz6xTC63DHGnPTOt5DFvP6qhmY5Ym68AbF06sjuT7vzrI+w0zkV7KgkW/jKsOppzSHMDdC89BCc4bgnu1rRTsXukynt/KA29bB8vPogQZad4J40CHlevvpS9j+fL5alGGmdNo+Ny/tLmR/tk8T5xULUXAdlwE/wVR8wG8zeFncmPUeA2+EBwQ9OsQuT2zwifAAZ6JCU+YuUTsipneJ8suD8vBn+ujhr2EP+IhDG5OePXrijwoereWbGcp2Eu0qccqwkGSkUYBkJxI+HtVh7VmXYYmQVC9Uk1SeQkVM/CboAi8CIvqU6EIZOKkB2f/99NRHmwefm87YtKB3OCsiAPr0/QbWzGrKLd3JvShmlUA+sVA/1eFut8ws8Qb9rE5U63XvblmUuLmAPr+oAIcXMjnPIR/DkrFRFkX/BbMU0sc2KpLjE0TPQ7NbWwi6M5RDzaYZvP5bft6V81E4XTCryCsh5xnDVsszsh+e0W7dV1YPKXy87W0mfU4vmXRpwG3KWai9jW1MLxinwNs+PZctpHuTMLlQy2zxa7ZNB2aytFYDBKbYHq4CZS/1dkcvQMF8A3E/d52WlWqwhGkob0fQnsfGAGqYhQ5+vdaPO3RtkjcgIqc5Dm4y1kh19ZNaLjFARR97/S5U61rOZt5ksMBHNtbDmr2L1Dk0X6ubc2ZPOBx90ALn/aIdfZWqIQJVMwBPh6Im/wOxOmAx7BkXX2nPThbDWXkF7lGuhTeBH+Dit3Q3Wr9qeIKlskI4bMLBr/In94M3RM50gGEcLB0LCwnzoDntonFu3F5ACgCAwEiKAjXQugtxYbEz7EPfsdASiyvbReIDft66QcwOj0ZdG4NRZPI/kN5srEpiW0gnkXaD1zrfgjl7zZqorl8rW8+Ntq/KPIBYIxcAcDv54vA2x0ttfqxwThsVwjr/OMxuBcGfTnb57ca5tyOvGjS+wawmleCOADbq3vQ5vkjn442K6sEloDP9tv9fwXGbvPUGgdemWm9AEG4by5L7yWFdswOR4OW0/H/8ea54jk2GOQZb6T0wQARAuczkeJkZIJeeHO6Fbn3ObZXaO4ST+KH+l8YtCf6pZtnvPBHcDuOYD4+fp74nN98FcNhGwfK21l9a+ll9KsL0ZZb+8IFWwzAnoY7/P7JfiPGXiY29pUvABDwLw8A7hsUA9/OvoGTAoj+D4GwY2Hgl0Kd6QsTFvSSWf5PSiMX0wFd77HI2xt9BauOu3BJRgEo5nfNfLESgEbcP0lKgGQeBu0d2WAQs9nXx88RT0IQXvrvXeLLYe9kHzeCdgTu6PusFbGQwUDdPEfMxcz+DyB2d8mXoG8cwdxLZOlJKFMzg+b1C89Ce3wDPQ74K0FrRQob2iQDpeU/U+vpn2O7xB5+y/YDt2INLKFzGjxiCtrBT/lJgmndC1tH5dz/8qyPn2AKwXI7j/mTOA50HmI9iQnKanvFhqkL1q6e8Fjxsft/9INp4lg4fAl6dZb1dxwPnJREJYC5zoLBStPuEITnQJO9e8OR9AGWjZ9hhYANCHmG3HK5GOO3hdJpDbN/FA5F6hG/NJSDY++J45rodszg28rB+klnhQfK1Gy2ffADHwRm7GyxC4T2M9xGQfJ5wbICgT3FJ3jLwwsmcDxOwKDvPBo4X7kMVu0pAPgd7Rq1ILAFSkoDf8vx36T754CF9olI8BfwDCjAxgbAfzMkEnLlLOvZ5svF52kdLUTjTkgkkSpRKdoF2ufgPj6uHYNS8BZo/wf/hzB+FVOYNWlBa+ATfg310xq4b12LtDWY20zFO/IH+8HLo0KaaaJ7dBitAeeJUJiaVrRZkbiH3mqOmJBJ24qPbwXMN4+w5QElgLrbrFt95ykBiO2Tx5D8pRIgwZMS9Fs5d7HYAG6/GzNZamhookb8JDJQzJqwAjQCyv0IKECN+C2kYZtxCFYAUrYSwAJBCoVKw8w1rBjA2jwyBTh4Q5gcZTkgbAWNx778hL3E3r5vmIH+r2E4LVsdA6CBA2zAtX4t/TcadKoG9MMXJW6egzX45lFUEIrMjfiJnhwFLi8cUJAugxLwQ690P/G87J9ZR38Drc1+4CuCycEyIEWTojAIbZ4vDoLxx4MV0VEqU5Y+3T3T+kcpkCjTWNBDmh+PNjwKeCeAPy2B8Ecx8HOBEg+/cfNc51Sr+sbEgRhRX8DnLRIH9Vvo/7LduPoRhOFSenuzBTBM+tJLZ1kfrmi1DsEs4aJhUqVYqgEL2xeiKAiGj6frFv5MJ2+njO8SR4ahOdNHv9Mq/Jm4FDVButzLimkYWjkvjh5qEdLZFG0fljY/+TuWiUz7QnHOCKIe9LdrwJvJ+N/iJ6890DNgBAO+XZ6KJz+jfMkXHQaoahwQI+hFHe2Pk0k7GQWgas2qp2DMaC6AXn8IOsyHekoYZlgt/LhCPvatiSmaHRKN7+zwWdDlG9gBiFUKXkrczxGt5RODy6Z9q6k9LHI++hoWh1v+dE6/AsA39/Wuo0cx2F6KmX9+u4WFMD9+3nLZl98SPqow8EEhed6NNyYuORywb2cM2+ZcHe4/sj/lwxOMApCcdo6MEnbQst6indDcz0aGdJgigoVZ6BlQZhSdy8IuLhbBMHBbe8UhaIF8j4NFVwbNFgYetgs/iOLyHbRT5IIK3Ihk68eLP5j5N2GZle/w2NOGkYOvHMzVbwZwi5dCf+jgnR+7w8SjPGwZ/sumzfxJNgfgJMwhvIO1P9dO9q+BMGxLPmUUgGQ3e8XU2bOmdfbAc03FSOogI85Vh98C6Kezq8CqwGU2b0AHYBCI11AUWwFNWds/RCgWQekJvVIzhACL/m1IXIQRmPlfjXn7bgWUXsKcAWSaOkirwl2Njyqcxx++/xcqaAK6OABl9Z+ufcTZF5gAtd+UCEP5G2MUAF0tlgC87JoXRlhnoEMcB0vfNQkgKXEk4ITBqjBE4XjeF3HkL5ADHCzh34fTDZ9F21j8P0v0ebTRkiB0QCDuiOX8liB5YB/y5UDwAIYVemf/CNpE0ooTEydj/TrYknyOjgharhNe9IdrJyc+/saqwkZu8VHEtS4WhwPPSTYuHqTVxzloew3SKpwXTJh44IefCeP/X22bhIZT3E6yH5Vqc6bfDxy3PTvySmh9DVkRcoCPY2UEfRZC5s8Roh0WqLJZONkI8UCL/qrv7LCMxz7wl3DnwOHds6z8VZ/I/Gqr9Re00RSkneAbFwCzFu4VCPII8n+EENtHfYLGwx1xu3o3Qc8M6+aeVmscjq1d77do9jMwrkts6RfeDQ6K2kdu8WHioEQFUtyClIWVpUuKBmLOzAMzD95+w+pAHzSvH3jgh2+NUP3frov5o50DULw/Luo7XKLaP5xhTi/TB3C8dhOjADCj6uBhz4EQMnti4A51hGy4sSqTCmcsCQVgd788wch/No7w3e8Fj7Tf4Eft22gORmz5vWUvhEp8yzzxKQi8TylRJYPrU3TYqjarxwvo1TbrNMyg/+qV7owHn77gjAvyjVWSD4LA+4HFABi9DwQU3LpQfBGifkLRgM0DND9lBuUCjBPWOcAzHn7CxAMHblyMXLGy6TJ/ouWAhXZS+06Ydh/ICxuAjYwCEG0zJR4bBu7LsB2wDQaORxNPbAwE9o0IPQPyJVTZW2NPu3VNuSrBoPCqcjCFdL9HyZChf32Ai6NydJNPy/vLC7SUCWCgGVsGpGQyZtQ6Zqp6bAAsOsCujDpglwozsHNAd8aVys95+fELI3HjjVseI1esGL15ouUA/GDkt3C5jfmRb2e/CRCP35SxAYi2mWoDGwTRK1gN2B8a4NcwdPTUBtV6qFx1rvVOGMxQpjb1kx/m1r/3A8f+HIDzj35gITRafMEBKNUQQAEgf54RcYTsYb/lY7VgvF9YNzjw70O3+JBxWmwA4Kshf2GV38GZK+EmvNXBXMLw2y9eNb8alriA5xOkRbHiEswTIQdEGhe/cbvzo77Vdg0e3jSvTURIqEFVOxyA46A7cWRwPJZXv5fU+wSSzk2/BoDYr+/3Wxf8KH0pJRgNRvvFCWOvDfzCYr/RF63ptf5vo8Qtg6Fm21A2+vzSHwBOyxYAbDk2Di2kvQZzrhynSSEQMtwxyeoNwC8DWi0OCFpfmPVLGrz6SLn4wfyjjQIgmVHHbxihXZUaSdvAPuCSemNDaE91PldQsAfu+/Y5CPb8DLJ8Y7xRHiQPAQHq29oby43b+cI7wn+d4Mned/luZUOo+lZ23PK7xWlTenlZvdwgzAI8ATDsqMiNNyYuWRyAvcoomyJnv+FI7kdeCiGne+f5wCgAzCDzUPc0633YB0xfTzQOQ9NN9cKS/t6BH1alFfZ5jBBL2DuOmy3KCna+ThfGelv7IQdLzb6PMGIJ3reygOHkWD/lY1nyG37gGCbXH04BAE/yA6DfAn3AoU102BWQfWTLa0COM5554Bz8HUpHOhs9X32w3oAE5YAg7NbgKSXs3fpW6fY3CkDQdhju8Gz8hW2BU/gIGITGT6AMDOslwtyIkANg1r8NRWoE+FnmgWHOlWVACsmw4egufJQJlLLoH5IVzoJwbO+7Q+KVCJwq2BWzkpIwCjjhuFm3+h00rGUFQNP+N9rlD0X1Czpo+4XnQkoN8JzuEPgcpebB1lBesNgJ5k9SOYBtudF2uzGBQfpHadiPzApAUlu8ynSxwOhps87CNcNb2BcM+VzqrjLZgYvPrQm3tJzLkOexPicxEJgTm7vE7fbdAY7Elg4xBpf8PIQrYPdyJHl+YlthoWeiSwIE0yKXaNeoNNHPxs8Vp7kl8ioFZvRLsVLQ5JbuFrd6rX+DQbf8qKsOQfW+W1lh45qacNkSDdgsuM3KSg/KeUMvPzClhD/n56dM+VZYBdguxPyJgQMb+Bb8ss3l26svEX2YiYFwU0QNcwDeBHmQvID/2xfJCPom9nOPqeEqFZGOmWmovWUoAPfh7nbfD0bloxoaab/xc8RvMUT/HkpBA957Yz/6KKQFckwzYhQ8CgZ44IHwd3CoM9VvFsBeC4XlDCxpPwBnPk9htrgDlv0nQRhPRR/w/+Tonrc7rFDL7aD9E6Ah0gf103GygNiwrnWRWIC2PbfcDFydjQcOy4Gd36rADxCGI6xQ/T/SBjHIPDmAvroh+sfg7F+2uVQC+VsNq5hkPMcVh80KgMonEy7NAb5kCLcNfj0zEi5Uc1AELLq71l0MwzgulIc69pIXZGZtczhFm0GYnYk9/F/jZ3sD4k73e5qg0ELgPR8ZLHz7CKzL0F0+wIpAoJTsDmH/I9Txbry7bOFfBOHjw6L/8gFVEsTKhGsnN+SoUyilxA2njMOpj4sQftP+Lh50ozP+Y+Ry4OdwBeWgH27BWc2TcA7k0P+5fflR29wrrPYFLxgYq+L3bR7DgWAcYMEDZeDG7hnWV1LraBOcHvgKBlMe5LUsqQajLhg09pYnBMsxFBrHKC8YGqs3Bo59fhS0hDenW2+hvpcFzRcGHgri8+yKOgwOO282+qt7wQttTnAumWKx69YjbNqdAzBHqgN0VGFnOV4CQy0/gv5v19H80csBCydzSrWv2qYcVmE9+hfG7A+NAqC32YY9dr5wCKcH7oZPgeNxYcy/QUedhOXsTgxwS1B5/5bnVeIUZrSfDlv0ylbrz1CC7gyLx29+GGfesnKW9axfeBUu20Cz41y1wSrHDLX8isOpAEcOfRaCZdUen6AVgXUeYj2JgfgY/BZ67QGZsXgJZa94mYcH9HJhTlcHfq+wKhBy4fu/TZf5o5sDny6pNHLpanurbazGq2FBPUYB0N1sdYYfKwPL+QIZvtwGCsEWtJb+De5GD8b+8XR04JvBjqeTxBJY3e8QBT3p/B0L+ldAcvQWti1aK6WZtyzwo/9epfkD5cvSbaXuPvCLa6s5IvQqjVtZ8Hfwglt8lHGdk63boXBtB8V4SckBnAdmftSBW1UK3NK88pSLV4VAAP8UNn3mT+wcaL9/oP+r7VYqzBSq6c4+xWkMIuhFYwTInDCPNg4MGBE+hAL4f+EZO1vskknTjliG/Qxm4TtDSdgS3uLY0GUMuudmBUDNAcxQIxEuUHy6W7rEIRjol4H+Jh1kQ5Csxv+DV7Zbvs//u9HB2zfNc8T2sDtoc0uPKO5PsIM/OQpc8AEQepXGjY7+LD3vFh913LxDrZXAOaVtsTgB/ftyDM6fLAzQPBjLwbpU2GMQH6IwDAzuZeMHy9w26voafNFyANf27lRoz8F2K234qfYXjz6B3///Yuw1j+FAbXCgZY6YwYZoUVMLK/ft+bbEKPCO6xRHpK3gxnblyraX7TN0RM90q0iRKpevVHpLp7gJwuekUjAVpeEqYRwf3X9A+asIhZoJ7X4hGyKqcZGE19JI3sKKBFcAJO2LxQ5QeMdbWdoV+7CNUHxXY1VnDQZ5tknohUrwARTJjzgug8uqRvTT2o4p1lvtC8U5EAaX2kWpA7xXmAG90pR4q5+2n3tYNP3fps38iZQD6C8/xkRpZpGiyCUobVg27AILf9+jzQpApE1lkOnkACyrn474JJhNLq5EPQiBSBQAtofAOfk9scZ2P/5vGgU/YPq7Cj/wgyH8I52xYpvm5PGd4kUMLhdilp1fgg5JMBSVB2AY+rUoBSuE3gFRz1TA05U9VRD+zN65U6x/4MX/F/O33weK5bP9ciB3zgTd4mUcF+AV5qQ0HYBXJP2fizJPtBzA7/NAW/gzWo/ZfNl4Z38h6mFD1Uh+9NFW12AzHHDngGikv7inhIuFcJkUDkNxbjYKxEC9GwbdR4tTgn/h/Pt961L0WdhVRCr8JSXYo78YxnBHQyC+I+MqfmfpItw0eViUwp+dJmGb5osV0+SVUdA/vZKSGg9FlY0K82O2l0BX4+WgzxXyCgMeCtbBSa1zvdPV8ZxowDiym80Hblt+1Db2G+Z8Sh+AUvEiRxkFgLlgnprgABuwgdDoTxZk7RlQpDxgT4p85TKQfhU/2MCzK8ykn8fJgv1XtFuH8/G9SIlzIONbIfvX4rpeCHCUG+hsPOBzqN/NOAq5FXxEXOBAHfoz3ahB+IMqGH8GbpPQlQmJoOtg6wPw+nUbjTKYqwN7UdiPcAAebEFMDEmaya6JA2tXYXKSgrMw9eG258dP+3rAoM15BcooAMwE89QOB7BnGvkpAnbCw0aJOriAkxB3QRHYHjP5A3ES4upSN9BBmL4Bzfwy/N8HM+mdsJ3wqA6a3HCu6rDWsABfvY62gt/xk0HLA25wStyfoKD8MIu9bN5KwI2SoQwTFbxFQXhqjHR1RiLH/nrk/Uji1vx+0sbvMbAXCQWfSgJ+UxvPXCJ21Uy3QV8JB3hywm3Nj9qeftq/NMwzjNLYADAXzFMzHIAQfRrey6ZGTTAEzZeBs6Kz9X5owUz+YcDx/++2XC7G4Be9ca4vbyOA42jvQPC+815HMM9+fsoNCsM0YJnlZuTj/7T5fLFZ43raFNsEY/B/DYT+W7qEvSutWfqKjmkK+M9tUXMPtkOehcD+si0MmPrSg7y/EwZAk83Z/b9WlaKaa0e/BOOo3jHo/0Nn/GFXAfrpEabBKAB+W8LAJYUDT+kgBLPuk4H3Yh24nTj56mXE8f9XnGlJ+x7YftC6BeFV5/HzxOcg4CLx06CWgdWY13CU8iU1rlbCoP2vtjiQgj+sIOCKAxcUC77a+aJa4UM90MmrMnD61VJQ8uQKgPp2hpkxsm94hbGNJE995DWLeuCmqeOw4EB/Ay23950jrg2s4LflW+4iRmvQheFAjk4Ik90rL5b/l3mlJT1eZLByIQd4fvMjv8OFt21bKD5v4zN/EsEBrMrwpKR46V8V+JzmbHsveDVeDK5+GQWAGWOemuHAqnMttlb/kw6CYRhznA68BmcFHOgQKSx/nlhBzrJZ0M5LywIlFMA2BCR6omjgl0KBaeYwP07B4CMeitHxdl7zp/oc4P5PUIClkuds4zDx6UGnbEYBqH5TGwoCcgC/jHsDZvEFDsFgBkBfnNIP1LwBjJ80eYRcnxocAPXXREsJdxcJei5CFRAVCH/ObwscLeQapEE5cN5e6P+qx0hGoLax3zDnc/SHXP9g/zcKADPIPDXFAbhwLWehXll9IHCa54mTKstsckXJAXinOztKfBIXto9eea3Vds0ro2ruDSPA+zxnhlwbp3DgOIcQsGGc8USbtC0Rp3C0earLgX6Lpnm2cZDZv7PdcQHQgGtqu4JGAahuO5vSK+AA34SHzU8tx85wFr7ii3YqqIrJ4sKBcbPFZ3Di4EsuSaGjsK0QyPte6AI1IOiaaj0H4dDjKiDchINTCLCCwI9bvIjo9kYN9a4XlK2LxE6o66FDFDm3ti3VlsywoelLVD4aBUDlhgnXDAfQce/TQSyMAXdkf/46cBuc/jiQztAsf5AVQKXolgpyJS4LluvvdxncB+lUhXuwFYHtYQz41UFEJhQ3B6CkthfKdLadmxKgtrUzzIiUOKwe/aqAGwGjAKjcMOGa4QA68q26iMWRqPN04TZ4S3Ngy07RjGX6Y0pDVZbKy/9wffzHynInKxdWwPL9Xxnc1YG+SDlg0lVB4pVnMF6fApYsNiaOmllLxXi0Vd4YmduDH7XtOMzPYFsNTZf5bED8kflz1N11iPV7Gc1vowCo3DDhmuEA3Ncu4wFdB8H4UeyOVYD9dOA2OEtzoMGiWViF0TIuwcr9+tKl106qPZCzO2M5uDPpalgKATWOw044GVcsUD47fYnY34Y1f2LlQLbPx61/zjZU204NO9s+Rdc5K6Plh+YsxHwbDujgAGbqN+jAyziBO3/tqq4CDN4hHNhqjpgApe7UIQkRRABvLp2iX0aAKjkoLNRHHfDVsHPw5zR+5FtNV/MNhNNZ0//jbuj2+8UEKHGn2eW6KWYu7eQJywkOeJxyGtL/jQJgc9D8qUUOwFDsOh7YddCOH8buzXPF6TpwG5zuHMB1tzdg9p9xTw0ZC+c/3TOsN0JiSVT29Y3KioZjsLcJVYW8FCiyBiq8E47TUrRb2yLxHQlu3vo5gGuZbyyUwm3Aj1vbOOPdYNX2RRhbpsvmTLXyF0nZiPN/jAKgMMMEa4sDPKBDCSiyao2yBhBGXWMvExtHidPgcucAH78Ev7/gnho+FkZzQ2Y/4bFWF8Olk6x3cJXvXTYVfgWFVATk2014DOLqnLbI9P84Wtk+fmnR3rbA5wIH26B8WG1LGXbk91otNQpAHK1rytDGAWi2Ovd1x2TW0WXaiDeIbQ7w5UipLM3Xxo4cvWX10p3a8FcTsRiYNTpmfAVBosarQqG04M8LHYs2aiSzFaC7eVsfFBthvj+vsD3jp23KwajtLujtfhpQFB2VMQqAgyHms7Y40NNq3YG1Mj0+AZgVKTp5fKc4rLa4UlvUinV0Lfi8mS6q0T8u6+6ACjAMn64pFnvF7PE1Y1SFgqoMeIXz8Ke0LhaHD0PWJadKvDfPXv/k49UepeI5r7N9ZRyUuEumWB9L9OrbKAAqN0y4JjmATqxv9giOYPnslnFdYsuaZE7CiWY7C/D3KI1kvt+/jn6iEX/1UQuaaxNRTkCo6aqw8AoPwONc+q9mPCDGVr+iw4+C9kXi2+DvkUXC26s9SsUza5ztm2fXR/Aq+FMvzhkFwIszJr52OLCWfo5ZHl8SpOsZkxb0O8IFHboKqEe8LXPEDmDolTrrnrPo8lUd1hqdZVQbd9M4+zTA6yWFCBOpChBVWHiFJTy2AtJp+q3p/9G2dPtisQO2MBfYWL3aoNJ4zmc3OV3mNfvndDOgMRfMU9Mc4OVdrXvIzB2L9mgZRbNrmlEJIr6lQzRBON+LEahJF1k4IbK6oYmu0IU/KXg7drL6MIu8pIgeN8ExIBRsRYCB3WBkvHyzEoBHCNq9da+BlQaOME8oDnQsE00Q/veiDZp8tcdAO5RsMyeMoNWULq1gGwUgVDOazInhQJ+tSb+vk55clmbAHuB4nWXUBW5eSWmiu2H1v63O+qbS9NOXzrI+1FlGUnA3NtFVoOVdmx6nIODIUsJehWdY+c1vqTTgjZMU57YtFicwiHlCcAD9v7eX7gaft7ax+G0b2S6yTdT2UcMDpEHBuGrg+mhPYo0C4Mkak1BLHOBVgKzQawsAgZXCfvWvx88Rh9YSb5JG6/iR8Ehm0WSddGH2v6YvVT8W7B2TbCPHS23hXYlAkcJFFSQqnsH4W2C1PkVn2w133G174eRSCv1f5W/Q8GB7FG/tyHYk6usj6irHS6MAlOOQSa8ZDkCr5v007c5e4FL2dqwEaDuzXjMMr4DQ5jliLmaS36wga9AsF60619JpFxKUHu3wA8Zeb9oFsUDhp5SgcINRBZGaV4m3snRX+0Kxt43f/AnEAdz01wXBf0phlUXha0mFgEtxtoczTqbzm6jj8qnWewxS6jEKQCnumLSa4sDbHdZq/Eim6SYaKwGjsBJwP4TZjrrLGk74wa+zsCzfprtOmP2/0rOufmb/kp+2sZeg7xWEixQIDOA3zLBSMVCFk5qfqAFK8MKBa2s5h3l8cGDGYnEWxo0ZvttCtkNeoBdv47jFDcL3NDX66/9GAfDRcAakdjjQ3WbdisFpeQwUj8GP+ZGWeWLXGMqq+SJg8T8DguXyOCqCQe1b1GHB90n9PZ2HWL+DgHmoIiEzKEBsw78iHGoah3EyAEYBj85cYvq/n14Gt8qt8MWf7//Mv9ICfND2QlW81LAXDsBk03QKtoR89X+jAPhpPQNTUxzAEuU3sQim3fEL3BBvCsPAx1rmiok1xaCYiYXNxFWwRu5iGwrdRUNy3dHdbi3XXU6S8cPx+7dAX1+RkGGCVQHiJ6wKGYbnR4nDyYAxWG15zNwcaHPG8w/c/F4NvnWqvPMM+2kXl7aw8YECdg09f7L1iCcxjgTtP0hHeebTcEA7ByAAurMW/Vh7QSgAQm00XotbOsWxcZRXU2V0iAxm/v9tpenMOOhmw791KSyB1/kz71BrJY4FzioSMn4FCwt4fpxCRo2XYX5bNBo3By5pWyjyd9jXOe/V6uOoXwanJm6D6nS6He+nDSRv/cA6YQT1jhTBfmtGAVBbzISHDQdebbPmQCA8H0uFUtSAgfC/WrrEWbGUVwOFfLJDjB4/ih7EzP+YGMm96M3p1lsxlpfYouYeYl2GY2BPy5lhkTLgV8g4lQCuLeeV8fLN/T9Fv8Ey9/cTy5CYCTt3sdigtw9bMURHe7aB5J8bT9U4P+F8/To6pgTr/0YBiLljmOJi5IDAjy+GrQClRldiO+DGLTvEKCWu7oJjZ4tdNmiipzALnRhX5UWW/gLDP60uoeOqS1Tl5DJwsZxzbAVIocNvFiz8eIWdgscJq+bnNIt+AiXgBhZ+/FmvD9tFZHL0V/B1X5sHYXgu8zrbwhkv6G9+Df/UdjEKgMoNEx5WHOiZafEKgPZTAUVMw+VBI0bSs+Pnic8VxdfJB1ZBfpBJ0RMQBhNirPL7uTQdAcO//D51jAUnuaj5B1ovYwXmDFdBX06gcMWcigHHqflUITQIf0oGKw/1ahyI45HnYOXxcahWEwq8koqSyjuvsJPnMm+peKKPYJB5uF/DP24q+eBIrnkMB4Y3B8Z1it+mLVy4EeeTn3md390HF611IJg2ny82G5mlX2HQmxwnm7msbI6mvNpuLYm73Fopz96HFvQ1V0VAFSxcIee3M86ZLr/lWzKF+79FP+r8E1Zl6qD/dywWm/Xm7P5/0BDBL3kj3+V4WirdBQcM/6bC499iyfogb7MCEIRbBrYmOQAHQSdjargyVuJ5XxSW7+Mb6IlhvRoAt6a4KfG7jevpf6si/OED3wj/0j27qYFOgmDvsaFcBEghngPqzJRhnXHOdDlDdcbn7WI62/akPw/r1QD0f7Z9WEfo/6p3P8kXld8qj9zSJb/VPGXCOIlxRaXCP9+0dgubP4YDw5sDY7vEHqkc/QFW+1ihjPfBkmAOS3S3rE3T9OFkpMbeEGFodi3qVhWHSLzvv6KP9qyHGWbYHstCGEdWn4CQaiia5ZcRMHa5XjCcKNPkWxI69PvGJotagxqpSXRJfLM3RPgcuRa0fbqgOHkJdin8/aZzhVUeqmGZhn3/zidojzD932wBMDPNUxccGD9XnIqz+9dXq7J8TA0DxlXpXprd3WFpvbhIZx3Z+RFmHuzSd6rOckrhhjB7Dw5P/uO1VivelZ1SRCU8beAin1tsMlWBUmlYzcdI5bd8q3H5cC8UxgXso96Pm1rOksTHVqaEfTPooUPo86q7BPSb7gUn4wV9gPHkM3zkU6Ku5G0UgEq4ZvLULAcgvOZioNLujrYkgwR9iIFw/ppeusJ2X1wSODmJW88RE/rTGPhydGQcTn28am4rUina/9VW6y9eMCbenQO4g/7H6Hvn2alSmPCHV9hvmprfRl4CJ4QXFOFLskSXl7qrXqJJyrv9fjFBZOhi8GqoPYVafzXMxMtv+Vbj1LCazvH8qHEyzNf8CjoAXh+fzANV/tcoAJXzzuSsUQ6wc5qYz6e7ckrk6B2sSMzOjKRfJvnaWvBrh1yKZmGp/0TXisQcCVoO7plu8Rlr81TAATjtuQVL1sfZy9acXwqWSsJq+RKPfJfChzQIn/egTM7GccXry11bqxYTdxhK0w74rZ6H7ZPBq5D91DEojMovNa8aj3BG0MEXT42m/xsFIO7eZMqrOgd2+4UY8fZ7tByz2GTc6AdfBfBc+AAE7K83HUP3PnWGtb7aTLKt+nN0PPbZT4Anv92rTQ+Xz7YUUJiOXtFq3ZkEemqVho7nREPvq7Qc9O8ZWgmQgkq+JVPUb7ewGocTAyJN98GF9y1NzXR/x04Wdgmq+7BV/7ocnYjVkuMh+HcrKEkq3VGHVXxcffmtvgUdZd/3EBF7jAIQESMNmtriQEuHGJNrpKegBGydKMpz9CEGnFthfv1gbgQ9vPKc8ld6RkU/326IgXgijgYdiYHhwKjwRoUHCsAZPe3WNVHhq2c80xaJjRvFwHl1yQgpaPg7aFjN4yevN/wHKJtX6B6CAF4ap60A326Ifr8vhP5RuOjLvf/Lusm3Wo+wYTW/il/GE32vc6r1c/6M6jEKQFScNHhqjgNbdormBtxoBsLHJ5V4XOzyPNzbPIJB6WEcX3j2lZnWC1HQyq56G0fSjhgAdocv9/2hcByEq3o3jgK3DhwwOjx/RZt1sQ7c9Ypz5iKxBfrXH7EK0BzZSoBkpirA3MJqnFuewbjn4FFyORTTR7Au9szcw6Lp/+ytEN76dkS9eRVkP1Z48RvL939Jm9d7kLby3hQlDs5TLqymO8oAbed3TYm+/xsFQDLavOuSA7zU3dhPy7ASUJWjbJUwHYPBy8j3IgaU5yG434WTo9XYS/0Qg/lqbCOsRlovlso3hNAchbgNYXA1Gt+jMZC2IM92eE/AKsNmlZRdjTxG+Ovjuu3ARtDDKCF/lI2LUgWRn7AkT8LKdylcapoKXypelkP0Evr7K+jXz2Om/g7o/QD9mfv9x4jj30Evrt7dEIrzaKSPRvoncvwbIPp3wGyP/9tC6H9yEN1AyEkHRzvjSn2raUHDkhiZT77z8ed1TrFmS5Ao30YBiJKbBldNcmDsZWLjzDpahkFkl5qswDAlGkv+/RjAT8bM/zfDtIqJqFbrg2Ij3B6/FELxs/iPHSA8qgDyCqtwKowa7xX2gveKZzxhH4nb6834nWnl4tT0SsJqHlm2jOO3RSdB+P+agzoeowDo4KrBWXMc2HaB2HD9alqaFIO3mmNgxATzUT+4bDrCWPtHzFgPdPaSuMDtjRbtXRCCDOsUSkEUBK+8kgaZLt+l4iVM2LezDL/fbnCSFk6rNKzmU/FgFQNtcRiEP6/OaHvy2p429Aax4UBtcICP4a3vw164wEzIPFXlALY13oEitq8R/vE1A5/H77foYJT4gL0KwIKJH+nBLoow45B4VcGnluGMl3mk4qG+3WAlLhXOSbuaj8N+0t3gZFnO/KXiGVYtX4WV8YLexpbk3rqFf55s/msewwHDgQIHmjvFAuyl/2chwgRi4wBm/i9hVnJwd7vVHVuhpqAiDsAa/kfYernQjpRCiT90hyUVshz5VsuWcfLtluYWp8Kr6c4wf/OjwsuwfHul+4n3wsF5+clRd7qBJs4+0FqRj9D712wB6OWvwV6jHGiZK07B1OBaaOIwvjdPHByAceOiNWvp6FryjhgHX6pRxnmLxEH9RHdgBWAjV2HIRHkJs0rj/eRzluv89sKhwnnByHj5VvNwmB+vNK94Zx7nt8yXfy8Cz4+J0zuiUQC4QcxjOODCAVwjvB8siX+X5ONxLmTXXBRm/TlYb5//aps1p+aIH8YEz1oqxmfX0/1QAnayqymFFX/oDAfBHQRWbaug+SqF95/vR7os/dVqO8NGAXByxHwbDigcaL5cbA1znHtr6ZigQn7ig+wOGf7VjzP7/clsKjYOTBNdiaOj37TtAZhM/0LN/4kCFadkhRrnFQ5KjxeeqOKd9Di/neUQfYQlxqOicu0rWef3bRQAv5wycHXLAXYd/O678AVu4RIhvk7VPJFwAAaXf8XM/3Bc6rMqEoQGiTYOtC4Wh0MJ4Js0N4lFEXAKSmnUFyaeuSPzy7capyNcohz0/WfTgg6dM9V6nYuuxmMUgGpw3ZRZkxywXeVadH06RXvVZAUSRDRm/rNXtFvnJYgkQ0oZDrDToLUWXQ1F4MiCIOU8JYRcxcqCDrwqnbKuapyOsEc9IHgvnjvFOl+SUa23UQCqxXlTbm1yoEOkmhvo+xjYZmNbYHRtVqKKVAt6FDP/b8Kn/ytVpMIUHYIDbUvEKbBWvwK/gfgMBJneMAJa1lfikG9nfNhyVLzu4UcgdL8D4f8PWXQ130YBqCb3Tdk1ywH7HoEczU/CtcI1wcQcvQWBcXZ3m3VrTdBriCzJAdtAsI9mY0vshFCC2V1IhhP2Kk6uhfyWb1kz+S3fKmzUYbjsRv+fptOrn6xWkLdRAIJwy8AaDjg4MLZL7IHLdH5mPAg6GDPwye58MfD9dG0vnW+O97nzqJZj2xaKz4P+q9HG7m6EuXJxCNhKbQQk81UaI6YZx1sX4Lrv8+I83ierVe5tFIByHDLphgPlOIBtgZYmOgYDXRdmRM3lwOshnV35Yq/4pvUp6lzVZvXUQ53ruY5QBI5D/eeg/7fYfJACVb45MqnhqOlifER9qO/N2QaaN/9Aiy/vSuRjFIBENoshqhY50NIhmnBG4CzcPDYN9gGfqsU6REDz+5SlBf1NdOXKc6z3IsBnUNQIBzqWiabedXQ2yOX/m2NVYOgxQK5L1AI3LE6/+f3A4WZCeFH8Sa+gyy+fmvz+bxQAblTzGA5EyQGsCIxrosPhTvg7sHafDGUgPxBGWUbycK0ASZfRWrqmu8PqTR55hqI4OYAVga+ivO9ACTjIVgSk0JdvJqbWwl70cl3gwhf1vLSpka7rmFQ7/d8oANx45jEc0MSB5rlia5z3PRMeBU8dbh4Fscy/GoPeXULQr15dRw9RB2ppHsMBhQPTl4ptUuvpdAiaMxD9CVsZ4HQvYVqNeD9lyjoVw65GPe7OWHRjppGWQ/DDk29tPUYBqK32MtTWKAfYmdA779PhOAJ3Ajv/wJpAUy1Whd32YhBfBvpv7l9Dd6zqsNbUYj0MzfFyoOM50dDbQ4eJNJ1oZelL6D8NWpQArlaxkOb+OnQrQoWRrFDj3MIcZ6OnZVaKbukXdHsSDftkdfy8jQLgh0sGxnAgQg5su0BsuP5jGA2m6QQYyk2MELU+VDi/j+HvflyNdHP3DOsNfQUZzMOdA60Pio1SWToG0vTr2C8/sFBfN6ErE73S/MQzjnJw5dKJHgGOhdAkbq6m5z7JjqjeRgGIipMGj+FABRwY1yW2TOVoKmYUe0LA7oe5yg4VoIk+S456YMx4d9qih9atpYfMTD96FhuMRDMXiS1wTO5L2EbaHfyYiNn6toUZOzOovGAuD+MHh1oWwxO9CeX8zlyKFmeJHq71mT5Xz+0xCoAbV0yc4UCVOICTBGNwlmAfDHx7Y4VgHwxCrBDoPlGwAoPwSxgMXobR4v9gaXPJazOtF6rEAlNsHXNg2iKxcYNF+2CmvQf65L74HUwAO8KdKGB+llICBPXATudl/NZehvLxP1iVeCgpnvp0dwWjAOjmsMFvOBCSA1t2iFEjRtEOMLGbgBnJBMxPtsMA2QxhPQoD1yigb8JJg1EY5EZhANuQi8tl6T2E38Og9j5WF95DnvcxoLI3svfwo1+JWc0r+H5lZbv1UkjyTHbDAa0c4BsJoRRshz79afT37dCnJ2ClbCz69Gj05yb0+w3wbgQR3P/z7olxyx7i30TcR/j/LuA/APz/If/76P//gi3Cv1J99K+5h9W3ovv/suZb7IzTWt8AAAAASUVORK5CYII=;" parent="1" vertex="1">
          <mxGeometry x="270" y="177.16" width="106.67" height="106.67" as="geometry" />
        </mxCell>
        <mxCell id="IlMm2bm1_j7ZGz1Ir1Hr-12" value="" style="edgeStyle=orthogonalEdgeStyle;rounded=0;orthogonalLoop=1;jettySize=auto;html=1;flowAnimation=1;" parent="1" source="IlMm2bm1_j7ZGz1Ir1Hr-11" target="IlMm2bm1_j7ZGz1Ir1Hr-10" edge="1">
          <mxGeometry relative="1" as="geometry" />
        </mxCell>
        <mxCell id="IlMm2bm1_j7ZGz1Ir1Hr-11" value="GitHub Repo" style="shape=image;verticalLabelPosition=bottom;labelBackgroundColor=default;verticalAlign=top;aspect=fixed;imageAspect=0;image=data:image/png,iVBORw0KGgoAAAANSUhEUgAAAgAAAAIACAYAAAD0eNT6AAAAAXNSR0IArs4c6QAAAERlWElmTU0AKgAAAAgAAYdpAAQAAAABAAAAGgAAAAAAA6ABAAMAAAABAAEAAKACAAQAAAABAAACAKADAAQAAAABAAACAAAAAAAL+LWFAABAAElEQVR4Ae29C5wkRZXvX5lZVfQ0zdzpruqH7dxxHBFhHGBARJ7jgCDyRlF8AAIiqy4isMr6d/14+aPL7rro9b3gE1RwQZGHIiIiLxFHZGFEFnEW546IvV3V1d1ze5runu7KzPuLZlr7Ue/MyIyI/NWHoasyIyPO+Z7MjBMRJyJSKX5IgARIgARIgARIgARIgARIgARIgARIgARIgARIgARIgARIgARIgARIgARIgARIgARIgARIgARIgARIgARIgARIgARIgARIgARIgARIgARIgARIgARIgARIgARIgARIgARIgARIgARIgARIgARIgARIgARIgARIgARIgARIgARIgARIgARIgARIgARIgARIgARIgARIgARIgARIgARIgARIgARIgARIgARIgARIgARIgARIgARIgARIgARIgARIgARIgARIgARIgARIgARIgARIgARIgARIgARIgARIgARIgARIgARIgARIgARIwEwClplqUSsSSA6B3o6OHiubzbuO02V7Xptl21nP87K2bad9389avp/2LSsrjrv4buG777qzfwUlpJm2HKcs/jqWVfY9bxrXTOOaMtJOI68y8poWxz3bnnJcd8TPZEqFQqGYHMrUlATMI0AHwDybUiMDCORyub3TqVR/yrL6PMvKpzyvG5VzHr97UGPnoWJPyrbFX/Evzk8JspUgwCBkG4FsRTgZJcg2ZOP77G/Leq5UKm2JU0iWTQIksJQAHYClTHiEBGQTyKKCX4NW9Wq0sFejtf0Sz/dXo4W+GpXpahTeg3O2bCGizB+9CB7KG4RjsA1/t0HnZ9HD8Ed834pT2+AgiOPT+McPCZBARAToAEQEmsUkj0BXV9dyx3HWQ/P1jucd4DnO3qjV98TvuFvtShoDHoIYUnjGct2n8WJ63LXtzfi9eWhoaFxJgSkUCWhOgA6A5gak+GoQyOfz/U4qdSC6wddbnrc/KvsDRWvetJZ81LRFzwGcpmd8OALoJXkcPQhzTsFg1LKwPBIwjQAdANMsSn2kE+js7Fy1Wzp9CCqkV6FCOhAVlGjls1UvnfxfCxC9BQh4fAzxBo8hgPE/rImJhwrj4wxK/CsifiOBugToANRFxARJJtDd3d2BiuZgVPSHYMz6NWjVH4xWfV+SmSiru+c9hx6YR/DvV3AMNmWGhh4dSKUmlJWXgpFAzAToAMRsABavFAEbXfnrUcEfbLvua1CRHIKW5l7sxlfKRg0Lg9GDMhy3p3DBJkxx/JVdLj9SGB0Vv0VAIj8kkHgCdAASfwskGwAC9Vam0+mTQOE4tO6PQWXfkWwiZmsPp2A7Xnp3Y/bFj91U6i4EGDKWwGyTU7saBOgA1IDDU0YSyPb09GzEuL2o8E9AC3FvI7WkUg0RgEOwGc7AXegS+DGcgU24iFMRGyLHRCYQoANgghWpQ00Cvb29a6xy+QTXso5zbPtoJG6veQFPJpIAnIExOIT3YhbHj9A7cCfWJkAIAT8kYC4BOgDm2jbRmomV9NDKPxur570ZL/W9Eg2DyrdEAL0CT6CX6PuYZXA9lj3e2lImvIgEFCZAB0Bh41C05giIufgYw38HXtpn4q+YmscPCYRCAM7AJgSG3vD89PSNO3bsEEsf80MC2hOgA6C9CZOtgFhtL2PbZ+BGPhMv6Q2M2E/2/SBbezGzAD1Ld2NhohucbPa2gYEBTjOUDZ35SyNAB0AaWmYskYAI5DsJm82cial6J6CcNollMWsSqEZgAk7nLZhieAMCCO9GIvzkhwT0IUAHQB9bJV7SvlzuYCyxez66+N/B6XqJvx2UAoCav4iegevLnvdl7nyolGkoTA0CdABqwOGp+AksX768a1k2+07fts/HC3Zd/BJRAhKoTQDOwCbMJPg6tnG+kRsZ1WbFs/ESoAMQL3+WXoUAuvhfj5fo+dgi9zQkyVZJxsMkoDKBCd91b/Qd5+vFYvFhlQWlbMkkQAcgmXZXUmuxKl82nb4Awp2Lf6uUFJJCkUArBDzvac+2vz45OXkdZxG0ApDXyCBAB0AGVebZFAG09t+EC96HLv5jmrqQiUlAQwK+53035ftfLQwP36Oh+BTZIAJ0AAwypk6qiF32IO+7sAzrxaj41+gkO2UlgTAIIFbgCawt8OnB4eEbkR+XIA4DKvNoigAdgKZwMXFQArPd/LZ9MV5+70Yk/4qg+fF6EtCdANYWGIQj/KWdMzNf3I6P7vpQfn0I0AHQx1ZaS4pV+g7CzfZB/HszKv601spQeBKQQ2ACU1y/hT0rPo3ZA8/IKYK5ksBfCdAB+CsLfgufgI2u/jehdXMpuvkPCz975kgC5hFAj4CH5+UuLDD0acQJ3GuehtRIFQJ0AFSxhGFyoOIX4/sf5fi+YYalOpESgC+w2besK9EjcHOkBbOwRBCgA5AIM0enpIjotz3vSuzAt3d0pbIkEjCcgOc9ipkDFyJg8BHDNaV6ERKgAxAhbJOL6s3ljkGL/59R8R9ksp7UjQRiJeB5d2FxocsKo6NPxioHCzeCAB0AI8wYnxLo6l/v+P4XUPEfEZ8ULJkEkkNAxAjgxX0zlhr+KIMFk2N3GZrSAZBBNQF5Iqp/L0TzfxJj/GKpXn5IgAQiJgA/oAzH+xsIFrwcjsBgxMWzOAMI0AEwwIhRqtDZ2bkqk8lciYr/rCjLZVkkQALVCbie99md09OfGBsbG6meimdIYCEBZ+FP/iKBygT6U6n2tlzu/8+k09+B13hg5VQ8SgIkEAcB27IOwbN5wbK2tomJycnHIAPW2uKHBGoTYA9AbT48CwKzU/p8/0p0+fcRCAmQgOIEsPFQyrI+ODg0dKfiklK8mAnQAYjZACoXj4p/g+X7n0PFv15lOSkbCZDAUgLoArgHcQIXlkqlLUvP8ggJpFJ0AHgXLCHQ29u7RqxCxgC/JWh4gAS0IiACBeHAf+35ycmPcRtirUwXibB0ACLBrEchaPF3YErf5Ygs/gAkzuohNaUkARKoRwCOgNhk6BPFUumL+MudB+sBS8h5OgAJMXQ9NXvz+Xdbtv3PSJevl5bnSYAE9CSAYYGt6N27ENMG79JTA0odJgE6AGHS1DAvtPr3xAp+30Z3/yEaik+RSYAEWiAAR+A7k5OTF3NYoAV4Bl3CaYAGGbNJVbI9+fxHHdsW0/pWN3ktk5MACWhMAM/8vtlM5t0dbW2D45OTv9FYFYoegAB7AALA0/VSrOJ3UDqV+jbG+rlhj65GpNwkEBIB9Abci17ACwqFwtaQsmQ2mhBgD4AmhgpDTBHkt8fuu38aXt9XMN7fHUaezIMESEBvAngfvBT/LujYfffy+PPP/xLa+HprROkbJcAegEZJaZ6ur7v7BM/3v4opQVjUjx8SIAESWEoAvQFP4OjZxWJR/OXHcAJ0AAw3cG9HR0+qre0LaPGfYbiqVI8ESCA8Ap8aLBY/huymwsuSOalGgA6AahYJUZ6enp7XI7r/BmTJqX0hcmVWJJAIAlhS2LPtt7I3wFxro37gx0ACbejy/xKM+xPoxsrfQANTJRKQTgBBwniH/AprhFwivSwWEAsB9gDEgl1eob2dnessx/k+Ivz3klcKcyYBEkgSAcQP3W1NTp5dGB8vJklv03VlD4BBFsa8/r+zMplfs/I3yKhUhQQUIIDthl9vtbf/pwgmVkAcihASAfYAhAQyzmxEoJ/V1vY9VPwb4pSDZZMACSSCwDUIELwUmjJAUHNz0wHQ3IAYnzsJk3a/jel9KzRXheKTAAnoQoABgrpYqqacHAKoiUftk309PVdjet8PWfmrbSdKRwLGEXghQPA3DBDU27LsAdDQfljKtx9L+d6OLv+DNBSfIpMACZhEwPdvGRwaOhMqcUhAM7vSAdDMYFjO9wjHsm6F2Jzep5ntKC4JmEoAKwg+OTMzc+Lo6Oizpupool4cAtDIqqK7zfL9+yAyK3+N7EZRScB0AqhI1mUc5zd9+fxG03U1ST9uBqSHNdu683kR6Pch7NpFp00Pm1FKEkgUAbyb2rBewDvbly2bnpicfChRymuqLIcAFDdcZ2fnqkwm8yPhYSsuKsUjARIggVkCrufdkSmV3jqQSk0QiboE6ACoa5uU6E7D2NqtjPJX2EgUjQRIoDIBTBX0HefEQqGwtXICHo2bALuT47ZAlfL7crm/R5T/faz8qwDiYRIgAbUJYKqg77qPI3D5DWoLmlzpGAOgnu3TGO+/wXYcsdIWPyRAAiSgLQHEBeyW8v13dLS3jz0/MbFJW0UMFZxDAAoZdgU+ben0D9HyP0IhsSgKCZAACQQmgOHMr2Br4fcEzogZhEaADkBoKINl1Nvbu8b3/Z9iTGZNsJx4NQmQAAkoSsDz7rJLpdMZHKiGfegAKGAHjPcf7FvWT7CsL9fzV8AeFIEESEAqgafKnndsqVSCH8BPnAQYBBgnfZSNAJkzUo7zc1b+MRuCxZMACURFYC0qnv/o7ezk1OaoiFcphw5AFTBRHMZmPldgWd+bUFY2ivJYBgmQAAmoQACzm/qsTOZXfd3dJ6ggT1Jl4CyAeCyfRaT/9bZlXRhP8SyVBEiABGInkMHKgW/nDIH47EAHIGL2/alU++75/I/hAZ8UcdEsjgRIgASUIoBpguLzht3b2/OYJvhjpYRLgDAMAozQyF1dXcuztv0zbuMbIXQWRQIkoAUBTBO8HtMEz9ZCWEOEZA9ARIZcvnx5V1s2+4uUZe0fUZEshgRIgAS0IYDW6H67L1u2Fj0Bt0BoXxvBNRaUPQARGA+R/n2O7z+Alv9eERTHIkiABEhAXwKed+dgqXQqFCjrq4QektMBkGwndPuvzKbTv0AxqyQXxexJgARIwAgCGA64B8MBJ0OZKSMUUlQJOgASDYOW/54WWv4I+EPsHz8kQAIkQAKNEoATsCldLL6OqwY2Sqz5dHQAmmfW0BVikQvMc70PifMNXcBEJEACJEACCwl43qPTnve6kZGRsYUn+CsMAlwIKAyKi/LI5/MHYh9s0e3Pyn8RG/4kARIggYYJ2PZBGEL9pQiibvgaJmyYAB2AhlE1llCs6w+oott/eWNXMBUJkAAJkEANAmvbMYOKTkANQi2e4hBAi+AqXZbL5fbG0r6/ROXPTX0qAeIxEiABEmiRgOd5m7Fp2pFDQ0PjLWbByxYRYA/AIiCt/uxbsWJ1Bpv6sPJvlSCvIwESIIHqBPBuXY9VA3+CFNw7pTqmps7QAWgKV+XEYp5/Kp3+Oc5yzL8yIh4lARIggcAEUGEd1tPd/UNkxLorME1CDIxwjz32yO9a5Gdl4MyYAQmQAAmQQE0C2ETt9Yi1Eruo8hOQAJcCDgBQrO2/LJN5GCv8vSJANryUBEiABEigGQK2vbajrW31+OTk7c1cxrQLCdABWMij4V/9/f3ttufdh8p/v4YvYkISIAESIIFwCCAmYNmyZSsmJiZEXAA/LRCgA9ACNFyS3X233X6Cyv/Q1i7nVSRAAiRAAkEJYDjgkPZly3xsIPRA0LySeD0dgBas3tPTczOiUY9r4VJeQgIkQAIkECIBvIuPwnDAMIYDHgkx20RkRQegSTOj8v8ywk/PbPIyJicBEiABEpBEAPsGvGH3jo4nn3/++d9JKsLIbLkQUBNmReX/IVT+VzVxCZOSAAmQAAlEQ2Cq7HlHlkqlR6MpTv9S6AA0aMOeXO60lGV9H4tRcP5pg8yYjARIgAQiJlDaOTPzqtHR0WcjLlfL4ugANGA2sb5/Cqv8ISlXoGqAF5OQAAmQQGwEPG/LVLn8mu34xCaDJgWzNVvHUJ2dnauw/jSXn6zDiadJgARIQAkCtr1XNpv9EWRJKyGPwkIwCLCGcVbgg60oH0Kvf3+NZDxFAiRAAiSgEAF0bf/P9t133xNBgbcoJJZyotABqG6SLLafvAfzTLnQT3VGPEMCJEACShKAE7Dvsra29MTk5H1KCqiAUHQAqhhBzPXH+MgxVU7zMAmQAAmQgOIE0Hu7oaO9/Y/jExObFRc1FvEYA1ABe3cudyXAnFbhFA+RAAmQAAnoRMCyru3L5zfqJHJUsnIWwCLSYrqf7Ti3LjrMnyRAAiRAAvoSGJkul/cfGRl5Tl8VwpecPQDzmObz+b1Q+d8w7xC/kgAJkAAJ6E+gK51Oi5kBnMo9z5Z0AHbBEFv7Aoa4Qdrn8eFXEiABEiABAwjg/b4fYruuNUCV0FRgEOAulHvssccdiPg/KDSyzIgESIAESEApArMzA9rbR7GF8K+UEiwmYdgDAPAI+vsEQDDiP6abkMWSAAmQQFQELN//9OzqrlEVqHA5iQ8C7OvuPgFr/Iuuf35IgARIgAQSQAC7BxZ9399/aGhoMAHqVlUx0T0AIujP8/2bqtLhCRIgARIgAeMIoOLrcXw/8csFJzYGAGv7tvvt7T/HQhF9xt3dVIgESIAESKA2Act60e5tbSufn5z8Qe2E5p5NrAPQls/f4tj2IeaalpqRAAmQAAnUImDZ9gG7L1v25+cnJh6rlc7Uc4mMAejr6flbGPRLphqVepEACZAACTRMYKrsefuXSqUtDV9hSMLExQB0d3fvCdt92hD7UQ0SIAESIIFgBNowFPw9ZJG4+jBxPQA9+fzjMPb6YPeLcVd/2PX9Tfbk5NOF8fHiYu1yudze6VRqpWfbqzCFZmXKtl+MNH225+2N73stTs/fJEACkRF4ChHtW1BzDSKq/c/4PoDn8lnXsp6t1KJFA6gPwW/iud0ACa+ITEoNCgK/fykMDX1EA1FDEzFRDgC6/q8CuQ+FRs+AjDAL4u7i0NBxrarS2dm5KpPJnIDrj8SLZwNeLCtbzYvXkQAJ1CaACn6r7boPurb9c6S8M8g0NqyK9ws4DofVLjFZZ9EQOhJMH0qK1olxAGZ3g7Jt7gu96M7GC+WcYrH4rUWHW/4pplambfsY1/OOR5ClWFypreXMeCEJJJyA53ljNpx0YPghKv27g1T4i1EyFmoxEfz2vOemPe+V2DRorMJZ4w4lwgFYgU9bOv1btk6X3r/wePfAS2V86ZlwjvTm8yf5tv1WtDTehBy5z0I4WJmLwQRQ6W/HMOWNvut+vzA8fI8sVbH8eR4R8EOy8tc2X9e9eXB4+C3ayt+E4IlwANDVdSsqoNOa4JKIpL7nfbdQKr01ImXbMP54Clozp2PqzUkok85AROBZjPoE8CxuT/n+LXg2vj84NHRnVBKjZ/RHaBiJITx+5hEIu2d0XtZKfTXeAcBSv+diqV/uAFXhtsNL51Q4ALEsgoGegVMQUPhGz7LejNZORwXxeIgEjCaASqaIZ+C76Ha+FS39e+NQFs/hO+B0cAv0RfBnh17K5f0Ht2/ftuiUUT+NdgB6e3vX4AH7LSzG1uai21Z0MxZLpc5FhyP/KVZkLPf0vBMFX4hemnWRC8ACSSBiAqj4H0aRVyP25vqIi15SXH9/f7tXLg/jBGN1FtERdoKNDl902KifeOea+8G0jm9DO1b+FUwMr/+OCocjPzSQSk3gIbsG//ZFPMJr8dDF0iMRueIsMHEE/FTqen9mZl9RqeBf7JW/MMDAwMAEnrm7EmeMBhRG5XgYho+NnjVmrAOA7R7/VhiwATsnMgmm/92umuIIRnwQL8ZT4QgcQEdANetQnlYIoKetnHLd63BPv7xQLJ5dGB19spV8ZF6DuBzl3gUy9W0mb9QhV4qpzs1co1NaI4cAurq6VmIq2u84tlz9VrSLxd1F67t6ivjPYErhgbDh5XgIT4lfGkpAAs0REC1+ONpXwLF9prkro02NodIeDJUWoi1Vo9I87/7BUukojSRuWFQjewDS6fS1rPxr3AOed5fqlb+QHiuZPSZ6BFLl8ivRI/Cd2dZUDbV4igQUIDCBoccv7pyZeYlo8ate+QtehUKhiOdLxCXwU4mAbW9EsOS7K53S/ZhxDgDGbM6CUmIBGn6qEMCSvlp1+Q2OjDwFR+DMGdd9GVS6Bv+mqqjGwyQQCwERVOu67j/6lvVSLCd70ejo6LOxCNJioVhdUKt3QotqtnwZenOu6u3o6Gk5A0UvNGoIQHRlYbzt9whwW6EobyXEws5XL0brGp0Aen7Eg+i1tV2JlQaN9Mr1tEpipZ5Cxf+/Mcb/SZ1Xj+vr6lqbSqf/M7FWbEBx9JLchobIGxtIqk0SoxwAtP5vQOv/HdrQj0FQ3MRbcROLlrT2H7HsMIZ6roLNGSOgvTX1UkAMR6FVeJ09NfXRShto6aXNC9Jio7T/i+dpuY6yRyUz3p+n4/15S1TlyS4H704zPljw5wRW/vVtiYjfh+qn0iOF2O0MD+OpeCgPx79H9JCaUupOAPtc3IEW/75DpdIFplT+szax7ft1t410+T3vS2JpeenlRFSAEQ6AWEwGy2h+OSJmWheDAKVfaK1ABeHhBIgFO16Dl/L5OF2qkISHSCAMAtvgaB6Hiv/k4eHhp8PIUKU8sPfAL1WSR0VZ0EPSt5vjfFpF2VqRyQgHwOvuvoob/TRmfsvzjOkBWKwxIq6/MTE19Qq8yL6x+Bx/k0AQAujyv3ywWHwpHM27g+Sj8rWW4zyosnyqyAZO75rdXVYVgQLIoX0MQG9n5zorkxHL/fJTn0AJL7Hu+sn0T4GFoA7GPgNfhse+Xn9tKmowgUppAB78IPScwH4XU9jbYcLx/Snx3cVMCVsc8/1JMJhC78gUhn+msDOj+Cumqk2h1+yF2RSW1WbhH/Jph4Mo/rY5u/7i+DLMZW9zxFKx+Iso93bkMfsd+bRjRkk/ZOiDhGauuOl5d/qOcxGmym2taAWzDrZhi+BJs1SSow16gp6EM7ivnNyjyzUdXVFySoI39gU5ORuYq+clZpwc23kKXQ/ozuXe7zjOJ/FdiwpKTCebrdRtW8zSGMBGMQPw0v8b30VFP4CKexCV8gB6O6Rt4Yyymv5g8a3lkKs/Y1l9CI7rx0wcjMylevGiFH/7bM/rF991CTITzhV6FS/CfhnGBHw1YNQp3G+PQu+DGkib6CR4Rtch6Py9cAKu0RmE1j0AszvKaTanPc6bBS+1f8UL7cNxyhBH2diGuA+t189g2uDb4ii/Qpnb8KJ9SrQi0Er/HSr2Lag8B5PSysR03X7ci8Ix2MuxrFeCxVp8X6fQMN6nsFLm5TosllXh3gp0qDeX+7ro4g6USXIuLk2Xyy/Tefqn1j0A6Ir8jNYeTNQPim0ncp4vWsuDQP12OALfRBf5V6OqaFDBb0W3/FNwPp7AS/X3qPSeymazT4kNWKI2vULlTe1ydLZCpgXxKLBPB4Ye1sI+azGM8YJjYNtih8hVUcgPe22yy+XzxcJTUZSnZBmWxeHUxg2Tz6bTH0Pyyxq/RK2U2tafmLP6d+hONCYaM4rbAuPAB6Ay3BxFWQqX0dbb3X05Wtz/X4gyljA1bNP8ih5TFMWmL1MhlpHYrNBV0O7lcqKHYM4xWIfK+hA8/6FMx4Jjth3xDB/DsNEXEwt5l+LoATgGzupPk86hKf2np186uH37tqauUSSxlg6AmIcJz+uPuownqmBrvOQ8dP/vBlnKKsgTtwy7FhG6FmN5hzUti+dtwVj8Qxjn/jmC7R6CU6X0Zi9N66fJBblcbu+0ZR0Bx+C1eJEdAbFXNyu6mNOP3oYLdvUSNXu5cenFcBmGZUTMCT8NEoAzqu0KgVo6AIhUvRq2eW+D9mEyQcDznsaOVvsQxkICeOG9Cy+8q3C0a+GZeb887zFUMvejB+WXcDofFJunzDvLr4oQEJUXWvIbUaEfjtkKG+Dc7VdNNPjDg4i/uHhwaOi71dIk9Thiq0a5nHpz1ocTcDgCArXbUEk7B0B4/Xhh/xYvYq3jF5q7vUJIjelMcABODCEn47JYvnx517JM5ipUGufivirjYX4U26M+iIdDtPAfROtQqYh74wwgSSExMyHrOEdgVsKRuxwCEd2eRav/a/j3QZ2DtyQhm80Wc9x/DYdXsOKncQJPYYr1KxtPrkZK7RwATL34KTz7Y9TAp5EUvv9vaO1cqJHEkYsqhgXE8sKRF8wCIyNAG9dHjR6Am9ADcEb9lEyxgIDvn4d37HULjin+A3WpPp9d6/2z8m/BZGjx/KmFyxJ1CSt/881NG9e3MVqFz9ZPxRRLCGAosb+/X4v1RuZk18oBQJQ1o/7nLNfkX4x3bmvyEiYnARJIIAHEuvwxgWqHoXK+PD39oTAyiioPbRwAdP2fhXGpvaMCY1w5nrfNOJ2oEAmQQOgE2FgIhPSDOu0WqIsDIOS8IpBZEn6x5zjcJS/h9wDVJ4FGCGCBtZFG0jHNUgJiavpumYw2q61q4QCg9f83EHTNUtw80igB3JhjjaZlOhIggeQSwGqI25OrfXDNscjYJWJmUfCc5OeggwOQxhz2y+WjMLsEzl03277UjgTCIjCdSrGxEAxmG6YVa1FnKe8AYErK+9F67Qtmj8RfneS15xNvfAIggWYIYPdM9gA0A6xCWiyn/F6sQ7GywimlDintAIjNQTAf9aNKEdNRGM/jmJ6OdqPMJBADAS58FQr0LHYfVb4XQGkHAMJdAlPkQzFHkjPB6nZJVp+6kwAJNE2AG1k1jWzhBVhP4Vxsfb1m4VG1finrAIhlPLHhygfVwqWnNFjaFv/xQwIkQAIkEBUBDF2nUYd9IqryWilHWQcg4zgfAcBQtvtsBYxJ19iexx4AkwxKXUhAPgE2GkJgjAr2HWL56RCykpKFkg6AmEKBqRQfkKJxMjPlw5xMu1NrEmiJAHZLZKOhJXJLL3JSKWV7AZR0AJbttpvY6lerNZWXmp1HSIAESEBbAkrWDTrSFBsrqRoLoKKRs9i682IdDa2wzB0Ky0bRSIAEFCOA4Ve+M8K0SbmsZJ2mnAOAqX9nQaieMNknPi/bbks8AwIgARJoiEA/e18b4tRMIqwL8G4xrb2Za6JIq5wD4Pj+ZVEonrAyOJySMINTXRJolcCOPfbg+6JVeNWva8eKtu+vfjqeM0o5APCQ3sAd/6TcCHygpWBlpiRgHoF0Os33hQSzIrD9IgnZBspSKQcAgDjvP5A5q1+sy+YU1TXgGRIggSgIYClgDsFKAI24in5sbPdOCVm3nKUyDkBvZ+c6CHNMy5rwwpoE2tNp7qdQkxBPkgAJCAKYtsZ3haxbwfMulZV1K/kq4wD4Gu2h3Aro2K+xbXr1sRuBApCAFgToAEgyE3oB1vfmcso0dJVwADD23wdBzpLEnNmCgGtZdAB4J5AACdQnwHdFfUYBUmCoW5leACUcAIdj/wFupwYv9bw1DaZkMhIggSQT8LyXJVl96brb9gm5XG5v6eU0UIAKDkAWy07+TQOyMkkAAjD0ywNczktJgAQSQgAtVGXXrjfFBBnbVmJGQOwOAKIiz8C4yHJTDKuqHnio91RVNspFAiSgDgHPtukASDaH5/vvQBFZycXUzT52BwASnldXSiYITsC21wbPhDmQAAmYTEBMF0alwHghyUZGo3cFGr9vk1xM3exjdQC6urpWQoCj60rJBGEQyItgyzAyYh4kQAJmEliWyaw3UzP1tMI27efHLVWsDkBakXGQuI0QYfl8uCOEzaJIQDcC2IiN74iojGbbG9Aoi3VoNlYHAMv+nhsVa5aTSsHYB5IDCZAACVQlYNsHVD3HE6ETwAy494SeaRMZxuYAYPzjTSicY01NGCtoUgSeHBo0D15PAiRgMAHPO8Rg7VRU7VwIlY5LsNgcAIx/XBCX0kkt17FtPtxJNT71JoE6BGYDAG071i7pOiKaeFrEZp0Wl2KxOAAi+A/d/2+IS+kEl5vHh1N8EnwDUHUSqEagra1tY7VzPC6PgOP7sQUDxuIAZNNptv7l3U81c077/utrJuBJEiCBpBI4LqmKx6m3l0q9Pq4ZWrE4AFz5L77bzXOcY+MrnSWTAAmoSgDDsieoKpvJcmFNABvBgO+LQ8fIHQDshHQ09OV89DisjTJh8GPwJ/YVqGJSn8WSAAlUICC2Y8ew7MoKp3goGgLnRlPMwlIidwB8x3nrQhH4K2IC7ehuOjriMlkcCZCAygTS6VNUFi8Bsq16UT5/UNR6Ru4AoMA3R60ky1tIAEEnpy48wl8kQAJJJmD5/ulJ1l8F3X3bjrxxHKkDgLn/IgCtSwXYSZbBT6XeBv1jm3uaZPbUnQRUIzA7M8i2uUhY/IY5I2oRInUALNeN3MOJGqgO5VnYiKIvxrmnOjCijCSQFAKoBESDgJ/4Cazq7eqKdK2WSB0ArDP9pvgZU4JdBI4iCRIgARKwff+lpKAGASudfkuUkkTmAKDFeQKi/1dEqRzLqkLA87a4qdSHq5zlYRIggQQRcMWmbHgnJEhlZVXFFPl3RClcZA4AWv9vj1IxllWZgO9523e67rFDQ0PjlVPwKAmQQJIIiHeBeCeId0OS9FZRVzFFHrFyh0UlW1QOQBo3F6eZRGXV6uVMwdM/fnR09NnqSXiGBEggaQRm3wl4N6AFWk6a7qrpG2WsXCQOQE8udxI8m+WqgU6aPFhy8szCyMimpOlNfUmABOoTEO8GK5U6u35KppBJAL3lkc0GiMQBSDlOpIENMo2jcd4fLxaLt2gsP0UnARKQTKBQKt3o+/6/SC6G2dcgIIYBsFjbhhpJQjsVjQPA7v/QDNZKRq7n3ThYLF7eyrW8hgRIIFkECkNDH0n5PhsLcZrd998YRfHSHYBda/93RKEMy1hKAN3+W4dKpXOWnuEREiABEqhMwB4aEkMBz1Y+y6OyCTipVCQbM0l3ACzHOV42LOZfmYAI6EF3nljic7pyCh4lARIggaUEBlKpCTQe3o53CP7wEzkB294LKzT2yy5XugOAu+cNspVg/pUJWJZ1Oab4bK58lkdJgARIoDoBxAw9jAbEP1VPwTMyCaRt+zSZ+Yu8EfQp74NAhj7sc/zf8kpgztUIwPHahAf40GrneZwESIAEGiBg9+Xzv8JWwZHvVNeAbEYnQezWHRi+PVmmklJ7ALDE5EkyhWfeVQlMlMtlzryoiocnSIAEGiTg7drCfarB9EwWEgHHto9GVnLr6JBkrZgNtjc8seIJHpRLwPcvHBkZeU5uIcydBEggCQQKhcLWlOt+MAm6KqZjO4LoN8qUSaZ3YSNzsf0vPxESQNf/DwaHhq6LsEgWRQIkYDiBweHhf8MqoncZrqZy6iGOS2oQvTQHAOP/R4Bmu3JEzRZoYnJy8nyzVaR2JEACcRBwLes8lMuhgAjhe7YtNYhemgOAjKV6LhHaQJuiXNf9xI4dO0raCExBSYAEtCGAGUWDeMf8b20ENkBQ1KPrZE4HlOYAYD3jSBYyMMDGYanw7NDwMB/OsGgyHxIggSUEMrvtdiUOspGxhIy8AzIXBZLiAIjpf8h4P3lImPMSAr4vgnS44M8SMDxAAiQQFoGBgYEJ1/c/HFZ+zKc+Acv3j6ufqrUUUhwATP/b2Jo4vKoVAmLOPwL/bm7lWl5DAiRAAs0QwFDAN5D+qWauYdoABBxnY4Cra14qxQFA5OKRNUvlybAJvCfsDJkfCZAACVQjgF6A91U7x+OhE8jncrm9Q88VGUpxADzLEjMA+ImCgO9/Cyv+PRFFUSyDBEiABAQB9AI8iJ7H20gjGgJpSXVq6A5AV1fXcmTK8f9o7osUdvv5SERFsRgSIAES+AsB9PRycaC/0JD7BXEAh8soIXQHwHGcw2QIyjyXEoAH/pVSqYSNu/ghARIggWgJiBUCfc/7brSlJrM0Wb3qoTsAWC2K4/8R3KNim86ZmRkxJYcfEiABEoiHANYeiafgZJVq2/aey5cv7wpb69AdAOz+x/H/sK1UIT/bsm4bHR19tsIpHiIBEiCBSAgURkefRE/kvZEUlvBC2traNoaNIGwHwMbNwCGAsK1UIT+M/f9zhcM8RAIkQAKREvB9/6pIC0xoYRhuCb13PVQHoKen5xB0VaQTap/o1Pa8BzH2/2h0BbIkEiABEqhMADMC7kLDjzORKuMJ7ShWBAy9dz1UBwCZhS5gaPRMysiyPmmSOtSFBEhAcwIzM+wFkGxCOFkHooi2MIsJ1QGAgFKmKoSpsPZ5ed4WrPp3p/Z6UAESIAFjCBRHR7+DAPDnjFFIQUXQu2735nKhDrGH6gCwB0D+XeOnUp+WXwpLIAESIIGmCHjYAO7qpq5g4uYJ2PYhzV9U/YrQHACxARCKCX2aQnXRk3cGM//KO8tlzrtNnumpMQkoT2DGdb+lvJCaC+j5/r5hqhCaA2B73rowBWNeFQhY1r3b8alwhodIgARIIFYCIyMjz6GRsjlWIQwv3LLtUOvZ0BwAy3HWG84+dvWwHOT3YheCApAACZBAFQJYHpjvqCpsQjnseWuRTzaUvJBJaA5AynVfGZZQzGcpgV3d/9zydykaHiEBElCEAIcB5BpCBAJiun1oOwOG5wBYFjcAkmh7GOoedv9LBMysSYAEAhPgMEBghI1kEFpdG5oDgCmAoQnVCIHEpbGsmxKnMxUmARLQjgCHAeSaDEPBofW2h+IA5HK5vdEzwRUAJdlddP+7qRS7/yXxZbYkQALhEUBjkDOVwsO5JCc4AKE1tkNxAFD5hxqZuETjhB+Ake7GcpvjCcdA9UmABDQggHfVM5wNINFQIda3oTgAWAFqf4nqJj5reNQ/SzwEAiABEtCGABqF92ojrH6CrupPpdrDEDsUBwBTANkDEIY1quQBB+DBKqd4mARIgASUI+C57s+VE8oggWa6u8W+AIE/oTgAkCK0MYnAGpmXwRR3/jPPqNSIBEwmMDUzw0aLRAM7Ic26C8MBaEMmayTqmuissfQjH6RE3wFUngT0IzA2NjaCoeGn9ZNcD4l9131FGJIGdgAwA2B1GIIwj8oEbMv6ReUzPEoCJEAC6hLAzKWH1JVOb8k8ywql0R3YAcjYdiiC6G0OedK7vn+/vNyZMwmQAAnIIYBuajZe5KBNOSHVu4EdAHTzrJakY+KzFfP/MaVmU+JBEAAJkIB2BHzbflA7ofUReHUYogZ3ACzrpWEIwjwqELDtR3B0usIZHiIBEiABpQkUCoWtELCktJD6Ctfe29HRE1T84A6A768OKgSvr0wAxnm48hkeJQESIAH1CWAKM+MAJJnJ2m231UGzDu4AhBSMEFQRE6/3Pe/3JupFnUiABJJBAMvWciaAJFO7tr06aNaBHQB4eGuCCsHrKxOwUqlnKp/hURIgARLQgIDv/0EDKfUU0fMC172BNvDp7u7uwDS1FXrSU1/qac+jA6C+mSghCZBANQK+L+IA+JFAACvwBo6/C9oDsKcEvZglCIgZAGJvbcIgARIgAV0JsBEj0XIhxN8FcgCw73PgLgiJeLTOGoZh619rC1J4EiCB0dHRZ0VjhiTCJ2DH7QCgkqIDEL5dZ3PEKlp0ACSxZbYkQALREWBjRg7rMOLvYJtAnxcFupoX1yJAB6AWHZ4jARLQggAbM3LMhC2X00HXAgjkAMADCbwQgRw0+ufqMHpWfyNSAxIggRS6qhkIKOk+sLLZfJCsAzkAtucFKjyI4KZfizme7AEw3cjUjwQSQMCzbU4FlGRn13G6gmQdyAFAwXQAgtCvca3jeSM1TvMUCZAACWhBAMHi27UQVEMhwTZQL3wwB8C26QBIummwCuCEpKyZLQmQAAlERsDyPDoAkmiDbXw9AJjeEahwSUzMyDabpQNghiWpBQkkm4DvjycbgDztPd8P1AgP0gOQRRTicnmqJTzn55/nQ5PwW4Dqk4AJBFzLGjNBDxV1cBwnF0Sulh0ALAPM1n8Q8nWu9ZYtYw9AHUY8TQIkoAUBOgCyzOS68fQA2OVyoIJl8TAl36GhIfYAmGJM6kECCSaAQDU6AJLs78U1CwAbEdABkGRUZMvWvzy2zJkESCBaAmzMyOMdqB5ueQgA4zqBCpbHw4ic6QAYYUYqQQIkIHozETCOdeP4CZsA1uIJNBTfsgOAbh06AGFb86/50WP+Kwt+IwES0J8A32kybBhwKn7LDoDvuitk6MM8X9gKmBxIgARIwCAC7NWUY8xADfGWHQBMP8jK0Ye5Ynol2fI2IAESMIYA32nyTNmfSrW3mnvLDgCHdFpFXv86sE3XT8UUJEACJKAHAb7T5NnJ7e3taDX3lh0AeHROq4XyutoE6C3X5sOzJEACehHgO02qvaJ3AKSqk/DM6S0n/Aag+iRgGAG80zisKcum09PRDwG4rtty74EsDqbkS2/ZFEtSDxIgAUEA7zTWF5JuBcu2o3cAhE0l6cNsUynGAPAuIAESMIUAW/8SLemnUtEPAdCjk2jRVIoPjFS8zJwESCAqAtg3hu8zmbAtK5YeAJkqMW8SIAESIAEDCMzMzLBHU64do+8BwEqANKpEo3Z1dXGrZYl8mTUJkEA0BFBX8F0mF3X0DoBcfZi77/tcaZG3AQmQgPYEMpkM32USrejFNATAIECJRsWgGb1miXyZNQmQQDQE0Jjhu0wialTE0fcAuJ5HB0CiUb10ml6zRL7MmgRIIBoCNnszpYLGGgu7t1pAy5W4Y9vlVgvldfUJYJlFes31MTEFCZCA4gS4cZxcAwXZl6dlBwALAU3LVSvZuTMGINn2p/YkYAoBTBlnb6ZEYwapi1t2AOB1sAdAolGxuhMfGol8mTUJkEA0BHzbZm+mRNRB6uKWHQC0UHdK1IlZu27LgR2ERwIkQAKqEMA0wE5VZDFRjiB1ccsOAAIPPBNhqqKTa1kvUkUWykECJEACrRLAUrV9rV7L6+oTgIPVcm98yw5AkG6H+ioxBQzTTwokQAIkoDsBOAB8l0k0ou95LcfjtewAuL7fcqESWRiTtUWv2RhbUhESSDIB2/PoAEi8ASzfj6EHIEC3g0QWxmSN8RU+NMZYk4qQQHIJ8F0m1/ZegID8lnsAgnQ7yMVhTO6rjdGEipAACSSSQH9/fzumAXIWgETrY6GlqVazb9kBCBJ40KqwSboOD016BT5J0pm6kgAJmEVgenp6pVkaqaeNVy5HPwQADBPqoTBLojbb5jCAWSalNiSQKALYMpbvMNkWz2Rarotb7gHADkTbZeuV9Px9y+LDk/SbgPqTgMYEPNdlD4Bk+1mu23Jd3LIDYAcoVDIPY7K3HGcvY5ShIiRAAokjYGcyL0+c0hErjDVjoncAygEKjZiPtsVhx0U+PNpaj4KTAAngHcZGjOTbAGvyRO8AOFNTLRcqmYcx2WNHQD48xliTipBA8gjwHSbf5pOTky3XxS0PARTGx8fkq5bsEjB/lg5Asm8Bak8CehOw7bV6K6C+9GNjYyOtStmyA4ACp7gfQKvYG75uNVIGsVHDBTEhCZAACYRJoKurSwQAtoWZJ/NaSAB1cKCGeLDKxbZLC8XhrzAJiLUAcrkcewHChMq8SIAEIiGQsSy+uySTRgUenwOANZ5b7nqQzMWY7NN8iIyxJRUhgSQR8DmLSbq5PdsOVAcH6gFA4S0HH0gnY0gBlm2vN0QVqkECJJAgAmgg7p8gdWNRFYwD1cGBHABoXIxF6wQVimk0r06QulSVBEjAHAIHmaOKmppgq+XBIJIFcgDgfQwEKZzX1ieAHoCD66diChIgARJQikAas5jYeynZJGAcqA4O5ACg8P+WrF/is4eBevL5PJcETvydQAAkoA+B7u7udSKIWR+J9ZQUDcQ/B5E8kANgBfQ+ggiepGuxmAa70pJkcOpKApoTwBa1fGdFY8P4hgCwJXCg7odo+Ohfiuf7jAPQ34zUgAQSQwAt01clRtkYFcUw/HNBig/UA4AdAQMVHkTwJF3rWBa96SQZnLqSgOYEMDx8oOYqaCE+NgIKVAcHcgCsiYlA3Q9aEFZBSNveCDEC2UoFNSgDCZCA+QQQsNSe8jw6ABGYOpPJBOqFD1SpYD+AIpcDjsDKWE6zp6fnkEhKYiEkQAIkEICA1929kQGAAQA2eKlYBnhgYGCiweQVkwVyAESOyCCQB1JRKh5cQsB33Q1LDvIACZAACahGwPePUk0kE+UJo+4N7ABgNcBAYxAmGkaGTgiq4UMlAyzzJAESCJvA0WFnyPyWEgij7g3sAECsrUtF45GwCdiWJXoAwrBX2KIxPxIgARKYJYAdAJcjAJALAEVzPwSuewNXKMjgmWh0TXwpjANI/C1AACSgNgFsXnY0xv8D1ytqa6mMdP8VVJLAhoK394egQvD6xgjAWMc1lpKpSIAESCB6Arbj8B0VFXbXDdz4DuwAQNfAQkTFS/dy4GydprsOlJ8ESMBoAmcYrZ1CylmeF7juDewAYC2AwEIoxFRpUWCs/bDGdp/SQlI4EiCBRBLAu+kIKN6VSOVjULowOrolaLGBHQCxFgCECDQXMagSibre896cKH2pLAmQgB4EfP90PQTVX0qsASCm308H1SSwAyAEgDCBPZGgiiTlestxTk2KrtSTBEhAHwLYHO5t+kirt6SouEPpeQ/FAcDOT6EIo7dJIpLe8zaKqTYRlcZiSIAESKAuAWxZfhCC/zk8WZdUOAn8kOrcUBwA37bpAIRj17q54CFL43NK3YRMQAIkQAIREUBF8paIimIxIICA8MBTAAXIUBwAdP38nlaJlMA5kZbGwkiABEigNoGzap/m2TAJoM59Ooz8QnEAyr7/ZBjCMI8GCXje0ZwN0CArJiMBEpBKoDeXOwY9k9gEkJ+oCFjp9BNhlBWKA1AqlZ7groBhmKOxPPCw2Zbv/01jqZmKBEiABCQScBz2SErEWyHriUKhEHgZYJFvKA4A8plGRpwJUMFS0g7ZNh86aXCZMQmQQIMEsuiO5tTkBmGFkszzHgslH2QSlgOQclOpzWEJxXzqE4Dh1mAYYEP9lExBAiRAAnII9HR2ipX/2uTkzlwrErCsULr/Rd6hOQCO7z9eUVgelEbAsqz3SMucGZMACZBAPQKZzHn1kvB8uAQwBfA3YeUYmgOQsm0GAoZllUbz8bwzejs6ehpNznQkQAIkEBaB3s7OdahAjg4rP+bTGAHEf4XW2x6aA4CZAKEJ1RgGphJrAqSWLbuUJEiABEggcgKZzIcjL5MFpgaHh9WLAcBMALE28QjtEy0BDAOI2QDZaEtlaSRAAkkm0Nvb2+N7Hpf+jfom8Dwx/78cVrGh9QAIgbA6UWieSVgKJiCfrt58/twE6EkVSYAEFCHglcsXzfZAKiJPUsQIO9g+VAfAd91HkmIIlfTENBwOA6hkEMpCAgYT6O/vb3cc528NVlFZ1VBh/ypM4UJ1ABzb/kWYwjGvBgnY9t7oBWB3XIO4mIwESKB1AjM7d34AV3e1ngOvbJUAAgAfbvXaSteh8RjeB/PSOxzL2hFejsypUQJYifGZYqn08kbTMx0JkAAJNEtA7ESatu0/ovt/RbPXMn1gAlODxeLuyAWj7eF8Qu0BGBoaGk+9EKQQjnTMpWECeCD3RC/AOxq+gAlJgARIoEkCGcf5CCv/JqGFldzzxBB7aJW/ECtUB0BkiCCFh8RffqIn4KdSV0RfKkskARJIAgGx5ghmHV2SBF1V1NH1/dDr1tAdgJRl/VJFeEmQib0ASbAydSSBeAhYbW2igcFlf+PBn5IRYxe6A4Cx6FCDFGJirW2x6AW4SkTpaqsABScBElCOQC6X2xt9z+9WTrAECYTe9QfDVjd0B2B4ePhpOAFjYQvK/BojgF6A/vL09OWNpWYqEiABEqhPIGNZX8a7JV0/JVNIIYDYutkYu5AzD90BEPKhFRq6pxKy3qZn93f5fH4v05WkfiRAAvIJ9ORyp2Gvlw3yS2IJ1QjIiq2T4gBYtv1ANUV4XD4B4anDVf+6/JJYAgmQgOEE0rbjfM5wHZVXT1adKsUBAM27lSdquoC2fQQXBzLdyNSPBOQS6O3u/nuUsEpuKcy9HgFrYkJKnRrqQkDzlejJ50fREuViEfOhRP99xLesfQqFQjH6olkiCZCAzgTEMCIW/fktdOBmYzEaEsGXTxSLxf1liCCrB0DEAdwlQ2Dm2RSBLst1r23qCiYmARIgAawRg8/3AIKVf8x3Ayrpe2SJIM0BwHoAP5UlNPNtgoBtn4ChAE7faQIZk5JA0gn09fRcjsphv6RzUEF/LAAkrS6VNgSANaNXZtPpP6kAkDKkJnbOzOwzOjr6LFmQAAmQQC0C6Po/EJX/r0UXQK10PCefAKbUl7HHi1j/f1pGadIMPDIy8hz3BZBhspbybM9kMqI7jx8SIAESqEpAbOiGSuEmVv5VEUV7wrYfRIFSKn+hiDQHYJaSZd07+5f/i50ADH0wInq/ELsgFIAESEBdAr7/76j891RXwGRJhu1/fyZTY6kOALovpI1dyIRiat7YyOP9PT09bzJVP+pFAiTQOgG8Gz6E9eZPaj0HXhk2Adv3pUz/m5NTWgyAKEDsHY04gP87Vxj/KkFgYsZ1XyWWbFZCGgpBAiQQOwF0/W9wLIsLuMVuiQUClAaLxe4FR0L+IbUHAHEAY55kDyZkHknIrh3ret++Ap8kKEsdSYAEahPo7Oxchcr/+7VT8WzUBFzPu012mVIdACG8jcpGthLMv0kCtr1XNpv9Ea7iHN8m0TE5CZhEYPny5V0IEL4POuVN0ssEXVA5S687pTsAmMN4iwnGME0HGP6wvlzuBtP0oj4kQAKNERAR/23Z7M/wLljT2BVMFSGBiUKpJHX8X+gi3QHAFoaDmA74aITgWFSjBBznzd253JWNJmc6EiABYwhkERT8E0T8rzdGI5MUcd07oY606X9zqKQ7AKIgrEd/61yB/KsWAcdx/gGrfv2tWlJRGhIgAZkE+vL52/HyP0xmGcy7dQJR1ZmROABYj156MEPrqHklpmt+oaez8yySIAESMJ6Ajcr/x1jp/w3Ga6qpgmL1P8+yfhCF+JE4AIMjI09BmW1RKMQymicwu+qX43yzr7v7jOav5hUkQAKaELAx1/9WVv6KWwsL6GHofDwKKSNxAHYpcnMUCrGM1ggIJwBTNm/AxkGntJYDryIBElCYwGzljxc+n2+FjSREi3LmXHQOgOtyLXrVbzzbTlu2fTtaCe9VXFSKRwIk0AQBPNPfZ+XfBLAYk/oTE5E1lqWuBLiYIcae/oTup5WLj/O3egSwCMVnh0qlD0IyTz3pKBEJkEAjBMRUv9lofwb8NYIr9jR42d5bLBZfF5Ug0fUAQCOsCXBdVIqxnGAEsCb4JXDYftTf398eLCdeTQIkEAeBPfbYI4/K/5d4yTPaPw4DtFCmj2HYFi5r+ZJIHQB4N5Eq1zIVXvgCAUQKl6enf4E9Hdhrw3uCBDQi0NvZuW73Zct+jRf8Oo3ETryorutG1v0vYEfqAIgNaDDFYXPirawRALFQCDZ0ehxjiGxFaGQ3ippcAuj2f5eVyfwKBFYnl4J+mqOBfJvYPydKySN1AIRiqFD+PUoFWVYoBPJYzfEBTBM8N5TcmAkJkEDoBMRwHWbx3ISNfb6OzDl0FzphuRlG3f0vtIk0CFAUKLqT0aL8k/jOj34EfNf9fGF4+GL9JKfEJGAuAdHl72cyYnW/NeZqaa5m6BkfK5ZK/yNqDSPvAUAXx3NoTT4UtaIsLxwCluN8oCeff7y3t5cvmnCQMhcSCEQA+3m8H13+Yryfz2QgkvFdbMe0aV7kDsAsYg4DxHenhVCyiAuwfP+32E3wnSFkxyxIgARaILACn+58/ofYz+MLuLythSx4iSIE/JgC5CMfAhC8xR7U7W1tw4qwpxgBCGC9gBundu68aMeOHaUA2fBSEiCBJgiIFTtRaVwNZ7y/icuYVEEC6P4fQPf/i+MQLZYegLGxsRFEPH4nDoVZZrgEsF7A25btttt/4YV0CXJOh5s7cyMBEphPABH+e2JGzk/Fip2s/OeT0fc77Pi1uKSPpQdAKIsbeQOiVR+IS3GWK4GA521xLesCbGTxoITcmSUJJJYAmvntXk/PFWgtXoIKg462IXcC7OlZU1MvKoyPF+NQKTYHQCiLleZ+j3mBe8WhOMuUR0DMZ8UKLdc4cAAAKSdJREFUZB8sFApb5ZXCnEkgEQRs9K69C939n0DF35cIjZOkpOfdOVgqnRiXyrEMAfxFWdv+6l++84sxBHBTnYYgwd/19fRcJdYiN0YxKkICERIQvaTo7v8Nuvu/yso/QvARFgXH7ssRFrekqFh7ABgMuMQeJh4opVz3isHh4S+aqBx1IoGwCeTz+b1Q4X9SONJh58381CEQZ/DfHIVYewAYDDhnBqP/5lOYpiR2gkRrRmwznDVaWypHAi0S6OvqWouptd/DS/l3rPxbhKjRZXDyYgv+m8MUaw+AEILBgHOmSMhfz3tOjGcWSqWvJERjqkkCNQngHbgeMTOXs9Kvicm4k9Pl8v+cXRgvRs1idwCE7gwGjPEOiK/oEna+usbeufMLcUXAxqc6SyaBlI0esdNsz7sYgdAbyCNhBGIO/pujrYYD0NPztxDoS3NC6fgXke/34mF+LGVZ/4kAuCf/u1R6dL4e8PL3dHx/Zcr3V/m2vQppDsU1R6AbaPn8dEn8Dg7XYzzsc6VFzJLIgjqbTUCs3teWzb4bWl6Ef6vM1pbaVSOAd95xxWLx7mrnozquhAMg5ri6+fyfEe26IirFwyoHK+F9duf09CdEPEMreSLg50AnldoAp+At6AI8rJU8TLkGD8Um23WvRsDgt0zRiXqQgCAgxvdd274UC2eJyp+fBBPAe+5JVP77qoBACQdAgMCGFldiTet/UAFKgzJMYGe8U7Ez3j0Npq+bLJfL7Z2xrPPRJXguEufrXmBoAvQGDKJn5Ctlz/syegUGDFWTaiWAALbQPgO9fheymz8Bxm5URd8/b3Bo6LpGk8tMp4wD0NvR0WO1txdkKhty3h8fLBYvDznPv2SHIYMzEBh0MXsFUvekZma+mV627JaBgYGJvwDiFxJQkIDo4s9msydBNNGj93r85SY9CtopRpFKqDe6Yyx/QdHKOABCqt5c7uvYbvZdCyRU9EdUYzgIFNoPCC7Dy+QsRVFEJdYEZg/cgq2kb8IMgjuiKpTlkEA9Al1dXSsztv1mDOOdjOf06HrpeT65BHzf/2hhaOifVCGglAMgxslS6fR/qgKnlhxwAN6HcZxraqUJ8xxmSmxEflejK3HvMPPVNK8p8L8Lsn9/enr6ju34aKoHxdaUAObrH+ymUiejl+4kDFet11QNih0tgYmp6ekXq/S+UsoBELZARfdjVHJviNYuzZeGCugJOAD7N39lsCvQI/AhtDKuCpaLYVd73qO4Z+53ff9nGWxEhKABDhUYZmIV1MF4/gmY5XMyYlROQaWP2GV+SKBxAogZ+zxixi5u/Ar5KZVzADAMcAyGAX4qX/XgJcjoBejJ5/8XKvijhHTI/z4sFvH5xR7jrimF16LSOyK4FublAG4P42G7Hxzvc4aHH6ZDYJ6NZWuE2Tn9mJ1zEGYmvQrDTgfhWduIMttll8v8zSXgW9bLVNsgTTkHQJgfleDjmnSrTaDVeTi2v90cxm2LXb8uwQvnM/PzQmtjO26coyqVAUfgA9hS+XPz0/N7BQKe9xDsdL9tWb+ewVoNca++VUFCHoqZAJ6l9bbvb8Q4/lFwHMV03MTOwonZFGYW77o3Y3rzW1RTTkkHAF1tb0ZX2/dUg1VJHrQ2i/b09GsGt2/fVul8M8cqOQC7rt+GyNGXVsoLL64NWFTodjhM2q2hUEmfKI7N2uyFYYNHfc/7DzoFUVBXpwwRa+RZ1l6o6PfyHOdwtPA38PlRxz4mSoIGyAGVGnFx66qkAyCgIBbgd+h20yPgDevb4yVy3ODIyFNBDDo7hSid/j+VXkZwAKraqm/FitVeNvtDvNDWBSk/4deWYMNH8KA+Znne72GDLVi45Sk8tOMJ56Kt+p2dnauyjrPe8/1Xo6fsQLxP1kKZ1doqRMG1JIAGxw8QL3aqisJXrVTiFhbBbmehQvt23HI0Wv6urvpTUWE82Og1ldKJrkgsGfyZXWOOLyTxvPsHS6WjKqWfOyach7Z0+oe4jnEBc1DC+Sscg6cwfecZPCy/x3DMU3AQtgZ19sIRLdm5iLVD/Pb2PWGPVSDRh+GzF+Nl24fv/Th2oI4riybbomZqj3vx1YuXhldFU2UdAAFIx02CsMHNRUPDw18MauBZRyCVWo9VxLah8r+/wfza4DjdBMfplAbTM1kwAtvQutyCseOtnm3/AU7CI0EdwGDimH81goQ/5zvOQXiprmUFb769tdfQ8+7C+/t4VfVQ2gFAJfgudN19XVV41eRCK+Qea2LizJh2uRO7jH0fTsBp1eTj8fAJoAdoDHZ/HTc0Cp/t/BzxTjgC7wQxS4gr7M0Hw+9qEnDd1yD47xE1hUullHYABLS+np4/4o/o4tPtM4IK4VKM/XwrDsHhBNzOnoBoyCOQcDuCyirO1IhGgmSVgl6AozFV+EfQmk5AskyvlbZ4/9+L9//rVBZaeQcAFdl7UZFdrTLEmrJ53hacf08T3fg1s5s7KVYGxA22AWPS22dmZr61eK0AkQ5p7lsQSzB3Mf+GSWACdjgUD/oTYWbKvGoTwHvh9Xgv/KR2Kp4lgRgJeN5RYb/3w9ZGeQdAKIx1Af6MqGytV94S2wYPlUqXhmFAUfmjYr9vLi8RgIg57pcu3mFq+fLlXW1tbb/Gi3LNXFr+DZeA57pvLA4P3xZursytEQLaNw4aUZJptCSARsHDaBQcrrrwqBs0+Nj2JzSQsqaI2Af8ElTcvxYbh9RM2MhJLFYyP9nstEHLurYnl1sw7j82NjaCoMQTkZZL484HFt73j7PyDw9msznhBXsNHOuvNXsd05OAbAIICP6I7DLCyF8LB0A86GjlPhOGwrHmYdsHZdPpxxHItEGKHHACFuc7PDz8NGYSKLcC1WI5tfstonslbgetHY+YBEav2gVobW2KqXgWSwJLCMApvUOX2UBaOACCMMa6tfColtwNSw/kEcX8ALov37n0VGNHsFjNrZVSip6Axb0AIh2GBu6EA3V5pWt4rCUCJX9q6pyWruRFoRPAjBuxyEop9IyZIQm0QMB2XW3qKm0cAHhUN2NBlkdbsIeSlwD8N7H077tbEQ4sNouYgkrXzg4HVDhRLJU+jpbSvRVO8VCTBLDR0FtjmuLZpKTJSD5rC9+/LBnaUkulCbjudYXR0SeVlnGecNo4ALtkNuohx0ImX8W+B+fOs0fDX2cDCnGzLblgZub+Jcd2HUBL6e0iYLDaeR6vTwBO1FewpScdqfqoIk0xGwCLTZ8iLZSFkcAiAmXL+uiiQ0r/xI6X+nzGJya2dSxbdjA2Cnq5PlLXkdSyTutob/8jdNtcJ+WS0+OTk7eDxwPoGcEYiS+uvxRL1FbN5/np6ed37+j4L0z9eOuSzHigLgHhPE3t3HnKzp07J+smZoLICey2bNkvEWz7/sgLZoEkAAJ4P/wrGmYVh2dVBaTFNMD58Ho7O9dhKdDfoKtbt96L+Wos+I4bx4Mh3lMolSKJaO7p7v4Jpg2+foEQ/FGXABb8uRQ2+mzdhEwQGwFMGf4kXg1/H5sALDiRBPAKH0Oc2osxPKvV5mHaVaJifAWV1/Um3WXCmRHDAYgJOCkKvVDW+1AOpwY2ARt9LFtZ+TcBLKakeAl/QryMYyqexSaVAKaq61b5C1Np5wAIocuazLEUsjbz8VOpGzBFcM9mrmklbaFQ2IoK7YOtXJvUa7Dhz4eTqrtOeouXsGVZ/6aTzJRVewLbMFX9UzpqoaUDgA1XBrDQglbBFo3cHOgIWI4pgrdjycP2RtIHSTO7tkIqpewmFUF0C/ta0fpHkNnNYefL/CQRsO3PSMqZ2ZLAEgIYGrx4yUFNDmjpAAi2haGhfxUvZk04NyPmWq+7+9vNXFAr7Qp80KuwvlIaa2bmfBF/UOkcj/2VAKb9sUL5Kw7lv6GHq8gVApU3kxEC4uV5L4YGf6CrMto6AACOkQD/Ql3B15Tbst7U2939DzXTNHBSTDFsy2ZH0avwOIKjRvHvf82/TMRTYNjh8/OP8ftCAvCPtmeGh7+x8Ch/qU4A9/VVqstI+fQngOGmC3TWQmcHIIXxvrvggWnrfdW6cXBjXYltT4+plabuuXlLA2N4YQX+XdGXy107/7pMNiuGUp6af4zf/0oAdrhmgAGTfwWiyTcME27BvKw7NRGXYmpIAPus/KOIp9JQ9L+IrLUDILQol8uiF2DqLxoZ9AV7nv+76MJvRaXZHQMrXeg4585ffGhgYGACSwufiqRGMqyEoKlj5fINTaVnYmUIeLZ9kzLCUBCjCKBncHBoePhK3ZXS3gEYGRl5Dkb4V90NUUX+fDabXdBir5Ju6eFyedvSg7uOWNbl88+hJ+UZBLJcNP8Yv88SeEqnZT1ps4UEMER4C45MLzzKXyQQnACmm4r3pfaNJu0dAGFK7Mr2z/jzrPhu2gcGOg0bB53VrF6D27dvwzXiX6XP6sU9BGIRIgS7cax7Hi108YUWjDkvW36NiICYEoghQg4DRMQ7KcXgnroX95YRs4KMcABw402hG/s9pt6AMNJnWhoK8P0rmmGCNe7Px7jpQ81cY3Jax3VvNFm/JOhmeR6HAZJg6Ah1RPe/WEjNiI8pDsBcQOD1RlhlqRJ5RPOLXo6mPrMbpFTaMAi5uJa1vVJmz+/c+UYcf7bSuUQd87zHdvWiJEpt05T1LOsO03SiPjEScN0PzwaYxihCmEUb4wAIKFNTU2JBhlKYgBTK6735fP6gZuUZHB4+b/HWwejCug1dWJsr5bVjx44SIiuPF9PfKp1PzDHbvjcxuhqsqBgGwP1PJ8BgG0emGrajx/vUqHgzoxyAsbGxEeyKZ+baALjL06nU1a3c7LNbB09Pv1RsZgM+52EVQNHKr/rBjoJPYenb45Bgomoi00/4/n2mq5gU/bBD4M+Toiv1lEcAs0rOl5d7PDlrtxtgI5gQNHcrPJvTGkmrWxq03s9GBR7JUAc4vh4cf6IbozDkRUzJHqL1GEZezCNeAriPD8N9/It4pWDpmhP4OILNF8ye0lyfWfGNdAB6Ozp6/La234vFb0ww0gIdPO+5wVLpZTgWyfQmsRgR1iP4IcprWyCHwT/gZG2Ck3WowSomTTW7r6fneSidmHs4aQaWqS+GQ58plkqvQBl4NZj1MWoIYM40hfHxIrYMvnTut1F/bXtldy73d1HphJkB92BmwPEoT/s5r40ys3z//kbTMp0WBDzcw5u0kJRCKkfASaXeDqGMq/wFaCMdAKGYiID3fP9u8d20D5an/cgee+yRj0ov9Djcn3Ld16I8UwMsF6L0/d8sPMBf2hOw7Qe114EKRE/A8z7136XSo9EXHE2JxjoAAl/ZdcVud2PRoIyuFLFtMKYFhr4FZd+KFauxc+AHxKZBi3cQRPTrIztnZl6FltTT0WkaU0mu+2RMJbNYSQTQfGMMgCS2xmbreVvQ+PmYsfpBMSNjAOYbrKez8yw7k/n2/GOGfJ+Ymp5+8XZ8wtCnJ5c7zXacWxfk5Xn3Y0rgefPnw8Mx6ECX2DdT2LFwQVqDfiDYx/jnwiBzNaRKV1fXymw6/aeGEjMRCYCAPzOzr+lLgRvdAyDu4uLo6PXw/m8z8I5uxwvtA2Hphcr/M0vysu2NXjr9+PzeABEZj+GV08H0dPSuDC65RvMD0Iutf81tWEl8sWcI7tdypXM8RgKLCYgp06ZX/kJn4x0AoSQWCBJDAcZVVhgKuFi0yIWOIXxWV8pDzKRwLOvWxUsRI0r+lulyeR8ssvK1StfpegwPPh0AXY1XR2687LbWScLTJIBwP+8u7I3y2SSgSIQDMLtAkG2fY6BBu7Bgz7vD0AsO0uYa+axGzMGSWRVi+AGLDF2AOfNHouWs98sVsQ3Q42I4NMbuKVHDvok4hWWBtyVCUSoZhEBpYnr6zCAZ6HRtIhwAYRC0WO82rbUq9MJg9QfF36AfTJv8XJ083lntPIYFHgLffcQqg3AEtGlBw+kR08PuxC6IxyLYZx/o8Xl0FRsXNFrNbkk7jntcbyc1aQaLQV+8C94622CMoew4ikyMAyDgZkolETm/TXw35oN1AXrz+VOC6jM7bbJOL0CdMqZFHnAE9kVL+ng4AvfUSR/bacj2BOr+y/F3H1T8J86udRCbNCw4KgKw9x+iKovl6EfA9/0v4l1wr36Sty5xohyAAaxtj8rp7NZxqXmlj1iAMCTDmP5R1YYCqh2vVC5a0nfBETgWL9z9Ra8Lro29VS3WhBCBPb5lvQyy7Y+VvT5u0q5elezAY0sIbF1yhAdIAATwrnqyMDR0WdJgJHK6U18u9/cpx/mkScYWlS0qtieC6iSC/drEjADHOXcuL1Tg21FxHoWKvVacwFzyin/FNEPcbCdjWWHRW5GvmCikg2BRtLFzF/7+Ct2+j9pDQ/cL5y+k7JmNpgTw3B+M+/pXmopPseURmCh73gFJbBAk0gEQ9xE2CLkd3R+Bu87l3ZPN5YzK7no4AKH1bsw6Aun0eiHFVLm8WQT8NSdR9dS9nZ3rrHT6IPTG7I9VDdcikHFVyrZ7cEVX9asqnhGV+jbovgVj+Y+Lyr7s+5vxIKO+54cEFhLI5XJ7ZxzndwuP8lfSCeD9EdkGa6qxTqwDgIVBlqcxxx1OwBrVjNKqPBNTUzndA1jy+Xw/9O/H1sdVpzdiMvf4zp07t+3YsSMZSxO3ekPwugUExL2Vtu0/LzjIH4kmIIYoxUympEJIrAMgDD7bEs1kfo2vRuwSBk/2MvQCfCqum7kvn9+IPbMvRmt8466dGLdhDwGxj8AV81cTjEu+uXLFwkYzMzPbwuzVmMubf9UlIJx+LJ71f9WVkJJFSgBTfxEEvD/KjGRn1Uh1a7CwRDsAghGGAs5CL4ARSwVjrH4QwW0vgVqR39Ci8kc3/n3V7jt42p+Fp71kLYFq6cM+PuecwNanzeUtYhsw/HDblOteSmdgjorZf7EtsG+2htSuQQITiGvat1AobG0wvZHJ8D5M9gct5uvRYr3GBApodeP91hPa8sBNMrm8VnrHti/pzueXLjdc66KQzs2WC+dkfuUvsp7tpUCwI1qFVR2XkERgNuoQYDCoOraITRIx7p/0yl/AT3wPwK47MI0W4i9RIxwU2x0ZUsFo1Y5bU1MvK4yPF0PKsqFswO8+8NtYN/H09EubGQ5A5PY7Xcs6wEmlZgMSsdjQNnjut2Kpzh/ULQsJ+rq7z8XGRdfWTYtFjMQ6BnXTMYHWBLDT5Z/h+Ik4E34SSgCV/1fQ8OOKn7A/Yq34AYEyKpmTUcn8Ft+lTlGTTRsvtw63re3rqfHxk2WXNT9/zLP/HFrYG+cfq/g9nV6N49sqnpt3UMxCmG2Z2/Z62GXBB17ruXA47sfshDfW7br3/XPgACy4vtIPLAKyotJxHjOLAO7RcbM0ojbNEEADaTOGSS9q5hqT0+J54EcQwBz3Qb9cjrTSlEUe3e0nYXXAt8nKv1K+xeHh2xDsd12lcwuOlcvbFvyu8kNU/nBmXmj1V0pj2xvb0ulbK52afwxBidvn/670XcQC7CyXr6t0jseMI0AHwDiTNqxQCb2HxyN15DFSDUsYcUI6APOAF0ZGNqF76Jx5h7T9atn2l3p7e3uiVGBwePg8sR8AytxWsVzRzb59e+Vz8y4QUfo1K/+5tHAC5r5W/eu636x6DidmAwFTqfo9CbUy4TltCOD55jtPG2uFJyie8zIW+zleNPTCy1X/nPgwLLIhxoa+JdaEXnRYx59dluvWH/sOWTMxjj5YLL4UNetRyPrj4p9Ygjclxv4bHGN3ZmbqttqF2KLyFn9rfUTPhOe6b0Ti++enm70WPRZ2uXwApgItODc/Hb+TAAkYQMC2z8MCYY8aoEmoKtQfHA21OG0yszHG/ACC2o7QRuIqgrqu+5Gh4eF/qXJa2cMI/rt2/nLEFQVtIXAPdt2YwjBEIz0RFcvkQa0JYJbMb9Dq2U9rJSh8UwTinoLclLARJ6YDUAX4rqVwfwsnYGWVJFocRkvXwxK5J6P1facWAs8TEnMar4D4H8BwwIp5h8XXbWjVXzobd7DoBH+SQC0CdABq0THvHIZ87kWv7uvM0ywcjegA1ODY19W1NpVOi5UC22sk0+GU2OzitTp2gf1lTwLLWi1Au6nU5iCbEok8+EkuAToAibL9tqnp6QPqzhRKFJKFytIBWMhjyS9E05+EgLofLjmh34HSjOseOTw8/LR+olNiEgiHAB2AcDiqnouI8cFmY4fyfVfbUgwCrM0nhQVn7kA3Umi77NUpTubpvGNZP8N66FoPacgExLwTQYDvPPPNPIV39rGs/Osbmg9DfUap2eWCU6kPN5BU6SQYS+/HDogPYJpdn9KCUjgSIAESaJEAKv9TdRzubFHdQJfRAWgQH6a2/asJ0wNh8DWO7/8aawSsaVB1JiMBYwjg/uc7zxhrLlREBDyj8j8dDba7F57hr2oE+DBUI1PheGFo6CLcYNdXOKXXIcxssOAEYH/0g/QSnNKSAAmQQBUCtn0hKv9bqpzl4QoE6ABUgFLrEG6wszGv9I5aaTQ515W27QdEkKMm8lJMEiABEqhIAOud/CPezddUPMmDVQnQAaiKpvoJ7Gt/OnoCHqmeQpsz7X4qdfuubXqz2khNQUmgVQJYFqPVS3mdogSwoicWO/uYotIpLRYfhtbMM10ul4/FiNPm1i5X5yoEBtrYPOgSrJD3m97OznXqSEZJSIAESKA2ATTEbpvdg6R2Mp6tQoAOQBUw9Q6PjIyMYZGJ12GNeTPm1dv23lYm89ve7u5/qKc7z5MACZBA3ATEUCy6/d8Ytxw6l08HIID1xsbGRlzLOgpe6NYA2Sh1qWVZV6I34HdYMOUwpQSjMCQQDgG+88LhGG8unvegGIqNVwj9S+fDENCGYntJDAe8FsMBAwGzUudy9AbgxviF2JAn6i2F1YFASUiABFQkgAbXJjubPR6yTason04y0QEIwVoYDnjOt6zXIqtSCNmpk4XjnOu77u/Fpjy9HR096ghGSUiABBJJwPMeQ4PruIGBgYlE6h+y0twLIESg6DbfDzEBD1TYvS7EUmLLajrl+zdiM57PcDOe2GzAggMS6Mnn/wvP554Bs+HlcRBAvNVUuXwoN/cJDz4dgPBYzuaEbvODPay5j5dMR8hZq5Mdxt882/4qVka8Dc7AuDqCURISqE2ADkBtPsqe9bwtvuMcWSgUisrKqKFgdAAkGE2ssIexFeEELJeQvUpZTviIxPVt+yZE494JwaZUEo6ykMBiAhjO+j84tnrxcf5WmABa/v7U1GsL4+Os/EM2Ex2AkIHOZbfLCfipocMBc2rO/zuBIYKbMUTwo507d94jZkjMP6nyd7E5EmY/7Gd5Xh67P35HZVkpWzACdACC8Yv6agT8PTk5OXnUjh07zIqvihpklfLoAFQBE8ZhsbAO5tY/gLy6wshPqzw871E8vPdiz4GfFIaH71VBdmyFvBy7Ia5DRb8Wzsq+6FJch5iNA//ipCHAaLBUepUKslIGOQTgAPwROa+SkztzDZUAnseJ6eljdWpMhKp/BJnRAZAMOZfL7e04zgMYEkh2FL3n3Y+4gS226/7Bc5xnMG1yW7ZUehpzJ0OL5hUVfCaTyVvlct617VVgvhcq+5enLGvPlG2vhalrOmJiZcdiqXSA5FuC2cdIAGtc/An3wsoYRWDRjRBAAwIBf8cy4K8RWK2noQPQOruGr8RwwF5oZf488U5ABWLoJRDjes+gRT6OinoKFfYUXtDT2KNgAr0H0+iaF3EFEwg4FHsVdKDF3o50Hbiu3bLtdhzL41gefPvxPdCHDkAgfFpcTAdAfTPh2X4Yz/txDDCWb6u0/CJYQqlU2oJx5sM93xdTBANXVCYR3eUU9aBSf0EtG0fwmf01d0z8nvvuOLPnX/j/7Ffs8P7CNbt+tf4Hxmn9Yl6pAwFULjSyyoZCT2G6VDoxzJ5BldWNWza+8CKyALzZZ2Zc91C0VrdEVCSLIQESWEqA77ylTJQ4Itb2xwp/rPwjtAYfhghhj46OPougFuEEPBZhsSyqcQJ8HhpnpWdK9vIoaTf0zHwFa/ufzBX+ojUPX3jR8k6JiFa7VDoSwwF3R1w0iyMBEiAB5Qi4rnsR1hF5j3KCJUAgOgAxGFmMbxWHho5Hl9eNMRTPIqsQsD2PMTFV2JhyGC882lgdY04h+PfEoeHhL6ojUrIkoQMQn709dHm9HcV/Kj4RWDIJJIsAVq7kO08Nk5fKnnf44NCQWEGUn5gI8GGICfxcsYPF4mUp170QU9AwDMYPCZCATAKYXspP3AQQCD1dLh+A2VGMhYrZFnQAYjaAKH5wePjfMO3tTAVEoQgkQAIkII0AWjn3THveq8UW6tIKYcYNE6AD0DAquQmxBv2N6BJ7FToCBuWWxNxrEODzUAOOIado47gM6XnXINjvWFT+Y3GJwHIXEuDDsJBHrL9El9jkzp37wkveFKsgCS0c3Pk8GG57zAJkEGDENkajpuz6/sXYZ+N9ERfN4uoQ4AuvDqCoT4tdr+AlH4mlMBkZGzV8zhGPmjjLM5wAKv9xLOktlvX9vOGqaqkeHQA1zVYuDA1dhODAc9QUj1KRgLYE+M6LznTb0PJ/tSq7gUantj4l8WFQ2FYIDvzWrrgALB3Aj2wCeBj4PMiGHHP+aJFyCCACG2A47eGp6ekDhoeHn46gOBbRIgG+8FoEF9VlIi7Ampo6AMsHPxRVmSyHBEwlwBgA+ZYVw5cYxjycW/nKZx20BDoAQQlGcH1hfLyIAJojsXLgZyMojkWQAAmQQGsEMGw5O3zZ2tW8KmICdAAiBh6kOKwceCm61k5HHhNB8uG1VQiwe7gKGB4mgboEnvVnZvYVw5Z1UzKBMgToAChjisYEQdfaLQis2Z/bCjfGi6lIgATkEkCj5B6s7LdvYXT0SbklMfewCdABCJtoBPlhSs0z2FHwADx4t0VQHIsgARIggWoELufiPtXQqH+cDoD6Nqoo4eyOgsXiG+EEXCYW2qiYiAebIgCWfB6aIqZdYs4ACM9kI+iJfC32Mvl4eFkyp6gJ8IUXNfGQy4P3/SlUXIfi39aQs05idnwezLY67RuCffGuucefmNgHPZEPhpAds4iRAB+IGOGHVTSmCj6aLhb3RX7XhJVnIvPhSoCmm53vu2AWnhA7l4oufzEzKVhWvFoFAnwgVLBCCDKIIQF0x70P3vlxGBLghkIhMGUWZhHo7+/n+65Vk3reoyL4WOxc2moWvE49Anwg1LNJIIngnd+N1QNfkfL9WwJllMCL8TDweTDY7jMzM7Rvk/bdFV90OdYheY0IPm7yciZXnAAfCMUN1Ip4YrvNwaGh09EbcDYe4O2t5MFrSMA0Aq7r8n3XjFE972nfsl69K9APrxN+TCPAB8I0i87TB70B1+OpfSXWDLhz3mF+rU6Az0N1NtqfgTNM+zZoRThL/4RWvwj029zgJUymIQE+EBoarRmRESA4gAf5RG9m5mxcV2rm2qSl9VlBGG1yOgANmBdj/WJFv6Hh4Y82kJpJNCdAB0BzAzYqfnF09HrszvVyRPFe1+g1SUvnJ03hhOm7bNkyrgNQ3eYT6C28TIz1c0W/6pBMO0MHwDSL1tBH7M6FKN7zfNc9FsmerZE0qaf4PCTV8gnWGxX/PRjr31esKQIMHOtP0L3AF16CjD2namF4+B47nd4Hvz+1K8p37lTS//J5MPgO4BDAEuOOoEfwnNl5/YXC1iVnecB4AnzhGW/iygoODAyIdQMuE1G+cPk3VU6VrKNYB4jPg8Emxz71tO8u+6IX8Bt49vfh7n0G3/ANqMYHogFIJicRUb5oARyKdQPOQwuJCwiZbOyE64bI9sTHAOAZ34x1Ql6FXsDzC4UCV/NL+DNBByDhN8Cc+lg34Dq0CF7uet5nEzwswOdh7oYw8G82m02yA1BCT9/7ithFFDODHjPQvFSpBQJ84bUAzdRL0BswPlQqXWp73v5YO+B+U/WsoVdbjXM8RQJaEsDQxxfFDCD09HGvEC0tKE9oOgDy2Gqb8+DIyFOYDnQUhgXeCkfgOW0VaVLwBPd8NElKz+RJGwKYje0pl19ZGBq6SMwA0tNqlFomAToAMulqnjeGBb5rZ7OvQAviY6gcxzVXp674iAFMchdxXT66J0hKECAq/q3YuOetIrZHOPO6243yyyNAB0AeWyNyFrMF0IL4R8txXobI4c8boRSVIAEzCYyg4r8YFf/LMJz3XTNVpFZhEqADECZNg/MSEcOIHL4YgYIvM3WnQfRyoPHEj6kE0p5nag/PBHo3/gWV/0tQ8dNJN/UGlqAXHQAJUE3OEo7A1l07DR4+O8ZokLJcB8AgYyZFFd//Fqb1vRy9dB8RQbxJUZt6hkOADkA4HBOXC7oZHxZjjOgNeAsCBZ9OHAAqrB0BL502pgcAzvcPZlx3Hzjj54gNv7QzBgVWggAdACXMoK8QeAHdLLYNxU56b6cjoK8dKbkmBLC1N1r8r4bzferw8DAdb03MpqqYdABUtYxmchVKpRuFI4CWyTkYSn9GM/EpbgIIYJx8Qls1Pe8uCxU/nrET0eJ/VFs9KLhSBCylpKEwxhDo7u5+l2NZH4NCq3VSCq2rF7NLVSeLNS5rb0dHj9XeXmj8CgVSouJH79oVhZER7tehgDlME4EOgGkWVUyfvu7ucz04AuhqWqOYaBXFsYvF3TGgqm9LsaJWPDhHoK+nx5/7rvJf9KTdgx6LKxDY95DKclI2vQnQAdDbftpI39PT8yYsMXxxyrY3qCo0hi7GsFb6/1BVPsoVnAAcgCHkkg+ek5wcsBfH1xzP+wwX8JHDl7kuJMAYgIU8+EsSAQQt3YLxy9f6MzP7Yg/y61DMlKSiWs/Wth9p/WJeqQUBz1Nu/ByO5yD+Xf785GQ39uK4gJW/FneSEULSATDCjPooURgdfRJ7kJ/nT0y8BFJ/HF2dymxJiofh5/qQpKStEMD99stWrpNxDSr9zZDnbPQ6vQj/Pr5jx46SjHKYJwlUI8AhgGpkeDwyAn253DtTlnURhgcOiqzQCgXtnJl5yejo6LMVTvGQIQR6e3vXWL7/hzjVQTf/jbjfr8b4/oNxysGySYAOAO8BZQj0dnau8zOZi7CewDuwKl9HlIKJlzK6X98eZZksKx4CiEe5Fb09p0VZOlr7zyCo7+v2zp3fKIyPK9PrFSUDlqUeAToA6tkk8RL19/e3z8zMvM2yrPfgRX1wBEBKE1NTrxgbGxuJoCwWETOBrq6ulWnb/k84mctlioJKv4wX7C1YLfPL2EfjXpllMW8SaIUAHYBWqPGayAj0dXWt9R3nfWg9nSurVwC7HL6OL+jITKpEQb35/CmWbd8uSZhnXde9emp6+msc15dEmNmGQoAOQCgYmUkEBNrw0j4NQVNn4qZ9A5yBwOu672qhvRGrGN4RgfwsQjECs7EnjvPNMMTCvTRu+/7Nrm1fy7H9MIgyjygI0AGIgjLLCJXA8uXLu9rb2t4mIqgxRHBIK5nj2q2W617Aln8r9My5BgtVvVkE5EGj1tYG8Lz70cV/rb3bbjcPDAxwASlzbo1EaEIHIBFmNlfJzs7OVdl0+p0YIjgHvQJ71tMUFf/DSHsTWmncN70erISc70+l2r2eng/j3jgNDuV+ddX2vOeQ9qtYNvobIyMjz9VNzwQkoCgBOgCKGoZiNU8A+w+sRzfsWs/3VzmOs0zkgHXURzHGX8J47+BO1310Oz7N58wrkkIA91Afgk/3s123L+U4PdB7D6E7xvQnLccZsMrlLVyXPyl3A/UkARIgARIgARIgARIgARIgARIgARIgARIgARIgARIgARIgARIgARIgARIgARIgARIgARIgARIgARIgARIgARIgARIgARIgARIgARIgARIgARIgARIgARIgARIgARIgARIgARIgARIgARIgARIgARIgARIgARIgARIgARIgARIgARIgARIgARIgARIgARIgARIgARIgARIgARIgARIgARIgARIgARIgARIgARIgARIgARIgARIgARIgARIgARIgARIgARIgARIgARIgARIgARIgARIgARIgARIgARIgARIgARIgARIgARIgARIgARLQlcD/A+4AYw317dh0AAAAAElFTkSuQmCC;" parent="1" vertex="1">
          <mxGeometry x="91" y="193" width="74" height="74" as="geometry" />
        </mxCell>
        <mxCell id="IlMm2bm1_j7ZGz1Ir1Hr-18" style="edgeStyle=orthogonalEdgeStyle;rounded=0;orthogonalLoop=1;jettySize=auto;html=1;entryX=0;entryY=0.5;entryDx=0;entryDy=0;flowAnimation=1;" parent="1" source="IlMm2bm1_j7ZGz1Ir1Hr-13" target="IlMm2bm1_j7ZGz1Ir1Hr-15" edge="1">
          <mxGeometry relative="1" as="geometry">
            <mxPoint x="630" y="230.49500000000012" as="targetPoint" />
          </mxGeometry>
        </mxCell>
        <mxCell id="IlMm2bm1_j7ZGz1Ir1Hr-13" value="Terraform Init" style="shape=image;verticalLabelPosition=bottom;labelBackgroundColor=default;verticalAlign=top;aspect=fixed;imageAspect=0;image=data:image/png,iVBORw0KGgoAAAANSUhEUgAAAgAAAAIACAYAAAD0eNT6AAAAAXNSR0IArs4c6QAAAERlWElmTU0AKgAAAAgAAYdpAAQAAAABAAAAGgAAAAAAA6ABAAMAAAABAAEAAKACAAQAAAABAAACAKADAAQAAAABAAACAAAAAAAL+LWFAAA8FklEQVR4Ae3dD3Bc1X3o8XN2JUNdP79OmpHtlXgTsI3r5zFvHCiM2xiJMFP+WCvX5JkX2RJxSglTmITQhCRuylTTkIQkNH+Y1tPQNHGsleSpU4x3JQxMsWWTgcENYZ4zBGKMwzSSMCrPkxpjDNLe837X9hph69+u7r177j1fzXhs7957zu98ftfWT3fv716l+EIAAQQQQAABBBBAAAEEEEAAAQQQQAABBBBAAAEEEEAAAQQQQAABBBBAAAEEEEAAAQQQQAABBBBAAAEEEEAAAQQQQAABBBBAAAEEEEAAAQQQQAABBBBAAAEEEEAAAQQQQAABBBBAAAEEEEAAAQQQQAABBBBAAAEEEEAAAQQQQAABBBBAAAEEEEAAAQQQQAABBBBAAAEEEEAAAQQQQAABBBBAAAEEEEAAAQQQQAABBBBAAAEEEEAAAQQQQAABBBBAAAEEEEAAAQQQQAABBBBAAAEEEEAAAQQQQCCuAjpugW/c+OsLR9+Y1ZPS+q6thcx/xC1+4kUAAQQQQMAGgZQNQZQdQ0r9qWfMr9qyA1/NZodml70/OyCAAAIIIOC4QDwLAD9pKXWh0vqv/rsxL2/IHlnveB5ZPgIIIIAAAmUJxLcAKC0zpTJaF7vas0PPtra8flnpZX5HAAEEEEAAgYkF4l8AnFmb0ebKtBp9vq158J9as0MfnHjJvIMAAggggAACiSkAzqQyJR8N/Hlay8cCq4c+29RkakgxAggggAACCJwvkLQCoLTC39Np852GuUMvrm8Zurr0Ir8jgAACCCCAwGmBpBYApfwuSimzVz4W2HFLduh/lF7kdwQQQAABBFwXSHoBcDq/Z9oG19M26PrxzvoRQAABBM4IuFEA+IuVtkG5edDptsE1tA3yLwABBBBAwG0BdwqAUp79tkFD22CJg98RQAABBNwUcK8AOJNn2gbdPOBZNQIIIIDAaQFnC4AzBwBtg/xLQAABBBBwUsD1AqCU9LNtg+3ZgY+WXuR3BBBAAAEEkipAAfD+zC4yWj/Z2jK4k7bB98PwNwQQQACBZAlQAIyTz7RSLf7TBmkbHAeHlxBAAAEEEiFAATBRGs+0Df43ua1wa8tQ20Sb8ToCCCCAAAJxFKAAmCJrApRJK9PJ0wangOJtBBBAAIFYCVAATDNdtA1OE4rNEEAAAQRiIUABUF6aaBssz4utEUAAAQQsFaAAqCwxtA1W5sZeCCCAAAKWCFAAzCwRZ9sG169+/ZKZDcXeCCCAAAIIRCdAARCAtd82mNKjL2xoHvx6Njs0O4AhGQIBBBBAAIFQBSgAguKVtkGdUl+ibTAoUMZBAAEEEAhTgAIgYF0BpW0wYFOGQwABBBAIXoACIHjTUyPSNhgSLMMigAACCAQiQAEQCOOEg5xtG2xrGfjLpiZTM+GWvIEAAggggECEAhQA0WD/nlL67xrmDr3I0wajAWcWBBBAAIHJBSgAJvcJ+t1TbYPtzYMF2gaDpmU8BBBAAIFyBCgAytEKaFuTUs0qPfqi3zb4KdoGA1JlGAQQQACBcgQoAMrRCnBbgZ/ltw0e9582uJqnDQZIy1AIIIAAAtMQoACYBlKYm0gCMuk0TxsM05ixEUAAAQTOF6AAON+kKq+caRv8v60tg//cmh36YFWCYFIEEEAAAWcEKAAsS7XcVvjPtDGv0DZoWWIIBwEEEEiYAAWAhQlNpdRc2gYtTAwhIYAAAgkSoACwO5m0DdqdH6JDAAEEYitAARCD1I1pG/wGbYMxSBghIoAAAjEQoACIQZL8ECVRftvgF05o84rfNtjRIWUBXwgggAACCFQowDeRCuGquNt8v23w4M+G/r215fXLqhgHUyOAAAIIxFiAAiCmyZMLBT+cVqO0DcY0f4SNAAIIVFuAAqDaGZjh/KW2wVaeNjhDSXZHAAEE3BKgAEhAvv22wTRPG0xAJlkCAgggEJ0ABUB01lHMdKptcD1PG4zCmjkQQACBWAtQAMQ6feMHL2cESk8bpG1wfCJeRQABBJwXoABI6CEgiT3bNtjWPHALbYMJTTTLQgABBCoUoACoEC5Gu81XKf1jv22wLTv04RjFTagIIIAAAiEKUACEiGvT0H7boNLmufZmnjZoU16IBQEEEKiWAAVAteSrNK/cP/DU0wZpG6xSApgWAQQQsESAAsCSREQZBm2DUWozFwIIIGCnAAWAnXmJKiqeNhiVNPMggAAClglQAFiWkGqEU3raYGvLIG2D1UgAcyKAAAJVEKAAqAK6jVPKgTBLbit86mmDtA3amCFiQgABBIIVoAAI1jMJo9E2mIQssgYEEEBgCgEKgCmAXH271Da4fvXgj9rXHqlz1YF1I4AAAkkVoABIamYDWlcqrTYWR4ovt2UHP9/UZGoCGpZhEEAAAQSqLEABUOUExGF6v21QafWthrlDL7ZnBz4ah5iJEQEEEEBgcgEKgMl9ePf9ArQNvt+DvyGAAAKxFaAAiG3qqhc4bYPVs2dmBBBAICgBCoCgJB0bRw6c022Dxryyfg1PG3Qs/SwXAQQSIEABkIAkVnUJKTU/ZXjaYFVzwOQIIIBABQIUABWgscv5ArQNnm/CKwgggIDNAhQANmcnhrH5bYOmWHxFHjv8hQ7aBmOYQUJGAAFXBCgAXMl0tOucIxcKfuPgnMFf0TYYLTyzIYAAAtMVoACYrhTblS2QSulLjNZPtjUP9a1f/folZQ/ADggggAACoQlQAIRGy8BnBVLmRpUefZGnDZ4V4Q8IIIBA1QUoAKqeAjcCkAPtvbbB7MDGjg75kIAvBBBAAIGqCfCfcNXoHZ3YbxvU+kcHfzb0723ZoQ87qsCyEUAAgaoLUABUPQVuBlBqG2xrGfoxTxt08xhg1QggUF0BCoDq+jO7MrfQNshhgAACCEQvQAEQvTkzni9wqm3wkP+0wTW/ufH8t3kFAQQQQCBoAQqAoEUZbyYCi4xJ9a1vHnxy45++9qGZDMS+CCCAAAKTC1AATO7Du1UQkOsDPjrqeS+3rR781qeyQ7OrEAJTIoAAAokXoABIfIpju8AalVafP+E/bZC2wdgmkcARQMBegfgVAK9+yF5NIgteYEzb4C1rBy4NfgJGRAABBNwUiF8B8KFX3cyU46v22waL76a4QNDx44DlI4BAcALxKwCCWzsjIYAAAggg4KwABYCzqWfhCCCAAAIuC1AAuJx91o4AAggg4KwABYCzqWfhCCCAAAIuC1AAuJx91o4AAggg4KwABYCzqWfhCCCAAAIuC1AAuJx91o4AAggg4KwABYCzqXdn4RtaBv+MRw67k29WikAlAqtW9X78Ix/pvaSSfeO6DwVAXDNH3NMW0J7KFkeKL7dlBz+/ceOvL5z2jmyIAAKJF1i1audljY35Z9Np01NTo+cmfsFjFkgBMAaDPyZXQO4kOFdp9a1336h9YcMNQ3+S3JWyMgQQmI7AH/3Rw3VXX53/vtbqea31ldPZJ2nb1CRtQawHgckEUil9iUqZx9taBh9Lpc1dW3c0HJxse95DAIFkCTQ17ZHve29+1vP0vad+MJCfDFz94gyAq5ln3dePjugX2rMD37lj3fAcOBBAIPkCH/3oo3L27/gvlNLfOv3NP/lrnmyFFACT6fBeogXkP4Aao/Vnj70z8ooUAhs7Ogz/HhKdcRbnqkBT044PNTXt3OV5xcfF4A9cdTh33fyHd64If3dRoE4KgR+98txrz6xvfs3JzwJdTDprTr5AU9O/zJHP+b9uTM2vlEpdn/wVl7dCCoDyvNg6wQJGmytTKe/ZtpahH9M2mOBEs7TEC/hn81atym805ndeket+viQX+s1K/KIrWCAFQAVo7JJ0AXMLbYNJzzHrS6qA39a3Z0/hmXRa/0i+8dcldZ1BrIsCIAhFxkicwKkLhGgbTFxeWVByBWjrKz+3tAGWb8YeDgnQNuhQsllqLAVo66s8bZwBqNyOPd0SoG3QrXyz2hgI0NY3syRRAMzMj70dEjivbVDRNuhQ+lmqRQK09QWTDAqAYBwZxS2BU22Dh5qHnqdt0K3Es9rqCtDWF6w/BUCwnozmkkBKXUbboEsJZ63VEqCtLxx5CoBwXBnVKQHaBp1KN4uNVGDVqsKVtPWFQ04BEI4rozomQNugYwlnuaEL+G19TU35Tq29Z1x9Wl/YyLQBhi3M+E4J0DboVLpZbAgC69b9y6z//M8LP+M/rU+Gnyv/pkKYhSF9Ac4AcBwgEI4AbYPhuDJqggX8tr7XX/+dF3laXzRJpgCIxplZHBSgbdDBpLPkigTGtvXJv5tLKhqEncoWoAAom4wdEChbgLbBssnYwQUB2vqqm2UKgOr6M7tLArQNupRt1jqJAG19k+BE+BYFQITYTIXAaQHaBjkS3BWgrc+e3FMA2JMLInFIgLZBh5LNUk8J0NZn34FAG6B9OSEihwRoG3Qo2Y4ulbY+exPPGQB7c0NkbgnQNuhWvp1YLW19dqeZAsDu/BCdQwK0DTqU7IQv9dprH760qWnnLs8rPk5bn73JpgCwNzdE5q4AbYPu5j7WK/fb+hob898rFmtfkPvMXR/rxTgQPAWAA0lmiTEVGNM2uOGGgYaYroKwnRAwqVWr8huN+Z1X5L79n5Elc31ZDPJOARCDJBGi6wLmFp3Wv2pvGfjrjRt/faHrGqzfLgG/ra+xsff5dFr/SGtVZ1d0RDOZAAXAZDq8h4AtAik12yj9lXffqH1hww1Df2JLWMThrsD72/rUZe5KxHflnKaJb+6I3EEB2gYdTLplS6atz7KEzCAczgDMAI9dEaiiAG2DVcR3dWra+pKVeQqAZOWT1TgkQNugQ8mu8lJp66tyAkKangIgJFiGRSBCAdoGI8R2aSra+pKdbQqAZOeX1bkkQNugS9kOea209YUMbMXwFABWpIEgEAhSgLbBIDVdG4u2PncyTgHgTq5ZqUsCtA26lO1A1trU9GhDU1O+U2vvGennp60vEFW7B6EN0O78EB0CMxKgbXBGfE7s7Lf1vf76BV+Q+/ZvkuNltvxyYt0sUm7WDAICCDghQNugE2kub5FXX72zZXj4ghdTqdRXpKtkdnl7s3XcBSgA4p5B4kdgmgK0DU4TyoHN/LY+eWjPXvnGv1Pr1CUOLJkljiNAATAOCi8hkHAB2gYTnuCJlje2rU8e2nP1RNvxuhsCFABu5JlVInC+AG2D55sk9hXa+hKb2hksjAJgBnjsikAyBGgbTEYex18FbX3ju/AqFwFyDCCAgC9wpm1w9OisX7S1DLaAEn8B2vrin8OwV0AbYNjCjI9AvAQWSbg727KD+1I15ratOxoOxit8oqWtj2NgugJ8BDBdKbZDwCUBra4eHdEvtGcHvnPHuuE5Li09zmulrS/O2Ys+dgqA6M2ZEYFYCNA2GIs0nQqStr745MqmSCkAbMoGsSBgpwBtg3bmRa1c+dgHpJ//e8Vi7Qu09VmaJIvDogCwODmEhoBVArQNWpQOk5Jv/HfU1o68LN/4PyOBcT2XRdmJSygUAHHJFHEiYI0AbYPVTIV8zn91Y2Pv8/KN/x/kY5oPVDMW5o63AAVAvPNH9AhUR4C2wcjd/bY++an/X+X2vXt5Wl/k/ImckNNGiUwri0IgMgHaBkOmPretL+TpGN4hAc4AOJRslopAaAK0DYZCS1tfKKwMekaAAoBDAQEEAhGgbTAQxlOD0NYXnCUjTSxAATCxDe8ggEBlArQNVuZGW1+FbuxWmQAFQGVu7IUAAlMJ0DY4ldCY92nrG4PBHyMSoACICJppEHBXgLbByXJPW99kOrwXpgAFQJi6jI0AAqcFaBs870igre88El6IWIA2wIjBmQ4BxwWcbxu8/PLC7N/9Xe8vPa+4KZXSsx0/Hlh+FQU4A1BFfKZGwFmBMW2D6677jTN3s2tq2vlx+eb/K7mZz1eka4Jv/s7+A7Bj4RQAduSBKBBwTqDUNlhbm3q5NTt4R4cyif3/aNWqnZfJXfz2KpXqkW/+Dc4lmwVbKZDYf3BWahMUAgicJ+Dfzz6t1T8cah56fn3za1eet0GMX/Cf1nf11fnvy617/Xv3Xx3jpRB6AgUoABKYVJaEQCwFEtU2+F5bn3zO/yn5qZ//a2N5UCY7aA7KZOeX1SEQQ4F4tw3S1hfDQ87RkGNXAGzZcvFJ5akDjuaLZSPghkAM2wZp63Pj0EzSKmNXAPj4i67IrFBG3yZ/HE5SMlgLAgicJ1BqG9x7y9qBS89714IX/LY++an/r6Wt71fyOf9NFoRECAhMSyCWBUBHh/ZyhcwP5l5Qu1Cuqv22rHR0WqtlIwQQiKeApW2DtPXF83Ai6tMCsSwASsnbvL3ueC6/4HNK1S71PLW79Dq/I4BA8gRsahukrS95x5eLK4p1AVBKWC5fd6i7t/5aY0xWXjtUep3fEUAgeQLVbBukrS95x5PLK0pEAVBKYFehoXfRscxS7akvymvHS6/zOwIIJFAgwrbBpqY9NXIjnztqa0depq0vgceSo0tKVAHg57CjX4929tZ/U6fTC72i2uJoXlk2Ag4JhNs26Lf1yc8Tv5AL/P7BP/vgECxLTbhA4gqAUr46d8wf7u6r/6R0C1wu1wf8vPQ6vyOAQAIFQmgb/MhHei+Rn/r/Ve7hI7fwVX+QQDWW5LhAYguAUl6lW+Dnl16R+cNiUbfLa0dKr/M7AggkUmDGbYOn2/ryX0+nzYu09SXyGGFRZwQSXwD46/TbBnv6MrnZRi80nrpfbiR0kiPAHQGtFI+9difdp1cqbYNeUf9zJcuePVvfJJ/zf0nu3z+rkv3ZJ84CxqmWcicKgNLh+FAhc6Krt36TZ2qWSRHwSOl1fkcAAQQQQMA1AacKgFJyu/vmHc711q/1lG6U6wNeKr3O7wgggAACCLgi4GQBUEpudz6zT64PWKZ1+i557bel1/kdAQQQQACBpAs4XQD4yfWvD+jcOf/Bd97xFipjHpKXvKQnnfUhgAACCCDgfAFQOgS2P37R0Vyh4XajU8vltZ+WXud3BBBAAAEEkihAAXBOVrt2LvhlLl+/qmjM/5FTAQPnvM1fEUAAAQQQSIQABcAEaewpNPzLrGOZxdqov5VCgLbBCZx4GQEEEEAgngIUAJPkbUu/PtlZqP8bPWIWK6V/MsmmvIUAAggggECsBCgAppGurl0NA7l8Zp0qqj+W5wv8chq7sAkCCCCAAAJWC1AAlJGeXF/905f2ZZYbz/yFfDRwtIxd2RQBBBBAAAGrBCgAykxHh9JeV2/DP3qjF14sNxF6UH45devIMrnYHAEEEEDAUgEKgAoT07Xr949199bfVVNrlimj9lU4DLshgAACCCBQFQEKgBmyb93RcDBXqG+Uxw6v9TxzeIbDsTsCCCCAAAKRCFAABMQsjx1+ZNYHR5apYvrLMuTxgIZlGAQQQAABBEIRoAAIkHXLlotP5vrmf61mtHaxMSYX4NAMhQACCCCAQKACFACBcp4ebMujdUe6Cg3tnpe6Sp4scCCEKRgSAQQQQACBGQlQAMyIb/Kdu3sX7F90RWaFNuaTsuXw5FvzLgIIIIAAAtEJUACEbH3qaYOFhi1zL6hdKDcSekCmo20wZHOGRwABBBCYWoACYGqjQLbYvL3uuNxI6B6vWLNEefrRQAZlEAQQQAABBCoUoACoEK7S3br75h3O9WZWy8cC18oYhyodh/0QQAABBBCYiQAFwEz0ZrBvZ6Fh98CxzNKiMp+Tuwkem8FQ7IoAAggggEDZAhQAZZMFt0N/vx7tyTd822i9ULoFfiAjy5OH+UIAAQQQQCB8AQqA8I2nnKGnkHkj11t/W1HVSMeA3j/lDmyAAAIIIIDADAUoAGYIGOTuPfl5BzoLmauMTm+QcwFDQY7NWAgggAACCIwVoAAYq2HJn7t2zu/+L60XK2O+JoXASUvCIgwEEEAAgQQJUABYmsxCIXMiV2j4ckrrJZ5Wj1gaJmEhgAACCMRUgALA8sRtLWT+o3tn/VpP6UbpFnjJ8nAJDwEEEEAgJgIUADFJVHc+s+/SKzLLJNxPSyFwNCZhEyYCCCCAgKUCFACWJma8sPzbCufy9X8/MuItNir1j7INbYPjQfEaAggggMCUAhQAUxLZt8H2xy862pVf8BdGp5ZLdD+1L0IiQgABBBCwXYACwPYMTRJf184Fv5QzAquMl1pniurVSTblLQQQQAABBN4nQAHwPo54/qWrd8FPat+S2wob9TfyocCJeK6CqBFAAAEEohSgAIhSO8S5tvTrkz2F+r81RbNEptkW4lQMjQACCCCQAAEKgAQkcewSunY1DMjHAq2qqP5YzgYcGPsef0YAAQQQQKAkQAFQkkjY77m++qcXXZFZoYv6dlnacMKWx3IQQAABBGYoQAEwQ0Cbd/fbBjv7Mg/NvaB2YdGY78r9A0ZtjpfYEEAAAQSiE6AAiM66ajNt3l53vKfQcHcqVbtUioDdVQuEiRFAAAEErBGgALAmFeEHksvXHerurb9WZlojvw6FPyMzIIAAAgjYKkABYGtmQoxLLhLMLzqWWao99UW5leDxEKdiaAQQQAABSwUoACxNTNhhdfTr0c7e+m+m0+mFSumtYc/H+AgggAACdglQANiVj8ij6dwxfziXz3xCGX25XB/w88gDYEIEEEAAgaoIUABUhd2+SXOFzM/laYN/6GnzCbl/wBH7IiQiBBBAAIEgBSgAgtSM+Vh+22D3zoats7VeWFTqm3J9wLsxXxLhI4AAAghMIEABMAGMyy8/VMic6MnXf1EVa/wLBXtdtmDtCCCAQFIFKACSmtkA1tXdN++wXCiY1cb4rYO0DQZgyhAIIICALQIUALZkwuI4OgsNuwekbdAU9d0S5m8tDpXQEEAAAQSmKUABME0o1zfrl7bBrr7Md4tGL/aM+oF4yCUCfCGAAAIIxFWAAiCumatS3D2FzBvdhfrbiqpmhTZ6f5XCYFoEEEAAgRkKUADMENDV3Xvy8w50FjJXyWmAVvk14KoD60YAAQTiKkABENfMWRJ3d75+25tGLzFe+j75UOCkJWERBgIIIIDAFAIUAFMA8fbUAgVpG+zqnX+vKZrFclvhn0y9B1sggAACCFRbgAKg2hlI0PxduxoG5LbC61RR/bFXVL9M0NJYCgIIIJA4AQqAxKW0+gvK9dU/fWlfZnnRqDu1UUerHxERIIAAAgicK0ABcK4Ifw9EoENpr6dQv9kbvfBiGfDv5Rdtg4HIMggCCCAQjAAFQDCOjDKBQNeu3z+Wy9d/OpU2S5VR+ybYjJcRQAABBCIWoACIGNzV6bbuaDiYK9Q3ekp/TClz2FUH1o0AAgjYIkABYEsmHImjO595uOYDI8u8ov6yLPm4I8tmmQgggIB1AhQA1qUk+QFt2XLxye6+zNdqRmsXe57qTv6KWSECCCBgnwAFgH05cSaiLY/WHenurd/geamr5BLBA84snIUigAACFghQAFiQBNdD6O5dsH/RFZkVpqhuFYth1z1YPwIIIBCFAAVAFMrMMaVAR4f2uvrqfzj3gtqFSqW+LTuMTrkTGyCAAAIIVCxAAVAxHTuGIbB5e93xXH7B55SqXSrXB+wOYw7GRAABBBCQH7VAQMBGgVy+7pBcH3Ct1t5qie+QjTESEwIIIBBnAQqAOGfPgdg7d1706KJjmaXaU1+U+wccc2DJLBEBBBCIRKAmklmYBIEZCHT0a/96gG/OYAh2RQABBBA4R4AzAOeA8FcEEEAAAQRcEKAAcCHLrBEBBBBAAIFzBCgAzgHhrwgggAACCLggQAHgQpZZIwIIIIAAAucIUACcA8JfEUAAAQQQcEGAAsCFLLNGBBBAAAEEzhGgADgHhL8igAACCCDgggAFgAtZdnyNRaW4gZDjxwDLR2A6AjU16sR0tkvKNhQASckk65hQYOh45hPKqHvk2QIUAhMqJfANIw+ZruArnfa4QVoFbvHexXssnR5Z8m//1nw43usoL3oO9PK82DqGAv2n7yT4QPvaI1vN6OhXlNZ/Lsug+I1hLgkZgSAF5IeCwzU16b/YvTv7RJDjxmUs/hOMS6aIc8YCnTvmD+cKDbcXVc0KbfT+GQ/IAAggEEuB02cDzT3z5r29dPfuG5385u8njgIglocvQc9EoCc/78DCyxeslPPDrfJrYCZjsS8CCMRHwJMveahYbnR0ZHF/f8sD27ff/G58og8+Uj4CCN6UEWMg0NEhzxdUals2O5Sfa8y9WqnPSjl8YQxCJ0QEEKhAwBiz35jUp/v7s5z9O+PHGYAKDiR2SY5AoZA50dVbv8kzNcuU0j9JzspYCQII+ALGqGH5wf/Wa67JrnzqKb75jz0qOAMwVoM/OyvQ3TfvsCx+3fqWoauVZ76fSqk/cBaDhSOQAAH5xv+u1urbWr/91b17bz6+b18CFhXwEjgDEDAow8VboDuf2Sdtg8uLRt0pnxYejfdqiB4BNwXkdP/DxaJeKqf7N/X333zcTYWpV80ZgKmN2MIxgTNtg5vXXfebbRfM0l+nbdCxA4DlxlngJTndf/u+fWv4eX8aWeQMwDSQ2MRNge2PX3S01DYoNxLiPxQ3DwNWHQMB/2yd1uZOpeYs55v/9BPGGYDpW7GlowJ+26AsvXF9y+DH5fdvSdXc4CgFy0bAKoHTbX36ByMjszbt23c9H9mVmR3OAJQJxubuCnTn67e9afQSrcy9cpNZp+4Z7m7WWbmtAvI5/z650G/Fvn0ttz/zDN/8K8kTZwAqUWMfZwX8tkFZ/H0bbhjYolOp70iT0f92FoOFI1AFAfmpf0C6dO7Zu3fNtipMn6gpOQOQqHSymKgEunY1DOTymXWe0o1yNsD/iIAvBBAIUUA+5z8h3/zvfeut1JL+fr75B0FNARCEImM4K+C3DS7qzcizBcwnBWHYWQgWjkCIAn5bXyqVXiIX+N333HNZPn4LyJoCICBIhrFX4I51w3PCjK5Daa+z0LBl7gW1C6UQ+K78pDIa5nyMjYArAvIZ/wH5qb9x796Wj/X33zjgyrqjWicFQFTSzFM1gWNvj3S2rR781qeyQ7PDDGLz9rrjUgjcXVNr5LbC6rEw52JsBJIsUGrr27u3WS7yo6c/rFxTAIQly7gWCehZKq0+f0KbX7dnBzZ2dJhQj/utOxoO5vL1N5gRfZ3nGf8Ww3whgMD0BEbldP+DIyO1i/fsadksz+fwH9rFV0gCof5HGFLMDItApQJ1RusfHfzZ0L+3ZYc+XOkg092va1fmiVkfHFkmNxG6R36iOTbd/dgOATcFvMfS6ZFlcrr/Ltr6ojkCKACicWYWiwSkhejDSpvn2lqGfty+9khdmKFt2XLxyVyh/oF0bXqx/GSTC3MuxkYgjgJSHB+WC/yukyv7b3jyyZsOxnENcY2ZAiCumSPuAATMLaZYfGVDy+AXOppMqPfE6Nwxf7ir0NDueamrtNE8jzyA7DFEvAVOnxUz98yb9/bS3btvfCLeq4ln9BQA8cwbUQcnMEcr9Y1Dc4de3JAdaA5u2PFH6u5dsH/h5QtW0jY4vg+vJl9AruqXz/VNbnR0ZHF/f8sD27ff/G7yV23nCikA7MwLUUUvsEhrXVjfPPhkW8vwojCn7+h4r23QeOp+uZHQyTDnY2wEbBGQj8H2G5NaKd/4259++ibum1HlxFAAVDkBTG+XgFwf8FGlRl5sa3nt78K+f4DfNtjVW7+ppia1VBRoG7TrUCCaAAWkn39YfvC/9ZprsiufeirLR2AB2s5kKAqAmeixb1IF5HoA7y+PvTPyShRtg1seWfDqe22D6qWkorIu9wTkG79/ev9+rd9eKP38P/TPfrmnYO+KKQDszQ2RVV8g8rbBoeOZ5bQNVj/xRBCEgPeY1qNy3/7spv7+m48HMSJjBCtAARCsJ6MlUCDKtsH+fj1aahtUxjwknPzElMBjKuFLeqnU1tffv/bVhK811sujAIh1+gg+WgFzS1HaBtubo2kbzBUabi+qGnnQEG2D0eaZ2SoRKLX1KTVnOW19lQhGvw8FQPTmzBhjAfkHM0duJBxZ22BPft4Bv21QTgO0yq+BGNMRekIF/LY+ueX1Q6W2vv7+a3gYVkxyTQEQk0QRpnUCkbYNdufrt71p9BLaBq07DpwOSNr69smFfvLAnpbbaeuL36FAARC/nBGxRQJRtg0WCpkTftugZ2rkaYP6JxYxEIpjAvIjv5yN8lrlvv2NTz215oBjy0/McikAEpNKFlJFgbNtg3Jb4T8L+2mD3X3zDufymXWe0o1yiSD/+VYx8a5NLZ/zn5Bv/ve+9VZKru5fs8219SdtvRQAScso66mmQJ3cVvifD/1s6PkonjbYnc/sW9SbWVE06k75j/loNRfO3MkXkNP9D8vV/Uukn/++557Lnkj+ipO/QgqA5OeYFUYtkFKXRfW0wQ55XnpPoX7zyIi3WJ4v8F0pBLgAK+p8J3w++Yz/gPzU3yin+z/W338jF6ImKN8UAAlKJkuxTSC6tsHtj190tLPQcHdNrVkmNxLaZ5sE8cRPwD+rpLW5c+/eZrnIbw3HVPxSOGXEFABTErEBApULyD+wSNsGt+5oOCg3EmpURbVGoj5UeeTs6bDAqJzuf3BkpHbxnj0tm+WCU25GldCDgQIgoYllWdYJRNY26K8811efr/nAu8u1MvfKhYJ8Xmvd4WBnQH5bXzo9skxO99/1zDPXc12JnWkKLCoKgMAoGQiBqQWibBvcsuXik535hvtM0SyR/9hzU0fHFq4KGOMdlsdhr/Hb+p588qaDrjq4tm4KANcyznptEIi0bbBrV8NAV6Gh3fNSV9E2aEP67Ymh1NZXV/fO0j17mvP2REYkUQhQAEShzBwIjC9wtm1wffNrV46/SXCvdvcu2O+3DUq3wCdl1OHgRmakuAnIVf3yub7Jldr6tm+/2X9sL1+OCVAAOJZwlmuhgLQNplLesxuyA53ta4/UhRmh3zYo3QJb5l5Qu5C2wTCl7R1bPg7ab0xqZX9/SzttffbmKYrIKACiUGYOBKYhIJ/BtvlPG2zNHvlSR5ORjwnC+9q8ve742bZBpR4LbyZGtkVA+vmH5Qf/W6+5Jrvyqaey+22JiziqJ0ABUD17ZkbgPAH5BzknrYtfPzR36EU5I9B83gYBv3CqbTBff4MZ0dfJE90OBzw8w1kgIN/4/dP792v99kLp5/9hRwdtfRakxYoQKACsSANBIHCeQKRtg127Mk/M+uCIfxOhe+TT4WPnRcMLMRXwHtN6VO7bn93U33/z8ZgugrBDEqAACAmWYREIQqDUNtieHfjOHeuG5wQx5kRj+G2DchOhB9K16cW0DU6kFJvXX5IL/K6TB/bc0N+/9tXYRE2gkQpQAETKzWQIVCRQY7T+7LF3Rl7ZsDr8pw127pg/XGob1EbzWXFFKavOTqfP3ph75JOk5bt33/hEdaJg1rgIUADEJVPEiYBSdTp9+mmDUbUNLrx8wUrpF2uVXzwExuIj0G/rk2s4HhodHVksV/c/0N9/DQ+FsjhftoRGAWBLJogDgekKjGkb3Hjj8Pzp7lbJdv4FY935+m1vGr3EeOp+uZHQyUrGYZ/wBE639Sl5YE/L7U8/fRP3dwiPOnEjUwAkLqUsyBUBv23w3ZqRl1vXhN82WChkTnT11m/yTM0yeTjMT1wxtnmd8iO/nJXxWk+39a05YHOsxGanAAWAnXkhKgSmJSD/gOekzem2wbaWwZZp7TSDjbr75h3O5TPrPKUb5fPml2YwFLtWKCDuJ+Sb/71vvZWSq/vXbKOtr0JIdlMUABwECCRDYJEsY+f65sEn21qG/T+H+tWdz+wbOp5ZXjTqTvmGxFPjQtV+b3A53f9w6fa9zz2X5SmP79HwpwoEKAAqQGMXBGwViLJtsL9fj/YU6jePjHiLlTEPiYlcK8hXGAJyM58D8lN/ozyt72PcvjcMYTfHpABwM++sOtkCZ9sG27JDf97RYUL9d7798YuO5goNtxdVzQq5kdC+ZNNGuzr/7IrW5s69e5vlIr812EbLn/jZQv2PIfF6LBABuwXqlDb/dOhnQ89H0TbYk593QG4k1EjbYCAHxaic7n9wZKR28Z49LZvlwkvOrgTCyiBjBSgAxmrwZwSSKHCmbbA9O9gVdtugz1dqG9TK3CsfCvA5dZnHlHzj35dOjyyT0/13PfPM9VxfUaYfm09fgAJg+lZsiUCsBYxW60fPtA1u3PjrC8NcjN822JlvuM8UzRLaBqcnbYx3WFo718g3/sYnn7zp4PT2YisEKhegAKjcjj0RiKPAqbbB0aOzftG2Ovy2wa5dDQOltkE5G0Cv+jhHTKmtr67unaV79jTnx9mElxAIRYACIBRWBkXAeoFFKh1t2+Ci3swK2gbfOy7kqn75XN/kSm1927ff7D+2ly8EIhOgAIiMmokQsE/Abxv0vJEXWyN42mCHXMhWahvUxnxXvv05e796v63PmNRKuW9/O2199v27cCUiCgBXMs06EZhAQIqAmvSZpw1G1TbYWWi4u6bWLHOtbVC+8Q/LD/63+m19Tz2V5UmLExyTvByNAAVANM7MgkAcBCJtG9y6o+Gg3zaoimqN4ByKA1ClMco3fv/0/v1av71Q+vl/SFtfpZLsF6QABUCQmoyFQBIEIm4bzPXV52s+8O7y5LYNeo9pPSr37c9u6u+/+XgSDhHWkAwBCoBk5JFVIBC4QKltsG31kb8Ku21wy5aLT5baBqUPPhf4Yqoz4Etygd918sCeG/r7175anRCYFYGJBSgAJrbhHQQQkKcNqnTxq+++UftCVG2DXYWGds9LXaWNjuVn5HJx4zG5uv8eoVu+e/eNT3AQIWCrAAWArZkhLgQsEkil9CV+22BbdnBvJE8b7F2wf+HlC1ZKt8AnhWHYIooJQ/Hb+jzPPDQ6OrJYru5/oL//Gme7HCZE4g2rBCgArEoHwSBguYBWV0fWNtihPekW2DL3gtqFxlP3y42ETtqqIx9b7JcL/eSBPS23P/30TbEoWGy1JK7oBCgAorNmJgQSITC2bbB1zZHQnza4eXvd8a7e+k01NamlAviYTYjyI/+APAW59ZprsiufemoNdzq0KTnEMqUABcCURGyAAAITCNSlTTGypw1ueWTBq7l8/Q1mRF8nn7O/NEFMkbxcaut7662UXN2/ZluHnK2IZGImQSBAAQqAADEZCgEnBc60Da5vjuZpg127Mk8MHc8sl5sI3XP6grto1eV0/8PFol7qt/U991yWpx1Gy89sAQpQAASIyVAIuCwgHw2cetpgFG2D/f16VG4i9EC6Nr1YGfOQuEfxE/hLcsq/UZ7W97Gf/rT5sMu5Zu3JEKAASEYeWQUCtgi81zaYHfrTsIPq3DF/OFdouL2oalaE1TYoZxmOam3u9Nv65C5++8JeE+MjEJUABUBU0syDgEMCp9oGtdnhtw3esnbg0rCX3pOfd8BvG5TTAK3ySy7MC+RrVE73PzgyUrt4z56WzbT1BWLKIBYJUABYlAxCQSBxAtI2ODqiX2iP4mmDciFed75+25tGL/HbBj1TedugfOPfl06PLJPT/Xc988z1RxOXFxaEgAhoFBBIukBb81CfSpkbk77OGKxvuKjTX16yYt4Po7hqfsMN/29u167fl7vylfd11VWPzn322RvL3q+8WdgageoLUABUPwdEELIABUDIwOUO76kDnkrd1i13+yt3V7ZHAIHgBPgIIDhLRkIAgekIRNw2OJ2Q2AYBFwUoAFzMOmtGwAKBUtvg+tVDoT9t0ILlEgIC1glQAFiXEgJCwCmBOam0+eroUXnaYARtg07JslgEphCgAJgCiLcRQCAKAXnaYIRtg1GsiDkQsF2AAsD2DBEfAi4JjGkb9K/id2nprBWBqAUoAKIWZz4EEJhUwH/aoNH6syZ98pX21UOf6ugw/D81qRhvIlCZAP+wKnNjLwQQCFlACoEPmrT5/qGfDT2/vvm1K0OejuERcE6AAsC5lLNgBGImcKZtsK1lsGfjjcPzYxY94SJgrQAFgLWpITAEEDhH4OOjNSMv0zZ4jgp/RaBCAQqACuHYDQEEqiJwtm2wlbbBqiSASZMjQAGQnFyyEgQcEtCXpGkbdCjfLDUMAQqAMFQZEwEEohE40za4vnnwe7QNRkPOLMkRoABITi5ZCQJOCvhtg/LrM2fbBhVtg04eCCy6bAEKgLLJ2AEBBGwUKLUNHlw99AvaBm3MEDHZJkABYFtGiCdwAa2MF/igDGitQCqt/mcq5T3b2jL4DWuDJDAELBCgALAgCYQQroBRmuM8XGIrR0976o+sDIygELBEgP8YLUkEYSCAAAIIIBClAAVAlNrMhQACCCCAgCUCFACWJIIwEEAAAQQQiFKAAiBKbeZCAAEEEEDAEgEKAEsSQRgIIIAAAghEKUABEKU2cyGAAAIIIGCJAAWAJYkgDAQQQAABBKIUoACIUpu5EEAAAQQQsESAAsCSRBAGAggggAACUQpQAESpzVwIIIAAAghYIkABYEkiCAMBBBBAAIEoBSgAotRmLgQQQAABBCwRoACwJBGEgQACCCCAQJQCFABRajMXAggggAAClghQAFiSCMJAAAEEEEAgSgEKgCi1mQsBBBBAAAFLBCgALEkEYSCAAAIIIBClAAVAlNrMhQACCCCAgCUCFACWJIIwEEAAAQQQiFKAAiBKbeZCAAEEEEDAEgEKAEsSQRgIIIAAAghEKUABEKU2cyGAAAIIIGCJAAWAJYkgDAQQQAABBKIUoACIUpu5EEAAAQQQsESAAsCSRBAGAggggAACUQpQAESpzVwIIIAAAghYIkABYEkiCAMBBBBAAIEoBSgAotRmLgQQQAABBCwRoACwJBGEgQACCCCAQJQCFABRajMXAggggAAClghQAFiSCMJAAAEEEEAgSgEKgCi1mQsBBBBAAAFLBCgALEkEYSCAAAIIIBClAAVAlNrMhQACCCCAgCUCFACWJIIwEEAAAQQQiFKAAiBKbeZCAAEEEEDAEgEKAEsSQRgIIIAAAghEKUABEKU2cyGAAAIIIGCJAAWAJYkgDAQQQAABBKIUoACIUpu5EEAAAQQQsESAAsCSRBAGAggggAACUQpQAESpzVwIIIAAAghYIkABYEkiCAMBBBBAAIEoBSgAotRmLgQQQAABBCwRoACwJBGEgQACCCCAQJQCFABRajMXAggggAAClghQAFiSCMJAAAEEEEAgSgEKgCi1mQsBBBBAAAFLBCgALEkEYSCAAAIIIBClAAVAlNrMhQACCCCAgCUCFACWJIIwEEAAAQQQiFKAAiBKbeZCAAEEEEDAEgEKAEsSQRgIIIAAAghEKUABEKU2cyGAAAIIIGCJAAWAJYkgDAQQQAABBKIUoACIUpu5EEAAAQQQsESAAsCSRBAGAggggAACUQpQAESpzVwIIIAAAghYIkABYEkiCAMBBBBAAIEoBSgAotRmLgQQQAABBCwRoACwJBGEgQACCCCAQJQCFABRajMXAggggAAClghQAFiSCMJAAAEEEEAgSgEKgCi1mQsBBBBAAAFLBCgALEkEYSCAAAIIIBClAAVAlNrMhQACCCCAgCUCFACWJIIwEEAAAQQQiFKAAiBKbeZCAAEEEEDAEgEKAEsSQRgIIIAAAghEKUABEKU2cyGAAAIIIGCJAAWAJYkgDAQQQAABBKIUoACIUpu5EEAAAQQQsESAAsCSRBBGeAKeSX9ae6o3vBkYGQEEEIifAAVA/HJGxGUKdPfNO9zZW5/Vxlwrux4qc3c2RwABBBIpQAGQyLSyqPEEOgsNuweOZZYqo+7xPHVsvG14DQEEEHBFgALAlUyzzlMC/f16NFeofyBdm14sHwv8EBYEEEDAVQEKAFcz7/i6O3fMH5aPBW5VRl8uZwN+7jgHy0cAAQcFKAAcTDpLfk8gV8j8/NIrMn+oPPMJefXIe+/wJwQQQCDZAhQAyc4vq5uGQEeH9nK9DVtnG72wqNQ3PaXencZubIIAAgjEWoACINbpI/ggBR4qZE705Ou/qIo1S+VjAdoGg8RlLAQQsE6AAsC6lBBQtQX8tsFu2garnQbmRwCBkAUoAEIGZvj4CpTaBovKfI62wfjmkcgRQGB8AQqA8V14FYFTAn7bYE++4dtG64W0DXJQIIBAkgQoAJKUTdYSmkBPIfMGbYOh8TIwAghUQYACoAroTBlfgVLbYLGo22UVtA3GN5VEjoDzAhQAzh8CAJQr4LcN9vRlcn7boPFoGyzXj+0RQMAOAQoAO/JAFDEU8NsGu3ppG4xh6ggZAQREgAKAwwCBGQrQNjhDQHZHAIGqCFAAVIWdSZMoUGobVLQNJjG9rAmBxAlQACQupSyomgKnnjZ4pm1QbivM0warmQzmRgCBSQUoACbl4U0EKhPw2wbltsK3FlXN/+Jpg5UZshcCCIQrQAEQri+jOy7Qk593wH/aIG2Djh8ILB8BCwUoACxMCiElS+CctsH7edpgsvLLahCIqwAFQFwzR9yxEzjTNrjJf9qg3FaYpw3GLoMEjECyBCgAkpVPVhMDAb9tUG4rnNXGXCvhHopByISIAAIJFKAASGBSWVI8BMa2DUrEv41H1ESJAAJJEaAASEomWUcsBUptg0WjFytP/SCWiyBoBBCIpQAFQCzTRtBJE/DbBnO99bf5bYPa6P1JWx/rQQAB+wQoAOzLCRE5LOC3DXYWMlcVlW6XboEhhylYOgIIhCxAARAyMMMjUIlATz6TmyMfC8jTBu+XjwZOVjIG+yCAAAKTCVAATKbDewhUUaDUNuiZmmVyW+F8FUNhagQQSKAABUACk8qSkiXgtw3KbYXX0DaYrLyyGgSqLUABUO0MMD8C0xQotQ2aor5bdqFtcJpubIYAAuMLUACM78KrCFgp4LcNdvVlvjumbVCuFeQLAQQQKF+AAqB8M/ZAoOoCY9oGV9A2WPV0EAACsRSgAIhl2ggagdMCtA1yJCCAQKUCFACVyrEfAhYJ+G2Db0rboGfM12gbtCgxhIKAxQIUABYnh9AQKEegUMic6C40fJm2wXLU2BYBdwUoANzNPStPqABtgwlNLMtCIGABCoCAQRkOAVsEaBu0JRPEgYCdAhQAduaFqBAIRIC2wUAYGQSBRApQACQyrSwKgfcL0Db4fg/+hgACSlEAcBQg4JBAqW3Q6PQGnjboUOJZKgLjCFAAjIPCSwgkXaBr5/xu2gaTnmXWh8DkAhQAk/vwLgKJFSi1Daa0XiL3DngksQtlYQggMK4ABcC4LLyIgDsCWwuZ/8j11q/laYPu5JyVIuALUABwHCCAwCkB2gY5EBBwS4ACwK18s1oEJhWgbXBSHt5EIFECFACJSieLQSAYAdoGg3FkFARsFqAAsDk7xIZAlQXGtg3KhYJDVQ6H6RFAIEABCoAAMRkKgaQK+G2D/6X1YsXTBpOaYtbloAAFgINJZ8kIVCLgtw3m5GmDtA1Wosc+CNgnQAFgX06ICAGrBUptg57SjRLoIauDJTgEEJhQgAJgQhreQACByQS685l9A8cyS01R3y3b/XaybXkPAQTsE6AAsC8nRIRAbATGtg16Rv1AApdHDPCFAAJxEKAAiEOWiBEBywX8tsHuQv1tRVWzQhu93/JwCQ8BBESAAoDDAAEEAhM42zZo0htoGwyMlYEQCEWAAiAUVgZFwG2BrgJtg24fAaw+DgIUAHHIEjEiEEMB2gZjmDRCdkqAAsCpdLNYBKIXGNs26HnqpegjYEYEEBhPgAJgPBVeQwCBwAX8tsFLr8gs0zp9lwxO22DgwgyIQHkCFADlebE1AgjMQKCjQ3udO+c/WDR6MW2DM4BkVwQCEKAACACRIRBAoDwB2gbL82JrBMIQoAAIQ5UxEUBgWgKltkFdVK20DU6LjI0QCEyAAiAwSgZCAIFKBTr76rfxtMFK9dgPgcoEKAAqc2MvBBAIWIC2wYBBGQ6BKQQoAKYA4m0EEIhWgLbBaL2ZzV0BCgB3c8/KEbBaoNQ26BnaBq1OFMHFVoACILapI3AEki/gtw12F+Y/+M473kJlzEOyYp42mPy0s8KIBCgAIoJmGgQQqFxg++MXHc0VGm7naYOVG7InAucKUACcK8LfEUDAWoGxbYNyKmDA2kAJDIEYCFAAxCBJhIgAAu8X8NsG3zR6iafS98mHAiff/y5/QwCB6QhQAExHiW0QQMA6Ab9tsDs//96UlkJAq0esC5CAELBcgALA8gQRHgIITC7gtw1276xf6yndyNMGJ7fiXQTGClAAjNXgzwggEFsB2gZjmzoCRwABBBBAIBiBW9f95gPtq4c+FcxojIIAAggggAACCCCAAAIIIIAAAggggAACCCCAAAIIIIAAAggggAACCCCAAAIIIIAAAggggAACCCCAAAIIIIAAAggggAACCCCAAAIIIIAAAggggAACCCCAAAIIIIAAAggggAACCCCAAAIIIIAAAggggAACCCCAAAIIIIAAAggggAACCCCAAAIIIIAAAggggAACCCCAAAIIIIAAAggggAACCCCAAAIIIIAAAggggAACCCCAAAIIIIAAAggggAACCCCAAAIIIIAAAggggAACCCCAAAIIIIAAAggggAACCCCAAAIIIIAAAgggUGWB/w8Q+rD1+MqZEAAAAABJRU5ErkJggg==;" parent="1" vertex="1">
          <mxGeometry x="482" y="178.65999999999997" width="103.67" height="103.67" as="geometry" />
        </mxCell>
        <mxCell id="IlMm2bm1_j7ZGz1Ir1Hr-19" value="" style="edgeStyle=orthogonalEdgeStyle;rounded=0;orthogonalLoop=1;jettySize=auto;html=1;flowAnimation=1;" parent="1" edge="1">
          <mxGeometry relative="1" as="geometry">
            <mxPoint x="780.6700000000001" y="230.53846153846166" as="sourcePoint" />
            <mxPoint x="873" y="230.0769230769231" as="targetPoint" />
          </mxGeometry>
        </mxCell>
        <mxCell id="IlMm2bm1_j7ZGz1Ir1Hr-15" value="Terraform Validate" style="shape=image;verticalLabelPosition=bottom;labelBackgroundColor=default;verticalAlign=top;aspect=fixed;imageAspect=0;image=data:image/png,iVBORw0KGgoAAAANSUhEUgAAAgAAAAIACAYAAAD0eNT6AAAAAXNSR0IArs4c6QAAAERlWElmTU0AKgAAAAgAAYdpAAQAAAABAAAAGgAAAAAAA6ABAAMAAAABAAEAAKACAAQAAAABAAACAKADAAQAAAABAAACAAAAAAAL+LWFAAA8FklEQVR4Ae3dD3Bc1X3o8XN2JUNdP79OmpHtlXgTsI3r5zFvHCiM2xiJMFP+WCvX5JkX2RJxSglTmITQhCRuylTTkIQkNH+Y1tPQNHGsleSpU4x3JQxMsWWTgcENYZ4zBGKMwzSSMCrPkxpjDNLe837X9hph69+u7r177j1fzXhs7957zu98ftfWT3fv716l+EIAAQQQQAABBBBAAAEEEEAAAQQQQAABBBBAAAEEEEAAAQQQQAABBBBAAAEEEEAAAQQQQAABBBBAAAEEEEAAAQQQQAABBBBAAAEEEEAAAQQQQAABBBBAAAEEEEAAAQQQQAABBBBAAAEEEEAAAQQQQAABBBBAAAEEEEAAAQQQQAABBBBAAAEEEEAAAQQQQAABBBBAAAEEEEAAAQQQQAABBBBAAAEEEEAAAQQQQAABBBBAAAEEEEAAAQQQQAABBBBAAAEEEEAAAQQQQAABBBBAAAEEEEAAAQQQQCCuAjpugW/c+OsLR9+Y1ZPS+q6thcx/xC1+4kUAAQQQQMAGgZQNQZQdQ0r9qWfMr9qyA1/NZodml70/OyCAAAIIIOC4QDwLAD9pKXWh0vqv/rsxL2/IHlnveB5ZPgIIIIAAAmUJxLcAKC0zpTJaF7vas0PPtra8flnpZX5HAAEEEEAAgYkF4l8AnFmb0ebKtBp9vq158J9as0MfnHjJvIMAAggggAACiSkAzqQyJR8N/Hlay8cCq4c+29RkakgxAggggAACCJwvkLQCoLTC39Np852GuUMvrm8Zurr0Ir8jgAACCCCAwGmBpBYApfwuSimzVz4W2HFLduh/lF7kdwQQQAABBFwXSHoBcDq/Z9oG19M26PrxzvoRQAABBM4IuFEA+IuVtkG5edDptsE1tA3yLwABBBBAwG0BdwqAUp79tkFD22CJg98RQAABBNwUcK8AOJNn2gbdPOBZNQIIIIDAaQFnC4AzBwBtg/xLQAABBBBwUsD1AqCU9LNtg+3ZgY+WXuR3BBBAAAEEkipAAfD+zC4yWj/Z2jK4k7bB98PwNwQQQACBZAlQAIyTz7RSLf7TBmkbHAeHlxBAAAEEEiFAATBRGs+0Df43ua1wa8tQ20Sb8ToCCCCAAAJxFKAAmCJrApRJK9PJ0wangOJtBBBAAIFYCVAATDNdtA1OE4rNEEAAAQRiIUABUF6aaBssz4utEUAAAQQsFaAAqCwxtA1W5sZeCCCAAAKWCFAAzCwRZ9sG169+/ZKZDcXeCCCAAAIIRCdAARCAtd82mNKjL2xoHvx6Njs0O4AhGQIBBBBAAIFQBSgAguKVtkGdUl+ibTAoUMZBAAEEEAhTgAIgYF0BpW0wYFOGQwABBBAIXoACIHjTUyPSNhgSLMMigAACCAQiQAEQCOOEg5xtG2xrGfjLpiZTM+GWvIEAAggggECEAhQA0WD/nlL67xrmDr3I0wajAWcWBBBAAIHJBSgAJvcJ+t1TbYPtzYMF2gaDpmU8BBBAAIFyBCgAytEKaFuTUs0qPfqi3zb4KdoGA1JlGAQQQACBcgQoAMrRCnBbgZ/ltw0e9582uJqnDQZIy1AIIIAAAtMQoACYBlKYm0gCMuk0TxsM05ixEUAAAQTOF6AAON+kKq+caRv8v60tg//cmh36YFWCYFIEEEAAAWcEKAAsS7XcVvjPtDGv0DZoWWIIBwEEEEiYAAWAhQlNpdRc2gYtTAwhIYAAAgkSoACwO5m0DdqdH6JDAAEEYitAARCD1I1pG/wGbYMxSBghIoAAAjEQoACIQZL8ECVRftvgF05o84rfNtjRIWUBXwgggAACCFQowDeRCuGquNt8v23w4M+G/r215fXLqhgHUyOAAAIIxFiAAiCmyZMLBT+cVqO0DcY0f4SNAAIIVFuAAqDaGZjh/KW2wVaeNjhDSXZHAAEE3BKgAEhAvv22wTRPG0xAJlkCAgggEJ0ABUB01lHMdKptcD1PG4zCmjkQQACBWAtQAMQ6feMHL2cESk8bpG1wfCJeRQABBJwXoABI6CEgiT3bNtjWPHALbYMJTTTLQgABBCoUoACoEC5Gu81XKf1jv22wLTv04RjFTagIIIAAAiEKUACEiGvT0H7boNLmufZmnjZoU16IBQEEEKiWAAVAteSrNK/cP/DU0wZpG6xSApgWAQQQsESAAsCSREQZBm2DUWozFwIIIGCnAAWAnXmJKiqeNhiVNPMggAAClglQAFiWkGqEU3raYGvLIG2D1UgAcyKAAAJVEKAAqAK6jVPKgTBLbit86mmDtA3amCFiQgABBIIVoAAI1jMJo9E2mIQssgYEEEBgCgEKgCmAXH271Da4fvXgj9rXHqlz1YF1I4AAAkkVoABIamYDWlcqrTYWR4ovt2UHP9/UZGoCGpZhEEAAAQSqLEABUOUExGF6v21QafWthrlDL7ZnBz4ah5iJEQEEEEBgcgEKgMl9ePf9ArQNvt+DvyGAAAKxFaAAiG3qqhc4bYPVs2dmBBBAICgBCoCgJB0bRw6c022Dxryyfg1PG3Qs/SwXAQQSIEABkIAkVnUJKTU/ZXjaYFVzwOQIIIBABQIUABWgscv5ArQNnm/CKwgggIDNAhQANmcnhrH5bYOmWHxFHjv8hQ7aBmOYQUJGAAFXBCgAXMl0tOucIxcKfuPgnMFf0TYYLTyzIYAAAtMVoACYrhTblS2QSulLjNZPtjUP9a1f/folZQ/ADggggAACoQlQAIRGy8BnBVLmRpUefZGnDZ4V4Q8IIIBA1QUoAKqeAjcCkAPtvbbB7MDGjg75kIAvBBBAAIGqCfCfcNXoHZ3YbxvU+kcHfzb0723ZoQ87qsCyEUAAgaoLUABUPQVuBlBqG2xrGfoxTxt08xhg1QggUF0BCoDq+jO7MrfQNshhgAACCEQvQAEQvTkzni9wqm3wkP+0wTW/ufH8t3kFAQQQQCBoAQqAoEUZbyYCi4xJ9a1vHnxy45++9qGZDMS+CCCAAAKTC1AATO7Du1UQkOsDPjrqeS+3rR781qeyQ7OrEAJTIoAAAokXoABIfIpju8AalVafP+E/bZC2wdgmkcARQMBegfgVAK9+yF5NIgteYEzb4C1rBy4NfgJGRAABBNwUiF8B8KFX3cyU46v22waL76a4QNDx44DlI4BAcALxKwCCWzsjIYAAAggg4KwABYCzqWfhCCCAAAIuC1AAuJx91o4AAggg4KwABYCzqWfhCCCAAAIuC1AAuJx91o4AAggg4KwABYCzqWfhCCCAAAIuC1AAuJx91o4AAggg4KwABYCzqXdn4RtaBv+MRw67k29WikAlAqtW9X78Ix/pvaSSfeO6DwVAXDNH3NMW0J7KFkeKL7dlBz+/ceOvL5z2jmyIAAKJF1i1audljY35Z9Np01NTo+cmfsFjFkgBMAaDPyZXQO4kOFdp9a1336h9YcMNQ3+S3JWyMgQQmI7AH/3Rw3VXX53/vtbqea31ldPZJ2nb1CRtQawHgckEUil9iUqZx9taBh9Lpc1dW3c0HJxse95DAIFkCTQ17ZHve29+1vP0vad+MJCfDFz94gyAq5ln3dePjugX2rMD37lj3fAcOBBAIPkCH/3oo3L27/gvlNLfOv3NP/lrnmyFFACT6fBeogXkP4Aao/Vnj70z8ooUAhs7Ogz/HhKdcRbnqkBT044PNTXt3OV5xcfF4A9cdTh33fyHd64If3dRoE4KgR+98txrz6xvfs3JzwJdTDprTr5AU9O/zJHP+b9uTM2vlEpdn/wVl7dCCoDyvNg6wQJGmytTKe/ZtpahH9M2mOBEs7TEC/hn81atym805ndeket+viQX+s1K/KIrWCAFQAVo7JJ0AXMLbYNJzzHrS6qA39a3Z0/hmXRa/0i+8dcldZ1BrIsCIAhFxkicwKkLhGgbTFxeWVByBWjrKz+3tAGWb8YeDgnQNuhQsllqLAVo66s8bZwBqNyOPd0SoG3QrXyz2hgI0NY3syRRAMzMj70dEjivbVDRNuhQ+lmqRQK09QWTDAqAYBwZxS2BU22Dh5qHnqdt0K3Es9rqCtDWF6w/BUCwnozmkkBKXUbboEsJZ63VEqCtLxx5CoBwXBnVKQHaBp1KN4uNVGDVqsKVtPWFQ04BEI4rozomQNugYwlnuaEL+G19TU35Tq29Z1x9Wl/YyLQBhi3M+E4J0DboVLpZbAgC69b9y6z//M8LP+M/rU+Gnyv/pkKYhSF9Ac4AcBwgEI4AbYPhuDJqggX8tr7XX/+dF3laXzRJpgCIxplZHBSgbdDBpLPkigTGtvXJv5tLKhqEncoWoAAom4wdEChbgLbBssnYwQUB2vqqm2UKgOr6M7tLArQNupRt1jqJAG19k+BE+BYFQITYTIXAaQHaBjkS3BWgrc+e3FMA2JMLInFIgLZBh5LNUk8J0NZn34FAG6B9OSEihwRoG3Qo2Y4ulbY+exPPGQB7c0NkbgnQNuhWvp1YLW19dqeZAsDu/BCdQwK0DTqU7IQv9dprH760qWnnLs8rPk5bn73JpgCwNzdE5q4AbYPu5j7WK/fb+hob898rFmtfkPvMXR/rxTgQPAWAA0lmiTEVGNM2uOGGgYaYroKwnRAwqVWr8huN+Z1X5L79n5Elc31ZDPJOARCDJBGi6wLmFp3Wv2pvGfjrjRt/faHrGqzfLgG/ra+xsff5dFr/SGtVZ1d0RDOZAAXAZDq8h4AtAik12yj9lXffqH1hww1Df2JLWMThrsD72/rUZe5KxHflnKaJb+6I3EEB2gYdTLplS6atz7KEzCAczgDMAI9dEaiiAG2DVcR3dWra+pKVeQqAZOWT1TgkQNugQ8mu8lJp66tyAkKangIgJFiGRSBCAdoGI8R2aSra+pKdbQqAZOeX1bkkQNugS9kOea209YUMbMXwFABWpIEgEAhSgLbBIDVdG4u2PncyTgHgTq5ZqUsCtA26lO1A1trU9GhDU1O+U2vvGennp60vEFW7B6EN0O78EB0CMxKgbXBGfE7s7Lf1vf76BV+Q+/ZvkuNltvxyYt0sUm7WDAICCDghQNugE2kub5FXX72zZXj4ghdTqdRXpKtkdnl7s3XcBSgA4p5B4kdgmgK0DU4TyoHN/LY+eWjPXvnGv1Pr1CUOLJkljiNAATAOCi8hkHAB2gYTnuCJlje2rU8e2nP1RNvxuhsCFABu5JlVInC+AG2D55sk9hXa+hKb2hksjAJgBnjsikAyBGgbTEYex18FbX3ju/AqFwFyDCCAgC9wpm1w9OisX7S1DLaAEn8B2vrin8OwV0AbYNjCjI9AvAQWSbg727KD+1I15ratOxoOxit8oqWtj2NgugJ8BDBdKbZDwCUBra4eHdEvtGcHvnPHuuE5Li09zmulrS/O2Ys+dgqA6M2ZEYFYCNA2GIs0nQqStr745MqmSCkAbMoGsSBgpwBtg3bmRa1c+dgHpJ//e8Vi7Qu09VmaJIvDogCwODmEhoBVArQNWpQOk5Jv/HfU1o68LN/4PyOBcT2XRdmJSygUAHHJFHEiYI0AbYPVTIV8zn91Y2Pv8/KN/x/kY5oPVDMW5o63AAVAvPNH9AhUR4C2wcjd/bY++an/X+X2vXt5Wl/k/ImckNNGiUwri0IgMgHaBkOmPretL+TpGN4hAc4AOJRslopAaAK0DYZCS1tfKKwMekaAAoBDAQEEAhGgbTAQxlOD0NYXnCUjTSxAATCxDe8ggEBlArQNVuZGW1+FbuxWmQAFQGVu7IUAAlMJ0DY4ldCY92nrG4PBHyMSoACICJppEHBXgLbByXJPW99kOrwXpgAFQJi6jI0AAqcFaBs870igre88El6IWIA2wIjBmQ4BxwWcbxu8/PLC7N/9Xe8vPa+4KZXSsx0/Hlh+FQU4A1BFfKZGwFmBMW2D6677jTN3s2tq2vlx+eb/K7mZz1eka4Jv/s7+A7Bj4RQAduSBKBBwTqDUNlhbm3q5NTt4R4cyif3/aNWqnZfJXfz2KpXqkW/+Dc4lmwVbKZDYf3BWahMUAgicJ+Dfzz6t1T8cah56fn3za1eet0GMX/Cf1nf11fnvy617/Xv3Xx3jpRB6AgUoABKYVJaEQCwFEtU2+F5bn3zO/yn5qZ//a2N5UCY7aA7KZOeX1SEQQ4F4tw3S1hfDQ87RkGNXAGzZcvFJ5akDjuaLZSPghkAM2wZp63Pj0EzSKmNXAPj4i67IrFBG3yZ/HE5SMlgLAgicJ1BqG9x7y9qBS89714IX/LY++an/r6Wt71fyOf9NFoRECAhMSyCWBUBHh/ZyhcwP5l5Qu1Cuqv22rHR0WqtlIwQQiKeApW2DtPXF83Ai6tMCsSwASsnbvL3ueC6/4HNK1S71PLW79Dq/I4BA8gRsahukrS95x5eLK4p1AVBKWC5fd6i7t/5aY0xWXjtUep3fEUAgeQLVbBukrS95x5PLK0pEAVBKYFehoXfRscxS7akvymvHS6/zOwIIJFAgwrbBpqY9NXIjnztqa0depq0vgceSo0tKVAHg57CjX4929tZ/U6fTC72i2uJoXlk2Ag4JhNs26Lf1yc8Tv5AL/P7BP/vgECxLTbhA4gqAUr46d8wf7u6r/6R0C1wu1wf8vPQ6vyOAQAIFQmgb/MhHei+Rn/r/Ve7hI7fwVX+QQDWW5LhAYguAUl6lW+Dnl16R+cNiUbfLa0dKr/M7AggkUmDGbYOn2/ryX0+nzYu09SXyGGFRZwQSXwD46/TbBnv6MrnZRi80nrpfbiR0kiPAHQGtFI+9difdp1cqbYNeUf9zJcuePVvfJJ/zf0nu3z+rkv3ZJ84CxqmWcicKgNLh+FAhc6Krt36TZ2qWSRHwSOl1fkcAAQQQQMA1AacKgFJyu/vmHc711q/1lG6U6wNeKr3O7wgggAACCLgi4GQBUEpudz6zT64PWKZ1+i557bel1/kdAQQQQACBpAs4XQD4yfWvD+jcOf/Bd97xFipjHpKXvKQnnfUhgAACCCDgfAFQOgS2P37R0Vyh4XajU8vltZ+WXud3BBBAAAEEkihAAXBOVrt2LvhlLl+/qmjM/5FTAQPnvM1fEUAAAQQQSIQABcAEaewpNPzLrGOZxdqov5VCgLbBCZx4GQEEEEAgngIUAJPkbUu/PtlZqP8bPWIWK6V/MsmmvIUAAggggECsBCgAppGurl0NA7l8Zp0qqj+W5wv8chq7sAkCCCCAAAJWC1AAlJGeXF/905f2ZZYbz/yFfDRwtIxd2RQBBBBAAAGrBCgAykxHh9JeV2/DP3qjF14sNxF6UH45devIMrnYHAEEEEDAUgEKgAoT07Xr949199bfVVNrlimj9lU4DLshgAACCCBQFQEKgBmyb93RcDBXqG+Uxw6v9TxzeIbDsTsCCCCAAAKRCFAABMQsjx1+ZNYHR5apYvrLMuTxgIZlGAQQQAABBEIRoAAIkHXLlotP5vrmf61mtHaxMSYX4NAMhQACCCCAQKACFACBcp4ebMujdUe6Cg3tnpe6Sp4scCCEKRgSAQQQQACBGQlQAMyIb/Kdu3sX7F90RWaFNuaTsuXw5FvzLgIIIIAAAtEJUACEbH3qaYOFhi1zL6hdKDcSekCmo20wZHOGRwABBBCYWoACYGqjQLbYvL3uuNxI6B6vWLNEefrRQAZlEAQQQAABBCoUoACoEK7S3br75h3O9WZWy8cC18oYhyodh/0QQAABBBCYiQAFwEz0ZrBvZ6Fh98CxzNKiMp+Tuwkem8FQ7IoAAggggEDZAhQAZZMFt0N/vx7tyTd822i9ULoFfiAjy5OH+UIAAQQQQCB8AQqA8I2nnKGnkHkj11t/W1HVSMeA3j/lDmyAAAIIIIDADAUoAGYIGOTuPfl5BzoLmauMTm+QcwFDQY7NWAgggAACCIwVoAAYq2HJn7t2zu/+L60XK2O+JoXASUvCIgwEEEAAgQQJUABYmsxCIXMiV2j4ckrrJZ5Wj1gaJmEhgAACCMRUgALA8sRtLWT+o3tn/VpP6UbpFnjJ8nAJDwEEEEAgJgIUADFJVHc+s+/SKzLLJNxPSyFwNCZhEyYCCCCAgKUCFACWJma8sPzbCufy9X8/MuItNir1j7INbYPjQfEaAggggMCUAhQAUxLZt8H2xy862pVf8BdGp5ZLdD+1L0IiQgABBBCwXYACwPYMTRJf184Fv5QzAquMl1pniurVSTblLQQQQAABBN4nQAHwPo54/qWrd8FPat+S2wob9TfyocCJeK6CqBFAAAEEohSgAIhSO8S5tvTrkz2F+r81RbNEptkW4lQMjQACCCCQAAEKgAQkcewSunY1DMjHAq2qqP5YzgYcGPsef0YAAQQQQKAkQAFQkkjY77m++qcXXZFZoYv6dlnacMKWx3IQQAABBGYoQAEwQ0Cbd/fbBjv7Mg/NvaB2YdGY78r9A0ZtjpfYEEAAAQSiE6AAiM66ajNt3l53vKfQcHcqVbtUioDdVQuEiRFAAAEErBGgALAmFeEHksvXHerurb9WZlojvw6FPyMzIIAAAgjYKkABYGtmQoxLLhLMLzqWWao99UW5leDxEKdiaAQQQAABSwUoACxNTNhhdfTr0c7e+m+m0+mFSumtYc/H+AgggAACdglQANiVj8ij6dwxfziXz3xCGX25XB/w88gDYEIEEEAAgaoIUABUhd2+SXOFzM/laYN/6GnzCbl/wBH7IiQiBBBAAIEgBSgAgtSM+Vh+22D3zoats7VeWFTqm3J9wLsxXxLhI4AAAghMIEABMAGMyy8/VMic6MnXf1EVa/wLBXtdtmDtCCCAQFIFKACSmtkA1tXdN++wXCiY1cb4rYO0DQZgyhAIIICALQIUALZkwuI4OgsNuwekbdAU9d0S5m8tDpXQEEAAAQSmKUABME0o1zfrl7bBrr7Md4tGL/aM+oF4yCUCfCGAAAIIxFWAAiCumatS3D2FzBvdhfrbiqpmhTZ6f5XCYFoEEEAAgRkKUADMENDV3Xvy8w50FjJXyWmAVvk14KoD60YAAQTiKkABENfMWRJ3d75+25tGLzFe+j75UOCkJWERBgIIIIDAFAIUAFMA8fbUAgVpG+zqnX+vKZrFclvhn0y9B1sggAACCFRbgAKg2hlI0PxduxoG5LbC61RR/bFXVL9M0NJYCgIIIJA4AQqAxKW0+gvK9dU/fWlfZnnRqDu1UUerHxERIIAAAgicK0ABcK4Ifw9EoENpr6dQv9kbvfBiGfDv5Rdtg4HIMggCCCAQjAAFQDCOjDKBQNeu3z+Wy9d/OpU2S5VR+ybYjJcRQAABBCIWoACIGNzV6bbuaDiYK9Q3ekp/TClz2FUH1o0AAgjYIkABYEsmHImjO595uOYDI8u8ov6yLPm4I8tmmQgggIB1AhQA1qUk+QFt2XLxye6+zNdqRmsXe57qTv6KWSECCCBgnwAFgH05cSaiLY/WHenurd/geamr5BLBA84snIUigAACFghQAFiQBNdD6O5dsH/RFZkVpqhuFYth1z1YPwIIIBCFAAVAFMrMMaVAR4f2uvrqfzj3gtqFSqW+LTuMTrkTGyCAAAIIVCxAAVAxHTuGIbB5e93xXH7B55SqXSrXB+wOYw7GRAABBBCQH7VAQMBGgVy+7pBcH3Ct1t5qie+QjTESEwIIIBBnAQqAOGfPgdg7d1706KJjmaXaU1+U+wccc2DJLBEBBBCIRKAmklmYBIEZCHT0a/96gG/OYAh2RQABBBA4R4AzAOeA8FcEEEAAAQRcEKAAcCHLrBEBBBBAAIFzBCgAzgHhrwgggAACCLggQAHgQpZZIwIIIIAAAucIUACcA8JfEUAAAQQQcEGAAsCFLLNGBBBAAAEEzhGgADgHhL8igAACCCDgggAFgAtZdnyNRaW4gZDjxwDLR2A6AjU16sR0tkvKNhQASckk65hQYOh45hPKqHvk2QIUAhMqJfANIw+ZruArnfa4QVoFbvHexXssnR5Z8m//1nw43usoL3oO9PK82DqGAv2n7yT4QPvaI1vN6OhXlNZ/Lsug+I1hLgkZgSAF5IeCwzU16b/YvTv7RJDjxmUs/hOMS6aIc8YCnTvmD+cKDbcXVc0KbfT+GQ/IAAggEEuB02cDzT3z5r29dPfuG5385u8njgIglocvQc9EoCc/78DCyxeslPPDrfJrYCZjsS8CCMRHwJMveahYbnR0ZHF/f8sD27ff/G58og8+Uj4CCN6UEWMg0NEhzxdUals2O5Sfa8y9WqnPSjl8YQxCJ0QEEKhAwBiz35jUp/v7s5z9O+PHGYAKDiR2SY5AoZA50dVbv8kzNcuU0j9JzspYCQII+ALGqGH5wf/Wa67JrnzqKb75jz0qOAMwVoM/OyvQ3TfvsCx+3fqWoauVZ76fSqk/cBaDhSOQAAH5xv+u1urbWr/91b17bz6+b18CFhXwEjgDEDAow8VboDuf2Sdtg8uLRt0pnxYejfdqiB4BNwXkdP/DxaJeKqf7N/X333zcTYWpV80ZgKmN2MIxgTNtg5vXXfebbRfM0l+nbdCxA4DlxlngJTndf/u+fWv4eX8aWeQMwDSQ2MRNge2PX3S01DYoNxLiPxQ3DwNWHQMB/2yd1uZOpeYs55v/9BPGGYDpW7GlowJ+26AsvXF9y+DH5fdvSdXc4CgFy0bAKoHTbX36ByMjszbt23c9H9mVmR3OAJQJxubuCnTn67e9afQSrcy9cpNZp+4Z7m7WWbmtAvI5/z650G/Fvn0ttz/zDN/8K8kTZwAqUWMfZwX8tkFZ/H0bbhjYolOp70iT0f92FoOFI1AFAfmpf0C6dO7Zu3fNtipMn6gpOQOQqHSymKgEunY1DOTymXWe0o1yNsD/iIAvBBAIUUA+5z8h3/zvfeut1JL+fr75B0FNARCEImM4K+C3DS7qzcizBcwnBWHYWQgWjkCIAn5bXyqVXiIX+N333HNZPn4LyJoCICBIhrFX4I51w3PCjK5Daa+z0LBl7gW1C6UQ+K78pDIa5nyMjYArAvIZ/wH5qb9x796Wj/X33zjgyrqjWicFQFTSzFM1gWNvj3S2rR781qeyQ7PDDGLz9rrjUgjcXVNr5LbC6rEw52JsBJIsUGrr27u3WS7yo6c/rFxTAIQly7gWCehZKq0+f0KbX7dnBzZ2dJhQj/utOxoO5vL1N5gRfZ3nGf8Ww3whgMD0BEbldP+DIyO1i/fsadksz+fwH9rFV0gCof5HGFLMDItApQJ1RusfHfzZ0L+3ZYc+XOkg092va1fmiVkfHFkmNxG6R36iOTbd/dgOATcFvMfS6ZFlcrr/Ltr6ojkCKACicWYWiwSkhejDSpvn2lqGfty+9khdmKFt2XLxyVyh/oF0bXqx/GSTC3MuxkYgjgJSHB+WC/yukyv7b3jyyZsOxnENcY2ZAiCumSPuAATMLaZYfGVDy+AXOppMqPfE6Nwxf7ir0NDueamrtNE8jzyA7DFEvAVOnxUz98yb9/bS3btvfCLeq4ln9BQA8cwbUQcnMEcr9Y1Dc4de3JAdaA5u2PFH6u5dsH/h5QtW0jY4vg+vJl9AruqXz/VNbnR0ZHF/f8sD27ff/G7yV23nCikA7MwLUUUvsEhrXVjfPPhkW8vwojCn7+h4r23QeOp+uZHQyTDnY2wEbBGQj8H2G5NaKd/4259++ibum1HlxFAAVDkBTG+XgFwf8FGlRl5sa3nt78K+f4DfNtjVW7+ppia1VBRoG7TrUCCaAAWkn39YfvC/9ZprsiufeirLR2AB2s5kKAqAmeixb1IF5HoA7y+PvTPyShRtg1seWfDqe22D6qWkorIu9wTkG79/ev9+rd9eKP38P/TPfrmnYO+KKQDszQ2RVV8g8rbBoeOZ5bQNVj/xRBCEgPeY1qNy3/7spv7+m48HMSJjBCtAARCsJ6MlUCDKtsH+fj1aahtUxjwknPzElMBjKuFLeqnU1tffv/bVhK811sujAIh1+gg+WgFzS1HaBtubo2kbzBUabi+qGnnQEG2D0eaZ2SoRKLX1KTVnOW19lQhGvw8FQPTmzBhjAfkHM0duJBxZ22BPft4Bv21QTgO0yq+BGNMRekIF/LY+ueX1Q6W2vv7+a3gYVkxyTQEQk0QRpnUCkbYNdufrt71p9BLaBq07DpwOSNr69smFfvLAnpbbaeuL36FAARC/nBGxRQJRtg0WCpkTftugZ2rkaYP6JxYxEIpjAvIjv5yN8lrlvv2NTz215oBjy0/McikAEpNKFlJFgbNtg3Jb4T8L+2mD3X3zDufymXWe0o1yiSD/+VYx8a5NLZ/zn5Bv/ve+9VZKru5fs8219SdtvRQAScso66mmQJ3cVvifD/1s6PkonjbYnc/sW9SbWVE06k75j/loNRfO3MkXkNP9D8vV/Uukn/++557Lnkj+ipO/QgqA5OeYFUYtkFKXRfW0wQ55XnpPoX7zyIi3WJ4v8F0pBLgAK+p8J3w++Yz/gPzU3yin+z/W338jF6ImKN8UAAlKJkuxTSC6tsHtj190tLPQcHdNrVkmNxLaZ5sE8cRPwD+rpLW5c+/eZrnIbw3HVPxSOGXEFABTErEBApULyD+wSNsGt+5oOCg3EmpURbVGoj5UeeTs6bDAqJzuf3BkpHbxnj0tm+WCU25GldCDgQIgoYllWdYJRNY26K8811efr/nAu8u1MvfKhYJ8Xmvd4WBnQH5bXzo9skxO99/1zDPXc12JnWkKLCoKgMAoGQiBqQWibBvcsuXik535hvtM0SyR/9hzU0fHFq4KGOMdlsdhr/Hb+p588qaDrjq4tm4KANcyznptEIi0bbBrV8NAV6Gh3fNSV9E2aEP67Ymh1NZXV/fO0j17mvP2REYkUQhQAEShzBwIjC9wtm1wffNrV46/SXCvdvcu2O+3DUq3wCdl1OHgRmakuAnIVf3yub7Jldr6tm+/2X9sL1+OCVAAOJZwlmuhgLQNplLesxuyA53ta4/UhRmh3zYo3QJb5l5Qu5C2wTCl7R1bPg7ab0xqZX9/SzttffbmKYrIKACiUGYOBKYhIJ/BtvlPG2zNHvlSR5ORjwnC+9q8ve742bZBpR4LbyZGtkVA+vmH5Qf/W6+5Jrvyqaey+22JiziqJ0ABUD17ZkbgPAH5BzknrYtfPzR36EU5I9B83gYBv3CqbTBff4MZ0dfJE90OBzw8w1kgIN/4/dP792v99kLp5/9hRwdtfRakxYoQKACsSANBIHCeQKRtg127Mk/M+uCIfxOhe+TT4WPnRcMLMRXwHtN6VO7bn93U33/z8ZgugrBDEqAACAmWYREIQqDUNtieHfjOHeuG5wQx5kRj+G2DchOhB9K16cW0DU6kFJvXX5IL/K6TB/bc0N+/9tXYRE2gkQpQAETKzWQIVCRQY7T+7LF3Rl7ZsDr8pw127pg/XGob1EbzWXFFKavOTqfP3ph75JOk5bt33/hEdaJg1rgIUADEJVPEiYBSdTp9+mmDUbUNLrx8wUrpF2uVXzwExuIj0G/rk2s4HhodHVksV/c/0N9/DQ+FsjhftoRGAWBLJogDgekKjGkb3Hjj8Pzp7lbJdv4FY935+m1vGr3EeOp+uZHQyUrGYZ/wBE639Sl5YE/L7U8/fRP3dwiPOnEjUwAkLqUsyBUBv23w3ZqRl1vXhN82WChkTnT11m/yTM0yeTjMT1wxtnmd8iO/nJXxWk+39a05YHOsxGanAAWAnXkhKgSmJSD/gOekzem2wbaWwZZp7TSDjbr75h3O5TPrPKUb5fPml2YwFLtWKCDuJ+Sb/71vvZWSq/vXbKOtr0JIdlMUABwECCRDYJEsY+f65sEn21qG/T+H+tWdz+wbOp5ZXjTqTvmGxFPjQtV+b3A53f9w6fa9zz2X5SmP79HwpwoEKAAqQGMXBGwViLJtsL9fj/YU6jePjHiLlTEPiYlcK8hXGAJyM58D8lN/ozyt72PcvjcMYTfHpABwM++sOtkCZ9sG27JDf97RYUL9d7798YuO5goNtxdVzQq5kdC+ZNNGuzr/7IrW5s69e5vlIr812EbLn/jZQv2PIfF6LBABuwXqlDb/dOhnQ89H0TbYk593QG4k1EjbYCAHxaic7n9wZKR28Z49LZvlwkvOrgTCyiBjBSgAxmrwZwSSKHCmbbA9O9gVdtugz1dqG9TK3CsfCvA5dZnHlHzj35dOjyyT0/13PfPM9VxfUaYfm09fgAJg+lZsiUCsBYxW60fPtA1u3PjrC8NcjN822JlvuM8UzRLaBqcnbYx3WFo718g3/sYnn7zp4PT2YisEKhegAKjcjj0RiKPAqbbB0aOzftG2Ovy2wa5dDQOltkE5G0Cv+jhHTKmtr67unaV79jTnx9mElxAIRYACIBRWBkXAeoFFKh1t2+Ci3swK2gbfOy7kqn75XN/kSm1927ff7D+2ly8EIhOgAIiMmokQsE/Abxv0vJEXWyN42mCHXMhWahvUxnxXvv05e796v63PmNRKuW9/O2199v27cCUiCgBXMs06EZhAQIqAmvSZpw1G1TbYWWi4u6bWLHOtbVC+8Q/LD/63+m19Tz2V5UmLExyTvByNAAVANM7MgkAcBCJtG9y6o+Gg3zaoimqN4ByKA1ClMco3fv/0/v1av71Q+vl/SFtfpZLsF6QABUCQmoyFQBIEIm4bzPXV52s+8O7y5LYNeo9pPSr37c9u6u+/+XgSDhHWkAwBCoBk5JFVIBC4QKltsG31kb8Ku21wy5aLT5baBqUPPhf4Yqoz4Etygd918sCeG/r7175anRCYFYGJBSgAJrbhHQQQkKcNqnTxq+++UftCVG2DXYWGds9LXaWNjuVn5HJx4zG5uv8eoVu+e/eNT3AQIWCrAAWArZkhLgQsEkil9CV+22BbdnBvJE8b7F2wf+HlC1ZKt8AnhWHYIooJQ/Hb+jzPPDQ6OrJYru5/oL//Gme7HCZE4g2rBCgArEoHwSBguYBWV0fWNtihPekW2DL3gtqFxlP3y42ETtqqIx9b7JcL/eSBPS23P/30TbEoWGy1JK7oBCgAorNmJgQSITC2bbB1zZHQnza4eXvd8a7e+k01NamlAviYTYjyI/+APAW59ZprsiufemoNdzq0KTnEMqUABcCURGyAAAITCNSlTTGypw1ueWTBq7l8/Q1mRF8nn7O/NEFMkbxcaut7662UXN2/ZluHnK2IZGImQSBAAQqAADEZCgEnBc60Da5vjuZpg127Mk8MHc8sl5sI3XP6grto1eV0/8PFol7qt/U991yWpx1Gy89sAQpQAASIyVAIuCwgHw2cetpgFG2D/f16VG4i9EC6Nr1YGfOQuEfxE/hLcsq/UZ7W97Gf/rT5sMu5Zu3JEKAASEYeWQUCtgi81zaYHfrTsIPq3DF/OFdouL2oalaE1TYoZxmOam3u9Nv65C5++8JeE+MjEJUABUBU0syDgEMCp9oGtdnhtw3esnbg0rCX3pOfd8BvG5TTAK3ySy7MC+RrVE73PzgyUrt4z56WzbT1BWLKIBYJUABYlAxCQSBxAtI2ODqiX2iP4mmDciFed75+25tGL/HbBj1TedugfOPfl06PLJPT/Xc988z1RxOXFxaEgAhoFBBIukBb81CfSpkbk77OGKxvuKjTX16yYt4Po7hqfsMN/29u167fl7vylfd11VWPzn322RvL3q+8WdgageoLUABUPwdEELIABUDIwOUO76kDnkrd1i13+yt3V7ZHAIHgBPgIIDhLRkIAgekIRNw2OJ2Q2AYBFwUoAFzMOmtGwAKBUtvg+tVDoT9t0ILlEgIC1glQAFiXEgJCwCmBOam0+eroUXnaYARtg07JslgEphCgAJgCiLcRQCAKAXnaYIRtg1GsiDkQsF2AAsD2DBEfAi4JjGkb9K/id2nprBWBqAUoAKIWZz4EEJhUwH/aoNH6syZ98pX21UOf6ugw/D81qRhvIlCZAP+wKnNjLwQQCFlACoEPmrT5/qGfDT2/vvm1K0OejuERcE6AAsC5lLNgBGImcKZtsK1lsGfjjcPzYxY94SJgrQAFgLWpITAEEDhH4OOjNSMv0zZ4jgp/RaBCAQqACuHYDQEEqiJwtm2wlbbBqiSASZMjQAGQnFyyEgQcEtCXpGkbdCjfLDUMAQqAMFQZEwEEohE40za4vnnwe7QNRkPOLMkRoABITi5ZCQJOCvhtg/LrM2fbBhVtg04eCCy6bAEKgLLJ2AEBBGwUKLUNHlw99AvaBm3MEDHZJkABYFtGiCdwAa2MF/igDGitQCqt/mcq5T3b2jL4DWuDJDAELBCgALAgCYQQroBRmuM8XGIrR0976o+sDIygELBEgP8YLUkEYSCAAAIIIBClAAVAlNrMhQACCCCAgCUCFACWJIIwEEAAAQQQiFKAAiBKbeZCAAEEEEDAEgEKAEsSQRgIIIAAAghEKUABEKU2cyGAAAIIIGCJAAWAJYkgDAQQQAABBKIUoACIUpu5EEAAAQQQsESAAsCSRBAGAggggAACUQpQAESpzVwIIIAAAghYIkABYEkiCAMBBBBAAIEoBSgAotRmLgQQQAABBCwRoACwJBGEgQACCCCAQJQCFABRajMXAggggAAClghQAFiSCMJAAAEEEEAgSgEKgCi1mQsBBBBAAAFLBCgALEkEYSCAAAIIIBClAAVAlNrMhQACCCCAgCUCFACWJIIwEEAAAQQQiFKAAiBKbeZCAAEEEEDAEgEKAEsSQRgIIIAAAghEKUABEKU2cyGAAAIIIGCJAAWAJYkgDAQQQAABBKIUoACIUpu5EEAAAQQQsESAAsCSRBAGAggggAACUQpQAESpzVwIIIAAAghYIkABYEkiCAMBBBBAAIEoBSgAotRmLgQQQAABBCwRoACwJBGEgQACCCCAQJQCFABRajMXAggggAAClghQAFiSCMJAAAEEEEAgSgEKgCi1mQsBBBBAAAFLBCgALEkEYSCAAAIIIBClAAVAlNrMhQACCCCAgCUCFACWJIIwEEAAAQQQiFKAAiBKbeZCAAEEEEDAEgEKAEsSQRgIIIAAAghEKUABEKU2cyGAAAIIIGCJAAWAJYkgDAQQQAABBKIUoACIUpu5EEAAAQQQsESAAsCSRBAGAggggAACUQpQAESpzVwIIIAAAghYIkABYEkiCAMBBBBAAIEoBSgAotRmLgQQQAABBCwRoACwJBGEgQACCCCAQJQCFABRajMXAggggAAClghQAFiSCMJAAAEEEEAgSgEKgCi1mQsBBBBAAAFLBCgALEkEYSCAAAIIIBClAAVAlNrMhQACCCCAgCUCFACWJIIwEEAAAQQQiFKAAiBKbeZCAAEEEEDAEgEKAEsSQRgIIIAAAghEKUABEKU2cyGAAAIIIGCJAAWAJYkgDAQQQAABBKIUoACIUpu5EEAAAQQQsESAAsCSRBAGAggggAACUQpQAESpzVwIIIAAAghYIkABYEkiCAMBBBBAAIEoBSgAotRmLgQQQAABBCwRoACwJBGEgQACCCCAQJQCFABRajMXAggggAAClghQAFiSCMJAAAEEEEAgSgEKgCi1mQsBBBBAAAFLBCgALEkEYSCAAAIIIBClAAVAlNrMhQACCCCAgCUCFACWJIIwEEAAAQQQiFKAAiBKbeZCAAEEEEDAEgEKAEsSQRgIIIAAAghEKUABEKU2cyGAAAIIIGCJAAWAJYkgDAQQQAABBKIUoACIUpu5EEAAAQQQsESAAsCSRBBGeAKeSX9ae6o3vBkYGQEEEIifAAVA/HJGxGUKdPfNO9zZW5/Vxlwrux4qc3c2RwABBBIpQAGQyLSyqPEEOgsNuweOZZYqo+7xPHVsvG14DQEEEHBFgALAlUyzzlMC/f16NFeofyBdm14sHwv8EBYEEEDAVQEKAFcz7/i6O3fMH5aPBW5VRl8uZwN+7jgHy0cAAQcFKAAcTDpLfk8gV8j8/NIrMn+oPPMJefXIe+/wJwQQQCDZAhQAyc4vq5uGQEeH9nK9DVtnG72wqNQ3PaXencZubIIAAgjEWoACINbpI/ggBR4qZE705Ou/qIo1S+VjAdoGg8RlLAQQsE6AAsC6lBBQtQX8tsFu2garnQbmRwCBkAUoAEIGZvj4CpTaBovKfI62wfjmkcgRQGB8AQqA8V14FYFTAn7bYE++4dtG64W0DXJQIIBAkgQoAJKUTdYSmkBPIfMGbYOh8TIwAghUQYACoAroTBlfgVLbYLGo22UVtA3GN5VEjoDzAhQAzh8CAJQr4LcN9vRlcn7boPFoGyzXj+0RQMAOAQoAO/JAFDEU8NsGu3ppG4xh6ggZAQREgAKAwwCBGQrQNjhDQHZHAIGqCFAAVIWdSZMoUGobVLQNJjG9rAmBxAlQACQupSyomgKnnjZ4pm1QbivM0warmQzmRgCBSQUoACbl4U0EKhPw2wbltsK3FlXN/+Jpg5UZshcCCIQrQAEQri+jOy7Qk593wH/aIG2Djh8ILB8BCwUoACxMCiElS+CctsH7edpgsvLLahCIqwAFQFwzR9yxEzjTNrjJf9qg3FaYpw3GLoMEjECyBCgAkpVPVhMDAb9tUG4rnNXGXCvhHopByISIAAIJFKAASGBSWVI8BMa2DUrEv41H1ESJAAJJEaAASEomWUcsBUptg0WjFytP/SCWiyBoBBCIpQAFQCzTRtBJE/DbBnO99bf5bYPa6P1JWx/rQQAB+wQoAOzLCRE5LOC3DXYWMlcVlW6XboEhhylYOgIIhCxAARAyMMMjUIlATz6TmyMfC8jTBu+XjwZOVjIG+yCAAAKTCVAATKbDewhUUaDUNuiZmmVyW+F8FUNhagQQSKAABUACk8qSkiXgtw3KbYXX0DaYrLyyGgSqLUABUO0MMD8C0xQotQ2aor5bdqFtcJpubIYAAuMLUACM78KrCFgp4LcNdvVlvjumbVCuFeQLAQQQKF+AAqB8M/ZAoOoCY9oGV9A2WPV0EAACsRSgAIhl2ggagdMCtA1yJCCAQKUCFACVyrEfAhYJ+G2Db0rboGfM12gbtCgxhIKAxQIUABYnh9AQKEegUMic6C40fJm2wXLU2BYBdwUoANzNPStPqABtgwlNLMtCIGABCoCAQRkOAVsEaBu0JRPEgYCdAhQAduaFqBAIRIC2wUAYGQSBRApQACQyrSwKgfcL0Db4fg/+hgACSlEAcBQg4JBAqW3Q6PQGnjboUOJZKgLjCFAAjIPCSwgkXaBr5/xu2gaTnmXWh8DkAhQAk/vwLgKJFSi1Daa0XiL3DngksQtlYQggMK4ABcC4LLyIgDsCWwuZ/8j11q/laYPu5JyVIuALUABwHCCAwCkB2gY5EBBwS4ACwK18s1oEJhWgbXBSHt5EIFECFACJSieLQSAYAdoGg3FkFARsFqAAsDk7xIZAlQXGtg3KhYJDVQ6H6RFAIEABCoAAMRkKgaQK+G2D/6X1YsXTBpOaYtbloAAFgINJZ8kIVCLgtw3m5GmDtA1Wosc+CNgnQAFgX06ICAGrBUptg57SjRLoIauDJTgEEJhQgAJgQhreQACByQS685l9A8cyS01R3y3b/XaybXkPAQTsE6AAsC8nRIRAbATGtg16Rv1AApdHDPCFAAJxEKAAiEOWiBEBywX8tsHuQv1tRVWzQhu93/JwCQ8BBESAAoDDAAEEAhM42zZo0htoGwyMlYEQCEWAAiAUVgZFwG2BrgJtg24fAaw+DgIUAHHIEjEiEEMB2gZjmDRCdkqAAsCpdLNYBKIXGNs26HnqpegjYEYEEBhPgAJgPBVeQwCBwAX8tsFLr8gs0zp9lwxO22DgwgyIQHkCFADlebE1AgjMQKCjQ3udO+c/WDR6MW2DM4BkVwQCEKAACACRIRBAoDwB2gbL82JrBMIQoAAIQ5UxEUBgWgKltkFdVK20DU6LjI0QCEyAAiAwSgZCAIFKBTr76rfxtMFK9dgPgcoEKAAqc2MvBBAIWIC2wYBBGQ6BKQQoAKYA4m0EEIhWgLbBaL2ZzV0BCgB3c8/KEbBaoNQ26BnaBq1OFMHFVoACILapI3AEki/gtw12F+Y/+M473kJlzEOyYp42mPy0s8KIBCgAIoJmGgQQqFxg++MXHc0VGm7naYOVG7InAucKUACcK8LfEUDAWoGxbYNyKmDA2kAJDIEYCFAAxCBJhIgAAu8X8NsG3zR6iafS98mHAiff/y5/QwCB6QhQAExHiW0QQMA6Ab9tsDs//96UlkJAq0esC5CAELBcgALA8gQRHgIITC7gtw1276xf6yndyNMGJ7fiXQTGClAAjNXgzwggEFsB2gZjmzoCRwABBBBAIBiBW9f95gPtq4c+FcxojIIAAggggAACCCCAAAIIIIAAAggggAACCCCAAAIIIIAAAggggAACCCCAAAIIIIAAAggggAACCCCAAAIIIIAAAggggAACCCCAAAIIIIAAAggggAACCCCAAAIIIIAAAggggAACCCCAAAIIIIAAAggggAACCCCAAAIIIIAAAggggAACCCCAAAIIIIAAAggggAACCCCAAAIIIIAAAggggAACCCCAAAIIIIAAAggggAACCCCAAAIIIIAAAggggAACCCCAAAIIIIAAAggggAACCCCAAAIIIIAAAggggAACCCCAAAIIIIAAAgggUGWB/w8Q+rD1+MqZEAAAAABJRU5ErkJggg==;" parent="1" vertex="1">
          <mxGeometry x="674" y="178.66" width="103.67" height="103.67" as="geometry" />
        </mxCell>
        <mxCell id="IlMm2bm1_j7ZGz1Ir1Hr-20" value="" style="edgeStyle=orthogonalEdgeStyle;rounded=0;orthogonalLoop=1;jettySize=auto;html=1;flowAnimation=1;" parent="1" source="IlMm2bm1_j7ZGz1Ir1Hr-16" target="IlMm2bm1_j7ZGz1Ir1Hr-17" edge="1">
          <mxGeometry relative="1" as="geometry" />
        </mxCell>
        <mxCell id="IlMm2bm1_j7ZGz1Ir1Hr-16" value="Terraform Plan" style="shape=image;verticalLabelPosition=bottom;labelBackgroundColor=default;verticalAlign=top;aspect=fixed;imageAspect=0;image=data:image/png,iVBORw0KGgoAAAANSUhEUgAAAgAAAAIACAYAAAD0eNT6AAAAAXNSR0IArs4c6QAAAERlWElmTU0AKgAAAAgAAYdpAAQAAAABAAAAGgAAAAAAA6ABAAMAAAABAAEAAKACAAQAAAABAAACAKADAAQAAAABAAACAAAAAAAL+LWFAAA8FklEQVR4Ae3dD3Bc1X3o8XN2JUNdP79OmpHtlXgTsI3r5zFvHCiM2xiJMFP+WCvX5JkX2RJxSglTmITQhCRuylTTkIQkNH+Y1tPQNHGsleSpU4x3JQxMsWWTgcENYZ4zBGKMwzSSMCrPkxpjDNLe837X9hph69+u7r177j1fzXhs7957zu98ftfWT3fv716l+EIAAQQQQAABBBBAAAEEEEAAAQQQQAABBBBAAAEEEEAAAQQQQAABBBBAAAEEEEAAAQQQQAABBBBAAAEEEEAAAQQQQAABBBBAAAEEEEAAAQQQQAABBBBAAAEEEEAAAQQQQAABBBBAAAEEEEAAAQQQQAABBBBAAAEEEEAAAQQQQAABBBBAAAEEEEAAAQQQQAABBBBAAAEEEEAAAQQQQAABBBBAAAEEEEAAAQQQQAABBBBAAAEEEEAAAQQQQAABBBBAAAEEEEAAAQQQQAABBBBAAAEEEEAAAQQQQCCuAjpugW/c+OsLR9+Y1ZPS+q6thcx/xC1+4kUAAQQQQMAGgZQNQZQdQ0r9qWfMr9qyA1/NZodml70/OyCAAAIIIOC4QDwLAD9pKXWh0vqv/rsxL2/IHlnveB5ZPgIIIIAAAmUJxLcAKC0zpTJaF7vas0PPtra8flnpZX5HAAEEEEAAgYkF4l8AnFmb0ebKtBp9vq158J9as0MfnHjJvIMAAggggAACiSkAzqQyJR8N/Hlay8cCq4c+29RkakgxAggggAACCJwvkLQCoLTC39Np852GuUMvrm8Zurr0Ir8jgAACCCCAwGmBpBYApfwuSimzVz4W2HFLduh/lF7kdwQQQAABBFwXSHoBcDq/Z9oG19M26PrxzvoRQAABBM4IuFEA+IuVtkG5edDptsE1tA3yLwABBBBAwG0BdwqAUp79tkFD22CJg98RQAABBNwUcK8AOJNn2gbdPOBZNQIIIIDAaQFnC4AzBwBtg/xLQAABBBBwUsD1AqCU9LNtg+3ZgY+WXuR3BBBAAAEEkipAAfD+zC4yWj/Z2jK4k7bB98PwNwQQQACBZAlQAIyTz7RSLf7TBmkbHAeHlxBAAAEEEiFAATBRGs+0Df43ua1wa8tQ20Sb8ToCCCCAAAJxFKAAmCJrApRJK9PJ0wangOJtBBBAAIFYCVAATDNdtA1OE4rNEEAAAQRiIUABUF6aaBssz4utEUAAAQQsFaAAqCwxtA1W5sZeCCCAAAKWCFAAzCwRZ9sG169+/ZKZDcXeCCCAAAIIRCdAARCAtd82mNKjL2xoHvx6Njs0O4AhGQIBBBBAAIFQBSgAguKVtkGdUl+ibTAoUMZBAAEEEAhTgAIgYF0BpW0wYFOGQwABBBAIXoACIHjTUyPSNhgSLMMigAACCAQiQAEQCOOEg5xtG2xrGfjLpiZTM+GWvIEAAggggECEAhQA0WD/nlL67xrmDr3I0wajAWcWBBBAAIHJBSgAJvcJ+t1TbYPtzYMF2gaDpmU8BBBAAIFyBCgAytEKaFuTUs0qPfqi3zb4KdoGA1JlGAQQQACBcgQoAMrRCnBbgZ/ltw0e9582uJqnDQZIy1AIIIAAAtMQoACYBlKYm0gCMuk0TxsM05ixEUAAAQTOF6AAON+kKq+caRv8v60tg//cmh36YFWCYFIEEEAAAWcEKAAsS7XcVvjPtDGv0DZoWWIIBwEEEEiYAAWAhQlNpdRc2gYtTAwhIYAAAgkSoACwO5m0DdqdH6JDAAEEYitAARCD1I1pG/wGbYMxSBghIoAAAjEQoACIQZL8ECVRftvgF05o84rfNtjRIWUBXwgggAACCFQowDeRCuGquNt8v23w4M+G/r215fXLqhgHUyOAAAIIxFiAAiCmyZMLBT+cVqO0DcY0f4SNAAIIVFuAAqDaGZjh/KW2wVaeNjhDSXZHAAEE3BKgAEhAvv22wTRPG0xAJlkCAgggEJ0ABUB01lHMdKptcD1PG4zCmjkQQACBWAtQAMQ6feMHL2cESk8bpG1wfCJeRQABBJwXoABI6CEgiT3bNtjWPHALbYMJTTTLQgABBCoUoACoEC5Gu81XKf1jv22wLTv04RjFTagIIIAAAiEKUACEiGvT0H7boNLmufZmnjZoU16IBQEEEKiWAAVAteSrNK/cP/DU0wZpG6xSApgWAQQQsESAAsCSREQZBm2DUWozFwIIIGCnAAWAnXmJKiqeNhiVNPMggAAClglQAFiWkGqEU3raYGvLIG2D1UgAcyKAAAJVEKAAqAK6jVPKgTBLbit86mmDtA3amCFiQgABBIIVoAAI1jMJo9E2mIQssgYEEEBgCgEKgCmAXH271Da4fvXgj9rXHqlz1YF1I4AAAkkVoABIamYDWlcqrTYWR4ovt2UHP9/UZGoCGpZhEEAAAQSqLEABUOUExGF6v21QafWthrlDL7ZnBz4ah5iJEQEEEEBgcgEKgMl9ePf9ArQNvt+DvyGAAAKxFaAAiG3qqhc4bYPVs2dmBBBAICgBCoCgJB0bRw6c022Dxryyfg1PG3Qs/SwXAQQSIEABkIAkVnUJKTU/ZXjaYFVzwOQIIIBABQIUABWgscv5ArQNnm/CKwgggIDNAhQANmcnhrH5bYOmWHxFHjv8hQ7aBmOYQUJGAAFXBCgAXMl0tOucIxcKfuPgnMFf0TYYLTyzIYAAAtMVoACYrhTblS2QSulLjNZPtjUP9a1f/folZQ/ADggggAACoQlQAIRGy8BnBVLmRpUefZGnDZ4V4Q8IIIBA1QUoAKqeAjcCkAPtvbbB7MDGjg75kIAvBBBAAIGqCfCfcNXoHZ3YbxvU+kcHfzb0723ZoQ87qsCyEUAAgaoLUABUPQVuBlBqG2xrGfoxTxt08xhg1QggUF0BCoDq+jO7MrfQNshhgAACCEQvQAEQvTkzni9wqm3wkP+0wTW/ufH8t3kFAQQQQCBoAQqAoEUZbyYCi4xJ9a1vHnxy45++9qGZDMS+CCCAAAKTC1AATO7Du1UQkOsDPjrqeS+3rR781qeyQ7OrEAJTIoAAAokXoABIfIpju8AalVafP+E/bZC2wdgmkcARQMBegfgVAK9+yF5NIgteYEzb4C1rBy4NfgJGRAABBNwUiF8B8KFX3cyU46v22waL76a4QNDx44DlI4BAcALxKwCCWzsjIYAAAggg4KwABYCzqWfhCCCAAAIuC1AAuJx91o4AAggg4KwABYCzqWfhCCCAAAIuC1AAuJx91o4AAggg4KwABYCzqWfhCCCAAAIuC1AAuJx91o4AAggg4KwABYCzqXdn4RtaBv+MRw67k29WikAlAqtW9X78Ix/pvaSSfeO6DwVAXDNH3NMW0J7KFkeKL7dlBz+/ceOvL5z2jmyIAAKJF1i1audljY35Z9Np01NTo+cmfsFjFkgBMAaDPyZXQO4kOFdp9a1336h9YcMNQ3+S3JWyMgQQmI7AH/3Rw3VXX53/vtbqea31ldPZJ2nb1CRtQawHgckEUil9iUqZx9taBh9Lpc1dW3c0HJxse95DAIFkCTQ17ZHve29+1vP0vad+MJCfDFz94gyAq5ln3dePjugX2rMD37lj3fAcOBBAIPkCH/3oo3L27/gvlNLfOv3NP/lrnmyFFACT6fBeogXkP4Aao/Vnj70z8ooUAhs7Ogz/HhKdcRbnqkBT044PNTXt3OV5xcfF4A9cdTh33fyHd64If3dRoE4KgR+98txrz6xvfs3JzwJdTDprTr5AU9O/zJHP+b9uTM2vlEpdn/wVl7dCCoDyvNg6wQJGmytTKe/ZtpahH9M2mOBEs7TEC/hn81atym805ndeket+viQX+s1K/KIrWCAFQAVo7JJ0AXMLbYNJzzHrS6qA39a3Z0/hmXRa/0i+8dcldZ1BrIsCIAhFxkicwKkLhGgbTFxeWVByBWjrKz+3tAGWb8YeDgnQNuhQsllqLAVo66s8bZwBqNyOPd0SoG3QrXyz2hgI0NY3syRRAMzMj70dEjivbVDRNuhQ+lmqRQK09QWTDAqAYBwZxS2BU22Dh5qHnqdt0K3Es9rqCtDWF6w/BUCwnozmkkBKXUbboEsJZ63VEqCtLxx5CoBwXBnVKQHaBp1KN4uNVGDVqsKVtPWFQ04BEI4rozomQNugYwlnuaEL+G19TU35Tq29Z1x9Wl/YyLQBhi3M+E4J0DboVLpZbAgC69b9y6z//M8LP+M/rU+Gnyv/pkKYhSF9Ac4AcBwgEI4AbYPhuDJqggX8tr7XX/+dF3laXzRJpgCIxplZHBSgbdDBpLPkigTGtvXJv5tLKhqEncoWoAAom4wdEChbgLbBssnYwQUB2vqqm2UKgOr6M7tLArQNupRt1jqJAG19k+BE+BYFQITYTIXAaQHaBjkS3BWgrc+e3FMA2JMLInFIgLZBh5LNUk8J0NZn34FAG6B9OSEihwRoG3Qo2Y4ulbY+exPPGQB7c0NkbgnQNuhWvp1YLW19dqeZAsDu/BCdQwK0DTqU7IQv9dprH760qWnnLs8rPk5bn73JpgCwNzdE5q4AbYPu5j7WK/fb+hob898rFmtfkPvMXR/rxTgQPAWAA0lmiTEVGNM2uOGGgYaYroKwnRAwqVWr8huN+Z1X5L79n5Elc31ZDPJOARCDJBGi6wLmFp3Wv2pvGfjrjRt/faHrGqzfLgG/ra+xsff5dFr/SGtVZ1d0RDOZAAXAZDq8h4AtAik12yj9lXffqH1hww1Df2JLWMThrsD72/rUZe5KxHflnKaJb+6I3EEB2gYdTLplS6atz7KEzCAczgDMAI9dEaiiAG2DVcR3dWra+pKVeQqAZOWT1TgkQNugQ8mu8lJp66tyAkKangIgJFiGRSBCAdoGI8R2aSra+pKdbQqAZOeX1bkkQNugS9kOea209YUMbMXwFABWpIEgEAhSgLbBIDVdG4u2PncyTgHgTq5ZqUsCtA26lO1A1trU9GhDU1O+U2vvGennp60vEFW7B6EN0O78EB0CMxKgbXBGfE7s7Lf1vf76BV+Q+/ZvkuNltvxyYt0sUm7WDAICCDghQNugE2kub5FXX72zZXj4ghdTqdRXpKtkdnl7s3XcBSgA4p5B4kdgmgK0DU4TyoHN/LY+eWjPXvnGv1Pr1CUOLJkljiNAATAOCi8hkHAB2gYTnuCJlje2rU8e2nP1RNvxuhsCFABu5JlVInC+AG2D55sk9hXa+hKb2hksjAJgBnjsikAyBGgbTEYex18FbX3ju/AqFwFyDCCAgC9wpm1w9OisX7S1DLaAEn8B2vrin8OwV0AbYNjCjI9AvAQWSbg727KD+1I15ratOxoOxit8oqWtj2NgugJ8BDBdKbZDwCUBra4eHdEvtGcHvnPHuuE5Li09zmulrS/O2Ys+dgqA6M2ZEYFYCNA2GIs0nQqStr745MqmSCkAbMoGsSBgpwBtg3bmRa1c+dgHpJ//e8Vi7Qu09VmaJIvDogCwODmEhoBVArQNWpQOk5Jv/HfU1o68LN/4PyOBcT2XRdmJSygUAHHJFHEiYI0AbYPVTIV8zn91Y2Pv8/KN/x/kY5oPVDMW5o63AAVAvPNH9AhUR4C2wcjd/bY++an/X+X2vXt5Wl/k/ImckNNGiUwri0IgMgHaBkOmPretL+TpGN4hAc4AOJRslopAaAK0DYZCS1tfKKwMekaAAoBDAQEEAhGgbTAQxlOD0NYXnCUjTSxAATCxDe8ggEBlArQNVuZGW1+FbuxWmQAFQGVu7IUAAlMJ0DY4ldCY92nrG4PBHyMSoACICJppEHBXgLbByXJPW99kOrwXpgAFQJi6jI0AAqcFaBs870igre88El6IWIA2wIjBmQ4BxwWcbxu8/PLC7N/9Xe8vPa+4KZXSsx0/Hlh+FQU4A1BFfKZGwFmBMW2D6677jTN3s2tq2vlx+eb/K7mZz1eka4Jv/s7+A7Bj4RQAduSBKBBwTqDUNlhbm3q5NTt4R4cyif3/aNWqnZfJXfz2KpXqkW/+Dc4lmwVbKZDYf3BWahMUAgicJ+Dfzz6t1T8cah56fn3za1eet0GMX/Cf1nf11fnvy617/Xv3Xx3jpRB6AgUoABKYVJaEQCwFEtU2+F5bn3zO/yn5qZ//a2N5UCY7aA7KZOeX1SEQQ4F4tw3S1hfDQ87RkGNXAGzZcvFJ5akDjuaLZSPghkAM2wZp63Pj0EzSKmNXAPj4i67IrFBG3yZ/HE5SMlgLAgicJ1BqG9x7y9qBS89714IX/LY++an/r6Wt71fyOf9NFoRECAhMSyCWBUBHh/ZyhcwP5l5Qu1Cuqv22rHR0WqtlIwQQiKeApW2DtPXF83Ai6tMCsSwASsnbvL3ueC6/4HNK1S71PLW79Dq/I4BA8gRsahukrS95x5eLK4p1AVBKWC5fd6i7t/5aY0xWXjtUep3fEUAgeQLVbBukrS95x5PLK0pEAVBKYFehoXfRscxS7akvymvHS6/zOwIIJFAgwrbBpqY9NXIjnztqa0depq0vgceSo0tKVAHg57CjX4929tZ/U6fTC72i2uJoXlk2Ag4JhNs26Lf1yc8Tv5AL/P7BP/vgECxLTbhA4gqAUr46d8wf7u6r/6R0C1wu1wf8vPQ6vyOAQAIFQmgb/MhHei+Rn/r/Ve7hI7fwVX+QQDWW5LhAYguAUl6lW+Dnl16R+cNiUbfLa0dKr/M7AggkUmDGbYOn2/ryX0+nzYu09SXyGGFRZwQSXwD46/TbBnv6MrnZRi80nrpfbiR0kiPAHQGtFI+9difdp1cqbYNeUf9zJcuePVvfJJ/zf0nu3z+rkv3ZJ84CxqmWcicKgNLh+FAhc6Krt36TZ2qWSRHwSOl1fkcAAQQQQMA1AacKgFJyu/vmHc711q/1lG6U6wNeKr3O7wgggAACCLgi4GQBUEpudz6zT64PWKZ1+i557bel1/kdAQQQQACBpAs4XQD4yfWvD+jcOf/Bd97xFipjHpKXvKQnnfUhgAACCCDgfAFQOgS2P37R0Vyh4XajU8vltZ+WXud3BBBAAAEEkihAAXBOVrt2LvhlLl+/qmjM/5FTAQPnvM1fEUAAAQQQSIQABcAEaewpNPzLrGOZxdqov5VCgLbBCZx4GQEEEEAgngIUAJPkbUu/PtlZqP8bPWIWK6V/MsmmvIUAAggggECsBCgAppGurl0NA7l8Zp0qqj+W5wv8chq7sAkCCCCAAAJWC1AAlJGeXF/905f2ZZYbz/yFfDRwtIxd2RQBBBBAAAGrBCgAykxHh9JeV2/DP3qjF14sNxF6UH45devIMrnYHAEEEEDAUgEKgAoT07Xr949199bfVVNrlimj9lU4DLshgAACCCBQFQEKgBmyb93RcDBXqG+Uxw6v9TxzeIbDsTsCCCCAAAKRCFAABMQsjx1+ZNYHR5apYvrLMuTxgIZlGAQQQAABBEIRoAAIkHXLlotP5vrmf61mtHaxMSYX4NAMhQACCCCAQKACFACBcp4ebMujdUe6Cg3tnpe6Sp4scCCEKRgSAQQQQACBGQlQAMyIb/Kdu3sX7F90RWaFNuaTsuXw5FvzLgIIIIAAAtEJUACEbH3qaYOFhi1zL6hdKDcSekCmo20wZHOGRwABBBCYWoACYGqjQLbYvL3uuNxI6B6vWLNEefrRQAZlEAQQQAABBCoUoACoEK7S3br75h3O9WZWy8cC18oYhyodh/0QQAABBBCYiQAFwEz0ZrBvZ6Fh98CxzNKiMp+Tuwkem8FQ7IoAAggggEDZAhQAZZMFt0N/vx7tyTd822i9ULoFfiAjy5OH+UIAAQQQQCB8AQqA8I2nnKGnkHkj11t/W1HVSMeA3j/lDmyAAAIIIIDADAUoAGYIGOTuPfl5BzoLmauMTm+QcwFDQY7NWAgggAACCIwVoAAYq2HJn7t2zu/+L60XK2O+JoXASUvCIgwEEEAAgQQJUABYmsxCIXMiV2j4ckrrJZ5Wj1gaJmEhgAACCMRUgALA8sRtLWT+o3tn/VpP6UbpFnjJ8nAJDwEEEEAgJgIUADFJVHc+s+/SKzLLJNxPSyFwNCZhEyYCCCCAgKUCFACWJma8sPzbCufy9X8/MuItNir1j7INbYPjQfEaAggggMCUAhQAUxLZt8H2xy862pVf8BdGp5ZLdD+1L0IiQgABBBCwXYACwPYMTRJf184Fv5QzAquMl1pniurVSTblLQQQQAABBN4nQAHwPo54/qWrd8FPat+S2wob9TfyocCJeK6CqBFAAAEEohSgAIhSO8S5tvTrkz2F+r81RbNEptkW4lQMjQACCCCQAAEKgAQkcewSunY1DMjHAq2qqP5YzgYcGPsef0YAAQQQQKAkQAFQkkjY77m++qcXXZFZoYv6dlnacMKWx3IQQAABBGYoQAEwQ0Cbd/fbBjv7Mg/NvaB2YdGY78r9A0ZtjpfYEEAAAQSiE6AAiM66ajNt3l53vKfQcHcqVbtUioDdVQuEiRFAAAEErBGgALAmFeEHksvXHerurb9WZlojvw6FPyMzIIAAAgjYKkABYGtmQoxLLhLMLzqWWao99UW5leDxEKdiaAQQQAABSwUoACxNTNhhdfTr0c7e+m+m0+mFSumtYc/H+AgggAACdglQANiVj8ij6dwxfziXz3xCGX25XB/w88gDYEIEEEAAgaoIUABUhd2+SXOFzM/laYN/6GnzCbl/wBH7IiQiBBBAAIEgBSgAgtSM+Vh+22D3zoats7VeWFTqm3J9wLsxXxLhI4AAAghMIEABMAGMyy8/VMic6MnXf1EVa/wLBXtdtmDtCCCAQFIFKACSmtkA1tXdN++wXCiY1cb4rYO0DQZgyhAIIICALQIUALZkwuI4OgsNuwekbdAU9d0S5m8tDpXQEEAAAQSmKUABME0o1zfrl7bBrr7Md4tGL/aM+oF4yCUCfCGAAAIIxFWAAiCumatS3D2FzBvdhfrbiqpmhTZ6f5XCYFoEEEAAgRkKUADMENDV3Xvy8w50FjJXyWmAVvk14KoD60YAAQTiKkABENfMWRJ3d75+25tGLzFe+j75UOCkJWERBgIIIIDAFAIUAFMA8fbUAgVpG+zqnX+vKZrFclvhn0y9B1sggAACCFRbgAKg2hlI0PxduxoG5LbC61RR/bFXVL9M0NJYCgIIIJA4AQqAxKW0+gvK9dU/fWlfZnnRqDu1UUerHxERIIAAAgicK0ABcK4Ifw9EoENpr6dQv9kbvfBiGfDv5Rdtg4HIMggCCCAQjAAFQDCOjDKBQNeu3z+Wy9d/OpU2S5VR+ybYjJcRQAABBCIWoACIGNzV6bbuaDiYK9Q3ekp/TClz2FUH1o0AAgjYIkABYEsmHImjO595uOYDI8u8ov6yLPm4I8tmmQgggIB1AhQA1qUk+QFt2XLxye6+zNdqRmsXe57qTv6KWSECCCBgnwAFgH05cSaiLY/WHenurd/geamr5BLBA84snIUigAACFghQAFiQBNdD6O5dsH/RFZkVpqhuFYth1z1YPwIIIBCFAAVAFMrMMaVAR4f2uvrqfzj3gtqFSqW+LTuMTrkTGyCAAAIIVCxAAVAxHTuGIbB5e93xXH7B55SqXSrXB+wOYw7GRAABBBCQH7VAQMBGgVy+7pBcH3Ct1t5qie+QjTESEwIIIBBnAQqAOGfPgdg7d1706KJjmaXaU1+U+wccc2DJLBEBBBCIRKAmklmYBIEZCHT0a/96gG/OYAh2RQABBBA4R4AzAOeA8FcEEEAAAQRcEKAAcCHLrBEBBBBAAIFzBCgAzgHhrwgggAACCLggQAHgQpZZIwIIIIAAAucIUACcA8JfEUAAAQQQcEGAAsCFLLNGBBBAAAEEzhGgADgHhL8igAACCCDgggAFgAtZdnyNRaW4gZDjxwDLR2A6AjU16sR0tkvKNhQASckk65hQYOh45hPKqHvk2QIUAhMqJfANIw+ZruArnfa4QVoFbvHexXssnR5Z8m//1nw43usoL3oO9PK82DqGAv2n7yT4QPvaI1vN6OhXlNZ/Lsug+I1hLgkZgSAF5IeCwzU16b/YvTv7RJDjxmUs/hOMS6aIc8YCnTvmD+cKDbcXVc0KbfT+GQ/IAAggEEuB02cDzT3z5r29dPfuG5385u8njgIglocvQc9EoCc/78DCyxeslPPDrfJrYCZjsS8CCMRHwJMveahYbnR0ZHF/f8sD27ff/G58og8+Uj4CCN6UEWMg0NEhzxdUals2O5Sfa8y9WqnPSjl8YQxCJ0QEEKhAwBiz35jUp/v7s5z9O+PHGYAKDiR2SY5AoZA50dVbv8kzNcuU0j9JzspYCQII+ALGqGH5wf/Wa67JrnzqKb75jz0qOAMwVoM/OyvQ3TfvsCx+3fqWoauVZ76fSqk/cBaDhSOQAAH5xv+u1urbWr/91b17bz6+b18CFhXwEjgDEDAow8VboDuf2Sdtg8uLRt0pnxYejfdqiB4BNwXkdP/DxaJeKqf7N/X333zcTYWpV80ZgKmN2MIxgTNtg5vXXfebbRfM0l+nbdCxA4DlxlngJTndf/u+fWv4eX8aWeQMwDSQ2MRNge2PX3S01DYoNxLiPxQ3DwNWHQMB/2yd1uZOpeYs55v/9BPGGYDpW7GlowJ+26AsvXF9y+DH5fdvSdXc4CgFy0bAKoHTbX36ByMjszbt23c9H9mVmR3OAJQJxubuCnTn67e9afQSrcy9cpNZp+4Z7m7WWbmtAvI5/z650G/Fvn0ttz/zDN/8K8kTZwAqUWMfZwX8tkFZ/H0bbhjYolOp70iT0f92FoOFI1AFAfmpf0C6dO7Zu3fNtipMn6gpOQOQqHSymKgEunY1DOTymXWe0o1yNsD/iIAvBBAIUUA+5z8h3/zvfeut1JL+fr75B0FNARCEImM4K+C3DS7qzcizBcwnBWHYWQgWjkCIAn5bXyqVXiIX+N333HNZPn4LyJoCICBIhrFX4I51w3PCjK5Daa+z0LBl7gW1C6UQ+K78pDIa5nyMjYArAvIZ/wH5qb9x796Wj/X33zjgyrqjWicFQFTSzFM1gWNvj3S2rR781qeyQ7PDDGLz9rrjUgjcXVNr5LbC6rEw52JsBJIsUGrr27u3WS7yo6c/rFxTAIQly7gWCehZKq0+f0KbX7dnBzZ2dJhQj/utOxoO5vL1N5gRfZ3nGf8Ww3whgMD0BEbldP+DIyO1i/fsadksz+fwH9rFV0gCof5HGFLMDItApQJ1RusfHfzZ0L+3ZYc+XOkg092va1fmiVkfHFkmNxG6R36iOTbd/dgOATcFvMfS6ZFlcrr/Ltr6ojkCKACicWYWiwSkhejDSpvn2lqGfty+9khdmKFt2XLxyVyh/oF0bXqx/GSTC3MuxkYgjgJSHB+WC/yukyv7b3jyyZsOxnENcY2ZAiCumSPuAATMLaZYfGVDy+AXOppMqPfE6Nwxf7ir0NDueamrtNE8jzyA7DFEvAVOnxUz98yb9/bS3btvfCLeq4ln9BQA8cwbUQcnMEcr9Y1Dc4de3JAdaA5u2PFH6u5dsH/h5QtW0jY4vg+vJl9AruqXz/VNbnR0ZHF/f8sD27ff/G7yV23nCikA7MwLUUUvsEhrXVjfPPhkW8vwojCn7+h4r23QeOp+uZHQyTDnY2wEbBGQj8H2G5NaKd/4259++ibum1HlxFAAVDkBTG+XgFwf8FGlRl5sa3nt78K+f4DfNtjVW7+ppia1VBRoG7TrUCCaAAWkn39YfvC/9ZprsiufeirLR2AB2s5kKAqAmeixb1IF5HoA7y+PvTPyShRtg1seWfDqe22D6qWkorIu9wTkG79/ev9+rd9eKP38P/TPfrmnYO+KKQDszQ2RVV8g8rbBoeOZ5bQNVj/xRBCEgPeY1qNy3/7spv7+m48HMSJjBCtAARCsJ6MlUCDKtsH+fj1aahtUxjwknPzElMBjKuFLeqnU1tffv/bVhK811sujAIh1+gg+WgFzS1HaBtubo2kbzBUabi+qGnnQEG2D0eaZ2SoRKLX1KTVnOW19lQhGvw8FQPTmzBhjAfkHM0duJBxZ22BPft4Bv21QTgO0yq+BGNMRekIF/LY+ueX1Q6W2vv7+a3gYVkxyTQEQk0QRpnUCkbYNdufrt71p9BLaBq07DpwOSNr69smFfvLAnpbbaeuL36FAARC/nBGxRQJRtg0WCpkTftugZ2rkaYP6JxYxEIpjAvIjv5yN8lrlvv2NTz215oBjy0/McikAEpNKFlJFgbNtg3Jb4T8L+2mD3X3zDufymXWe0o1yiSD/+VYx8a5NLZ/zn5Bv/ve+9VZKru5fs8219SdtvRQAScso66mmQJ3cVvifD/1s6PkonjbYnc/sW9SbWVE06k75j/loNRfO3MkXkNP9D8vV/Uukn/++557Lnkj+ipO/QgqA5OeYFUYtkFKXRfW0wQ55XnpPoX7zyIi3WJ4v8F0pBLgAK+p8J3w++Yz/gPzU3yin+z/W338jF6ImKN8UAAlKJkuxTSC6tsHtj190tLPQcHdNrVkmNxLaZ5sE8cRPwD+rpLW5c+/eZrnIbw3HVPxSOGXEFABTErEBApULyD+wSNsGt+5oOCg3EmpURbVGoj5UeeTs6bDAqJzuf3BkpHbxnj0tm+WCU25GldCDgQIgoYllWdYJRNY26K8811efr/nAu8u1MvfKhYJ8Xmvd4WBnQH5bXzo9skxO99/1zDPXc12JnWkKLCoKgMAoGQiBqQWibBvcsuXik535hvtM0SyR/9hzU0fHFq4KGOMdlsdhr/Hb+p588qaDrjq4tm4KANcyznptEIi0bbBrV8NAV6Gh3fNSV9E2aEP67Ymh1NZXV/fO0j17mvP2REYkUQhQAEShzBwIjC9wtm1wffNrV46/SXCvdvcu2O+3DUq3wCdl1OHgRmakuAnIVf3yub7Jldr6tm+/2X9sL1+OCVAAOJZwlmuhgLQNplLesxuyA53ta4/UhRmh3zYo3QJb5l5Qu5C2wTCl7R1bPg7ab0xqZX9/SzttffbmKYrIKACiUGYOBKYhIJ/BtvlPG2zNHvlSR5ORjwnC+9q8ve742bZBpR4LbyZGtkVA+vmH5Qf/W6+5Jrvyqaey+22JiziqJ0ABUD17ZkbgPAH5BzknrYtfPzR36EU5I9B83gYBv3CqbTBff4MZ0dfJE90OBzw8w1kgIN/4/dP792v99kLp5/9hRwdtfRakxYoQKACsSANBIHCeQKRtg127Mk/M+uCIfxOhe+TT4WPnRcMLMRXwHtN6VO7bn93U33/z8ZgugrBDEqAACAmWYREIQqDUNtieHfjOHeuG5wQx5kRj+G2DchOhB9K16cW0DU6kFJvXX5IL/K6TB/bc0N+/9tXYRE2gkQpQAETKzWQIVCRQY7T+7LF3Rl7ZsDr8pw127pg/XGob1EbzWXFFKavOTqfP3ph75JOk5bt33/hEdaJg1rgIUADEJVPEiYBSdTp9+mmDUbUNLrx8wUrpF2uVXzwExuIj0G/rk2s4HhodHVksV/c/0N9/DQ+FsjhftoRGAWBLJogDgekKjGkb3Hjj8Pzp7lbJdv4FY935+m1vGr3EeOp+uZHQyUrGYZ/wBE639Sl5YE/L7U8/fRP3dwiPOnEjUwAkLqUsyBUBv23w3ZqRl1vXhN82WChkTnT11m/yTM0yeTjMT1wxtnmd8iO/nJXxWk+39a05YHOsxGanAAWAnXkhKgSmJSD/gOekzem2wbaWwZZp7TSDjbr75h3O5TPrPKUb5fPml2YwFLtWKCDuJ+Sb/71vvZWSq/vXbKOtr0JIdlMUABwECCRDYJEsY+f65sEn21qG/T+H+tWdz+wbOp5ZXjTqTvmGxFPjQtV+b3A53f9w6fa9zz2X5SmP79HwpwoEKAAqQGMXBGwViLJtsL9fj/YU6jePjHiLlTEPiYlcK8hXGAJyM58D8lN/ozyt72PcvjcMYTfHpABwM++sOtkCZ9sG27JDf97RYUL9d7798YuO5goNtxdVzQq5kdC+ZNNGuzr/7IrW5s69e5vlIr812EbLn/jZQv2PIfF6LBABuwXqlDb/dOhnQ89H0TbYk593QG4k1EjbYCAHxaic7n9wZKR28Z49LZvlwkvOrgTCyiBjBSgAxmrwZwSSKHCmbbA9O9gVdtugz1dqG9TK3CsfCvA5dZnHlHzj35dOjyyT0/13PfPM9VxfUaYfm09fgAJg+lZsiUCsBYxW60fPtA1u3PjrC8NcjN822JlvuM8UzRLaBqcnbYx3WFo718g3/sYnn7zp4PT2YisEKhegAKjcjj0RiKPAqbbB0aOzftG2Ovy2wa5dDQOltkE5G0Cv+jhHTKmtr67unaV79jTnx9mElxAIRYACIBRWBkXAeoFFKh1t2+Ci3swK2gbfOy7kqn75XN/kSm1927ff7D+2ly8EIhOgAIiMmokQsE/Abxv0vJEXWyN42mCHXMhWahvUxnxXvv05e796v63PmNRKuW9/O2199v27cCUiCgBXMs06EZhAQIqAmvSZpw1G1TbYWWi4u6bWLHOtbVC+8Q/LD/63+m19Tz2V5UmLExyTvByNAAVANM7MgkAcBCJtG9y6o+Gg3zaoimqN4ByKA1ClMco3fv/0/v1av71Q+vl/SFtfpZLsF6QABUCQmoyFQBIEIm4bzPXV52s+8O7y5LYNeo9pPSr37c9u6u+/+XgSDhHWkAwBCoBk5JFVIBC4QKltsG31kb8Ku21wy5aLT5baBqUPPhf4Yqoz4Etygd918sCeG/r7175anRCYFYGJBSgAJrbhHQQQkKcNqnTxq+++UftCVG2DXYWGds9LXaWNjuVn5HJx4zG5uv8eoVu+e/eNT3AQIWCrAAWArZkhLgQsEkil9CV+22BbdnBvJE8b7F2wf+HlC1ZKt8AnhWHYIooJQ/Hb+jzPPDQ6OrJYru5/oL//Gme7HCZE4g2rBCgArEoHwSBguYBWV0fWNtihPekW2DL3gtqFxlP3y42ETtqqIx9b7JcL/eSBPS23P/30TbEoWGy1JK7oBCgAorNmJgQSITC2bbB1zZHQnza4eXvd8a7e+k01NamlAviYTYjyI/+APAW59ZprsiufemoNdzq0KTnEMqUABcCURGyAAAITCNSlTTGypw1ueWTBq7l8/Q1mRF8nn7O/NEFMkbxcaut7662UXN2/ZluHnK2IZGImQSBAAQqAADEZCgEnBc60Da5vjuZpg127Mk8MHc8sl5sI3XP6grto1eV0/8PFol7qt/U991yWpx1Gy89sAQpQAASIyVAIuCwgHw2cetpgFG2D/f16VG4i9EC6Nr1YGfOQuEfxE/hLcsq/UZ7W97Gf/rT5sMu5Zu3JEKAASEYeWQUCtgi81zaYHfrTsIPq3DF/OFdouL2oalaE1TYoZxmOam3u9Nv65C5++8JeE+MjEJUABUBU0syDgEMCp9oGtdnhtw3esnbg0rCX3pOfd8BvG5TTAK3ySy7MC+RrVE73PzgyUrt4z56WzbT1BWLKIBYJUABYlAxCQSBxAtI2ODqiX2iP4mmDciFed75+25tGL/HbBj1TedugfOPfl06PLJPT/Xc988z1RxOXFxaEgAhoFBBIukBb81CfSpkbk77OGKxvuKjTX16yYt4Po7hqfsMN/29u167fl7vylfd11VWPzn322RvL3q+8WdgageoLUABUPwdEELIABUDIwOUO76kDnkrd1i13+yt3V7ZHAIHgBPgIIDhLRkIAgekIRNw2OJ2Q2AYBFwUoAFzMOmtGwAKBUtvg+tVDoT9t0ILlEgIC1glQAFiXEgJCwCmBOam0+eroUXnaYARtg07JslgEphCgAJgCiLcRQCAKAXnaYIRtg1GsiDkQsF2AAsD2DBEfAi4JjGkb9K/id2nprBWBqAUoAKIWZz4EEJhUwH/aoNH6syZ98pX21UOf6ugw/D81qRhvIlCZAP+wKnNjLwQQCFlACoEPmrT5/qGfDT2/vvm1K0OejuERcE6AAsC5lLNgBGImcKZtsK1lsGfjjcPzYxY94SJgrQAFgLWpITAEEDhH4OOjNSMv0zZ4jgp/RaBCAQqACuHYDQEEqiJwtm2wlbbBqiSASZMjQAGQnFyyEgQcEtCXpGkbdCjfLDUMAQqAMFQZEwEEohE40za4vnnwe7QNRkPOLMkRoABITi5ZCQJOCvhtg/LrM2fbBhVtg04eCCy6bAEKgLLJ2AEBBGwUKLUNHlw99AvaBm3MEDHZJkABYFtGiCdwAa2MF/igDGitQCqt/mcq5T3b2jL4DWuDJDAELBCgALAgCYQQroBRmuM8XGIrR0976o+sDIygELBEgP8YLUkEYSCAAAIIIBClAAVAlNrMhQACCCCAgCUCFACWJIIwEEAAAQQQiFKAAiBKbeZCAAEEEEDAEgEKAEsSQRgIIIAAAghEKUABEKU2cyGAAAIIIGCJAAWAJYkgDAQQQAABBKIUoACIUpu5EEAAAQQQsESAAsCSRBAGAggggAACUQpQAESpzVwIIIAAAghYIkABYEkiCAMBBBBAAIEoBSgAotRmLgQQQAABBCwRoACwJBGEgQACCCCAQJQCFABRajMXAggggAAClghQAFiSCMJAAAEEEEAgSgEKgCi1mQsBBBBAAAFLBCgALEkEYSCAAAIIIBClAAVAlNrMhQACCCCAgCUCFACWJIIwEEAAAQQQiFKAAiBKbeZCAAEEEEDAEgEKAEsSQRgIIIAAAghEKUABEKU2cyGAAAIIIGCJAAWAJYkgDAQQQAABBKIUoACIUpu5EEAAAQQQsESAAsCSRBAGAggggAACUQpQAESpzVwIIIAAAghYIkABYEkiCAMBBBBAAIEoBSgAotRmLgQQQAABBCwRoACwJBGEgQACCCCAQJQCFABRajMXAggggAAClghQAFiSCMJAAAEEEEAgSgEKgCi1mQsBBBBAAAFLBCgALEkEYSCAAAIIIBClAAVAlNrMhQACCCCAgCUCFACWJIIwEEAAAQQQiFKAAiBKbeZCAAEEEEDAEgEKAEsSQRgIIIAAAghEKUABEKU2cyGAAAIIIGCJAAWAJYkgDAQQQAABBKIUoACIUpu5EEAAAQQQsESAAsCSRBAGAggggAACUQpQAESpzVwIIIAAAghYIkABYEkiCAMBBBBAAIEoBSgAotRmLgQQQAABBCwRoACwJBGEgQACCCCAQJQCFABRajMXAggggAAClghQAFiSCMJAAAEEEEAgSgEKgCi1mQsBBBBAAAFLBCgALEkEYSCAAAIIIBClAAVAlNrMhQACCCCAgCUCFACWJIIwEEAAAQQQiFKAAiBKbeZCAAEEEEDAEgEKAEsSQRgIIIAAAghEKUABEKU2cyGAAAIIIGCJAAWAJYkgDAQQQAABBKIUoACIUpu5EEAAAQQQsESAAsCSRBAGAggggAACUQpQAESpzVwIIIAAAghYIkABYEkiCAMBBBBAAIEoBSgAotRmLgQQQAABBCwRoACwJBGEgQACCCCAQJQCFABRajMXAggggAAClghQAFiSCMJAAAEEEEAgSgEKgCi1mQsBBBBAAAFLBCgALEkEYSCAAAIIIBClAAVAlNrMhQACCCCAgCUCFACWJIIwEEAAAQQQiFKAAiBKbeZCAAEEEEDAEgEKAEsSQRgIIIAAAghEKUABEKU2cyGAAAIIIGCJAAWAJYkgDAQQQAABBKIUoACIUpu5EEAAAQQQsESAAsCSRBBGeAKeSX9ae6o3vBkYGQEEEIifAAVA/HJGxGUKdPfNO9zZW5/Vxlwrux4qc3c2RwABBBIpQAGQyLSyqPEEOgsNuweOZZYqo+7xPHVsvG14DQEEEHBFgALAlUyzzlMC/f16NFeofyBdm14sHwv8EBYEEEDAVQEKAFcz7/i6O3fMH5aPBW5VRl8uZwN+7jgHy0cAAQcFKAAcTDpLfk8gV8j8/NIrMn+oPPMJefXIe+/wJwQQQCDZAhQAyc4vq5uGQEeH9nK9DVtnG72wqNQ3PaXencZubIIAAgjEWoACINbpI/ggBR4qZE705Ou/qIo1S+VjAdoGg8RlLAQQsE6AAsC6lBBQtQX8tsFu2garnQbmRwCBkAUoAEIGZvj4CpTaBovKfI62wfjmkcgRQGB8AQqA8V14FYFTAn7bYE++4dtG64W0DXJQIIBAkgQoAJKUTdYSmkBPIfMGbYOh8TIwAghUQYACoAroTBlfgVLbYLGo22UVtA3GN5VEjoDzAhQAzh8CAJQr4LcN9vRlcn7boPFoGyzXj+0RQMAOAQoAO/JAFDEU8NsGu3ppG4xh6ggZAQREgAKAwwCBGQrQNjhDQHZHAIGqCFAAVIWdSZMoUGobVLQNJjG9rAmBxAlQACQupSyomgKnnjZ4pm1QbivM0warmQzmRgCBSQUoACbl4U0EKhPw2wbltsK3FlXN/+Jpg5UZshcCCIQrQAEQri+jOy7Qk593wH/aIG2Djh8ILB8BCwUoACxMCiElS+CctsH7edpgsvLLahCIqwAFQFwzR9yxEzjTNrjJf9qg3FaYpw3GLoMEjECyBCgAkpVPVhMDAb9tUG4rnNXGXCvhHopByISIAAIJFKAASGBSWVI8BMa2DUrEv41H1ESJAAJJEaAASEomWUcsBUptg0WjFytP/SCWiyBoBBCIpQAFQCzTRtBJE/DbBnO99bf5bYPa6P1JWx/rQQAB+wQoAOzLCRE5LOC3DXYWMlcVlW6XboEhhylYOgIIhCxAARAyMMMjUIlATz6TmyMfC8jTBu+XjwZOVjIG+yCAAAKTCVAATKbDewhUUaDUNuiZmmVyW+F8FUNhagQQSKAABUACk8qSkiXgtw3KbYXX0DaYrLyyGgSqLUABUO0MMD8C0xQotQ2aor5bdqFtcJpubIYAAuMLUACM78KrCFgp4LcNdvVlvjumbVCuFeQLAQQQKF+AAqB8M/ZAoOoCY9oGV9A2WPV0EAACsRSgAIhl2ggagdMCtA1yJCCAQKUCFACVyrEfAhYJ+G2Db0rboGfM12gbtCgxhIKAxQIUABYnh9AQKEegUMic6C40fJm2wXLU2BYBdwUoANzNPStPqABtgwlNLMtCIGABCoCAQRkOAVsEaBu0JRPEgYCdAhQAduaFqBAIRIC2wUAYGQSBRApQACQyrSwKgfcL0Db4fg/+hgACSlEAcBQg4JBAqW3Q6PQGnjboUOJZKgLjCFAAjIPCSwgkXaBr5/xu2gaTnmXWh8DkAhQAk/vwLgKJFSi1Daa0XiL3DngksQtlYQggMK4ABcC4LLyIgDsCWwuZ/8j11q/laYPu5JyVIuALUABwHCCAwCkB2gY5EBBwS4ACwK18s1oEJhWgbXBSHt5EIFECFACJSieLQSAYAdoGg3FkFARsFqAAsDk7xIZAlQXGtg3KhYJDVQ6H6RFAIEABCoAAMRkKgaQK+G2D/6X1YsXTBpOaYtbloAAFgINJZ8kIVCLgtw3m5GmDtA1Wosc+CNgnQAFgX06ICAGrBUptg57SjRLoIauDJTgEEJhQgAJgQhreQACByQS685l9A8cyS01R3y3b/XaybXkPAQTsE6AAsC8nRIRAbATGtg16Rv1AApdHDPCFAAJxEKAAiEOWiBEBywX8tsHuQv1tRVWzQhu93/JwCQ8BBESAAoDDAAEEAhM42zZo0htoGwyMlYEQCEWAAiAUVgZFwG2BrgJtg24fAaw+DgIUAHHIEjEiEEMB2gZjmDRCdkqAAsCpdLNYBKIXGNs26HnqpegjYEYEEBhPgAJgPBVeQwCBwAX8tsFLr8gs0zp9lwxO22DgwgyIQHkCFADlebE1AgjMQKCjQ3udO+c/WDR6MW2DM4BkVwQCEKAACACRIRBAoDwB2gbL82JrBMIQoAAIQ5UxEUBgWgKltkFdVK20DU6LjI0QCEyAAiAwSgZCAIFKBTr76rfxtMFK9dgPgcoEKAAqc2MvBBAIWIC2wYBBGQ6BKQQoAKYA4m0EEIhWgLbBaL2ZzV0BCgB3c8/KEbBaoNQ26BnaBq1OFMHFVoACILapI3AEki/gtw12F+Y/+M473kJlzEOyYp42mPy0s8KIBCgAIoJmGgQQqFxg++MXHc0VGm7naYOVG7InAucKUACcK8LfEUDAWoGxbYNyKmDA2kAJDIEYCFAAxCBJhIgAAu8X8NsG3zR6iafS98mHAiff/y5/QwCB6QhQAExHiW0QQMA6Ab9tsDs//96UlkJAq0esC5CAELBcgALA8gQRHgIITC7gtw1276xf6yndyNMGJ7fiXQTGClAAjNXgzwggEFsB2gZjmzoCRwABBBBAIBiBW9f95gPtq4c+FcxojIIAAggggAACCCCAAAIIIIAAAggggAACCCCAAAIIIIAAAggggAACCCCAAAIIIIAAAggggAACCCCAAAIIIIAAAggggAACCCCAAAIIIIAAAggggAACCCCAAAIIIIAAAggggAACCCCAAAIIIIAAAggggAACCCCAAAIIIIAAAggggAACCCCAAAIIIIAAAggggAACCCCAAAIIIIAAAggggAACCCCAAAIIIIAAAggggAACCCCAAAIIIIAAAggggAACCCCAAAIIIIAAAggggAACCCCAAAIIIIAAAggggAACCCCAAAIIIIAAAgggUGWB/w8Q+rD1+MqZEAAAAABJRU5ErkJggg==;" parent="1" vertex="1">
          <mxGeometry x="870" y="178.16" width="103.67" height="103.67" as="geometry" />
        </mxCell>
        <mxCell id="IlMm2bm1_j7ZGz1Ir1Hr-17" value="Terraform Apply" style="shape=image;verticalLabelPosition=bottom;labelBackgroundColor=default;verticalAlign=top;aspect=fixed;imageAspect=0;image=data:image/png,iVBORw0KGgoAAAANSUhEUgAAAgAAAAIACAYAAAD0eNT6AAAAAXNSR0IArs4c6QAAAERlWElmTU0AKgAAAAgAAYdpAAQAAAABAAAAGgAAAAAAA6ABAAMAAAABAAEAAKACAAQAAAABAAACAKADAAQAAAABAAACAAAAAAAL+LWFAAA8FklEQVR4Ae3dD3Bc1X3o8XN2JUNdP79OmpHtlXgTsI3r5zFvHCiM2xiJMFP+WCvX5JkX2RJxSglTmITQhCRuylTTkIQkNH+Y1tPQNHGsleSpU4x3JQxMsWWTgcENYZ4zBGKMwzSSMCrPkxpjDNLe837X9hph69+u7r177j1fzXhs7957zu98ftfWT3fv716l+EIAAQQQQAABBBBAAAEEEEAAAQQQQAABBBBAAAEEEEAAAQQQQAABBBBAAAEEEEAAAQQQQAABBBBAAAEEEEAAAQQQQAABBBBAAAEEEEAAAQQQQAABBBBAAAEEEEAAAQQQQAABBBBAAAEEEEAAAQQQQAABBBBAAAEEEEAAAQQQQAABBBBAAAEEEEAAAQQQQAABBBBAAAEEEEAAAQQQQAABBBBAAAEEEEAAAQQQQAABBBBAAAEEEEAAAQQQQAABBBBAAAEEEEAAAQQQQAABBBBAAAEEEEAAAQQQQCCuAjpugW/c+OsLR9+Y1ZPS+q6thcx/xC1+4kUAAQQQQMAGgZQNQZQdQ0r9qWfMr9qyA1/NZodml70/OyCAAAIIIOC4QDwLAD9pKXWh0vqv/rsxL2/IHlnveB5ZPgIIIIAAAmUJxLcAKC0zpTJaF7vas0PPtra8flnpZX5HAAEEEEAAgYkF4l8AnFmb0ebKtBp9vq158J9as0MfnHjJvIMAAggggAACiSkAzqQyJR8N/Hlay8cCq4c+29RkakgxAggggAACCJwvkLQCoLTC39Np852GuUMvrm8Zurr0Ir8jgAACCCCAwGmBpBYApfwuSimzVz4W2HFLduh/lF7kdwQQQAABBFwXSHoBcDq/Z9oG19M26PrxzvoRQAABBM4IuFEA+IuVtkG5edDptsE1tA3yLwABBBBAwG0BdwqAUp79tkFD22CJg98RQAABBNwUcK8AOJNn2gbdPOBZNQIIIIDAaQFnC4AzBwBtg/xLQAABBBBwUsD1AqCU9LNtg+3ZgY+WXuR3BBBAAAEEkipAAfD+zC4yWj/Z2jK4k7bB98PwNwQQQACBZAlQAIyTz7RSLf7TBmkbHAeHlxBAAAEEEiFAATBRGs+0Df43ua1wa8tQ20Sb8ToCCCCAAAJxFKAAmCJrApRJK9PJ0wangOJtBBBAAIFYCVAATDNdtA1OE4rNEEAAAQRiIUABUF6aaBssz4utEUAAAQQsFaAAqCwxtA1W5sZeCCCAAAKWCFAAzCwRZ9sG169+/ZKZDcXeCCCAAAIIRCdAARCAtd82mNKjL2xoHvx6Njs0O4AhGQIBBBBAAIFQBSgAguKVtkGdUl+ibTAoUMZBAAEEEAhTgAIgYF0BpW0wYFOGQwABBBAIXoACIHjTUyPSNhgSLMMigAACCAQiQAEQCOOEg5xtG2xrGfjLpiZTM+GWvIEAAggggECEAhQA0WD/nlL67xrmDr3I0wajAWcWBBBAAIHJBSgAJvcJ+t1TbYPtzYMF2gaDpmU8BBBAAIFyBCgAytEKaFuTUs0qPfqi3zb4KdoGA1JlGAQQQACBcgQoAMrRCnBbgZ/ltw0e9582uJqnDQZIy1AIIIAAAtMQoACYBlKYm0gCMuk0TxsM05ixEUAAAQTOF6AAON+kKq+caRv8v60tg//cmh36YFWCYFIEEEAAAWcEKAAsS7XcVvjPtDGv0DZoWWIIBwEEEEiYAAWAhQlNpdRc2gYtTAwhIYAAAgkSoACwO5m0DdqdH6JDAAEEYitAARCD1I1pG/wGbYMxSBghIoAAAjEQoACIQZL8ECVRftvgF05o84rfNtjRIWUBXwgggAACCFQowDeRCuGquNt8v23w4M+G/r215fXLqhgHUyOAAAIIxFiAAiCmyZMLBT+cVqO0DcY0f4SNAAIIVFuAAqDaGZjh/KW2wVaeNjhDSXZHAAEE3BKgAEhAvv22wTRPG0xAJlkCAgggEJ0ABUB01lHMdKptcD1PG4zCmjkQQACBWAtQAMQ6feMHL2cESk8bpG1wfCJeRQABBJwXoABI6CEgiT3bNtjWPHALbYMJTTTLQgABBCoUoACoEC5Gu81XKf1jv22wLTv04RjFTagIIIAAAiEKUACEiGvT0H7boNLmufZmnjZoU16IBQEEEKiWAAVAteSrNK/cP/DU0wZpG6xSApgWAQQQsESAAsCSREQZBm2DUWozFwIIIGCnAAWAnXmJKiqeNhiVNPMggAAClglQAFiWkGqEU3raYGvLIG2D1UgAcyKAAAJVEKAAqAK6jVPKgTBLbit86mmDtA3amCFiQgABBIIVoAAI1jMJo9E2mIQssgYEEEBgCgEKgCmAXH271Da4fvXgj9rXHqlz1YF1I4AAAkkVoABIamYDWlcqrTYWR4ovt2UHP9/UZGoCGpZhEEAAAQSqLEABUOUExGF6v21QafWthrlDL7ZnBz4ah5iJEQEEEEBgcgEKgMl9ePf9ArQNvt+DvyGAAAKxFaAAiG3qqhc4bYPVs2dmBBBAICgBCoCgJB0bRw6c022Dxryyfg1PG3Qs/SwXAQQSIEABkIAkVnUJKTU/ZXjaYFVzwOQIIIBABQIUABWgscv5ArQNnm/CKwgggIDNAhQANmcnhrH5bYOmWHxFHjv8hQ7aBmOYQUJGAAFXBCgAXMl0tOucIxcKfuPgnMFf0TYYLTyzIYAAAtMVoACYrhTblS2QSulLjNZPtjUP9a1f/folZQ/ADggggAACoQlQAIRGy8BnBVLmRpUefZGnDZ4V4Q8IIIBA1QUoAKqeAjcCkAPtvbbB7MDGjg75kIAvBBBAAIGqCfCfcNXoHZ3YbxvU+kcHfzb0723ZoQ87qsCyEUAAgaoLUABUPQVuBlBqG2xrGfoxTxt08xhg1QggUF0BCoDq+jO7MrfQNshhgAACCEQvQAEQvTkzni9wqm3wkP+0wTW/ufH8t3kFAQQQQCBoAQqAoEUZbyYCi4xJ9a1vHnxy45++9qGZDMS+CCCAAAKTC1AATO7Du1UQkOsDPjrqeS+3rR781qeyQ7OrEAJTIoAAAokXoABIfIpju8AalVafP+E/bZC2wdgmkcARQMBegfgVAK9+yF5NIgteYEzb4C1rBy4NfgJGRAABBNwUiF8B8KFX3cyU46v22waL76a4QNDx44DlI4BAcALxKwCCWzsjIYAAAggg4KwABYCzqWfhCCCAAAIuC1AAuJx91o4AAggg4KwABYCzqWfhCCCAAAIuC1AAuJx91o4AAggg4KwABYCzqWfhCCCAAAIuC1AAuJx91o4AAggg4KwABYCzqXdn4RtaBv+MRw67k29WikAlAqtW9X78Ix/pvaSSfeO6DwVAXDNH3NMW0J7KFkeKL7dlBz+/ceOvL5z2jmyIAAKJF1i1audljY35Z9Np01NTo+cmfsFjFkgBMAaDPyZXQO4kOFdp9a1336h9YcMNQ3+S3JWyMgQQmI7AH/3Rw3VXX53/vtbqea31ldPZJ2nb1CRtQawHgckEUil9iUqZx9taBh9Lpc1dW3c0HJxse95DAIFkCTQ17ZHve29+1vP0vad+MJCfDFz94gyAq5ln3dePjugX2rMD37lj3fAcOBBAIPkCH/3oo3L27/gvlNLfOv3NP/lrnmyFFACT6fBeogXkP4Aao/Vnj70z8ooUAhs7Ogz/HhKdcRbnqkBT044PNTXt3OV5xcfF4A9cdTh33fyHd64If3dRoE4KgR+98txrz6xvfs3JzwJdTDprTr5AU9O/zJHP+b9uTM2vlEpdn/wVl7dCCoDyvNg6wQJGmytTKe/ZtpahH9M2mOBEs7TEC/hn81atym805ndeket+viQX+s1K/KIrWCAFQAVo7JJ0AXMLbYNJzzHrS6qA39a3Z0/hmXRa/0i+8dcldZ1BrIsCIAhFxkicwKkLhGgbTFxeWVByBWjrKz+3tAGWb8YeDgnQNuhQsllqLAVo66s8bZwBqNyOPd0SoG3QrXyz2hgI0NY3syRRAMzMj70dEjivbVDRNuhQ+lmqRQK09QWTDAqAYBwZxS2BU22Dh5qHnqdt0K3Es9rqCtDWF6w/BUCwnozmkkBKXUbboEsJZ63VEqCtLxx5CoBwXBnVKQHaBp1KN4uNVGDVqsKVtPWFQ04BEI4rozomQNugYwlnuaEL+G19TU35Tq29Z1x9Wl/YyLQBhi3M+E4J0DboVLpZbAgC69b9y6z//M8LP+M/rU+Gnyv/pkKYhSF9Ac4AcBwgEI4AbYPhuDJqggX8tr7XX/+dF3laXzRJpgCIxplZHBSgbdDBpLPkigTGtvXJv5tLKhqEncoWoAAom4wdEChbgLbBssnYwQUB2vqqm2UKgOr6M7tLArQNupRt1jqJAG19k+BE+BYFQITYTIXAaQHaBjkS3BWgrc+e3FMA2JMLInFIgLZBh5LNUk8J0NZn34FAG6B9OSEihwRoG3Qo2Y4ulbY+exPPGQB7c0NkbgnQNuhWvp1YLW19dqeZAsDu/BCdQwK0DTqU7IQv9dprH760qWnnLs8rPk5bn73JpgCwNzdE5q4AbYPu5j7WK/fb+hob898rFmtfkPvMXR/rxTgQPAWAA0lmiTEVGNM2uOGGgYaYroKwnRAwqVWr8huN+Z1X5L79n5Elc31ZDPJOARCDJBGi6wLmFp3Wv2pvGfjrjRt/faHrGqzfLgG/ra+xsff5dFr/SGtVZ1d0RDOZAAXAZDq8h4AtAik12yj9lXffqH1hww1Df2JLWMThrsD72/rUZe5KxHflnKaJb+6I3EEB2gYdTLplS6atz7KEzCAczgDMAI9dEaiiAG2DVcR3dWra+pKVeQqAZOWT1TgkQNugQ8mu8lJp66tyAkKangIgJFiGRSBCAdoGI8R2aSra+pKdbQqAZOeX1bkkQNugS9kOea209YUMbMXwFABWpIEgEAhSgLbBIDVdG4u2PncyTgHgTq5ZqUsCtA26lO1A1trU9GhDU1O+U2vvGennp60vEFW7B6EN0O78EB0CMxKgbXBGfE7s7Lf1vf76BV+Q+/ZvkuNltvxyYt0sUm7WDAICCDghQNugE2kub5FXX72zZXj4ghdTqdRXpKtkdnl7s3XcBSgA4p5B4kdgmgK0DU4TyoHN/LY+eWjPXvnGv1Pr1CUOLJkljiNAATAOCi8hkHAB2gYTnuCJlje2rU8e2nP1RNvxuhsCFABu5JlVInC+AG2D55sk9hXa+hKb2hksjAJgBnjsikAyBGgbTEYex18FbX3ju/AqFwFyDCCAgC9wpm1w9OisX7S1DLaAEn8B2vrin8OwV0AbYNjCjI9AvAQWSbg727KD+1I15ratOxoOxit8oqWtj2NgugJ8BDBdKbZDwCUBra4eHdEvtGcHvnPHuuE5Li09zmulrS/O2Ys+dgqA6M2ZEYFYCNA2GIs0nQqStr745MqmSCkAbMoGsSBgpwBtg3bmRa1c+dgHpJ//e8Vi7Qu09VmaJIvDogCwODmEhoBVArQNWpQOk5Jv/HfU1o68LN/4PyOBcT2XRdmJSygUAHHJFHEiYI0AbYPVTIV8zn91Y2Pv8/KN/x/kY5oPVDMW5o63AAVAvPNH9AhUR4C2wcjd/bY++an/X+X2vXt5Wl/k/ImckNNGiUwri0IgMgHaBkOmPretL+TpGN4hAc4AOJRslopAaAK0DYZCS1tfKKwMekaAAoBDAQEEAhGgbTAQxlOD0NYXnCUjTSxAATCxDe8ggEBlArQNVuZGW1+FbuxWmQAFQGVu7IUAAlMJ0DY4ldCY92nrG4PBHyMSoACICJppEHBXgLbByXJPW99kOrwXpgAFQJi6jI0AAqcFaBs870igre88El6IWIA2wIjBmQ4BxwWcbxu8/PLC7N/9Xe8vPa+4KZXSsx0/Hlh+FQU4A1BFfKZGwFmBMW2D6677jTN3s2tq2vlx+eb/K7mZz1eka4Jv/s7+A7Bj4RQAduSBKBBwTqDUNlhbm3q5NTt4R4cyif3/aNWqnZfJXfz2KpXqkW/+Dc4lmwVbKZDYf3BWahMUAgicJ+Dfzz6t1T8cah56fn3za1eet0GMX/Cf1nf11fnvy617/Xv3Xx3jpRB6AgUoABKYVJaEQCwFEtU2+F5bn3zO/yn5qZ//a2N5UCY7aA7KZOeX1SEQQ4F4tw3S1hfDQ87RkGNXAGzZcvFJ5akDjuaLZSPghkAM2wZp63Pj0EzSKmNXAPj4i67IrFBG3yZ/HE5SMlgLAgicJ1BqG9x7y9qBS89714IX/LY++an/r6Wt71fyOf9NFoRECAhMSyCWBUBHh/ZyhcwP5l5Qu1Cuqv22rHR0WqtlIwQQiKeApW2DtPXF83Ai6tMCsSwASsnbvL3ueC6/4HNK1S71PLW79Dq/I4BA8gRsahukrS95x5eLK4p1AVBKWC5fd6i7t/5aY0xWXjtUep3fEUAgeQLVbBukrS95x5PLK0pEAVBKYFehoXfRscxS7akvymvHS6/zOwIIJFAgwrbBpqY9NXIjnztqa0depq0vgceSo0tKVAHg57CjX4929tZ/U6fTC72i2uJoXlk2Ag4JhNs26Lf1yc8Tv5AL/P7BP/vgECxLTbhA4gqAUr46d8wf7u6r/6R0C1wu1wf8vPQ6vyOAQAIFQmgb/MhHei+Rn/r/Ve7hI7fwVX+QQDWW5LhAYguAUl6lW+Dnl16R+cNiUbfLa0dKr/M7AggkUmDGbYOn2/ryX0+nzYu09SXyGGFRZwQSXwD46/TbBnv6MrnZRi80nrpfbiR0kiPAHQGtFI+9difdp1cqbYNeUf9zJcuePVvfJJ/zf0nu3z+rkv3ZJ84CxqmWcicKgNLh+FAhc6Krt36TZ2qWSRHwSOl1fkcAAQQQQMA1AacKgFJyu/vmHc711q/1lG6U6wNeKr3O7wgggAACCLgi4GQBUEpudz6zT64PWKZ1+i557bel1/kdAQQQQACBpAs4XQD4yfWvD+jcOf/Bd97xFipjHpKXvKQnnfUhgAACCCDgfAFQOgS2P37R0Vyh4XajU8vltZ+WXud3BBBAAAEEkihAAXBOVrt2LvhlLl+/qmjM/5FTAQPnvM1fEUAAAQQQSIQABcAEaewpNPzLrGOZxdqov5VCgLbBCZx4GQEEEEAgngIUAJPkbUu/PtlZqP8bPWIWK6V/MsmmvIUAAggggECsBCgAppGurl0NA7l8Zp0qqj+W5wv8chq7sAkCCCCAAAJWC1AAlJGeXF/905f2ZZYbz/yFfDRwtIxd2RQBBBBAAAGrBCgAykxHh9JeV2/DP3qjF14sNxF6UH45devIMrnYHAEEEEDAUgEKgAoT07Xr949199bfVVNrlimj9lU4DLshgAACCCBQFQEKgBmyb93RcDBXqG+Uxw6v9TxzeIbDsTsCCCCAAAKRCFAABMQsjx1+ZNYHR5apYvrLMuTxgIZlGAQQQAABBEIRoAAIkHXLlotP5vrmf61mtHaxMSYX4NAMhQACCCCAQKACFACBcp4ebMujdUe6Cg3tnpe6Sp4scCCEKRgSAQQQQACBGQlQAMyIb/Kdu3sX7F90RWaFNuaTsuXw5FvzLgIIIIAAAtEJUACEbH3qaYOFhi1zL6hdKDcSekCmo20wZHOGRwABBBCYWoACYGqjQLbYvL3uuNxI6B6vWLNEefrRQAZlEAQQQAABBCoUoACoEK7S3br75h3O9WZWy8cC18oYhyodh/0QQAABBBCYiQAFwEz0ZrBvZ6Fh98CxzNKiMp+Tuwkem8FQ7IoAAggggEDZAhQAZZMFt0N/vx7tyTd822i9ULoFfiAjy5OH+UIAAQQQQCB8AQqA8I2nnKGnkHkj11t/W1HVSMeA3j/lDmyAAAIIIIDADAUoAGYIGOTuPfl5BzoLmauMTm+QcwFDQY7NWAgggAACCIwVoAAYq2HJn7t2zu/+L60XK2O+JoXASUvCIgwEEEAAgQQJUABYmsxCIXMiV2j4ckrrJZ5Wj1gaJmEhgAACCMRUgALA8sRtLWT+o3tn/VpP6UbpFnjJ8nAJDwEEEEAgJgIUADFJVHc+s+/SKzLLJNxPSyFwNCZhEyYCCCCAgKUCFACWJma8sPzbCufy9X8/MuItNir1j7INbYPjQfEaAggggMCUAhQAUxLZt8H2xy862pVf8BdGp5ZLdD+1L0IiQgABBBCwXYACwPYMTRJf184Fv5QzAquMl1pniurVSTblLQQQQAABBN4nQAHwPo54/qWrd8FPat+S2wob9TfyocCJeK6CqBFAAAEEohSgAIhSO8S5tvTrkz2F+r81RbNEptkW4lQMjQACCCCQAAEKgAQkcewSunY1DMjHAq2qqP5YzgYcGPsef0YAAQQQQKAkQAFQkkjY77m++qcXXZFZoYv6dlnacMKWx3IQQAABBGYoQAEwQ0Cbd/fbBjv7Mg/NvaB2YdGY78r9A0ZtjpfYEEAAAQSiE6AAiM66ajNt3l53vKfQcHcqVbtUioDdVQuEiRFAAAEErBGgALAmFeEHksvXHerurb9WZlojvw6FPyMzIIAAAgjYKkABYGtmQoxLLhLMLzqWWao99UW5leDxEKdiaAQQQAABSwUoACxNTNhhdfTr0c7e+m+m0+mFSumtYc/H+AgggAACdglQANiVj8ij6dwxfziXz3xCGX25XB/w88gDYEIEEEAAgaoIUABUhd2+SXOFzM/laYN/6GnzCbl/wBH7IiQiBBBAAIEgBSgAgtSM+Vh+22D3zoats7VeWFTqm3J9wLsxXxLhI4AAAghMIEABMAGMyy8/VMic6MnXf1EVa/wLBXtdtmDtCCCAQFIFKACSmtkA1tXdN++wXCiY1cb4rYO0DQZgyhAIIICALQIUALZkwuI4OgsNuwekbdAU9d0S5m8tDpXQEEAAAQSmKUABME0o1zfrl7bBrr7Md4tGL/aM+oF4yCUCfCGAAAIIxFWAAiCumatS3D2FzBvdhfrbiqpmhTZ6f5XCYFoEEEAAgRkKUADMENDV3Xvy8w50FjJXyWmAVvk14KoD60YAAQTiKkABENfMWRJ3d75+25tGLzFe+j75UOCkJWERBgIIIIDAFAIUAFMA8fbUAgVpG+zqnX+vKZrFclvhn0y9B1sggAACCFRbgAKg2hlI0PxduxoG5LbC61RR/bFXVL9M0NJYCgIIIJA4AQqAxKW0+gvK9dU/fWlfZnnRqDu1UUerHxERIIAAAgicK0ABcK4Ifw9EoENpr6dQv9kbvfBiGfDv5Rdtg4HIMggCCCAQjAAFQDCOjDKBQNeu3z+Wy9d/OpU2S5VR+ybYjJcRQAABBCIWoACIGNzV6bbuaDiYK9Q3ekp/TClz2FUH1o0AAgjYIkABYEsmHImjO595uOYDI8u8ov6yLPm4I8tmmQgggIB1AhQA1qUk+QFt2XLxye6+zNdqRmsXe57qTv6KWSECCCBgnwAFgH05cSaiLY/WHenurd/geamr5BLBA84snIUigAACFghQAFiQBNdD6O5dsH/RFZkVpqhuFYth1z1YPwIIIBCFAAVAFMrMMaVAR4f2uvrqfzj3gtqFSqW+LTuMTrkTGyCAAAIIVCxAAVAxHTuGIbB5e93xXH7B55SqXSrXB+wOYw7GRAABBBCQH7VAQMBGgVy+7pBcH3Ct1t5qie+QjTESEwIIIBBnAQqAOGfPgdg7d1706KJjmaXaU1+U+wccc2DJLBEBBBCIRKAmklmYBIEZCHT0a/96gG/OYAh2RQABBBA4R4AzAOeA8FcEEEAAAQRcEKAAcCHLrBEBBBBAAIFzBCgAzgHhrwgggAACCLggQAHgQpZZIwIIIIAAAucIUACcA8JfEUAAAQQQcEGAAsCFLLNGBBBAAAEEzhGgADgHhL8igAACCCDgggAFgAtZdnyNRaW4gZDjxwDLR2A6AjU16sR0tkvKNhQASckk65hQYOh45hPKqHvk2QIUAhMqJfANIw+ZruArnfa4QVoFbvHexXssnR5Z8m//1nw43usoL3oO9PK82DqGAv2n7yT4QPvaI1vN6OhXlNZ/Lsug+I1hLgkZgSAF5IeCwzU16b/YvTv7RJDjxmUs/hOMS6aIc8YCnTvmD+cKDbcXVc0KbfT+GQ/IAAggEEuB02cDzT3z5r29dPfuG5385u8njgIglocvQc9EoCc/78DCyxeslPPDrfJrYCZjsS8CCMRHwJMveahYbnR0ZHF/f8sD27ff/G58og8+Uj4CCN6UEWMg0NEhzxdUals2O5Sfa8y9WqnPSjl8YQxCJ0QEEKhAwBiz35jUp/v7s5z9O+PHGYAKDiR2SY5AoZA50dVbv8kzNcuU0j9JzspYCQII+ALGqGH5wf/Wa67JrnzqKb75jz0qOAMwVoM/OyvQ3TfvsCx+3fqWoauVZ76fSqk/cBaDhSOQAAH5xv+u1urbWr/91b17bz6+b18CFhXwEjgDEDAow8VboDuf2Sdtg8uLRt0pnxYejfdqiB4BNwXkdP/DxaJeKqf7N/X333zcTYWpV80ZgKmN2MIxgTNtg5vXXfebbRfM0l+nbdCxA4DlxlngJTndf/u+fWv4eX8aWeQMwDSQ2MRNge2PX3S01DYoNxLiPxQ3DwNWHQMB/2yd1uZOpeYs55v/9BPGGYDpW7GlowJ+26AsvXF9y+DH5fdvSdXc4CgFy0bAKoHTbX36ByMjszbt23c9H9mVmR3OAJQJxubuCnTn67e9afQSrcy9cpNZp+4Z7m7WWbmtAvI5/z650G/Fvn0ttz/zDN/8K8kTZwAqUWMfZwX8tkFZ/H0bbhjYolOp70iT0f92FoOFI1AFAfmpf0C6dO7Zu3fNtipMn6gpOQOQqHSymKgEunY1DOTymXWe0o1yNsD/iIAvBBAIUUA+5z8h3/zvfeut1JL+fr75B0FNARCEImM4K+C3DS7qzcizBcwnBWHYWQgWjkCIAn5bXyqVXiIX+N333HNZPn4LyJoCICBIhrFX4I51w3PCjK5Daa+z0LBl7gW1C6UQ+K78pDIa5nyMjYArAvIZ/wH5qb9x796Wj/X33zjgyrqjWicFQFTSzFM1gWNvj3S2rR781qeyQ7PDDGLz9rrjUgjcXVNr5LbC6rEw52JsBJIsUGrr27u3WS7yo6c/rFxTAIQly7gWCehZKq0+f0KbX7dnBzZ2dJhQj/utOxoO5vL1N5gRfZ3nGf8Ww3whgMD0BEbldP+DIyO1i/fsadksz+fwH9rFV0gCof5HGFLMDItApQJ1RusfHfzZ0L+3ZYc+XOkg092va1fmiVkfHFkmNxG6R36iOTbd/dgOATcFvMfS6ZFlcrr/Ltr6ojkCKACicWYWiwSkhejDSpvn2lqGfty+9khdmKFt2XLxyVyh/oF0bXqx/GSTC3MuxkYgjgJSHB+WC/yukyv7b3jyyZsOxnENcY2ZAiCumSPuAATMLaZYfGVDy+AXOppMqPfE6Nwxf7ir0NDueamrtNE8jzyA7DFEvAVOnxUz98yb9/bS3btvfCLeq4ln9BQA8cwbUQcnMEcr9Y1Dc4de3JAdaA5u2PFH6u5dsH/h5QtW0jY4vg+vJl9AruqXz/VNbnR0ZHF/f8sD27ff/G7yV23nCikA7MwLUUUvsEhrXVjfPPhkW8vwojCn7+h4r23QeOp+uZHQyTDnY2wEbBGQj8H2G5NaKd/4259++ibum1HlxFAAVDkBTG+XgFwf8FGlRl5sa3nt78K+f4DfNtjVW7+ppia1VBRoG7TrUCCaAAWkn39YfvC/9ZprsiufeirLR2AB2s5kKAqAmeixb1IF5HoA7y+PvTPyShRtg1seWfDqe22D6qWkorIu9wTkG79/ev9+rd9eKP38P/TPfrmnYO+KKQDszQ2RVV8g8rbBoeOZ5bQNVj/xRBCEgPeY1qNy3/7spv7+m48HMSJjBCtAARCsJ6MlUCDKtsH+fj1aahtUxjwknPzElMBjKuFLeqnU1tffv/bVhK811sujAIh1+gg+WgFzS1HaBtubo2kbzBUabi+qGnnQEG2D0eaZ2SoRKLX1KTVnOW19lQhGvw8FQPTmzBhjAfkHM0duJBxZ22BPft4Bv21QTgO0yq+BGNMRekIF/LY+ueX1Q6W2vv7+a3gYVkxyTQEQk0QRpnUCkbYNdufrt71p9BLaBq07DpwOSNr69smFfvLAnpbbaeuL36FAARC/nBGxRQJRtg0WCpkTftugZ2rkaYP6JxYxEIpjAvIjv5yN8lrlvv2NTz215oBjy0/McikAEpNKFlJFgbNtg3Jb4T8L+2mD3X3zDufymXWe0o1yiSD/+VYx8a5NLZ/zn5Bv/ve+9VZKru5fs8219SdtvRQAScso66mmQJ3cVvifD/1s6PkonjbYnc/sW9SbWVE06k75j/loNRfO3MkXkNP9D8vV/Uukn/++557Lnkj+ipO/QgqA5OeYFUYtkFKXRfW0wQ55XnpPoX7zyIi3WJ4v8F0pBLgAK+p8J3w++Yz/gPzU3yin+z/W338jF6ImKN8UAAlKJkuxTSC6tsHtj190tLPQcHdNrVkmNxLaZ5sE8cRPwD+rpLW5c+/eZrnIbw3HVPxSOGXEFABTErEBApULyD+wSNsGt+5oOCg3EmpURbVGoj5UeeTs6bDAqJzuf3BkpHbxnj0tm+WCU25GldCDgQIgoYllWdYJRNY26K8811efr/nAu8u1MvfKhYJ8Xmvd4WBnQH5bXzo9skxO99/1zDPXc12JnWkKLCoKgMAoGQiBqQWibBvcsuXik535hvtM0SyR/9hzU0fHFq4KGOMdlsdhr/Hb+p588qaDrjq4tm4KANcyznptEIi0bbBrV8NAV6Gh3fNSV9E2aEP67Ymh1NZXV/fO0j17mvP2REYkUQhQAEShzBwIjC9wtm1wffNrV46/SXCvdvcu2O+3DUq3wCdl1OHgRmakuAnIVf3yub7Jldr6tm+/2X9sL1+OCVAAOJZwlmuhgLQNplLesxuyA53ta4/UhRmh3zYo3QJb5l5Qu5C2wTCl7R1bPg7ab0xqZX9/SzttffbmKYrIKACiUGYOBKYhIJ/BtvlPG2zNHvlSR5ORjwnC+9q8ve742bZBpR4LbyZGtkVA+vmH5Qf/W6+5Jrvyqaey+22JiziqJ0ABUD17ZkbgPAH5BzknrYtfPzR36EU5I9B83gYBv3CqbTBff4MZ0dfJE90OBzw8w1kgIN/4/dP792v99kLp5/9hRwdtfRakxYoQKACsSANBIHCeQKRtg127Mk/M+uCIfxOhe+TT4WPnRcMLMRXwHtN6VO7bn93U33/z8ZgugrBDEqAACAmWYREIQqDUNtieHfjOHeuG5wQx5kRj+G2DchOhB9K16cW0DU6kFJvXX5IL/K6TB/bc0N+/9tXYRE2gkQpQAETKzWQIVCRQY7T+7LF3Rl7ZsDr8pw127pg/XGob1EbzWXFFKavOTqfP3ph75JOk5bt33/hEdaJg1rgIUADEJVPEiYBSdTp9+mmDUbUNLrx8wUrpF2uVXzwExuIj0G/rk2s4HhodHVksV/c/0N9/DQ+FsjhftoRGAWBLJogDgekKjGkb3Hjj8Pzp7lbJdv4FY935+m1vGr3EeOp+uZHQyUrGYZ/wBE639Sl5YE/L7U8/fRP3dwiPOnEjUwAkLqUsyBUBv23w3ZqRl1vXhN82WChkTnT11m/yTM0yeTjMT1wxtnmd8iO/nJXxWk+39a05YHOsxGanAAWAnXkhKgSmJSD/gOekzem2wbaWwZZp7TSDjbr75h3O5TPrPKUb5fPml2YwFLtWKCDuJ+Sb/71vvZWSq/vXbKOtr0JIdlMUABwECCRDYJEsY+f65sEn21qG/T+H+tWdz+wbOp5ZXjTqTvmGxFPjQtV+b3A53f9w6fa9zz2X5SmP79HwpwoEKAAqQGMXBGwViLJtsL9fj/YU6jePjHiLlTEPiYlcK8hXGAJyM58D8lN/ozyt72PcvjcMYTfHpABwM++sOtkCZ9sG27JDf97RYUL9d7798YuO5goNtxdVzQq5kdC+ZNNGuzr/7IrW5s69e5vlIr812EbLn/jZQv2PIfF6LBABuwXqlDb/dOhnQ89H0TbYk593QG4k1EjbYCAHxaic7n9wZKR28Z49LZvlwkvOrgTCyiBjBSgAxmrwZwSSKHCmbbA9O9gVdtugz1dqG9TK3CsfCvA5dZnHlHzj35dOjyyT0/13PfPM9VxfUaYfm09fgAJg+lZsiUCsBYxW60fPtA1u3PjrC8NcjN822JlvuM8UzRLaBqcnbYx3WFo718g3/sYnn7zp4PT2YisEKhegAKjcjj0RiKPAqbbB0aOzftG2Ovy2wa5dDQOltkE5G0Cv+jhHTKmtr67unaV79jTnx9mElxAIRYACIBRWBkXAeoFFKh1t2+Ci3swK2gbfOy7kqn75XN/kSm1927ff7D+2ly8EIhOgAIiMmokQsE/Abxv0vJEXWyN42mCHXMhWahvUxnxXvv05e796v63PmNRKuW9/O2199v27cCUiCgBXMs06EZhAQIqAmvSZpw1G1TbYWWi4u6bWLHOtbVC+8Q/LD/63+m19Tz2V5UmLExyTvByNAAVANM7MgkAcBCJtG9y6o+Gg3zaoimqN4ByKA1ClMco3fv/0/v1av71Q+vl/SFtfpZLsF6QABUCQmoyFQBIEIm4bzPXV52s+8O7y5LYNeo9pPSr37c9u6u+/+XgSDhHWkAwBCoBk5JFVIBC4QKltsG31kb8Ku21wy5aLT5baBqUPPhf4Yqoz4Etygd918sCeG/r7175anRCYFYGJBSgAJrbhHQQQkKcNqnTxq+++UftCVG2DXYWGds9LXaWNjuVn5HJx4zG5uv8eoVu+e/eNT3AQIWCrAAWArZkhLgQsEkil9CV+22BbdnBvJE8b7F2wf+HlC1ZKt8AnhWHYIooJQ/Hb+jzPPDQ6OrJYru5/oL//Gme7HCZE4g2rBCgArEoHwSBguYBWV0fWNtihPekW2DL3gtqFxlP3y42ETtqqIx9b7JcL/eSBPS23P/30TbEoWGy1JK7oBCgAorNmJgQSITC2bbB1zZHQnza4eXvd8a7e+k01NamlAviYTYjyI/+APAW59ZprsiufemoNdzq0KTnEMqUABcCURGyAAAITCNSlTTGypw1ueWTBq7l8/Q1mRF8nn7O/NEFMkbxcaut7662UXN2/ZluHnK2IZGImQSBAAQqAADEZCgEnBc60Da5vjuZpg127Mk8MHc8sl5sI3XP6grto1eV0/8PFol7qt/U991yWpx1Gy89sAQpQAASIyVAIuCwgHw2cetpgFG2D/f16VG4i9EC6Nr1YGfOQuEfxE/hLcsq/UZ7W97Gf/rT5sMu5Zu3JEKAASEYeWQUCtgi81zaYHfrTsIPq3DF/OFdouL2oalaE1TYoZxmOam3u9Nv65C5++8JeE+MjEJUABUBU0syDgEMCp9oGtdnhtw3esnbg0rCX3pOfd8BvG5TTAK3ySy7MC+RrVE73PzgyUrt4z56WzbT1BWLKIBYJUABYlAxCQSBxAtI2ODqiX2iP4mmDciFed75+25tGL/HbBj1TedugfOPfl06PLJPT/Xc988z1RxOXFxaEgAhoFBBIukBb81CfSpkbk77OGKxvuKjTX16yYt4Po7hqfsMN/29u167fl7vylfd11VWPzn322RvL3q+8WdgageoLUABUPwdEELIABUDIwOUO76kDnkrd1i13+yt3V7ZHAIHgBPgIIDhLRkIAgekIRNw2OJ2Q2AYBFwUoAFzMOmtGwAKBUtvg+tVDoT9t0ILlEgIC1glQAFiXEgJCwCmBOam0+eroUXnaYARtg07JslgEphCgAJgCiLcRQCAKAXnaYIRtg1GsiDkQsF2AAsD2DBEfAi4JjGkb9K/id2nprBWBqAUoAKIWZz4EEJhUwH/aoNH6syZ98pX21UOf6ugw/D81qRhvIlCZAP+wKnNjLwQQCFlACoEPmrT5/qGfDT2/vvm1K0OejuERcE6AAsC5lLNgBGImcKZtsK1lsGfjjcPzYxY94SJgrQAFgLWpITAEEDhH4OOjNSMv0zZ4jgp/RaBCAQqACuHYDQEEqiJwtm2wlbbBqiSASZMjQAGQnFyyEgQcEtCXpGkbdCjfLDUMAQqAMFQZEwEEohE40za4vnnwe7QNRkPOLMkRoABITi5ZCQJOCvhtg/LrM2fbBhVtg04eCCy6bAEKgLLJ2AEBBGwUKLUNHlw99AvaBm3MEDHZJkABYFtGiCdwAa2MF/igDGitQCqt/mcq5T3b2jL4DWuDJDAELBCgALAgCYQQroBRmuM8XGIrR0976o+sDIygELBEgP8YLUkEYSCAAAIIIBClAAVAlNrMhQACCCCAgCUCFACWJIIwEEAAAQQQiFKAAiBKbeZCAAEEEEDAEgEKAEsSQRgIIIAAAghEKUABEKU2cyGAAAIIIGCJAAWAJYkgDAQQQAABBKIUoACIUpu5EEAAAQQQsESAAsCSRBAGAggggAACUQpQAESpzVwIIIAAAghYIkABYEkiCAMBBBBAAIEoBSgAotRmLgQQQAABBCwRoACwJBGEgQACCCCAQJQCFABRajMXAggggAAClghQAFiSCMJAAAEEEEAgSgEKgCi1mQsBBBBAAAFLBCgALEkEYSCAAAIIIBClAAVAlNrMhQACCCCAgCUCFACWJIIwEEAAAQQQiFKAAiBKbeZCAAEEEEDAEgEKAEsSQRgIIIAAAghEKUABEKU2cyGAAAIIIGCJAAWAJYkgDAQQQAABBKIUoACIUpu5EEAAAQQQsESAAsCSRBAGAggggAACUQpQAESpzVwIIIAAAghYIkABYEkiCAMBBBBAAIEoBSgAotRmLgQQQAABBCwRoACwJBGEgQACCCCAQJQCFABRajMXAggggAAClghQAFiSCMJAAAEEEEAgSgEKgCi1mQsBBBBAAAFLBCgALEkEYSCAAAIIIBClAAVAlNrMhQACCCCAgCUCFACWJIIwEEAAAQQQiFKAAiBKbeZCAAEEEEDAEgEKAEsSQRgIIIAAAghEKUABEKU2cyGAAAIIIGCJAAWAJYkgDAQQQAABBKIUoACIUpu5EEAAAQQQsESAAsCSRBAGAggggAACUQpQAESpzVwIIIAAAghYIkABYEkiCAMBBBBAAIEoBSgAotRmLgQQQAABBCwRoACwJBGEgQACCCCAQJQCFABRajMXAggggAAClghQAFiSCMJAAAEEEEAgSgEKgCi1mQsBBBBAAAFLBCgALEkEYSCAAAIIIBClAAVAlNrMhQACCCCAgCUCFACWJIIwEEAAAQQQiFKAAiBKbeZCAAEEEEDAEgEKAEsSQRgIIIAAAghEKUABEKU2cyGAAAIIIGCJAAWAJYkgDAQQQAABBKIUoACIUpu5EEAAAQQQsESAAsCSRBAGAggggAACUQpQAESpzVwIIIAAAghYIkABYEkiCAMBBBBAAIEoBSgAotRmLgQQQAABBCwRoACwJBGEgQACCCCAQJQCFABRajMXAggggAAClghQAFiSCMJAAAEEEEAgSgEKgCi1mQsBBBBAAAFLBCgALEkEYSCAAAIIIBClAAVAlNrMhQACCCCAgCUCFACWJIIwEEAAAQQQiFKAAiBKbeZCAAEEEEDAEgEKAEsSQRgIIIAAAghEKUABEKU2cyGAAAIIIGCJAAWAJYkgDAQQQAABBKIUoACIUpu5EEAAAQQQsESAAsCSRBBGeAKeSX9ae6o3vBkYGQEEEIifAAVA/HJGxGUKdPfNO9zZW5/Vxlwrux4qc3c2RwABBBIpQAGQyLSyqPEEOgsNuweOZZYqo+7xPHVsvG14DQEEEHBFgALAlUyzzlMC/f16NFeofyBdm14sHwv8EBYEEEDAVQEKAFcz7/i6O3fMH5aPBW5VRl8uZwN+7jgHy0cAAQcFKAAcTDpLfk8gV8j8/NIrMn+oPPMJefXIe+/wJwQQQCDZAhQAyc4vq5uGQEeH9nK9DVtnG72wqNQ3PaXencZubIIAAgjEWoACINbpI/ggBR4qZE705Ou/qIo1S+VjAdoGg8RlLAQQsE6AAsC6lBBQtQX8tsFu2garnQbmRwCBkAUoAEIGZvj4CpTaBovKfI62wfjmkcgRQGB8AQqA8V14FYFTAn7bYE++4dtG64W0DXJQIIBAkgQoAJKUTdYSmkBPIfMGbYOh8TIwAghUQYACoAroTBlfgVLbYLGo22UVtA3GN5VEjoDzAhQAzh8CAJQr4LcN9vRlcn7boPFoGyzXj+0RQMAOAQoAO/JAFDEU8NsGu3ppG4xh6ggZAQREgAKAwwCBGQrQNjhDQHZHAIGqCFAAVIWdSZMoUGobVLQNJjG9rAmBxAlQACQupSyomgKnnjZ4pm1QbivM0warmQzmRgCBSQUoACbl4U0EKhPw2wbltsK3FlXN/+Jpg5UZshcCCIQrQAEQri+jOy7Qk593wH/aIG2Djh8ILB8BCwUoACxMCiElS+CctsH7edpgsvLLahCIqwAFQFwzR9yxEzjTNrjJf9qg3FaYpw3GLoMEjECyBCgAkpVPVhMDAb9tUG4rnNXGXCvhHopByISIAAIJFKAASGBSWVI8BMa2DUrEv41H1ESJAAJJEaAASEomWUcsBUptg0WjFytP/SCWiyBoBBCIpQAFQCzTRtBJE/DbBnO99bf5bYPa6P1JWx/rQQAB+wQoAOzLCRE5LOC3DXYWMlcVlW6XboEhhylYOgIIhCxAARAyMMMjUIlATz6TmyMfC8jTBu+XjwZOVjIG+yCAAAKTCVAATKbDewhUUaDUNuiZmmVyW+F8FUNhagQQSKAABUACk8qSkiXgtw3KbYXX0DaYrLyyGgSqLUABUO0MMD8C0xQotQ2aor5bdqFtcJpubIYAAuMLUACM78KrCFgp4LcNdvVlvjumbVCuFeQLAQQQKF+AAqB8M/ZAoOoCY9oGV9A2WPV0EAACsRSgAIhl2ggagdMCtA1yJCCAQKUCFACVyrEfAhYJ+G2Db0rboGfM12gbtCgxhIKAxQIUABYnh9AQKEegUMic6C40fJm2wXLU2BYBdwUoANzNPStPqABtgwlNLMtCIGABCoCAQRkOAVsEaBu0JRPEgYCdAhQAduaFqBAIRIC2wUAYGQSBRApQACQyrSwKgfcL0Db4fg/+hgACSlEAcBQg4JBAqW3Q6PQGnjboUOJZKgLjCFAAjIPCSwgkXaBr5/xu2gaTnmXWh8DkAhQAk/vwLgKJFSi1Daa0XiL3DngksQtlYQggMK4ABcC4LLyIgDsCWwuZ/8j11q/laYPu5JyVIuALUABwHCCAwCkB2gY5EBBwS4ACwK18s1oEJhWgbXBSHt5EIFECFACJSieLQSAYAdoGg3FkFARsFqAAsDk7xIZAlQXGtg3KhYJDVQ6H6RFAIEABCoAAMRkKgaQK+G2D/6X1YsXTBpOaYtbloAAFgINJZ8kIVCLgtw3m5GmDtA1Wosc+CNgnQAFgX06ICAGrBUptg57SjRLoIauDJTgEEJhQgAJgQhreQACByQS685l9A8cyS01R3y3b/XaybXkPAQTsE6AAsC8nRIRAbATGtg16Rv1AApdHDPCFAAJxEKAAiEOWiBEBywX8tsHuQv1tRVWzQhu93/JwCQ8BBESAAoDDAAEEAhM42zZo0htoGwyMlYEQCEWAAiAUVgZFwG2BrgJtg24fAaw+DgIUAHHIEjEiEEMB2gZjmDRCdkqAAsCpdLNYBKIXGNs26HnqpegjYEYEEBhPgAJgPBVeQwCBwAX8tsFLr8gs0zp9lwxO22DgwgyIQHkCFADlebE1AgjMQKCjQ3udO+c/WDR6MW2DM4BkVwQCEKAACACRIRBAoDwB2gbL82JrBMIQoAAIQ5UxEUBgWgKltkFdVK20DU6LjI0QCEyAAiAwSgZCAIFKBTr76rfxtMFK9dgPgcoEKAAqc2MvBBAIWIC2wYBBGQ6BKQQoAKYA4m0EEIhWgLbBaL2ZzV0BCgB3c8/KEbBaoNQ26BnaBq1OFMHFVoACILapI3AEki/gtw12F+Y/+M473kJlzEOyYp42mPy0s8KIBCgAIoJmGgQQqFxg++MXHc0VGm7naYOVG7InAucKUACcK8LfEUDAWoGxbYNyKmDA2kAJDIEYCFAAxCBJhIgAAu8X8NsG3zR6iafS98mHAiff/y5/QwCB6QhQAExHiW0QQMA6Ab9tsDs//96UlkJAq0esC5CAELBcgALA8gQRHgIITC7gtw1276xf6yndyNMGJ7fiXQTGClAAjNXgzwggEFsB2gZjmzoCRwABBBBAIBiBW9f95gPtq4c+FcxojIIAAggggAACCCCAAAIIIIAAAggggAACCCCAAAIIIIAAAggggAACCCCAAAIIIIAAAggggAACCCCAAAIIIIAAAggggAACCCCAAAIIIIAAAggggAACCCCAAAIIIIAAAggggAACCCCAAAIIIIAAAggggAACCCCAAAIIIIAAAggggAACCCCAAAIIIIAAAggggAACCCCAAAIIIIAAAggggAACCCCAAAIIIIAAAggggAACCCCAAAIIIIAAAggggAACCCCAAAIIIIAAAggggAACCCCAAAIIIIAAAggggAACCCCAAAIIIIAAAgggUGWB/w8Q+rD1+MqZEAAAAABJRU5ErkJggg==;" parent="1" vertex="1">
          <mxGeometry x="1064" y="178.16" width="103.67" height="103.67" as="geometry" />
        </mxCell>
        <mxCell id="IlMm2bm1_j7ZGz1Ir1Hr-21" value="" style="shape=curlyBracket;rounded=1;labelPosition=left;verticalLabelPosition=middle;align=right;verticalAlign=middle;size=0.5;rotation=-90;gradientColor=none;html=1;whiteSpace=wrap;horizontal=1;flipV=1;sketch=1;curveFitting=1;jiggle=2;" parent="1" vertex="1">
          <mxGeometry x="615.63" y="201.88" width="20" height="286.25" as="geometry" />
        </mxCell>
        <mxCell id="IlMm2bm1_j7ZGz1Ir1Hr-22" value="" style="shape=curlyBracket;whiteSpace=wrap;html=1;rounded=1;labelPosition=left;verticalLabelPosition=middle;align=right;verticalAlign=middle;size=0.5;rotation=-90;gradientColor=none;sketch=1;curveFitting=1;jiggle=2;" parent="1" vertex="1">
          <mxGeometry x="1008.13" y="206.88" width="20" height="276.25" as="geometry" />
        </mxCell>
        <mxCell id="IlMm2bm1_j7ZGz1Ir1Hr-23" value="CI" style="text;html=1;align=center;verticalAlign=middle;whiteSpace=wrap;rounded=0;" parent="1" vertex="1">
          <mxGeometry x="595.63" y="360" width="60" height="30" as="geometry" />
        </mxCell>
        <mxCell id="IlMm2bm1_j7ZGz1Ir1Hr-24" value="CD" style="text;html=1;align=center;verticalAlign=middle;whiteSpace=wrap;rounded=0;" parent="1" vertex="1">
          <mxGeometry x="988.13" y="358" width="60" height="30" as="geometry" />
        </mxCell>
        <mxCell id="IlMm2bm1_j7ZGz1Ir1Hr-40" style="edgeStyle=orthogonalEdgeStyle;rounded=0;orthogonalLoop=1;jettySize=auto;html=1;entryX=1;entryY=0.5;entryDx=0;entryDy=0;flowAnimation=1;exitX=0.145;exitY=0.855;exitDx=0;exitDy=0;exitPerimeter=0;" parent="1" source="IlMm2bm1_j7ZGz1Ir1Hr-27" target="IlMm2bm1_j7ZGz1Ir1Hr-39" edge="1">
          <mxGeometry relative="1" as="geometry">
            <Array as="points">
              <mxPoint x="790" y="600" />
            </Array>
          </mxGeometry>
        </mxCell>
        <mxCell id="IlMm2bm1_j7ZGz1Ir1Hr-27" value="AWS Lambda" style="outlineConnect=0;dashed=0;verticalLabelPosition=bottom;verticalAlign=top;align=center;html=1;shape=mxgraph.aws3.lambda_function;fillColor=#F58534;gradientColor=none;" parent="1" vertex="1">
          <mxGeometry x="780" y="530" width="69" height="72" as="geometry" />
        </mxCell>
        <mxCell id="IlMm2bm1_j7ZGz1Ir1Hr-28" style="edgeStyle=orthogonalEdgeStyle;rounded=0;orthogonalLoop=1;jettySize=auto;html=1;entryX=1;entryY=0.5;entryDx=0;entryDy=0;entryPerimeter=0;exitX=0.5;exitY=1;exitDx=0;exitDy=0;flowAnimation=1;" parent="1" source="IlMm2bm1_j7ZGz1Ir1Hr-24" target="IlMm2bm1_j7ZGz1Ir1Hr-27" edge="1">
          <mxGeometry relative="1" as="geometry" />
        </mxCell>
        <mxCell id="IlMm2bm1_j7ZGz1Ir1Hr-30" style="edgeStyle=orthogonalEdgeStyle;rounded=0;orthogonalLoop=1;jettySize=auto;html=1;entryX=0;entryY=0.5;entryDx=0;entryDy=0;entryPerimeter=0;exitX=0.5;exitY=1;exitDx=0;exitDy=0;flowAnimation=1;" parent="1" source="IlMm2bm1_j7ZGz1Ir1Hr-23" target="IlMm2bm1_j7ZGz1Ir1Hr-27" edge="1">
          <mxGeometry relative="1" as="geometry">
            <mxPoint x="480" y="425" as="sourcePoint" />
            <mxPoint x="580" y="592" as="targetPoint" />
          </mxGeometry>
        </mxCell>
        <mxCell id="IlMm2bm1_j7ZGz1Ir1Hr-31" value="CI/CD Failure Triggers Lambda function" style="text;html=1;align=center;verticalAlign=middle;resizable=0;points=[];autosize=1;strokeColor=none;fillColor=none;" parent="1" vertex="1">
          <mxGeometry x="710" y="483.13" width="230" height="30" as="geometry" />
        </mxCell>
        <mxCell id="IlMm2bm1_j7ZGz1Ir1Hr-32" value="Bedrock Invoke Model&amp;nbsp;&lt;div&gt;Error Message &amp;amp; Code analyser&lt;/div&gt;" style="sketch=0;points=[[0,0,0],[0.25,0,0],[0.5,0,0],[0.75,0,0],[1,0,0],[0,1,0],[0.25,1,0],[0.5,1,0],[0.75,1,0],[1,1,0],[0,0.25,0],[0,0.5,0],[0,0.75,0],[1,0.25,0],[1,0.5,0],[1,0.75,0]];outlineConnect=0;fontColor=#232F3E;fillColor=#01A88D;strokeColor=#ffffff;dashed=0;verticalLabelPosition=bottom;verticalAlign=top;align=center;html=1;fontSize=12;fontStyle=0;aspect=fixed;shape=mxgraph.aws4.resourceIcon;resIcon=mxgraph.aws4.bedrock;" parent="1" vertex="1">
          <mxGeometry x="893.67" y="760" width="80" height="80" as="geometry" />
        </mxCell>
        <mxCell id="IlMm2bm1_j7ZGz1Ir1Hr-34" value="Bedrock Invoke Model&amp;nbsp;&lt;div&gt;Remidiator&lt;/div&gt;" style="sketch=0;points=[[0,0,0],[0.25,0,0],[0.5,0,0],[0.75,0,0],[1,0,0],[0,1,0],[0.25,1,0],[0.5,1,0],[0.75,1,0],[1,1,0],[0,0.25,0],[0,0.5,0],[0,0.75,0],[1,0.25,0],[1,0.5,0],[1,0.75,0]];outlineConnect=0;fontColor=#232F3E;fillColor=#01A88D;strokeColor=#ffffff;dashed=0;verticalLabelPosition=bottom;verticalAlign=top;align=center;html=1;fontSize=12;fontStyle=0;aspect=fixed;shape=mxgraph.aws4.resourceIcon;resIcon=mxgraph.aws4.bedrock;" parent="1" vertex="1">
          <mxGeometry x="686.83" y="760" width="78" height="78" as="geometry" />
        </mxCell>
        <mxCell id="IlMm2bm1_j7ZGz1Ir1Hr-37" value="" style="endArrow=classic;startArrow=classic;html=1;rounded=0;exitX=0.5;exitY=0;exitDx=0;exitDy=0;exitPerimeter=0;flowAnimation=1;" parent="1" source="IlMm2bm1_j7ZGz1Ir1Hr-32" target="IlMm2bm1_j7ZGz1Ir1Hr-27" edge="1">
          <mxGeometry width="50" height="50" relative="1" as="geometry">
            <mxPoint x="810" y="730" as="sourcePoint" />
            <mxPoint x="810" y="630" as="targetPoint" />
          </mxGeometry>
        </mxCell>
        <mxCell id="IlMm2bm1_j7ZGz1Ir1Hr-38" value="" style="endArrow=classic;startArrow=classic;html=1;rounded=0;flowAnimation=1;exitX=0.5;exitY=0;exitDx=0;exitDy=0;exitPerimeter=0;" parent="1" source="IlMm2bm1_j7ZGz1Ir1Hr-34" target="IlMm2bm1_j7ZGz1Ir1Hr-27" edge="1">
          <mxGeometry width="50" height="50" relative="1" as="geometry">
            <mxPoint x="600" y="790" as="sourcePoint" />
            <mxPoint x="760" y="630" as="targetPoint" />
          </mxGeometry>
        </mxCell>
        <mxCell id="IlMm2bm1_j7ZGz1Ir1Hr-49" style="edgeStyle=orthogonalEdgeStyle;rounded=0;orthogonalLoop=1;jettySize=auto;html=1;exitX=0.5;exitY=0;exitDx=0;exitDy=0;flowAnimation=1;" parent="1" source="IlMm2bm1_j7ZGz1Ir1Hr-39" edge="1">
          <mxGeometry relative="1" as="geometry">
            <mxPoint x="123.83333333333348" y="297.16666666666674" as="targetPoint" />
          </mxGeometry>
        </mxCell>
        <mxCell id="IlMm2bm1_j7ZGz1Ir1Hr-39" value="GIT Pull Request" style="shape=image;html=1;verticalAlign=top;verticalLabelPosition=bottom;labelBackgroundColor=#ffffff;imageAspect=0;aspect=fixed;image=https://icons.diagrams.net/icon-cache1/Ionicons_Sharp_Vol_1-2192/git-pull-request-sharp-1186.svg" parent="1" vertex="1">
          <mxGeometry x="260" y="550" width="100" height="100" as="geometry" />
        </mxCell>
        <mxCell id="IlMm2bm1_j7ZGz1Ir1Hr-41" value="&lt;span style=&quot;background-color: light-dark(#ffffff, var(--ge-dark-color, #121212));&quot;&gt;4&lt;/span&gt;" style="ellipse;whiteSpace=wrap;html=1;" parent="1" vertex="1">
          <mxGeometry x="910" y="640" width="40" height="40" as="geometry" />
        </mxCell>
        <mxCell id="IlMm2bm1_j7ZGz1Ir1Hr-42" value="&lt;span style=&quot;background-color: light-dark(#ffffff, var(--ge-dark-color, #121212));&quot;&gt;5&lt;/span&gt;" style="ellipse;whiteSpace=wrap;html=1;" parent="1" vertex="1">
          <mxGeometry x="700" y="670" width="40" height="40" as="geometry" />
        </mxCell>
        <mxCell id="IlMm2bm1_j7ZGz1Ir1Hr-43" value="&lt;span style=&quot;background-color: light-dark(#ffffff, var(--ge-dark-color, #121212));&quot;&gt;6&lt;/span&gt;" style="ellipse;whiteSpace=wrap;html=1;" parent="1" vertex="1">
          <mxGeometry x="500" y="610" width="40" height="40" as="geometry" />
        </mxCell>
        <mxCell id="IlMm2bm1_j7ZGz1Ir1Hr-50" value="&lt;span style=&quot;background-color: light-dark(#ffffff, var(--ge-dark-color, #121212));&quot;&gt;7&lt;/span&gt;" style="ellipse;whiteSpace=wrap;html=1;" parent="1" vertex="1">
          <mxGeometry x="82" y="550" width="40" height="40" as="geometry" />
        </mxCell>
        <mxCell id="IlMm2bm1_j7ZGz1Ir1Hr-51" value="&lt;span style=&quot;background-color: light-dark(#ffffff, var(--ge-dark-color, #121212));&quot;&gt;8&lt;/span&gt;" style="ellipse;whiteSpace=wrap;html=1;" parent="1" vertex="1">
          <mxGeometry x="210" y="376" width="40" height="40" as="geometry" />
        </mxCell>
        <mxCell id="Nf3O25XHk4hPn-swXXrs-1" value="&lt;span style=&quot;background-color: light-dark(#ffffff, var(--ge-dark-color, #121212));&quot;&gt;1&lt;/span&gt;" style="ellipse;whiteSpace=wrap;html=1;" vertex="1" parent="1">
          <mxGeometry x="-46" y="277" width="40" height="40" as="geometry" />
        </mxCell>
        <mxCell id="Nf3O25XHk4hPn-swXXrs-2" value="&lt;span style=&quot;background-color: light-dark(#ffffff, var(--ge-dark-color, #121212));&quot;&gt;2&lt;/span&gt;" style="ellipse;whiteSpace=wrap;html=1;" vertex="1" parent="1">
          <mxGeometry x="191" y="171" width="40" height="40" as="geometry" />
        </mxCell>
        <mxCell id="Nf3O25XHk4hPn-swXXrs-3" value="&lt;span style=&quot;background-color: light-dark(#ffffff, var(--ge-dark-color, #121212));&quot;&gt;3&lt;/span&gt;" style="ellipse;whiteSpace=wrap;html=1;" vertex="1" parent="1">
          <mxGeometry x="802" y="432" width="40" height="40" as="geometry" />
        </mxCell>
      </root>
    </mxGraphModel>
  </diagram>
</mxfile>
